<svg width="39" height="38" viewBox="0 0 39 38" fill="none" xmlns="http://www.w3.org/2000/svg">
<path d="M11.2148 13.9521L21.9548 18.8541V32.5582L16.6628 30.0621L11.3108 27.5241L11.2148 13.9521Z" fill="#1D1D67"/>
<path d="M11.3398 13.8094L21.6298 8.90137L32.5378 13.6654L21.9418 18.8314L11.3398 13.8094Z" fill="#ED3B26"/>
<path d="M25.5589 17.2301L22.0428 18.9035L22.0761 23.5707M25.5589 17.2301L25.5738 21.8586M25.5589 17.2301L29.0963 15.4986M25.5738 21.8586L22.0761 23.5707M25.5738 21.8586L29.1111 20.1271M25.5738 21.8586L25.6085 26.5461M22.0761 23.5707L22.1057 28.2475M29.0963 15.4986L32.6336 13.7671L32.6485 18.3956M29.0963 15.4986L29.1111 20.1271M29.1111 20.1271L32.6485 18.3956M29.1111 20.1271L29.1459 24.8146M32.6485 18.3956L32.6781 23.0724M29.1459 24.8146L32.6781 23.0724M29.1459 24.8146L25.6085 26.5461M29.1459 24.8146L29.1784 29.0939M32.6781 23.0724L32.7158 27.3624L29.1784 29.0939M25.6085 26.5461L22.1057 28.2475M25.6085 26.5461L25.641 30.8254M22.1057 28.2475L22.1434 32.5374L25.641 30.8254M25.641 30.8254L29.1784 29.0939" stroke="#1D1D67" stroke-width="0.192"/>
<path d="M18.4222 17.1606L21.9549 18.7752L25.5306 17.0735M18.4222 17.1606L22.0943 15.4936M18.4222 17.1606L14.8586 15.481M22.0943 15.4936L25.5306 17.0735M22.0943 15.4936L18.6866 13.7508M22.0943 15.4936L25.5934 13.8283M25.5306 17.0735L28.999 15.3697M14.8586 15.481L11.349 13.8031L14.8814 12.122M14.8586 15.481L18.6866 13.7508M18.6866 13.7508L14.8814 12.122M18.6866 13.7508L22.0023 12.1728M14.8814 12.122L18.4138 10.4409M22.0023 12.1728L18.4138 10.4409M22.0023 12.1728L25.5934 13.8283M22.0023 12.1728L25.4046 10.5536M18.4138 10.4409L21.6359 8.90745L25.4046 10.5536M25.5934 13.8283L28.999 15.3697M25.5934 13.8283L29.0506 12.183M28.999 15.3697L32.5107 13.6452L29.0506 12.183M29.0506 12.183L25.4046 10.5536" stroke="white" stroke-width="0.191999"/>
<path d="M18.3117 17.3L21.8517 18.9221L21.8861 23.5893M18.3117 17.3L18.364 21.9282M18.3117 17.3L14.7496 15.62M18.364 21.9282L21.8861 23.5893M18.364 21.9282L14.8019 20.2482M18.364 21.9282L18.3973 26.6157M21.8861 23.5893L21.9244 28.266M14.7496 15.62L11.1875 13.94L11.2398 18.5682M14.7496 15.62L14.8019 20.2482M14.8019 20.2482L11.2398 18.5682M14.8019 20.2482L14.8352 24.9357M11.2398 18.5682L11.2781 23.245M14.8352 24.9357L11.2781 23.245M14.8352 24.9357L18.3973 26.6157M14.8352 24.9357L14.8648 29.215M11.2781 23.245L11.3026 27.535L14.8648 29.215M18.3973 26.6157L21.9244 28.266M18.3973 26.6157L18.4269 30.895M21.9244 28.266L21.949 32.5561L18.4269 30.895M18.4269 30.895L14.8648 29.215" stroke="white" stroke-width="0.192"/>
</svg>
