<svg width="1440" height="900" viewBox="0 0 1440 900" fill="none" xmlns="http://www.w3.org/2000/svg">
<g clip-path="url(#clip0_557_9)">
<rect width="1440" height="900" fill="#242424"/>
<path d="M131.893 450.841C131.893 419.245 139.018 390.902 153.267 365.811C167.516 340.411 186.876 320.587 211.347 306.338C236.128 292.089 263.541 284.964 293.588 284.964C328.901 284.964 359.722 293.483 386.052 310.519C412.381 327.556 431.586 351.717 443.667 383.003H393.021C384.038 363.488 371.028 348.465 353.991 337.933C337.264 327.401 317.13 322.135 293.588 322.135C270.976 322.135 250.686 327.401 232.72 337.933C214.754 348.465 200.66 363.488 190.438 383.003C180.216 402.208 175.105 424.821 175.105 450.841C175.105 476.551 180.216 499.163 190.438 518.678C200.66 537.883 214.754 552.752 232.72 563.284C250.686 573.815 270.976 579.081 293.588 579.081C317.13 579.081 337.264 573.97 353.991 563.748C371.028 553.216 384.038 538.193 393.021 518.678H443.667C431.586 549.654 412.381 573.66 386.052 590.697C359.722 607.424 328.901 615.788 293.588 615.788C263.541 615.788 236.128 608.818 211.347 594.879C186.876 580.63 167.516 560.96 153.267 535.87C139.018 510.779 131.893 482.436 131.893 450.841ZM548.89 578.617H662.262V613H506.607V289.146H548.89V578.617ZM749.447 289.146V613H707.165V289.146H749.447ZM1038.03 383.932C1038.03 410.882 1028.74 433.339 1010.15 451.305C991.878 468.962 963.845 477.79 926.054 477.79H863.792V613H821.51V289.146H926.054C962.606 289.146 990.329 297.974 1009.22 315.63C1028.43 333.287 1038.03 356.054 1038.03 383.932ZM926.054 442.942C949.596 442.942 966.942 437.831 978.094 427.609C989.245 417.387 994.821 402.828 994.821 383.932C994.821 343.973 971.898 323.994 926.054 323.994H863.792V442.942H926.054ZM1193.27 616.252C1171.9 616.252 1152.69 612.535 1135.65 605.101C1118.93 597.357 1105.76 586.825 1096.16 573.506C1086.56 559.876 1081.6 544.233 1081.29 526.577H1126.36C1127.91 541.755 1134.1 554.61 1144.95 565.142C1156.1 575.364 1172.21 580.475 1193.27 580.475C1213.4 580.475 1229.2 575.519 1240.66 565.607C1252.43 555.385 1258.32 542.375 1258.32 526.577C1258.32 514.187 1254.91 504.119 1248.1 496.375C1241.28 488.631 1232.76 482.746 1222.54 478.719C1212.32 474.692 1198.54 470.356 1181.19 465.709C1159.82 460.133 1142.62 454.558 1129.61 448.982C1116.91 443.406 1105.92 434.733 1096.62 422.962C1087.64 410.882 1083.15 394.774 1083.15 374.64C1083.15 356.983 1087.64 341.34 1096.62 327.711C1105.61 314.082 1118.15 303.55 1134.26 296.115C1150.68 288.681 1169.42 284.964 1190.48 284.964C1220.84 284.964 1245.62 292.553 1264.82 307.731C1284.34 322.91 1295.34 343.044 1297.81 368.135H1251.35C1249.8 355.744 1243.3 344.903 1231.83 335.61C1220.37 326.007 1205.19 321.206 1186.3 321.206C1168.64 321.206 1154.24 325.852 1143.09 335.145C1131.94 344.128 1126.36 356.828 1126.36 373.246C1126.36 385.017 1129.61 394.619 1136.12 402.053C1142.93 409.488 1151.14 415.218 1160.74 419.245C1170.66 422.962 1184.44 427.299 1202.1 432.255C1223.47 438.14 1240.66 444.026 1253.67 449.911C1266.68 455.487 1277.83 464.315 1287.13 476.396C1296.42 488.167 1301.07 504.274 1301.07 524.718C1301.07 540.516 1296.88 555.385 1288.52 569.324C1280.16 583.263 1267.77 594.569 1251.35 603.243C1234.93 611.916 1215.57 616.252 1193.27 616.252Z" fill="white"/>
</g>
<defs>
<clipPath id="clip0_557_9">
<rect width="1440" height="900" fill="white"/>
</clipPath>
</defs>
</svg>
