<svg width="600" height="600" viewBox="0 0 600 600" fill="none" xmlns="http://www.w3.org/2000/svg">
<circle cx="300" cy="300" r="300" fill="#F5F5F5"/>
<path d="M341.076 263.543C341.076 258.621 342.084 254.263 344.1 250.469C346.175 246.674 348.962 243.739 352.46 241.664C356.018 239.529 359.931 238.462 364.2 238.462C368.054 238.462 371.404 239.233 374.25 240.774C377.155 242.257 379.468 244.124 381.187 246.377V239.262H391.415V288.268H381.187V280.975C379.468 283.287 377.126 285.214 374.161 286.756C371.196 288.297 367.817 289.068 364.022 289.068C359.812 289.068 355.958 288.001 352.46 285.866C348.962 283.672 346.175 280.649 344.1 276.794C342.084 272.881 341.076 268.464 341.076 263.543ZM381.187 263.721C381.187 260.341 380.476 257.406 379.053 254.916C377.689 252.425 375.881 250.528 373.627 249.224C371.374 247.919 368.943 247.267 366.334 247.267C363.726 247.267 361.295 247.919 359.041 249.224C356.788 250.469 354.95 252.336 353.527 254.827C352.164 257.258 351.482 260.163 351.482 263.543C351.482 266.922 352.164 269.887 353.527 272.436C354.95 274.986 356.788 276.943 359.041 278.306C361.354 279.611 363.785 280.263 366.334 280.263C368.943 280.263 371.374 279.611 373.627 278.306C375.881 277.002 377.689 275.105 379.053 272.614C380.476 270.065 381.187 267.1 381.187 263.721ZM424.121 263.809L446.711 288.268H433.015L414.871 267.189V288.268H404.732V222.453H414.871V260.697L432.659 239.262H446.711L424.121 263.809ZM498.893 262.564C498.893 264.402 498.774 266.063 498.537 267.545H461.094C461.39 271.458 462.843 274.601 465.452 276.972C468.061 279.344 471.262 280.53 475.057 280.53C480.512 280.53 484.366 278.247 486.619 273.682H497.559C496.076 278.188 493.378 281.894 489.465 284.799C485.611 287.645 480.808 289.068 475.057 289.068C470.373 289.068 466.163 288.03 462.428 285.955C458.752 283.821 455.846 280.856 453.712 277.061C451.637 273.207 450.599 268.76 450.599 263.721C450.599 258.681 451.607 254.263 453.623 250.469C455.698 246.615 458.574 243.65 462.25 241.575C465.985 239.5 470.254 238.462 475.057 238.462C479.682 238.462 483.803 239.47 487.42 241.486C491.036 243.502 493.853 246.348 495.869 250.024C497.885 253.641 498.893 257.821 498.893 262.564ZM488.309 259.363C488.25 255.627 486.916 252.633 484.307 250.38C481.698 248.127 478.466 247 474.612 247C471.114 247 468.12 248.127 465.63 250.38C463.139 252.574 461.657 255.568 461.183 259.363H488.309ZM519.009 246.377C520.492 243.887 522.448 241.96 524.879 240.596C527.37 239.173 530.305 238.462 533.684 238.462V248.957H531.105C527.133 248.957 524.109 249.965 522.033 251.981C520.017 253.997 519.009 257.495 519.009 262.475V288.268H508.87V239.262H519.009V246.377Z" fill="#0F172A"/>
<path d="M266.878 216.993C266.878 216.993 265.504 207.983 266.878 202.487C272.374 180.504 319.406 180.504 324.902 202.487C326.276 207.983 324.902 216.993 324.902 216.993" stroke="#F5F5F5" stroke-width="7.25299" stroke-linecap="round"/>
<path d="M266.878 216.993C266.878 216.993 265.504 207.983 266.878 202.487C272.374 180.504 319.406 180.504 324.902 202.487C326.276 207.983 324.902 216.993 324.902 216.993" stroke="url(#paint0_linear_529_43)" stroke-width="3.62649" stroke-linecap="round"/>
<path d="M274.132 216.996L274.13 216.993V246.004L274.132 246.007V289.522H259.626V216.993H274.132V216.996ZM332.153 289.522H317.647V246.026L317.649 246.022V251.446L332.153 234.959V289.522ZM295.89 253.257L317.647 217.098V246.026L299.515 276.831H292.262L274.132 246.007V216.996L295.89 253.257ZM317.66 246.004L317.649 246.022V246.005L317.66 245.993V246.004ZM332.153 229.52L317.66 245.993V217.078L317.647 217.098V216.993H332.153V229.52ZM332.155 234.958L332.153 234.959V229.52L332.155 229.518V234.958Z" fill="url(#paint1_linear_529_43)"/>
<path d="M203.779 355.635C211.954 351.186 222.526 350.85 229.231 357.217L229.549 357.525L241.841 369.817L242.149 370.134C248.526 376.844 248.47 387.555 240.959 393.05L239.732 393.935C226.997 402.987 212.437 409.297 196.976 412.373L195.963 412.569C174.693 416.596 152.701 414.332 132.688 406.042L131.736 405.643C125.627 403.045 119.79 399.917 114.285 396.311V377.571C121.553 383.534 129.696 388.432 138.476 392.068C156.043 399.345 175.374 401.249 194.023 397.539C207.631 394.832 220.429 389.223 231.578 381.166C231.574 381.154 231.57 381.141 231.564 381.128C231.49 380.943 231.36 380.727 231.146 380.513L218.854 368.22C218.618 367.985 218.056 367.552 216.603 367.487C215.032 367.418 212.972 367.851 211.009 368.919C204.42 372.505 197.293 375.099 189.855 376.578C186.519 377.242 183.154 377.671 179.785 377.875V362.716C181.802 362.563 183.815 362.309 185.817 361.949L186.903 361.744C192.466 360.638 197.811 358.75 202.788 356.161L203.779 355.635ZM102.785 240.082C100.105 243.158 97.6118 246.412 95.3281 249.83C84.7641 265.64 79.1252 284.228 79.125 303.243C79.125 322.258 84.7639 340.848 95.3281 356.658C97.6119 360.076 100.105 363.33 102.785 366.406V387.662C95.4103 381.33 88.8584 374.029 83.3281 365.916L82.7529 365.061C70.7178 347.049 64.2055 325.922 64.0049 304.275L64 303.244C64 281.582 70.3231 260.397 82.1826 242.287L82.752 241.427C88.4019 232.971 95.1519 225.377 102.785 218.823V240.082ZM168.785 243.951C163.197 244.562 157.693 245.964 152.442 248.139L151.425 248.57C140.964 253.132 132.023 260.604 125.674 270.106C119.12 279.915 115.622 291.447 115.622 303.244C115.622 315.041 119.12 326.573 125.674 336.382C132.023 345.884 140.964 353.355 151.426 357.917L152.442 358.35C157.693 360.524 163.197 361.925 168.785 362.536V377.729C161.216 377.071 153.75 375.262 146.654 372.323C132.992 366.664 121.314 357.081 113.098 344.785C104.882 332.489 100.496 318.032 100.496 303.244C100.496 288.456 104.882 274 113.098 261.704C121.314 249.408 132.992 239.824 146.654 234.165C153.75 231.226 161.216 229.416 168.785 228.757V243.951ZM132.688 200.446C152.701 192.157 174.692 189.892 195.962 193.918L196.975 194.114C212.935 197.289 227.935 203.912 240.959 213.438C248.589 219.02 248.526 229.986 241.841 236.671L229.549 248.964L229.232 249.271C222.527 255.639 211.954 255.303 203.779 250.854L202.789 250.326C197.812 247.737 192.466 245.851 186.903 244.744L185.818 244.538C183.816 244.178 181.802 243.924 179.785 243.771V228.611C183.154 228.815 186.518 229.246 189.854 229.909C197.292 231.389 204.42 233.983 211.009 237.568C212.972 238.637 215.032 239.069 216.603 239C218.057 238.936 218.618 238.504 218.854 238.269L231.146 225.977C231.36 225.762 231.49 225.546 231.564 225.36C231.57 225.347 231.573 225.333 231.578 225.32C220.429 217.264 207.631 211.656 194.023 208.949C175.374 205.24 156.043 207.143 138.476 214.42C129.696 218.057 121.553 222.953 114.285 228.916V210.177C119.79 206.57 125.627 203.442 131.736 200.845L132.688 200.446Z" fill="url(#paint2_linear_529_43)"/>
<path d="M254.543 357.772C254.543 350.447 255.982 343.95 258.86 338.282C261.825 332.613 265.792 328.253 270.763 325.201C275.821 322.149 281.446 320.623 287.637 320.623C293.044 320.623 297.753 321.713 301.764 323.893C305.863 326.073 309.133 328.82 311.574 332.134V321.8H330.018V394.267H311.574V383.671C309.22 387.072 305.95 389.906 301.764 392.174C297.665 394.354 292.913 395.444 287.506 395.444C281.402 395.444 275.821 393.874 270.763 390.735C265.792 387.596 261.825 383.192 258.86 377.523C255.982 371.768 254.543 365.184 254.543 357.772ZM311.574 358.033C311.574 353.586 310.702 349.793 308.958 346.653C307.214 343.427 304.86 340.985 301.895 339.328C298.93 337.584 295.747 336.712 292.346 336.712C288.945 336.712 285.806 337.54 282.928 339.197C280.05 340.854 277.696 343.296 275.865 346.522C274.12 349.662 273.248 353.412 273.248 357.772C273.248 362.132 274.12 365.969 275.865 369.283C277.696 372.509 280.05 374.995 282.928 376.739C285.893 378.483 289.032 379.355 292.346 379.355C295.747 379.355 298.93 378.526 301.895 376.869C304.86 375.125 307.214 372.684 308.958 369.544C310.702 366.318 311.574 362.481 311.574 358.033ZM375.635 395.444C369.705 395.444 364.385 394.397 359.676 392.305C354.967 390.124 351.218 387.203 348.427 383.541C345.724 379.878 344.241 375.823 343.98 371.376H362.423C362.772 374.166 364.124 376.477 366.478 378.308C368.92 380.14 371.928 381.055 375.504 381.055C378.992 381.055 381.695 380.358 383.614 378.962C385.619 377.567 386.622 375.779 386.622 373.599C386.622 371.245 385.401 369.501 382.96 368.367C380.605 367.146 376.812 365.838 371.58 364.443C366.173 363.135 361.726 361.783 358.237 360.388C354.836 358.993 351.872 356.856 349.343 353.978C346.901 351.101 345.68 347.22 345.68 342.337C345.68 338.325 346.814 334.663 349.081 331.349C351.436 328.035 354.749 325.419 359.022 323.501C363.382 321.582 368.484 320.623 374.327 320.623C382.96 320.623 389.849 322.803 394.994 327.163C400.139 331.436 402.973 337.235 403.496 344.56H385.968C385.707 341.683 384.486 339.415 382.306 337.758C380.213 336.014 377.379 335.142 373.803 335.142C370.49 335.142 367.917 335.753 366.086 336.974C364.342 338.195 363.47 339.895 363.47 342.075C363.47 344.517 364.691 346.392 367.132 347.7C369.574 348.921 373.367 350.185 378.512 351.493C383.745 352.801 388.061 354.153 391.462 355.548C394.863 356.943 397.784 359.123 400.226 362.088C402.755 364.966 404.063 368.803 404.15 373.599C404.15 377.785 402.973 381.535 400.619 384.849C398.351 388.162 395.037 390.778 390.677 392.697C386.404 394.528 381.39 395.444 375.635 395.444ZM459.994 320.754C465.488 320.754 470.371 321.975 474.644 324.416C478.917 326.771 482.231 330.303 484.586 335.012C487.027 339.633 488.248 345.214 488.248 351.755V394.267H469.935V354.24C469.935 348.485 468.497 344.081 465.619 341.029C462.741 337.889 458.817 336.32 453.846 336.32C448.788 336.32 444.777 337.889 441.812 341.029C438.934 344.081 437.496 348.485 437.496 354.24V394.267H419.183V297.47H437.496V330.826C439.85 327.686 442.989 325.245 446.914 323.501C450.838 321.669 455.198 320.754 459.994 320.754Z" fill="#10B981"/>
<defs>
<linearGradient id="paint0_linear_529_43" x1="295.89" y1="186" x2="295.89" y2="216.993" gradientUnits="userSpaceOnUse">
<stop stop-color="#244287"/>
<stop offset="1" stop-color="#334F90"/>
</linearGradient>
<linearGradient id="paint1_linear_529_43" x1="295.89" y1="216.992" x2="295.89" y2="289.522" gradientUnits="userSpaceOnUse">
<stop stop-color="#334F90"/>
<stop offset="1" stop-color="#0F172A"/>
</linearGradient>
<linearGradient id="paint2_linear_529_43" x1="155.386" y1="191.977" x2="155.386" y2="414.511" gradientUnits="userSpaceOnUse">
<stop stop-color="#10B981"/>
<stop offset="1" stop-color="#0A6B4B"/>
</linearGradient>
</defs>
</svg>
