<svg width="95" height="71" viewBox="0 0 95 71" fill="none" xmlns="http://www.w3.org/2000/svg">
<path d="M47.5 70.3247C73.7335 70.3247 95 65.9407 95 60.5327C95 55.1247 73.7335 50.7407 47.5 50.7407C21.2665 50.7407 0 55.1247 0 60.5327C0 65.9407 21.2665 70.3247 47.5 70.3247Z" fill="#EE8437"/>
<path d="M52.3598 67.0169C72.2973 67.0169 88.4598 64.1137 88.4598 60.5324C88.4598 56.9511 72.2973 54.0479 52.3598 54.0479C32.4223 54.0479 16.2598 56.9511 16.2598 60.5324C16.2598 64.1137 32.4223 67.0169 52.3598 67.0169Z" fill="#ED7D2B"/>
<path d="M87.7301 52.3184V58.4975C87.7301 62.1363 76.8285 65.0859 63.3816 65.0859C49.9348 65.0859 39.0332 62.1363 39.0332 58.4975V52.3184H87.7301Z" fill="#F9B23E"/>
<path d="M63.3816 63.4907C49.9348 63.4907 39.0332 60.5411 39.0332 56.9023V58.4976C39.0332 62.1364 49.9348 65.086 63.3816 65.086C76.8285 65.086 87.7301 62.1364 87.7301 58.4976V56.9023C87.7301 60.5411 76.8285 63.4907 63.3816 63.4907Z" fill="#F4A025"/>
<path d="M63.3816 58.9068C76.8289 58.9068 87.7301 55.9571 87.7301 52.3184C87.7301 48.6797 76.8289 45.73 63.3816 45.73C49.9344 45.73 39.0332 48.6797 39.0332 52.3184C39.0332 55.9571 49.9344 58.9068 63.3816 58.9068Z" fill="#FFDA57"/>
<path d="M63.3817 58.3498C50.2796 58.3498 39.5964 55.5494 39.0564 52.04C39.0422 52.1325 39.0332 52.2253 39.0332 52.3187C39.0332 55.9574 49.9343 58.9071 63.3816 58.9071C76.8289 58.9071 87.7301 55.9574 87.7301 52.3187C87.7301 52.2253 87.7211 52.1325 87.7068 52.04C87.167 55.5494 76.4838 58.3498 63.3817 58.3498Z" fill="#FFEB88"/>
<path d="M63.3798 47.9806C69.4878 47.9806 80.9603 48.771 85.8679 51.8109C86.1057 51.9582 86.3151 52.1061 86.4959 52.2521C86.4488 51.8365 85.9659 51.3077 85.1532 50.7879C80.4015 47.748 69.2936 46.9575 63.3798 46.9575C57.4422 46.9575 46.3526 47.7514 41.6063 50.7879C40.7937 51.3077 40.3108 51.8365 40.2637 52.2521C40.4444 52.1062 40.6539 51.9582 40.8917 51.8109C45.7937 48.7745 57.2473 47.9806 63.3798 47.9806Z" fill="#F9B23E"/>
<path d="M83.9957 43.1724V49.3515C83.9957 52.9903 73.0942 55.9399 59.6473 55.9399C46.2004 55.9399 35.2988 52.9903 35.2988 49.3515V43.1724H83.9957Z" fill="#F9B23E"/>
<path d="M59.6473 54.3447C46.2004 54.3447 35.2988 51.3951 35.2988 47.7563V49.3516C35.2988 52.9904 46.2004 55.94 59.6473 55.94C73.0942 55.94 83.9957 52.9904 83.9957 49.3516V47.7563C83.9957 51.3951 73.0942 54.3447 59.6473 54.3447Z" fill="#F4A025"/>
<path d="M59.6473 49.7608C73.0945 49.7608 83.9957 46.8111 83.9957 43.1724C83.9957 39.5337 73.0945 36.584 59.6473 36.584C46.2 36.584 35.2988 39.5337 35.2988 43.1724C35.2988 46.8111 46.2 49.7608 59.6473 49.7608Z" fill="#FFDA57"/>
<path d="M59.6472 49.2033C46.5451 49.2033 35.8618 46.4029 35.322 42.8936C35.3077 42.986 35.2988 43.0788 35.2988 43.1722C35.2988 46.8109 46.2 49.7606 59.6473 49.7606C73.0946 49.7606 83.9957 46.8109 83.9957 43.1722C83.9957 43.0788 83.9867 42.986 83.9725 42.8936C83.4325 46.4029 72.7493 49.2033 59.6472 49.2033Z" fill="#FFEB88"/>
<path d="M59.6493 38.8346C65.7573 38.8346 77.2298 39.625 82.1374 42.6649C82.3751 42.8122 82.5847 42.9601 82.7655 43.1061C82.7183 42.6905 82.2354 42.1618 81.4227 41.6419C76.6711 38.602 65.5632 37.8115 59.6493 37.8115C53.7118 37.8115 42.6221 38.6054 37.8758 41.6419C37.0632 42.1618 36.5803 42.6905 36.5332 43.1061C36.7139 42.9602 36.9234 42.8122 37.1612 42.6649C42.0632 39.6285 53.5169 38.8346 59.6493 38.8346Z" fill="#F9B23E"/>
<path d="M86.4606 34.0264V40.2055C86.4606 43.8443 75.559 46.7939 62.1121 46.7939C48.6652 46.7939 37.7637 43.8443 37.7637 40.2055V34.0264H86.4606Z" fill="#F9B23E"/>
<path d="M62.1121 45.1988C48.6652 45.1988 37.7637 42.2491 37.7637 38.6104V40.2056C37.7637 43.8444 48.6652 46.794 62.1121 46.794C75.559 46.794 86.4606 43.8444 86.4606 40.2056V38.6104C86.4606 42.2491 75.559 45.1988 62.1121 45.1988Z" fill="#F4A025"/>
<path d="M62.1121 40.6148C75.5594 40.6148 86.4606 37.6651 86.4606 34.0264C86.4606 30.3877 75.5594 27.438 62.1121 27.438C48.6648 27.438 37.7637 30.3877 37.7637 34.0264C37.7637 37.6651 48.6648 40.6148 62.1121 40.6148Z" fill="#FFDA57"/>
<path d="M62.1121 40.0573C49.01 40.0573 38.3268 37.2569 37.7869 33.7476C37.7727 33.84 37.7637 33.9329 37.7637 34.0262C37.7637 37.6649 48.6648 40.6146 62.1121 40.6146C75.5594 40.6146 86.4606 37.6649 86.4606 34.0262C86.4606 33.9329 86.4515 33.84 86.4374 33.7476C85.8975 37.2569 75.2142 40.0573 62.1121 40.0573Z" fill="#FFEB88"/>
<path d="M62.1122 29.6886C68.2202 29.6886 79.6927 30.479 84.6003 33.5189C84.8381 33.6662 85.0476 33.8141 85.2283 33.9601C85.1812 33.5444 84.6983 33.0158 83.8856 32.4959C79.134 29.456 68.0261 28.6655 62.1122 28.6655C56.1746 28.6655 45.085 29.4594 40.3387 32.4959C39.5261 33.0158 39.0432 33.5445 38.9961 33.9601C39.1768 33.8141 39.3863 33.6662 39.6241 33.5189C44.5261 30.4825 55.9798 29.6886 62.1122 29.6886Z" fill="#F9B23E"/>
<path d="M80.8688 24.8804V31.0596C80.8688 34.6983 69.9672 37.648 56.5203 37.648C43.0734 37.648 32.1719 34.6983 32.1719 31.0596V24.8804H80.8688Z" fill="#F9B23E"/>
<path d="M56.5203 36.0528C43.0734 36.0528 32.1719 33.1031 32.1719 29.4644V31.0596C32.1719 34.6984 43.0734 37.648 56.5203 37.648C69.9672 37.648 80.8688 34.6984 80.8688 31.0596V29.4644C80.8688 33.1031 69.9672 36.0528 56.5203 36.0528Z" fill="#F4A025"/>
<path d="M56.5203 31.4688C69.9676 31.4688 80.8688 28.5191 80.8688 24.8804C80.8688 21.2417 69.9676 18.292 56.5203 18.292C43.073 18.292 32.1719 21.2417 32.1719 24.8804C32.1719 28.5191 43.073 31.4688 56.5203 31.4688Z" fill="#FFDA57"/>
<path d="M56.5203 30.9113C43.4182 30.9113 32.735 28.1109 32.1951 24.6016C32.1809 24.694 32.1719 24.7869 32.1719 24.8802C32.1719 28.5189 43.073 31.4686 56.5203 31.4686C69.9676 31.4686 80.8688 28.5189 80.8688 24.8802C80.8688 24.7869 80.8597 24.694 80.8456 24.6016C80.3057 28.1109 69.6225 30.9113 56.5203 30.9113Z" fill="#FFEB88"/>
<path d="M56.5204 20.5426C62.6284 20.5426 74.1009 21.333 79.0085 24.3729C79.2463 24.5202 79.4558 24.6681 79.6366 24.8141C79.5894 24.3984 79.1065 23.8698 78.2938 23.3499C73.5422 20.31 62.4343 19.5195 56.5204 19.5195C50.5828 19.5195 39.4932 20.3134 34.7469 23.3499C33.9343 23.8698 33.4514 24.3985 33.4043 24.8141C33.585 24.6681 33.7945 24.5202 34.0323 24.3729C38.9344 21.3365 50.388 20.5426 56.5204 20.5426Z" fill="#F9B23E"/>
<path d="M91.0875 15.7344V21.9136C91.0875 25.5523 80.186 28.502 66.7391 28.502C53.2922 28.502 42.3906 25.5523 42.3906 21.9136V15.7344H91.0875Z" fill="#F9B23E"/>
<path d="M66.7391 26.9063C53.2922 26.9063 42.3906 23.9566 42.3906 20.3179V21.9132C42.3906 25.5519 53.2922 28.5016 66.7391 28.5016C80.186 28.5016 91.0875 25.5519 91.0875 21.9132V20.3179C91.0875 23.9566 80.186 26.9063 66.7391 26.9063Z" fill="#F4A025"/>
<path d="M66.7391 22.3223C80.1863 22.3223 91.0875 19.3726 91.0875 15.7339C91.0875 12.0952 80.1863 9.14551 66.7391 9.14551C53.2918 9.14551 42.3906 12.0952 42.3906 15.7339C42.3906 19.3726 53.2918 22.3223 66.7391 22.3223Z" fill="#FFDA57"/>
<path d="M66.7391 21.7653C53.637 21.7653 42.9537 18.9649 42.4139 15.4556C42.3996 15.548 42.3906 15.6409 42.3906 15.7342C42.3906 19.3729 53.2918 22.3226 66.7391 22.3226C80.1864 22.3226 91.0875 19.3729 91.0875 15.7342C91.0875 15.6409 91.0785 15.548 91.0643 15.4556C90.5244 18.9649 79.8411 21.7653 66.7391 21.7653Z" fill="#FFEB88"/>
<path d="M66.7392 11.3966C72.8471 11.3966 84.3196 12.187 89.2272 15.2269C89.4651 15.3743 89.6746 15.5221 89.8553 15.6681C89.8081 15.2524 89.3253 14.7238 88.5126 14.2039C83.7609 11.164 72.653 10.3735 66.7392 10.3735C60.8016 10.3735 49.712 11.1674 44.9657 14.2039C44.1531 14.7238 43.6702 15.2525 43.623 15.6681C43.8038 15.5221 44.0133 15.3742 44.251 15.2269C49.153 12.1905 60.6067 11.3966 66.7392 11.3966Z" fill="#F9B23E"/>
<path d="M82.1012 6.58838V12.7676C82.1012 16.4063 71.1996 19.356 57.7527 19.356C44.3059 19.356 33.4043 16.4063 33.4043 12.7676V6.58838H82.1012Z" fill="#F9B23E"/>
<path d="M57.7527 17.7603C44.3059 17.7603 33.4043 14.8106 33.4043 11.1719V12.7672C33.4043 16.4059 44.3059 19.3556 57.7527 19.3556C71.1996 19.3556 82.1012 16.4059 82.1012 12.7672V11.1719C82.1012 14.8106 71.1996 17.7603 57.7527 17.7603Z" fill="#F4A025"/>
<path d="M57.7527 13.1768C71.2 13.1768 82.1012 10.2271 82.1012 6.5884C82.1012 2.94973 71.2 0 57.7527 0C44.3055 0 33.4043 2.94973 33.4043 6.5884C33.4043 10.2271 44.3055 13.1768 57.7527 13.1768Z" fill="#FFDA57"/>
<path d="M57.7527 12.6193C44.6507 12.6193 33.9674 9.81894 33.4275 6.30957C33.4133 6.40205 33.4043 6.49487 33.4043 6.58825C33.4043 10.2269 44.3054 13.1767 57.7527 13.1767C71.2 13.1767 82.1012 10.2269 82.1012 6.58825C82.1012 6.49487 82.0922 6.40205 82.078 6.30957C81.5381 9.81894 70.8549 12.6193 57.7527 12.6193Z" fill="#FFEB88"/>
<path d="M57.7548 2.25058C63.8628 2.25058 75.3353 3.04102 80.2429 6.08094C80.4807 6.22826 80.6902 6.37615 80.8709 6.52208C80.8238 6.10639 80.3409 5.57776 79.5282 5.05789C74.7765 2.01798 63.6686 1.22754 57.7548 1.22754C51.8172 1.22754 40.7276 2.02142 35.9813 5.05789C35.1687 5.57776 34.6858 6.10647 34.6387 6.52208C34.8194 6.37615 35.0289 6.22817 35.2667 6.08094C40.1688 3.04446 51.6223 2.25058 57.7548 2.25058Z" fill="#F9B23E"/>
<g opacity="0.5">
<path d="M60.0557 43.1725C60.0557 31.8589 52.3394 22.3491 41.8833 19.6152C36.2416 20.7654 32.5087 22.5641 32.1951 24.6018C32.1882 24.6469 32.1822 24.692 32.1786 24.7372C32.1743 24.7849 32.1719 24.8326 32.1719 24.8805V29.4644V31.0597C32.1719 32.6563 34.2712 34.1202 37.7632 35.2605V38.6104V40.2057C37.7632 40.2304 37.7656 40.2549 37.7666 40.2797C36.3288 41.0744 35.4656 41.9589 35.3217 42.8938C35.3147 42.9389 35.3088 42.984 35.3052 43.0293C35.3009 43.0769 35.2985 43.1246 35.2985 43.1725V47.7564V49.3517C35.2985 50.6407 36.6678 51.843 39.0324 52.8586V56.9024V58.4977C39.0324 60.6462 42.8339 62.5543 48.7152 63.757C55.5303 59.4412 60.0557 51.8356 60.0557 43.1725Z" fill="#DB8616"/>
</g>
<path d="M56.5215 40.7376C56.5215 54.1845 45.62 65.086 32.1731 65.086H28.2617V16.3892H32.1731C45.62 16.3892 56.5215 27.2899 56.5215 40.7376Z" fill="#F9B23E"/>
<path d="M32.1727 16.3892H30.7559C44.2027 16.3892 55.1043 27.2899 55.1043 40.7376C55.1043 54.1845 44.2027 65.086 30.7559 65.086H32.1727C45.6196 65.086 56.5212 54.1845 56.5212 40.7376C56.5212 27.2899 45.6196 16.3892 32.1727 16.3892Z" fill="#F4A025"/>
<path d="M28.2605 65.086C41.7078 65.086 52.609 54.1849 52.609 40.7376C52.609 27.2903 41.7078 16.3892 28.2605 16.3892C14.8133 16.3892 3.91211 27.2903 3.91211 40.7376C3.91211 54.1849 14.8133 65.086 28.2605 65.086Z" fill="#FFDA57"/>
<path d="M27.8929 34.5097C30.102 34.5097 35.4377 34.5097 36.9102 34.5097V29.2525H31.5017V25.79H26.2445V29.4474C23.1458 30.1917 20.8359 32.9857 20.8359 36.3095C20.8359 40.2007 24.0016 43.3664 27.8929 43.3664H29.8533C30.8456 43.3664 31.653 44.1738 31.653 45.1662C31.653 46.1585 30.8456 46.9659 29.8533 46.9659C27.6442 46.9659 22.3085 46.9659 20.8359 46.9659V52.2231H26.2445V55.6857H31.5017V52.0282C34.6004 51.2839 36.9102 48.4899 36.9102 45.1662C36.9102 41.275 33.7445 38.1092 29.8533 38.1092H27.8929C26.9005 38.1092 26.0932 37.3018 26.0932 36.3095C26.0932 35.3171 26.9005 34.5097 27.8929 34.5097Z" fill="#F4A025"/>
<path d="M26.6683 34.5097C28.8774 34.5097 34.2131 34.5097 35.6856 34.5097V29.2525H30.2771V25.79H25.0199V29.4474C21.9212 30.1917 19.6113 32.9857 19.6113 36.3095C19.6113 40.2007 22.777 43.3664 26.6683 43.3664H28.6287C29.621 43.3664 30.4284 44.1738 30.4284 45.1662C30.4284 46.1585 29.621 46.9659 28.6287 46.9659C26.4196 46.9659 21.0839 46.9659 19.6113 46.9659V52.2231H25.0199V55.6857H30.2771V52.0282C33.3758 51.2839 35.6856 48.4899 35.6856 45.1662C35.6856 41.275 32.5199 38.1092 28.6287 38.1092H26.6683C25.6759 38.1092 24.8685 37.3018 24.8685 36.3095C24.8685 35.3171 25.6759 34.5097 26.6683 34.5097Z" fill="#F9B23E"/>
<path d="M7.59205 40.7379C7.59205 28.8424 17.057 19.1757 28.8737 18.8537C28.6704 18.8482 28.4666 18.8447 28.2623 18.8447C16.1627 18.8447 6.36914 28.6365 6.36914 40.7379C6.36914 52.8375 16.1609 62.631 28.2623 62.631C28.4666 62.631 28.6704 62.6276 28.8737 62.622C17.0791 62.3007 7.59205 52.6547 7.59205 40.7379Z" fill="#F9B23E"/>
<path d="M48.9321 40.7379C48.9321 28.8424 39.4671 19.1757 27.6504 18.8537C27.8538 18.8482 28.0576 18.8447 28.2618 18.8447C40.3614 18.8447 50.155 28.6365 50.155 40.7379C50.155 52.8375 40.3632 62.631 28.2618 62.631C28.0576 62.631 27.8538 62.6276 27.6504 62.622C39.445 62.3007 48.9321 52.6547 48.9321 40.7379Z" fill="#FFEB88"/>
</svg>
