<svg width="107" height="73" viewBox="0 0 107 73" fill="none" xmlns="http://www.w3.org/2000/svg">
<path d="M40.7527 40.7074C43.2112 43.5655 45.2201 46.9074 46.5869 50.637C48.1495 54.9035 47.8985 60.6769 47.3155 66.2578C47.2795 66.6004 47.4899 66.9126 47.8205 67.0081C48.8814 67.3147 49.7327 67.3089 50.8013 66.9908C51.1243 66.8946 51.3299 66.5936 51.3025 66.2578C50.5001 56.4704 50.0233 46.5676 53.123 37.2354C61.1886 42.7991 72.5054 43.0905 78.569 34.1239C87.3444 21.1471 86.1896 7.95566 106.476 9.4724C60.7201 -16.435 36.2809 17.2772 49.0635 33.5034C50.4635 30.7664 52.0762 28.167 53.8725 25.7382C59.1958 18.5421 66.134 12.8448 73.9447 9.50297C76.2908 8.49902 78.7169 7.70864 81.2014 7.15413C79.7146 7.58802 78.2542 8.11398 76.8253 8.72489C69.6421 11.7979 63.2644 17.0328 58.3758 23.6413C58.1103 24.0003 57.8491 24.3636 57.5923 24.7306C52.5008 31.8349 49.0995 40.4633 48.1993 49.6773C45.3547 42.965 40.4949 37.5701 34.7478 34.0446C34.4921 33.8839 34.2347 33.7263 33.9757 33.573C29.2065 30.7487 23.8472 29.2019 18.5299 29.2423C17.472 29.2504 16.4164 29.3214 15.367 29.4572C17.0771 29.1224 18.8097 28.9526 20.5467 28.9392C26.3291 28.8956 32.1599 30.5798 37.3528 33.6554C39.1055 34.6935 40.7854 35.89 42.3661 37.2318C46.3051 23.463 22.2923 8.91716 0 37.8897C12.4217 31.3384 15.0512 39.9855 23.8956 45.7587C30.0068 49.7482 37.0774 46.4441 40.7533 40.7073L40.7527 40.7074Z" fill="url(#paint0_linear_322_43)"/>
<path d="M47.3684 67.9822C48.2202 68.2363 50.3204 68.2363 51.1722 67.9822C52.7777 67.5031 53.9449 67.805 55.0291 68.3631C60.1113 70.9797 60.9745 71.0356 65.759 71.6294C65.9648 71.6549 65.9653 71.9559 65.7593 71.9818C54.914 73.3391 43.6265 73.3391 32.7812 71.9818C32.5752 71.956 32.5758 71.655 32.7815 71.6294C37.5658 71.0356 38.4289 70.9796 43.5114 68.3631C44.5958 67.805 45.7629 67.5031 47.3684 67.9822Z" fill="#525034"/>
<defs>
<linearGradient id="paint0_linear_322_43" x1="7.77074e-06" y1="33.6169" x2="106.476" y2="33.6169" gradientUnits="userSpaceOnUse">
<stop stop-color="#77C14A"/>
<stop offset="1" stop-color="#5DA109"/>
</linearGradient>
</defs>
</svg>
