<svg width="74" height="74" viewBox="0 0 74 74" fill="none" xmlns="http://www.w3.org/2000/svg">
<path d="M37 74C16.5982 74 0 57.4018 0 37C0 16.5982 16.5982 0 37 0C57.4018 0 74 16.5982 74 37C74 57.4018 57.4018 74 37 74ZM39.206 51.7186C39.0671 51.7186 38.9339 51.772 38.8344 51.8691C38.7308 51.9694 38.6724 52.1083 38.6724 52.253V69.8634C38.6724 70.0262 38.7464 70.18 38.873 70.2811C38.9684 70.3576 39.086 70.3979 39.2068 70.3979C39.2463 70.3979 39.2858 70.3937 39.3252 70.3847C44.9534 69.1045 50.1177 63.0817 53.1386 54.2724C53.1863 54.1318 53.1739 53.9772 53.1032 53.8457C53.0325 53.7141 52.9108 53.6188 52.7661 53.5818C48.5399 52.4956 43.9831 51.8691 39.2233 51.7194C39.2167 51.7186 39.2118 51.7186 39.206 51.7186ZM34.7775 51.7194C30.0152 51.8699 25.4593 52.4972 21.2355 53.5834C21.0908 53.6204 20.9691 53.7158 20.8984 53.8473C20.8277 53.9789 20.8146 54.1335 20.8631 54.2741C23.8847 63.0817 29.0475 69.1037 34.6764 70.3839C34.7159 70.3929 34.7553 70.397 34.7948 70.397C34.9148 70.397 35.0324 70.3567 35.1278 70.2803C35.2544 70.1791 35.3284 70.0254 35.3284 69.8626V52.253C35.3284 52.1083 35.2701 51.9702 35.1664 51.8691C35.0661 51.772 34.9329 51.7186 34.7948 51.7186C34.7882 51.7194 34.7825 51.7194 34.7775 51.7194ZM17.0702 54.8833C17.0085 54.8833 16.9468 54.894 16.8884 54.9154C14.7745 55.6801 12.8431 56.5664 11.146 57.549C11.0104 57.6279 10.9158 57.7619 10.8879 57.9165C10.8599 58.0711 10.901 58.2298 11.0013 58.3506C14.2392 62.2858 18.4005 65.4884 23.0346 67.6113C23.1061 67.6442 23.1817 67.6598 23.2566 67.6598C23.4177 67.6598 23.5756 67.5867 23.6792 67.4526C23.8313 67.2561 23.828 66.9815 23.671 66.7883C21.1558 63.6951 19.1052 59.8117 17.5766 55.2476C17.5306 55.1111 17.4319 54.9993 17.3029 54.936C17.2297 54.9014 17.1499 54.8833 17.0702 54.8833ZM56.9315 54.8784C56.8517 54.8784 56.772 54.8965 56.6988 54.9318C56.5697 54.9943 56.471 55.107 56.425 55.2435C54.8957 59.8093 52.8442 63.6934 50.3282 66.7891C50.172 66.9823 50.1687 67.257 50.3208 67.4535C50.4244 67.5875 50.5823 67.6607 50.7434 67.6607C50.8183 67.6607 50.8939 67.6451 50.9663 67.6122C55.6011 65.4892 59.7616 62.2866 62.9978 58.3523C63.0973 58.2314 63.1384 58.0727 63.1113 57.9182C63.0833 57.7636 62.9896 57.6296 62.8531 57.5506C61.1388 56.5574 59.2082 55.6694 57.114 54.9113C57.0548 54.8891 56.9932 54.8784 56.9315 54.8784ZM59.732 38.6716C59.4442 38.6716 59.2074 38.9002 59.1984 39.1879C59.061 43.2974 58.5307 47.2909 57.6222 51.0575C57.5588 51.3239 57.706 51.5953 57.9634 51.6865C60.5336 52.5959 62.863 53.6673 64.8881 54.871C64.9736 54.922 65.0674 54.9458 65.1603 54.9458C65.3395 54.9458 65.5138 54.8562 65.615 54.6934C68.4985 50.0462 70.2137 44.7034 70.5746 39.2406C70.5837 39.0934 70.5327 38.9478 70.4316 38.8401C70.3304 38.7324 70.189 38.6708 70.041 38.6708L59.732 38.6716ZM3.959 38.6716C3.811 38.6716 3.66957 38.7332 3.56844 38.841C3.46813 38.9487 3.41633 39.0942 3.42538 39.2414C3.78633 44.7026 5.50067 50.0454 8.38338 54.6918C8.48369 54.8546 8.65882 54.9442 8.83806 54.9442C8.93097 54.9442 9.02471 54.9203 9.11022 54.8694C11.1337 53.6681 13.4639 52.5984 16.0366 51.6874C16.294 51.5961 16.4412 51.3248 16.3778 51.0584C15.4693 47.2909 14.9398 43.2974 14.8016 39.1879C14.7926 38.9002 14.5558 38.6716 14.268 38.6716H3.959ZM18.6866 38.6716C18.5419 38.6716 18.4022 38.7308 18.3018 38.8352C18.2015 38.9396 18.1473 39.081 18.153 39.2258C18.2961 42.9406 18.7911 46.5666 19.6232 50.0051C19.6569 50.144 19.7448 50.2641 19.8682 50.3381C19.952 50.3882 20.0466 50.4137 20.1428 50.4137C20.188 50.4137 20.2332 50.408 20.2776 50.3965C24.8393 49.2084 29.7291 48.5284 34.8112 48.3754C35.0998 48.3664 35.3292 48.1304 35.3292 47.8418V39.206C35.3292 38.9108 35.09 38.6716 34.7948 38.6716H18.6866ZM39.206 38.6716C38.9108 38.6716 38.6716 38.9108 38.6716 39.206V47.8418C38.6716 48.1304 38.901 48.3672 39.1896 48.3754C44.275 48.5284 49.1648 49.2075 53.724 50.3948C53.7684 50.4063 53.8136 50.4121 53.8588 50.4121C53.955 50.4121 54.0496 50.3866 54.1335 50.3364C54.2568 50.2633 54.3448 50.1432 54.3785 50.0043C55.2098 46.5674 55.7039 42.9422 55.8478 39.2274C55.8536 39.0827 55.8001 38.9413 55.699 38.8368C55.5987 38.7324 55.4589 38.6732 55.3142 38.6732H39.206V38.6716ZM65.1603 19.0542C65.0674 19.0542 64.9736 19.078 64.8881 19.129C62.8646 20.3311 60.5353 21.4024 57.9634 22.3135C57.706 22.4047 57.5588 22.6761 57.6222 22.9425C58.5307 26.7091 59.0602 30.7026 59.1984 34.8121C59.2074 35.0998 59.4442 35.3284 59.732 35.3284H70.041C70.189 35.3284 70.3304 35.2668 70.4316 35.159C70.5319 35.0513 70.5837 34.9058 70.5746 34.7586C70.2137 29.2966 68.4985 23.953 65.615 19.3066C65.5138 19.1438 65.3395 19.0542 65.1603 19.0542ZM53.8588 23.5879C53.8136 23.5879 53.7684 23.5937 53.724 23.6052C49.1664 24.7925 44.2767 25.4716 39.1896 25.6246C38.901 25.6328 38.6716 25.8696 38.6716 26.1582V34.7932C38.6716 35.0883 38.9108 35.3276 39.206 35.3276H55.3134C55.4581 35.3276 55.5978 35.2684 55.6982 35.164C55.7985 35.0596 55.8527 34.9181 55.847 34.7726C55.7039 31.0586 55.2098 27.4326 54.3777 23.9957C54.344 23.8568 54.256 23.7367 54.1326 23.6636C54.0496 23.6142 53.955 23.5879 53.8588 23.5879ZM20.142 23.5863C20.0458 23.5863 19.9512 23.6118 19.8674 23.6619C19.744 23.7359 19.656 23.8551 19.6223 23.9949C18.7902 27.4334 18.2953 31.0594 18.1522 34.7734C18.1464 34.9181 18.1999 35.0596 18.301 35.1648C18.4013 35.2692 18.5411 35.3284 18.6858 35.3284H34.7932C35.0883 35.3284 35.3276 35.0892 35.3276 34.794V26.159C35.3276 25.8704 35.0982 25.6336 34.8096 25.6254C29.7274 25.4724 24.8377 24.7925 20.276 23.6044C20.2324 23.592 20.1872 23.5863 20.142 23.5863ZM8.83806 19.0558C8.65882 19.0558 8.48451 19.1454 8.38338 19.3082C5.50067 23.9546 3.78633 29.2974 3.42538 34.7586C3.41633 34.9058 3.46731 35.0513 3.56844 35.159C3.66957 35.2668 3.811 35.3284 3.959 35.3284H14.268C14.5558 35.3284 14.7926 35.0998 14.8016 34.8121C14.9398 30.7026 15.4693 26.7091 16.3778 22.9416C16.4412 22.6752 16.294 22.4039 16.0366 22.3126C13.4614 21.4016 11.1312 20.3311 9.11022 19.1306C9.02471 19.0805 8.93097 19.0558 8.83806 19.0558ZM39.206 3.60298C39.086 3.60298 38.9684 3.64327 38.8722 3.71973C38.7456 3.82087 38.6716 3.97462 38.6716 4.13742V21.7478C38.6716 21.8925 38.73 22.0306 38.8336 22.1318C38.9339 22.2288 39.0671 22.2822 39.2052 22.2822C39.211 22.2822 39.2159 22.2822 39.2216 22.2822C43.9848 22.1326 48.5415 21.506 52.7645 20.4199C52.9092 20.3829 53.0309 20.2875 53.1016 20.156C53.1723 20.0244 53.1855 19.8698 53.1369 19.7292C50.1169 10.9208 44.9525 4.89715 39.3236 3.61695C39.285 3.60709 39.2455 3.60298 39.206 3.60298ZM34.794 3.60298C34.7545 3.60298 34.7142 3.60709 34.6756 3.61613C29.0475 4.89633 23.8839 10.9191 20.8622 19.7259C20.8146 19.8674 20.8269 20.0219 20.8976 20.1527C20.9683 20.2834 21.09 20.3796 21.2347 20.4166C25.4609 21.5036 30.0177 22.1309 34.7767 22.2814C34.7817 22.2814 34.7874 22.2814 34.7932 22.2814C34.9321 22.2814 35.0653 22.228 35.1648 22.1309C35.2684 22.0298 35.3268 21.8917 35.3268 21.747V4.1366C35.3268 3.9738 35.2528 3.82087 35.1262 3.71891C35.0324 3.64327 34.914 3.60298 34.794 3.60298ZM50.7434 6.34015C50.5823 6.34015 50.4244 6.41333 50.3208 6.54736C50.1687 6.74387 50.172 7.01849 50.3282 7.21171C52.8442 10.3074 54.8957 14.1916 56.425 18.7574C56.471 18.8938 56.5697 19.0057 56.6988 19.0682C56.772 19.1035 56.8517 19.1216 56.9315 19.1216C56.9932 19.1216 57.0548 19.1109 57.1132 19.0895C59.2123 18.3298 61.1437 17.4418 62.8531 16.4502C62.9888 16.3713 63.0825 16.2372 63.1105 16.0827C63.1385 15.9281 63.0965 15.7694 62.997 15.6485C59.7599 11.7134 55.5995 8.51082 50.9646 6.38867C50.8939 6.35578 50.8183 6.34015 50.7434 6.34015ZM23.2566 6.34015C23.1817 6.34015 23.1061 6.35578 23.0346 6.38867C18.3997 8.51165 14.2384 11.7142 11.0013 15.6494C10.9018 15.7702 10.8607 15.9289 10.8879 16.0835C10.9158 16.2381 11.0104 16.3721 11.146 16.451C12.8415 17.4336 14.7737 18.3199 16.8884 19.0846C16.9468 19.106 17.0085 19.1167 17.0702 19.1167C17.1499 19.1167 17.2288 19.0986 17.3029 19.0632C17.4319 19.0007 17.5306 18.8881 17.5766 18.7524C19.106 14.1883 21.1566 10.3057 23.671 7.21171C23.8272 7.01849 23.8305 6.74387 23.6792 6.54736C23.5756 6.41333 23.4177 6.34015 23.2566 6.34015Z" fill="#0094D9"/>
</svg>
