<svg width="126" height="125" viewBox="0 0 126 125" fill="none" xmlns="http://www.w3.org/2000/svg">
<mask id="mask0_271_142" style="mask-type:luminance" maskUnits="userSpaceOnUse" x="0" y="0" width="126" height="125">
<path d="M0 0.00154877H125.887V124.75H0V0.00154877Z" fill="white"/>
</mask>
<g mask="url(#mask0_271_142)">
<path d="M33.9579 26.3667C37.8156 26.3718 40.8562 29.415 40.8588 33.2732C40.8613 37.1144 37.7921 40.1842 33.9516 40.1816C30.113 40.1785 27.0539 37.1138 27.0508 33.2669C27.0476 29.4194 30.1079 26.3616 33.9579 26.3667Z" fill="#ED3B26"/>
<path d="M91.1238 40.0761C87.3434 40.0667 84.2755 37.0026 84.2793 33.2399C84.2831 29.4664 87.3611 26.4131 91.1377 26.4333C94.9213 26.4549 97.9506 29.5329 97.9145 33.3183C97.8797 37.0241 94.8023 40.0856 91.1238 40.0761Z" fill="#1D1D67"/>
<path d="M80.0081 90.377L62.8899 62.9705L45.7096 90.377H80.0081ZM85.9362 99.8166H39.7827L33.1274 110.475H16.5547L62.4051 38.9148H63.3126L109.164 110.475H92.5903L85.9362 99.8166Z" fill="#1D1D67"/>
<path d="M62.0865 23.389C64.1355 21.5089 63.9198 18.5733 66.0118 17.2456C66.1783 17.3 66.3441 17.3538 66.5099 17.4083V24.9071C68.4918 23.7244 70.0928 22.7694 71.6477 21.8417C72.6829 22.26 72.5001 22.8498 72.0868 23.4788C71.1806 24.8565 70.2637 26.2271 69.3626 27.6086C69.1019 28.0085 68.8804 28.4344 68.6386 28.8527C69.9195 30.26 72.4102 29.2456 73.4145 31.3409C71.8875 32.1515 70.6143 32.7559 69.0601 32.0623C67.368 31.308 65.7473 31.5782 64.2646 32.6622C63.2901 33.3747 62.2928 33.495 61.3075 32.7527C59.5995 31.4668 57.8011 31.3662 55.8913 32.2129C54.8528 32.6736 53.8479 32.8603 52.998 31.7699C53.193 29.7968 54.9794 31.651 55.685 30.4917C55.0009 28.654 54.263 26.6739 53.5404 24.7362C54.0523 23.7933 54.5896 23.9256 55.1869 24.473C55.9514 25.1748 56.7228 25.8702 57.7695 26.8207C58.0137 25.819 58.2023 25.2089 58.3073 24.5856C58.6181 22.741 58.8636 20.8843 59.2053 19.046C59.3034 18.5201 59.6426 18.0385 59.871 17.5374C60.0906 17.543 60.3102 17.5487 60.5298 17.5532C61.0227 19.4022 61.5163 21.2513 62.0865 23.389Z" fill="#ED3B26"/>
<path d="M52.064 43.6611L58.1447 34.1714C53.9422 35.7826 49.7517 37.4285 45.5144 38.9428C44.0716 39.4586 42.4845 39.5655 40.9715 39.8965C40.376 40.0262 39.7191 40.1338 39.2319 40.4603C35.8533 42.7283 32.0406 42.7397 28.6848 40.4521C28.3184 40.2028 27.8628 39.9414 27.4451 39.9351C25.2954 39.9034 23.3388 40.3774 21.5682 41.781C16.7164 45.6285 14.0972 50.6973 13.0353 56.6863C12.6778 58.7043 13.6675 60.2825 15.4774 60.5743C17.2233 60.8552 18.6408 59.5548 18.8408 57.4811C19.08 55.008 19.6761 52.6325 21.217 50.6404C22.063 49.5475 23.1445 48.6356 24.1197 47.6421C24.4791 48.1623 24.5323 48.4407 24.5475 48.7204C24.7601 52.7261 25.0031 56.7299 25.1714 60.7363L25.1765 60.7337L25.191 61.202C25.2069 61.5906 25.2258 61.9785 25.2398 62.3677C25.272 63.2612 25.3094 64.1661 25.3144 65.0691L25.9302 84.4478L43.8533 56.4755C43.8539 56.4616 43.8539 56.4471 43.8546 56.4338C43.9311 55.0878 43.8755 53.7336 43.8596 52.3838C43.8558 52.0319 43.7755 51.6801 43.7185 51.227C41.853 51.6674 40.1317 52.075 38.4098 52.4812C39.8919 51.2707 41.4562 50.2917 43.0212 49.3134C46.0352 47.4282 49.0506 45.5462 52.064 43.6611Z" fill="#ED3B26"/>
<path d="M100.233 51.3649C100.244 51.1548 100.263 50.9454 100.276 50.7353L100.289 50.4948L100.293 50.4999C100.357 49.581 100.434 48.6628 100.505 47.744C100.629 47.6763 100.754 47.6079 100.879 47.5396C101.733 48.3281 102.678 49.0393 103.423 49.9208C105.255 52.0889 106.076 54.6758 106.31 57.4792C106.48 59.5168 107.819 60.6742 109.636 60.4084C111.29 60.1667 112.287 58.6935 111.903 56.8299C111.547 55.0991 111.169 53.3513 110.558 51.7009C108.903 47.2263 106.201 43.4927 102.064 41.0045C100.069 39.8041 97.9524 39.5927 95.7597 40.9273C92.547 42.8814 89.2709 42.708 86.0689 40.747C85.6151 40.4692 85.0956 40.1198 84.6033 40.1154C82.2682 40.092 80.135 39.3484 78.0018 38.5207C74.6396 37.2178 71.268 35.9376 67.8926 34.6682L73.9638 44.1439C77.867 46.5809 81.7695 49.0178 85.6727 51.4554C86.2188 51.7959 86.7643 52.1376 87.3098 52.4787C87.2674 52.5641 87.2244 52.6483 87.182 52.7337C85.2861 52.2857 83.3902 51.837 81.3544 51.3561C81.3202 52.0851 81.2778 52.5806 81.2772 53.0754C81.2766 53.9031 81.2772 54.7296 81.2772 55.5573L98.558 82.5259L99.8357 58.8878C99.9635 56.38 100.099 53.8728 100.233 51.3649Z" fill="#1D1D67"/>
</g>
</svg>
