<svg width="9568" height="5297" viewBox="0 0 9568 5297" fill="none" xmlns="http://www.w3.org/2000/svg">
<path d="M2206.75 4123.13V3938.51H2252.15V4008.65H2392.64V3938.51H2437.64V4123.13H2392.64V4045.33H2252.15V4123.13H2206.75Z" fill="#ED3B26"/>
<path d="M2561.92 4048.94H2646.57L2603.5 3971.99L2561.92 4048.94ZM2474.53 4123.13L2584.11 3938.53H2627.37L2738.65 4123.13H2688.13L2664.9 4082.63H2542.75L2519.52 4123.13H2474.53Z" fill="#ED3B26"/>
<mask id="mask0_25_3" style="mask-type:luminance" maskUnits="userSpaceOnUse" x="0" y="-764" width="9568" height="6061">
<path d="M0 -764H9567.79V5296.26H0V-764Z" fill="white"/>
</mask>
<g mask="url(#mask0_25_3)">
<path d="M2929.03 3972.41H2807.72V4087.73H2929.03V4048.52L2974.43 4057.69V4079.44C2974.43 4096.19 2971.09 4107.68 2964.41 4113.85C2957.74 4120.04 2944.96 4123.13 2926.06 4123.13H2810.71C2792.09 4123.13 2779.45 4120.07 2772.77 4113.98C2766.08 4107.85 2762.75 4096.36 2762.75 4079.44V3982.01C2762.75 3965.24 2766.05 3953.8 2772.67 3947.69C2779.28 3941.57 2791.94 3938.51 2810.71 3938.51H2926.06C2945.08 3938.51 2957.9 3941.57 2964.53 3947.69C2971.15 3953.8 2974.43 3965.24 2974.43 3982.01V3999.92L2929.03 4006.52V3972.41Z" fill="#ED3B26"/>
<path d="M3030.93 4123.13V3938.51H3228.97V3971.14H3076.33V4011.44H3165.24V4043.2H3076.33V4088.6H3231.3V4123.13H3030.93Z" fill="#ED3B26"/>
<path d="M3324.3 4088.6H3382.29C3413.98 4088.6 3436.15 4083.97 3448.8 4074.74C3461.44 4065.5 3467.77 4049.95 3467.77 4028.06C3467.77 4009 3462.51 3994.84 3451.99 3985.52C3441.48 3976.22 3425.34 3971.56 3403.6 3971.56H3324.3V4088.6ZM3278.89 4123.13V3938.51H3403.18C3438.85 3938.51 3466.24 3946.43 3485.35 3962.29C3504.48 3978.14 3514.02 4000.78 3514.02 4030.19C3514.02 4061.17 3503.91 4084.42 3483.64 4099.9C3463.39 4115.38 3432.81 4123.13 3391.89 4123.13H3278.89Z" fill="#ED3B26"/>
<path d="M3604.82 4087.73H3753.62V3972.41H3604.82V4087.73ZM3559.85 3982C3559.85 3965.24 3563.11 3953.8 3569.65 3947.68C3576.19 3941.57 3588.91 3938.51 3607.81 3938.51H3750.65C3769.67 3938.51 3782.44 3941.57 3788.92 3947.68C3795.37 3953.8 3798.61 3965.24 3798.61 3982V4079.44C3798.61 4096.36 3795.29 4107.85 3788.69 4113.97C3782.08 4120.07 3769.4 4123.13 3750.65 4123.13H3607.81C3588.91 4123.13 3576.19 4120.07 3569.65 4113.97C3563.11 4107.85 3559.85 4096.36 3559.85 4079.44V3982Z" fill="#ED3B26"/>
<path d="M4006.06 3970.28H3903.31V4021.46H4006.06C4013.87 4021.46 4019.24 4020.32 4022.15 4018.06C4025.08 4015.78 4026.53 4011.92 4026.53 4006.54V3985.21C4026.53 3979.82 4025.08 3975.98 4022.15 3973.7C4019.24 3971.42 4013.87 3970.28 4006.06 3970.28ZM3858.97 4123.13V3938.53H4025.24C4040.45 3938.53 4051.46 3941.33 4058.29 3946.94C4065.13 3952.55 4068.53 3961.7 4068.53 3974.35V4017.83C4068.53 4030.34 4065.13 4039.36 4058.29 4044.91C4051.46 4050.44 4040.45 4053.22 4025.24 4053.22H3999.89L4087.7 4123.13H4023.13L3945.74 4053.22H3903.31V4123.13H3858.97Z" fill="#ED3B26"/>
<path d="M4322.21 4088.6H4380.2C4411.9 4088.6 4434.07 4083.97 4446.71 4074.74C4459.36 4065.5 4465.69 4049.95 4465.69 4028.06C4465.69 4009 4460.44 3994.84 4449.91 3985.52C4439.39 3976.22 4423.25 3971.56 4401.52 3971.56H4322.21V4088.6ZM4276.82 4123.13V3938.51H4401.1C4436.77 3938.51 4464.16 3946.43 4483.27 3962.29C4502.39 3978.14 4511.93 4000.78 4511.93 4030.19C4511.93 4061.17 4501.82 4084.42 4481.56 4099.9C4461.32 4115.38 4430.72 4123.13 4389.8 4123.13H4276.82Z" fill="#ED3B26"/>
<path d="M4562.27 4123.13V3938.51H4760.31V3971.14H4607.67V4011.44H4696.58V4043.2H4607.67V4088.6H4762.65V4123.13H4562.27Z" fill="#ED3B26"/>
<path d="M5108.88 3970.28H5006.13V4021.46H5108.88C5116.69 4021.46 5122.05 4020.32 5124.97 4018.06C5127.9 4015.78 5129.35 4011.92 5129.35 4006.54V3985.21C5129.35 3979.82 5127.9 3975.98 5124.97 3973.7C5122.05 3971.42 5116.69 3970.28 5108.88 3970.28ZM4961.77 4123.13V3938.53H5128.06C5143.27 3938.53 5154.28 3941.33 5161.11 3946.94C5167.95 3952.55 5171.35 3961.7 5171.35 3974.35V4017.83C5171.35 4030.34 5167.95 4039.36 5161.11 4044.91C5154.28 4050.44 5143.27 4053.22 5128.06 4053.22H5102.7L5190.52 4123.13H5125.95L5048.56 4053.22H5006.13V4123.13H4961.77Z" fill="#ED3B26"/>
<path d="M5228.08 4123.13V3938.51H5426.13V3971.14H5273.49V4011.44H5362.39V4043.2H5273.49V4088.6H5428.45V4123.13H5228.08Z" fill="#ED3B26"/>
<path d="M5535.28 4048.94H5619.91L5576.85 3971.99L5535.28 4048.94ZM5447.88 4123.13L5557.45 3938.53H5600.73L5711.99 4123.13H5661.47L5638.24 4082.63H5516.1L5492.86 4123.13H5447.88Z" fill="#ED3B26"/>
<path d="M5740.57 4123.13V3938.51H5785.98V4088.6H5930.74V4123.13H5740.57Z" fill="#ED3B26"/>
<path d="M5963.99 3938.51H6008.77V4123.13H5963.99V3938.51Z" fill="#ED3B26"/>
<path d="M6118.99 4088.6H6176.97C6208.68 4088.6 6230.85 4083.97 6243.49 4074.74C6256.14 4065.5 6262.45 4049.95 6262.45 4028.06C6262.45 4009 6257.2 3994.84 6246.69 3985.52C6236.17 3976.22 6220.03 3971.56 6198.3 3971.56H6118.99V4088.6ZM6073.59 4123.13V3938.51H6197.88C6233.53 3938.51 6260.94 3946.43 6280.05 3962.29C6299.17 3978.14 6308.71 4000.78 6308.71 4030.19C6308.71 4061.17 6298.6 4084.42 6278.34 4099.9C6258.09 4115.38 6227.49 4123.13 6186.58 4123.13H6073.59Z" fill="#ED3B26"/>
<path d="M6410.65 4048.94H6495.29L6452.21 3971.99L6410.65 4048.94ZM6323.24 4123.13L6432.83 3938.53H6476.09L6587.38 4123.13H6536.86L6513.62 4082.63H6391.48L6368.23 4123.13H6323.24Z" fill="#ED3B26"/>
<path d="M6661.37 4088.6H6719.34C6751.05 4088.6 6773.21 4083.97 6785.85 4074.74C6798.51 4065.5 6804.83 4049.95 6804.83 4028.06C6804.83 4009 6799.58 3994.84 6789.06 3985.52C6778.55 3976.22 6762.39 3971.56 6740.66 3971.56H6661.37V4088.6ZM6615.96 4123.13V3938.51H6740.25C6775.91 3938.51 6803.31 3946.43 6822.42 3962.29C6841.55 3978.14 6851.09 4000.78 6851.09 4030.19C6851.09 4061.17 6840.98 4084.42 6820.71 4099.9C6800.46 4115.38 6769.86 4123.13 6728.96 4123.13H6615.96Z" fill="#ED3B26"/>
<path d="M6901.41 4123.13V3938.51H7099.46V3971.14H6946.82V4011.44H7035.72V4043.2H6946.82V4088.6H7101.78V4123.13H6901.41Z" fill="#ED3B26"/>
<path d="M7319.87 3971.55H7192.82V4010.57H7313.05C7331.96 4010.57 7344.67 4013.6 7351.21 4019.63C7357.75 4025.66 7361.02 4037.15 7361.02 4054.05V4079.42C7361.02 4096.34 7357.69 4107.84 7351 4113.96C7344.32 4120.05 7331.68 4123.11 7313.05 4123.11H7193.26C7174.19 4123.11 7161.31 4120.05 7154.56 4113.96C7147.79 4107.84 7144.45 4096.34 7144.45 4079.42V4074.3L7184.51 4066.85V4088.6H7320.31V4046.37H7200.71C7181.81 4046.37 7169.02 4043.28 7162.34 4037.1C7155.65 4030.92 7152.32 4019.43 7152.32 4002.68V3981.99C7152.32 3965.37 7155.65 3953.96 7162.34 3947.79C7169.02 3941.6 7181.81 3938.51 7200.71 3938.51H7310.29C7328.9 3938.51 7341.67 3941.46 7348.55 3947.36C7355.45 3953.25 7358.9 3963.66 7358.9 3978.59V3983.07L7319.87 3991.38V3971.55Z" fill="#ED3B26"/>
<path d="M4107.95 624.883C4199.39 625.003 4271.46 697.138 4271.52 788.593C4271.58 879.643 4198.83 952.408 4107.8 952.348C4016.81 952.273 3944.3 879.628 3944.22 788.443C3944.15 697.243 4016.69 624.763 4107.95 624.883Z" fill="#ED3B26"/>
<path d="M5463.01 950.304C5373.4 950.079 5300.68 877.449 5300.77 788.259C5300.86 698.814 5373.82 626.439 5463.34 626.919C5553.02 627.429 5624.83 700.389 5623.97 790.119C5623.15 877.959 5550.2 950.529 5463.01 950.304Z" fill="#1D1D67"/>
<path d="M5199.53 2142.55L4793.76 1492.92L4386.53 2142.55H5199.53ZM5340.05 2366.31H4246.04L4088.28 2618.95H3695.45L4782.27 922.708H4803.78L5890.64 2618.95H5497.77L5340.05 2366.31Z" fill="#1D1D67"/>
<path d="M4774.67 554.749C4823.24 510.184 4818.12 440.599 4867.71 409.129C4871.66 410.419 4875.59 411.694 4879.52 412.984V590.734C4926.5 562.699 4964.45 540.064 5001.3 518.074C5025.84 527.989 5021.51 541.969 5011.71 556.879C4990.23 589.534 4968.5 622.024 4947.14 654.769C4940.96 664.249 4935.71 674.344 4929.98 684.259C4960.34 717.619 5019.38 693.574 5043.18 743.239C5006.99 762.454 4976.81 776.779 4939.97 760.339C4899.86 742.459 4861.44 748.864 4826.3 774.559C4803.2 791.449 4779.56 794.299 4756.2 776.704C4715.72 746.224 4673.09 743.839 4627.82 763.909C4603.2 774.829 4579.38 779.254 4559.24 753.409C4563.86 706.639 4606.2 750.589 4622.93 723.109C4606.71 679.549 4589.22 632.614 4572.09 586.684C4584.23 564.334 4596.96 567.469 4611.12 580.444C4629.24 597.079 4647.53 613.564 4672.34 636.094C4678.13 612.349 4682.6 597.889 4685.09 583.114C4692.45 539.389 4698.27 495.379 4706.37 451.804C4708.7 439.339 4716.74 427.924 4722.15 416.044C4727.36 416.179 4732.56 416.314 4737.77 416.419C4749.45 460.249 4761.15 504.079 4774.67 554.749Z" fill="#ED3B26"/>
<path d="M4537.12 1035.28L4681.25 810.335C4581.64 848.525 4482.31 887.54 4381.87 923.435C4347.67 935.66 4310.05 938.195 4274.18 946.04C4260.07 949.115 4244.5 951.665 4232.95 959.405C4152.86 1013.17 4062.49 1013.44 3982.94 959.21C3974.26 953.3 3963.46 947.105 3953.56 946.955C3902.6 946.205 3856.22 957.44 3814.25 990.71C3699.25 1081.91 3637.16 1202.06 3611.99 1344.02C3603.52 1391.86 3626.98 1429.27 3669.88 1436.18C3711.26 1442.84 3744.86 1412.02 3749.6 1362.86C3755.27 1304.24 3769.4 1247.93 3805.93 1200.71C3825.98 1174.81 3851.62 1153.19 3874.73 1129.64C3883.25 1141.97 3884.51 1148.57 3884.87 1155.2C3889.91 1250.15 3895.67 1345.06 3899.66 1440.02L3899.78 1439.96L3900.13 1451.06C3900.5 1460.27 3900.95 1469.47 3901.28 1478.69C3902.05 1499.87 3902.93 1521.32 3903.05 1542.73L3917.65 2002.07L4342.49 1339.03C4342.51 1338.7 4342.51 1338.35 4342.52 1338.04C4344.34 1306.13 4343.02 1274.03 4342.64 1242.04C4342.55 1233.7 4340.65 1225.36 4339.3 1214.62C4295.08 1225.06 4254.28 1234.72 4213.46 1244.35C4248.59 1215.65 4285.67 1192.45 4322.77 1169.26C4394.21 1124.57 4465.69 1079.96 4537.12 1035.28Z" fill="#ED3B26"/>
<path d="M5678.9 1217.82C5679.17 1212.84 5679.61 1207.88 5679.92 1202.9L5680.24 1197.2L5680.33 1197.32C5681.84 1175.54 5683.67 1153.77 5685.35 1131.99C5688.29 1130.39 5691.25 1128.77 5694.22 1127.15C5714.45 1145.84 5736.86 1162.7 5754.52 1183.59C5797.94 1234.98 5817.4 1296.3 5822.95 1362.75C5826.97 1411.05 5858.72 1438.49 5901.79 1432.19C5940.98 1426.46 5964.62 1391.54 5955.52 1347.36C5947.09 1306.34 5938.12 1264.91 5923.64 1225.79C5884.4 1119.72 5820.35 1031.22 5722.31 972.243C5675 943.788 5624.84 938.778 5572.87 970.413C5496.71 1016.73 5419.06 1012.62 5343.16 966.138C5332.4 959.553 5320.09 951.273 5308.42 951.168C5253.07 950.613 5202.5 932.988 5151.94 913.368C5072.24 882.483 4992.32 852.138 4912.31 822.048L5056.22 1046.66C5148.74 1104.42 5241.25 1162.19 5333.77 1219.97C5346.71 1228.04 5359.64 1236.14 5372.57 1244.22C5371.57 1246.25 5370.55 1248.24 5369.54 1250.27C5324.6 1239.65 5279.66 1229.01 5231.41 1217.61C5230.6 1234.89 5229.59 1246.64 5229.58 1258.37C5229.56 1277.99 5229.58 1297.58 5229.58 1317.2L5639.2 1956.45L5669.48 1396.14C5672.51 1336.7 5675.72 1277.27 5678.9 1217.82Z" fill="#1D1D67"/>
<path d="M1944.05 3421.16L1828.73 3167.57L1712.81 3421.16H1944.05ZM2018.18 3583.55H1638.68L1578.1 3715.94H1372.15L1825.21 2743.94H1831.09L2284.73 3715.94H2078.21L2018.18 3583.55Z" fill="#1D1D67"/>
<path d="M2321.78 3671.79L2418.28 3504.67C2451.23 3532.35 2487.11 3547.06 2535.95 3547.06H2540.08C2644.81 3547.06 2728.94 3458.2 2728.94 3355.83L2725.4 2767.45L2916.04 2768.04L2919.59 3357.01C2919.59 3570.58 2751.31 3737.1 2541.25 3737.1H2534.78C2454.76 3737.1 2383.57 3714.73 2321.78 3671.79Z" fill="#1D1D67"/>
<path d="M3490.33 3421.16L3375.01 3167.57L3259.09 3421.16H3490.33ZM3564.46 3583.55H3184.96L3124.36 3715.94H2918.43L3371.49 2743.94H3377.37L3831.01 3715.94H3624.48L3564.46 3583.55Z" fill="#1D1D67"/>
<path d="M4854.79 2743.92V3715.94H4664.16V3302.9L4391.14 3700.04H4389.97L4116.36 3302.9V3715.94H3925.72V2743.92H3936.33L4390.56 3370.55L4844.2 2743.92H4854.79Z" fill="#1D1D67"/>
<path d="M5521.42 3421.16L5406.1 3167.57L5290.18 3421.16H5521.42ZM5595.55 3583.55H5216.05L5155.45 3715.94H4949.51L5402.57 2743.94H5408.45L5862.1 3715.94H5655.56L5595.55 3583.55Z" fill="#1D1D67"/>
<path d="M6435.16 3715.94L6146.86 3300.54V3715.94H5956.81V2767.47H6146.86V3177.56L6413.41 2767.47H6633.46L6329.26 3231.69L6667 3715.94H6435.16Z" fill="#1D1D67"/>
<path d="M6948.23 2955.15V3140.48H7275.38V3330.53H6948.23V3526.47H7329.52V3715.94H6757.6V2767.46H7329.52V2955.15H6948.23Z" fill="#1D1D67"/>
<path d="M7660.19 3194.61L7782.56 3195.21C7847.3 3195.8 7904.94 3143.43 7904.94 3075.77C7904.94 3008.1 7846.7 2956.32 7782.56 2956.32H7660.19V3194.61ZM7962.62 3715.94L7660.77 3267.59V3715.94H7470.14L7469.54 2767.46H7779.03C7956.14 2767.46 8101.47 2903.96 8101.47 3074.6C8101.47 3196.38 8027.93 3302.9 7926.12 3338.78L8195.6 3715.94H7962.62Z" fill="#1D1D67"/>
</g>
</svg>
