<svg width="343" height="104" viewBox="0 0 343 104" fill="none" xmlns="http://www.w3.org/2000/svg">
<path d="M29.0386 101.164C141.923 91.7375 204.52 88.6382 316.816 99.7247" stroke="#ED7D2B" stroke-width="5"/>
<path d="M8.69366 35V9.08H11.7537L26.6217 30.896L26.1897 30.968V9.08H28.9977V35H25.9377L11.0697 13.184L11.5017 13.112V35H8.69366ZM42.6175 35.36C40.8175 35.36 39.2335 34.94 37.8655 34.1C36.4975 33.26 35.4295 32.12 34.6615 30.68C33.9175 29.216 33.5455 27.572 33.5455 25.748C33.5455 23.9 33.9295 22.268 34.6975 20.852C35.4655 19.436 36.5215 18.32 37.8655 17.504C39.2335 16.688 40.8175 16.28 42.6175 16.28C44.4415 16.28 46.0255 16.688 47.3695 17.504C48.7375 18.32 49.7935 19.436 50.5375 20.852C51.3055 22.268 51.6895 23.9 51.6895 25.748C51.6895 27.572 51.3055 29.216 50.5375 30.68C49.7935 32.12 48.7375 33.26 47.3695 34.1C46.0255 34.94 44.4415 35.36 42.6175 35.36ZM42.6175 32.912C43.8655 32.912 44.9455 32.612 45.8575 32.012C46.7695 31.388 47.4775 30.536 47.9815 29.456C48.4855 28.376 48.7375 27.128 48.7375 25.712C48.7375 23.6 48.1735 21.908 47.0455 20.636C45.9415 19.364 44.4655 18.728 42.6175 18.728C40.7935 18.728 39.3175 19.364 38.1895 20.636C37.0615 21.908 36.4975 23.6 36.4975 25.712C36.4975 27.128 36.7495 28.376 37.2535 29.456C37.7575 30.536 38.4655 31.388 39.3775 32.012C40.3135 32.612 41.3935 32.912 42.6175 32.912ZM70.7399 35.36C68.9879 35.36 67.4399 34.952 66.0959 34.136C64.7519 33.296 63.6959 32.156 62.9279 30.716C62.1599 29.276 61.7759 27.62 61.7759 25.748C61.7759 23.876 62.1479 22.232 62.8919 20.816C63.6599 19.376 64.7279 18.26 66.0959 17.468C67.4639 16.676 69.0359 16.28 70.8119 16.28C72.5159 16.28 73.9919 16.652 75.2399 17.396C76.5119 18.14 77.4839 19.184 78.1559 20.528C78.8519 21.872 79.1999 23.456 79.1999 25.28C79.1999 25.52 79.1879 25.748 79.1639 25.964C79.1639 26.18 79.1399 26.42 79.0919 26.684H63.9359V24.272H77.3279L76.3919 25.604C76.3919 23.396 75.8999 21.704 74.9159 20.528C73.9559 19.328 72.5879 18.728 70.8119 18.728C68.9879 18.728 67.5119 19.364 66.3839 20.636C65.2799 21.884 64.7279 23.576 64.7279 25.712C64.7279 27.896 65.2799 29.648 66.3839 30.968C67.5119 32.264 69.0119 32.912 70.8839 32.912C72.0599 32.912 73.0919 32.66 73.9799 32.156C74.8679 31.628 75.5159 30.884 75.9239 29.924H78.6599C78.0599 31.604 77.0519 32.936 75.6359 33.92C74.2439 34.88 72.6119 35.36 70.7399 35.36ZM89.7643 35.36C87.5083 35.36 85.7083 34.844 84.3643 33.812C83.0203 32.756 82.2523 31.268 82.0603 29.348H84.8323C85.0003 30.524 85.5163 31.424 86.3803 32.048C87.2443 32.672 88.3963 32.984 89.8363 32.984C91.1083 32.984 92.1043 32.744 92.8243 32.264C93.5443 31.784 93.9043 31.1 93.9043 30.212C93.9043 29.588 93.7003 29.048 93.2923 28.592C92.8843 28.112 92.0683 27.716 90.8443 27.404L87.8923 26.648C86.2123 26.216 84.9523 25.556 84.1123 24.668C83.2723 23.756 82.8523 22.676 82.8523 21.428C82.8523 19.844 83.4403 18.596 84.6163 17.684C85.7923 16.748 87.3883 16.28 89.4043 16.28C91.3963 16.28 93.0163 16.76 94.2643 17.72C95.5123 18.68 96.2203 20.012 96.3883 21.716H93.6163C93.4483 20.732 92.9923 19.976 92.2483 19.448C91.5043 18.92 90.5203 18.656 89.2963 18.656C88.1203 18.656 87.2083 18.884 86.5603 19.34C85.9123 19.772 85.5883 20.396 85.5883 21.212C85.5883 21.836 85.8163 22.376 86.2723 22.832C86.7523 23.288 87.5443 23.672 88.6483 23.984L91.5283 24.776C93.2323 25.232 94.5163 25.928 95.3803 26.864C96.2443 27.8 96.6763 28.928 96.6763 30.248C96.6763 31.856 96.0643 33.116 94.8403 34.028C93.6163 34.916 91.9243 35.36 89.7643 35.36ZM330.963 35V31.292H334.671V35H330.963ZM29.5062 79V53.08H32.4582V79H29.5062ZM31.0182 79V76.408H46.8582V79H31.0182ZM31.0182 66.796V64.204H45.5622V66.796H31.0182ZM31.0182 55.672V53.08H46.5702V55.672H31.0182ZM57.2799 79.36C55.0239 79.36 53.2239 78.844 51.8799 77.812C50.5359 76.756 49.7679 75.268 49.5759 73.348H52.3479C52.5159 74.524 53.0319 75.424 53.8959 76.048C54.7599 76.672 55.9119 76.984 57.3519 76.984C58.6239 76.984 59.6199 76.744 60.3399 76.264C61.0599 75.784 61.4199 75.1 61.4199 74.212C61.4199 73.588 61.2159 73.048 60.8079 72.592C60.3999 72.112 59.5839 71.716 58.3599 71.404L55.4079 70.648C53.7279 70.216 52.4679 69.556 51.6279 68.668C50.7879 67.756 50.3679 66.676 50.3679 65.428C50.3679 63.844 50.9559 62.596 52.1319 61.684C53.3079 60.748 54.9039 60.28 56.9199 60.28C58.9119 60.28 60.5319 60.76 61.7799 61.72C63.0279 62.68 63.7359 64.012 63.9039 65.716H61.1319C60.9639 64.732 60.5079 63.976 59.7639 63.448C59.0199 62.92 58.0359 62.656 56.8119 62.656C55.6359 62.656 54.7239 62.884 54.0759 63.34C53.4279 63.772 53.1039 64.396 53.1039 65.212C53.1039 65.836 53.3319 66.376 53.7879 66.832C54.2679 67.288 55.0599 67.672 56.1639 67.984L59.0439 68.776C60.7479 69.232 62.0319 69.928 62.8959 70.864C63.7599 71.8 64.1919 72.928 64.1919 74.248C64.1919 75.856 63.5799 77.116 62.3559 78.028C61.1319 78.916 59.4399 79.36 57.2799 79.36ZM86.5425 79C86.4465 78.592 86.3745 78.124 86.3265 77.596C86.3025 77.068 86.2905 76.396 86.2905 75.58H86.1105V66.796C86.1105 65.404 85.7865 64.384 85.1385 63.736C84.5145 63.064 83.4945 62.728 82.0785 62.728C80.6865 62.728 79.5705 63.016 78.7305 63.592C77.9145 64.144 77.4585 64.936 77.3625 65.968H74.5905C74.7105 64.192 75.4545 62.8 76.8225 61.792C78.1905 60.784 79.9785 60.28 82.1865 60.28C84.4665 60.28 86.1585 60.82 87.2625 61.9C88.3665 62.98 88.9185 64.6 88.9185 66.76V75.58C88.9185 76.108 88.9545 76.66 89.0265 77.236C89.0985 77.788 89.1945 78.376 89.3145 79H86.5425ZM80.2425 79.36C78.3465 79.36 76.8345 78.904 75.7065 77.992C74.6025 77.056 74.0505 75.784 74.0505 74.176C74.0505 72.568 74.6025 71.32 75.7065 70.432C76.8105 69.544 78.4185 68.92 80.5305 68.56L86.9385 67.48V69.856L80.9625 70.792C79.6185 71.008 78.5985 71.368 77.9025 71.872C77.2065 72.376 76.8585 73.108 76.8585 74.068C76.8585 75.004 77.1705 75.712 77.7945 76.192C78.4425 76.672 79.3905 76.912 80.6385 76.912C82.2465 76.912 83.5545 76.552 84.5625 75.832C85.5945 75.088 86.1105 74.128 86.1105 72.952L86.5785 75.508C86.1945 76.732 85.4385 77.68 84.3105 78.352C83.2065 79.024 81.8505 79.36 80.2425 79.36ZM99.1307 79L91.5347 60.64H94.6307L100.967 77.056H99.8147L106.115 60.64H109.067L101.471 79H99.1307ZM123.316 79C123.22 78.592 123.148 78.124 123.1 77.596C123.076 77.068 123.064 76.396 123.064 75.58H122.884V66.796C122.884 65.404 122.56 64.384 121.912 63.736C121.288 63.064 120.268 62.728 118.852 62.728C117.46 62.728 116.344 63.016 115.504 63.592C114.688 64.144 114.232 64.936 114.136 65.968H111.364C111.484 64.192 112.228 62.8 113.596 61.792C114.964 60.784 116.752 60.28 118.96 60.28C121.24 60.28 122.932 60.82 124.036 61.9C125.14 62.98 125.692 64.6 125.692 66.76V75.58C125.692 76.108 125.728 76.66 125.8 77.236C125.872 77.788 125.968 78.376 126.088 79H123.316ZM117.016 79.36C115.12 79.36 113.608 78.904 112.48 77.992C111.376 77.056 110.824 75.784 110.824 74.176C110.824 72.568 111.376 71.32 112.48 70.432C113.584 69.544 115.192 68.92 117.304 68.56L123.712 67.48V69.856L117.736 70.792C116.392 71.008 115.372 71.368 114.676 71.872C113.98 72.376 113.632 73.108 113.632 74.068C113.632 75.004 113.944 75.712 114.568 76.192C115.216 76.672 116.164 76.912 117.412 76.912C119.02 76.912 120.328 76.552 121.336 75.832C122.368 75.088 122.884 74.128 122.884 72.952L123.352 75.508C122.968 76.732 122.212 77.68 121.084 78.352C119.98 79.024 118.624 79.36 117.016 79.36ZM131.243 79V60.64H133.943V64.96H134.123V79H131.243ZM144.383 79V66.976C144.383 65.584 144.035 64.54 143.339 63.844C142.643 63.148 141.611 62.8 140.243 62.8C139.043 62.8 137.975 63.064 137.039 63.592C136.127 64.12 135.407 64.852 134.879 65.788C134.375 66.724 134.123 67.816 134.123 69.064L133.655 64.708C134.279 63.34 135.227 62.26 136.499 61.468C137.795 60.676 139.259 60.28 140.891 60.28C142.811 60.28 144.347 60.832 145.499 61.936C146.675 63.016 147.263 64.444 147.263 66.22V79H144.383ZM151.049 79V76.912L162.209 61.756L163.289 63.088H151.409V60.64H164.945V62.728L153.785 77.884L152.705 76.552H165.305V79H151.049ZM180.621 79C180.525 78.592 180.453 78.124 180.405 77.596C180.381 77.068 180.369 76.396 180.369 75.58H180.189V66.796C180.189 65.404 179.865 64.384 179.217 63.736C178.593 63.064 177.573 62.728 176.157 62.728C174.765 62.728 173.649 63.016 172.809 63.592C171.993 64.144 171.537 64.936 171.441 65.968H168.669C168.789 64.192 169.533 62.8 170.901 61.792C172.269 60.784 174.057 60.28 176.265 60.28C178.545 60.28 180.237 60.82 181.341 61.9C182.445 62.98 182.997 64.6 182.997 66.76V75.58C182.997 76.108 183.033 76.66 183.105 77.236C183.177 77.788 183.273 78.376 183.393 79H180.621ZM174.321 79.36C172.425 79.36 170.913 78.904 169.785 77.992C168.681 77.056 168.129 75.784 168.129 74.176C168.129 72.568 168.681 71.32 169.785 70.432C170.889 69.544 172.497 68.92 174.609 68.56L181.017 67.48V69.856L175.041 70.792C173.697 71.008 172.677 71.368 171.981 71.872C171.285 72.376 170.937 73.108 170.937 74.068C170.937 75.004 171.249 75.712 171.873 76.192C172.521 76.672 173.469 76.912 174.717 76.912C176.325 76.912 177.633 76.552 178.641 75.832C179.673 75.088 180.189 74.128 180.189 72.952L180.657 75.508C180.273 76.732 179.517 77.68 178.389 78.352C177.285 79.024 175.929 79.36 174.321 79.36ZM188.548 79V60.64H191.248V65.32H191.428V79H188.548ZM191.428 69.424L190.96 65.068C191.392 63.508 192.16 62.32 193.264 61.504C194.368 60.688 195.64 60.28 197.08 60.28C197.68 60.28 198.088 60.328 198.304 60.424V63.196C198.184 63.148 198.016 63.124 197.8 63.124C197.584 63.1 197.32 63.088 197.008 63.088C195.184 63.088 193.792 63.64 192.832 64.744C191.896 65.824 191.428 67.384 191.428 69.424ZM206.951 86.74C206.495 86.74 206.123 86.716 205.835 86.668C205.547 86.62 205.307 86.56 205.115 86.488V84.22C205.283 84.268 205.523 84.316 205.835 84.364C206.123 84.412 206.435 84.436 206.771 84.436C207.707 84.436 208.355 84.232 208.715 83.824C209.075 83.416 209.255 82.804 209.255 81.988V60.64H212.135V82.132C212.135 83.62 211.727 84.76 210.911 85.552C210.095 86.344 208.775 86.74 206.951 86.74ZM209.039 56.464V53.08H212.351V56.464H209.039ZM223.774 79.36C222.574 79.36 221.506 79.12 220.57 78.64C219.634 78.136 218.902 77.44 218.374 76.552C217.846 75.64 217.582 74.596 217.582 73.42V60.64H220.462V72.664C220.462 74.056 220.798 75.1 221.47 75.796C222.166 76.492 223.15 76.84 224.422 76.84C225.574 76.84 226.594 76.576 227.482 76.048C228.37 75.52 229.066 74.788 229.57 73.852C230.098 72.892 230.362 71.8 230.362 70.576L230.83 74.932C230.23 76.3 229.294 77.38 228.022 78.172C226.75 78.964 225.334 79.36 223.774 79.36ZM230.542 79V74.68H230.362V60.64H233.242V79H230.542ZM238.997 79V60.64H241.697V64.96H241.877V79H238.997ZM252.137 79V66.976C252.137 65.584 251.789 64.54 251.093 63.844C250.397 63.148 249.365 62.8 247.997 62.8C246.797 62.8 245.729 63.064 244.793 63.592C243.881 64.12 243.161 64.852 242.633 65.788C242.129 66.724 241.877 67.816 241.877 69.064L241.409 64.708C242.033 63.34 242.981 62.26 244.253 61.468C245.549 60.676 247.013 60.28 248.645 60.28C250.565 60.28 252.101 60.832 253.253 61.936C254.429 63.016 255.017 64.444 255.017 66.22V79H252.137ZM267.4 79.324C265.36 79.324 263.872 78.868 262.936 77.956C262.024 77.02 261.568 75.676 261.568 73.924V56.356L264.448 55.276V73.888C264.448 74.92 264.712 75.676 265.24 76.156C265.768 76.636 266.632 76.876 267.832 76.876C268.312 76.876 268.72 76.852 269.056 76.804C269.416 76.732 269.704 76.648 269.92 76.552V79C269.68 79.096 269.332 79.168 268.876 79.216C268.444 79.288 267.952 79.324 267.4 79.324ZM257.788 63.088V60.64H269.92V63.088H257.788ZM280.836 79.36C279.036 79.36 277.452 78.94 276.084 78.1C274.716 77.26 273.648 76.12 272.88 74.68C272.136 73.216 271.764 71.572 271.764 69.748C271.764 67.9 272.148 66.268 272.916 64.852C273.684 63.436 274.74 62.32 276.084 61.504C277.452 60.688 279.036 60.28 280.836 60.28C282.66 60.28 284.244 60.688 285.588 61.504C286.956 62.32 288.012 63.436 288.756 64.852C289.524 66.268 289.908 67.9 289.908 69.748C289.908 71.572 289.524 73.216 288.756 74.68C288.012 76.12 286.956 77.26 285.588 78.1C284.244 78.94 282.66 79.36 280.836 79.36ZM280.836 76.912C282.084 76.912 283.164 76.612 284.076 76.012C284.988 75.388 285.696 74.536 286.2 73.456C286.704 72.376 286.956 71.128 286.956 69.712C286.956 67.6 286.392 65.908 285.264 64.636C284.16 63.364 282.684 62.728 280.836 62.728C279.012 62.728 277.536 63.364 276.408 64.636C275.28 65.908 274.716 67.6 274.716 69.712C274.716 71.128 274.968 72.376 275.472 73.456C275.976 74.536 276.684 75.388 277.596 76.012C278.532 76.612 279.612 76.912 280.836 76.912ZM300.456 79.36C298.2 79.36 296.4 78.844 295.056 77.812C293.712 76.756 292.944 75.268 292.752 73.348H295.524C295.692 74.524 296.208 75.424 297.072 76.048C297.936 76.672 299.088 76.984 300.528 76.984C301.8 76.984 302.796 76.744 303.516 76.264C304.236 75.784 304.596 75.1 304.596 74.212C304.596 73.588 304.392 73.048 303.984 72.592C303.576 72.112 302.76 71.716 301.536 71.404L298.584 70.648C296.904 70.216 295.644 69.556 294.804 68.668C293.964 67.756 293.544 66.676 293.544 65.428C293.544 63.844 294.132 62.596 295.308 61.684C296.484 60.748 298.08 60.28 300.096 60.28C302.088 60.28 303.708 60.76 304.956 61.72C306.204 62.68 306.912 64.012 307.08 65.716H304.308C304.14 64.732 303.684 63.976 302.94 63.448C302.196 62.92 301.212 62.656 299.988 62.656C298.812 62.656 297.9 62.884 297.252 63.34C296.604 63.772 296.28 64.396 296.28 65.212C296.28 65.836 296.508 66.376 296.964 66.832C297.444 67.288 298.236 67.672 299.34 67.984L302.22 68.776C303.924 69.232 305.208 69.928 306.072 70.864C306.936 71.8 307.368 72.928 307.368 74.248C307.368 75.856 306.756 77.116 305.532 78.028C304.308 78.916 302.616 79.36 300.456 79.36ZM310.15 79V75.292H313.858V79H310.15Z" fill="#2B4F6C"/>
<path d="M113.987 35.36C111.731 35.36 109.931 34.844 108.587 33.812C107.243 32.756 106.475 31.268 106.283 29.348H109.055C109.223 30.524 109.739 31.424 110.603 32.048C111.467 32.672 112.619 32.984 114.059 32.984C115.331 32.984 116.327 32.744 117.047 32.264C117.767 31.784 118.127 31.1 118.127 30.212C118.127 29.588 117.923 29.048 117.515 28.592C117.107 28.112 116.291 27.716 115.067 27.404L112.115 26.648C110.435 26.216 109.175 25.556 108.335 24.668C107.495 23.756 107.075 22.676 107.075 21.428C107.075 19.844 107.663 18.596 108.839 17.684C110.015 16.748 111.611 16.28 113.627 16.28C115.619 16.28 117.239 16.76 118.487 17.72C119.735 18.68 120.443 20.012 120.611 21.716H117.839C117.671 20.732 117.215 19.976 116.471 19.448C115.727 18.92 114.743 18.656 113.519 18.656C112.343 18.656 111.431 18.884 110.783 19.34C110.135 19.772 109.811 20.396 109.811 21.212C109.811 21.836 110.039 22.376 110.495 22.832C110.975 23.288 111.767 23.672 112.871 23.984L115.751 24.776C117.455 25.232 118.739 25.928 119.603 26.864C120.467 27.8 120.899 28.928 120.899 30.248C120.899 31.856 120.287 33.116 119.063 34.028C117.839 34.916 116.147 35.36 113.987 35.36ZM133.039 35.36C131.239 35.36 129.655 34.94 128.287 34.1C126.919 33.26 125.851 32.12 125.083 30.68C124.339 29.216 123.967 27.572 123.967 25.748C123.967 23.9 124.351 22.268 125.119 20.852C125.887 19.436 126.943 18.32 128.287 17.504C129.655 16.688 131.239 16.28 133.039 16.28C134.863 16.28 136.447 16.688 137.791 17.504C139.159 18.32 140.215 19.436 140.959 20.852C141.727 22.268 142.111 23.9 142.111 25.748C142.111 27.572 141.727 29.216 140.959 30.68C140.215 32.12 139.159 33.26 137.791 34.1C136.447 34.94 134.863 35.36 133.039 35.36ZM133.039 32.912C134.287 32.912 135.367 32.612 136.279 32.012C137.191 31.388 137.899 30.536 138.403 29.456C138.907 28.376 139.159 27.128 139.159 25.712C139.159 23.6 138.595 21.908 137.467 20.636C136.363 19.364 134.887 18.728 133.039 18.728C131.215 18.728 129.739 19.364 128.611 20.636C127.483 21.908 126.919 23.6 126.919 25.712C126.919 27.128 127.171 28.376 127.675 29.456C128.179 30.536 128.887 31.388 129.799 32.012C130.735 32.612 131.815 32.912 133.039 32.912ZM146.431 35V9.08H149.311V35H146.431ZM162.711 35.36C160.911 35.36 159.327 34.94 157.959 34.1C156.591 33.26 155.523 32.12 154.755 30.68C154.011 29.216 153.639 27.572 153.639 25.748C153.639 23.9 154.023 22.268 154.791 20.852C155.559 19.436 156.615 18.32 157.959 17.504C159.327 16.688 160.911 16.28 162.711 16.28C164.535 16.28 166.119 16.688 167.463 17.504C168.831 18.32 169.887 19.436 170.631 20.852C171.399 22.268 171.783 23.9 171.783 25.748C171.783 27.572 171.399 29.216 170.631 30.68C169.887 32.12 168.831 33.26 167.463 34.1C166.119 34.94 164.535 35.36 162.711 35.36ZM162.711 32.912C163.959 32.912 165.039 32.612 165.951 32.012C166.863 31.388 167.571 30.536 168.075 29.456C168.579 28.376 168.831 27.128 168.831 25.712C168.831 23.6 168.267 21.908 167.139 20.636C166.035 19.364 164.559 18.728 162.711 18.728C160.887 18.728 159.411 19.364 158.283 20.636C157.155 21.908 156.591 23.6 156.591 25.712C156.591 27.128 156.843 28.376 157.347 29.456C157.851 30.536 158.559 31.388 159.471 32.012C160.407 32.612 161.487 32.912 162.711 32.912ZM194.578 35C194.482 34.592 194.41 34.124 194.362 33.596C194.338 33.068 194.326 32.396 194.326 31.58H194.146V22.796C194.146 21.404 193.822 20.384 193.174 19.736C192.55 19.064 191.53 18.728 190.114 18.728C188.722 18.728 187.606 19.016 186.766 19.592C185.95 20.144 185.494 20.936 185.398 21.968H182.626C182.746 20.192 183.49 18.8 184.858 17.792C186.226 16.784 188.014 16.28 190.222 16.28C192.502 16.28 194.194 16.82 195.298 17.9C196.402 18.98 196.954 20.6 196.954 22.76V31.58C196.954 32.108 196.99 32.66 197.062 33.236C197.134 33.788 197.23 34.376 197.35 35H194.578ZM188.278 35.36C186.382 35.36 184.87 34.904 183.742 33.992C182.638 33.056 182.086 31.784 182.086 30.176C182.086 28.568 182.638 27.32 183.742 26.432C184.846 25.544 186.454 24.92 188.566 24.56L194.974 23.48V25.856L188.998 26.792C187.654 27.008 186.634 27.368 185.938 27.872C185.242 28.376 184.894 29.108 184.894 30.068C184.894 31.004 185.206 31.712 185.83 32.192C186.478 32.672 187.426 32.912 188.674 32.912C190.282 32.912 191.59 32.552 192.598 31.832C193.63 31.088 194.146 30.128 194.146 28.952L194.614 31.508C194.23 32.732 193.474 33.68 192.346 34.352C191.242 35.024 189.886 35.36 188.278 35.36ZM211.577 35.324C209.849 35.324 208.397 34.904 207.221 34.064C206.045 33.224 205.241 32.036 204.809 30.5L205.385 30.428V42.38H202.505V16.64H205.205V20.924L204.809 20.816C205.265 19.4 206.129 18.296 207.401 17.504C208.673 16.688 210.149 16.28 211.829 16.28C213.461 16.28 214.877 16.676 216.077 17.468C217.301 18.26 218.249 19.364 218.921 20.78C219.593 22.196 219.929 23.852 219.929 25.748C219.929 27.668 219.581 29.348 218.885 30.788C218.189 32.228 217.217 33.344 215.969 34.136C214.721 34.928 213.257 35.324 211.577 35.324ZM211.145 32.804C212.969 32.804 214.397 32.18 215.429 30.932C216.461 29.66 216.977 27.932 216.977 25.748C216.977 23.588 216.461 21.896 215.429 20.672C214.397 19.424 212.969 18.8 211.145 18.8C209.321 18.8 207.881 19.436 206.825 20.708C205.769 21.956 205.241 23.672 205.241 25.856C205.241 27.992 205.769 29.684 206.825 30.932C207.881 32.18 209.321 32.804 211.145 32.804ZM224.337 35V16.64H227.037V21.32H227.217V35H224.337ZM227.217 25.424L226.749 21.068C227.181 19.508 227.949 18.32 229.053 17.504C230.157 16.688 231.429 16.28 232.869 16.28C233.469 16.28 233.877 16.328 234.093 16.424V19.196C233.973 19.148 233.805 19.124 233.589 19.124C233.373 19.1 233.109 19.088 232.797 19.088C230.973 19.088 229.581 19.64 228.621 20.744C227.685 21.824 227.217 23.384 227.217 25.424ZM244.728 35.36C242.976 35.36 241.428 34.952 240.084 34.136C238.74 33.296 237.684 32.156 236.916 30.716C236.148 29.276 235.764 27.62 235.764 25.748C235.764 23.876 236.136 22.232 236.88 20.816C237.648 19.376 238.716 18.26 240.084 17.468C241.452 16.676 243.024 16.28 244.8 16.28C246.504 16.28 247.98 16.652 249.228 17.396C250.5 18.14 251.472 19.184 252.144 20.528C252.84 21.872 253.188 23.456 253.188 25.28C253.188 25.52 253.176 25.748 253.152 25.964C253.152 26.18 253.128 26.42 253.08 26.684H237.924V24.272H251.316L250.38 25.604C250.38 23.396 249.888 21.704 248.904 20.528C247.944 19.328 246.576 18.728 244.8 18.728C242.976 18.728 241.5 19.364 240.372 20.636C239.268 21.884 238.716 23.576 238.716 25.712C238.716 27.896 239.268 29.648 240.372 30.968C241.5 32.264 243 32.912 244.872 32.912C246.048 32.912 247.08 32.66 247.968 32.156C248.856 31.628 249.504 30.884 249.912 29.924H252.648C252.048 31.604 251.04 32.936 249.624 33.92C248.232 34.88 246.6 35.36 244.728 35.36ZM257.525 35V16.64H260.225V20.96H260.405V35H257.525ZM270.665 35V22.976C270.665 21.584 270.317 20.54 269.621 19.844C268.925 19.148 267.893 18.8 266.525 18.8C265.325 18.8 264.257 19.064 263.321 19.592C262.409 20.12 261.689 20.852 261.161 21.788C260.657 22.724 260.405 23.816 260.405 25.064L259.937 20.708C260.561 19.34 261.509 18.26 262.781 17.468C264.077 16.676 265.541 16.28 267.173 16.28C269.093 16.28 270.629 16.832 271.781 17.936C272.957 19.016 273.545 20.444 273.545 22.22V35H270.665ZM292.431 35V30.716L292.791 30.824C292.335 32.216 291.495 33.32 290.271 34.136C289.071 34.952 287.631 35.36 285.951 35.36C284.295 35.36 282.843 34.964 281.595 34.172C280.371 33.38 279.411 32.276 278.715 30.86C278.043 29.444 277.707 27.788 277.707 25.892C277.707 23.972 278.055 22.292 278.751 20.852C279.447 19.412 280.419 18.296 281.667 17.504C282.915 16.712 284.379 16.316 286.059 16.316C287.787 16.316 289.239 16.736 290.415 17.576C291.591 18.416 292.395 19.604 292.827 21.14L292.251 21.212V9.08H295.131V35H292.431ZM286.491 32.84C288.339 32.84 289.779 32.216 290.811 30.968C291.867 29.696 292.395 27.968 292.395 25.784C292.395 23.648 291.867 21.956 290.811 20.708C289.755 19.46 288.315 18.836 286.491 18.836C284.667 18.836 283.239 19.46 282.207 20.708C281.175 21.956 280.659 23.684 280.659 25.892C280.659 28.052 281.175 29.756 282.207 31.004C283.239 32.228 284.667 32.84 286.491 32.84ZM308.431 35.36C306.679 35.36 305.131 34.952 303.787 34.136C302.443 33.296 301.387 32.156 300.619 30.716C299.851 29.276 299.467 27.62 299.467 25.748C299.467 23.876 299.839 22.232 300.583 20.816C301.351 19.376 302.419 18.26 303.787 17.468C305.155 16.676 306.727 16.28 308.503 16.28C310.207 16.28 311.683 16.652 312.931 17.396C314.203 18.14 315.175 19.184 315.847 20.528C316.543 21.872 316.891 23.456 316.891 25.28C316.891 25.52 316.879 25.748 316.855 25.964C316.855 26.18 316.831 26.42 316.783 26.684H301.627V24.272H315.019L314.083 25.604C314.083 23.396 313.591 21.704 312.607 20.528C311.647 19.328 310.279 18.728 308.503 18.728C306.679 18.728 305.203 19.364 304.075 20.636C302.971 21.884 302.419 23.576 302.419 25.712C302.419 27.896 302.971 29.648 304.075 30.968C305.203 32.264 306.703 32.912 308.575 32.912C309.751 32.912 310.783 32.66 311.671 32.156C312.559 31.628 313.207 30.884 313.615 29.924H316.351C315.751 31.604 314.743 32.936 313.327 33.92C311.935 34.88 310.303 35.36 308.431 35.36ZM321.228 35V16.64H323.928V21.32H324.108V35H321.228ZM324.108 25.424L323.64 21.068C324.072 19.508 324.84 18.32 325.944 17.504C327.048 16.688 328.32 16.28 329.76 16.28C330.36 16.28 330.768 16.328 330.984 16.424V19.196C330.864 19.148 330.696 19.124 330.48 19.124C330.264 19.1 330 19.088 329.688 19.088C327.864 19.088 326.472 19.64 325.512 20.744C324.576 21.824 324.108 23.384 324.108 25.424Z" fill="#ED3B26"/>
</svg>
