<svg width="850" height="158" viewBox="0 0 850 158" fill="none" xmlns="http://www.w3.org/2000/svg">
<path d="M19.3892 39L30.5092 10.2H33.3892L22.5492 39H19.3892ZM42.2692 39L31.4292 10.2H34.5092L45.6292 39H42.2692ZM24.9092 27.36H39.9492V30.24H24.9092V27.36ZM52.8108 39.4C51.7974 39.4 50.8241 39.32 49.8908 39.16C48.9574 39.0267 48.2774 38.8533 47.8508 38.64V35.6C48.4908 35.8667 49.2641 36.0933 50.1708 36.28C51.0774 36.44 51.9974 36.52 52.9308 36.52C54.8508 36.52 56.3041 36.0933 57.2908 35.24C58.2774 34.3867 58.7708 33.08 58.7708 31.32V10.2H62.0508V31.44C62.0508 34.1067 61.2641 36.1067 59.6908 37.44C58.1174 38.7467 55.8241 39.4 52.8108 39.4ZM65.3267 39L76.4467 10.2H79.3267L68.4867 39H65.3267ZM88.2067 39L77.3667 10.2H80.4467L91.5667 39H88.2067ZM70.8467 27.36H85.8867V30.24H70.8467V27.36ZM96.4283 39V10.2H101.468L111.868 37.96H110.348L120.668 10.2H125.788V39H122.548V11.92H122.988L112.948 39H109.028L98.9883 12.16H99.4283V39H96.4283ZM130.678 39L141.798 10.2H144.678L133.838 39H130.678ZM153.558 39L142.718 10.2H145.798L156.918 39H153.558ZM136.198 27.36H151.238V30.24H136.198V27.36ZM161.78 39V10.2H165.06V39H161.78ZM164.7 24.04L179.66 10.2H184.26L168.98 24.04H164.7ZM180.3 39L164.62 24.04H168.98L185.06 39H180.3ZM189.475 39V10.2H192.755V39H189.475ZM191.155 39V36.12H208.755V39H191.155ZM191.155 25.44V22.56H207.315V25.44H191.155ZM191.155 13.08V10.2H208.435V13.08H191.155ZM213.694 39V10.2H224.334C226.387 10.2 228.134 10.5333 229.574 11.2C231.014 11.8667 232.107 12.8 232.854 14C233.627 15.1733 234.014 16.5733 234.014 18.2C234.014 19.8267 233.627 21.2533 232.854 22.48C232.107 23.68 231.014 24.6267 229.574 25.32C228.134 25.9867 226.387 26.32 224.334 26.32H216.094V23.44H224.214C226.347 23.44 227.961 22.9733 229.054 22.04C230.174 21.1067 230.734 19.8267 230.734 18.2C230.734 16.6 230.187 15.3467 229.094 14.44C228.001 13.5333 226.374 13.08 224.214 13.08H216.974V39H213.694ZM230.574 39L215.254 24.72H219.734L235.534 39H230.574ZM256.072 39.4C254.125 39.4 252.405 38.9467 250.912 38.04C249.418 37.1067 248.245 35.84 247.392 34.24C246.538 32.64 246.112 30.8 246.112 28.72C246.112 26.64 246.525 24.8133 247.352 23.24C248.205 21.64 249.392 20.4 250.912 19.52C252.432 18.64 254.178 18.2 256.152 18.2C258.045 18.2 259.685 18.6133 261.072 19.44C262.485 20.2667 263.565 21.4267 264.312 22.92C265.085 24.4133 265.472 26.1733 265.472 28.2C265.472 28.4667 265.458 28.72 265.432 28.96C265.432 29.2 265.405 29.4667 265.352 29.76H248.512V27.08H263.392L262.352 28.56C262.352 26.1067 261.805 24.2267 260.712 22.92C259.645 21.5867 258.125 20.92 256.152 20.92C254.125 20.92 252.485 21.6267 251.232 23.04C250.005 24.4267 249.392 26.3067 249.392 28.68C249.392 31.1067 250.005 33.0533 251.232 34.52C252.485 35.96 254.152 36.68 256.232 36.68C257.538 36.68 258.685 36.4 259.672 35.84C260.658 35.2533 261.378 34.4267 261.832 33.36H264.872C264.205 35.2267 263.085 36.7067 261.512 37.8C259.965 38.8667 258.152 39.4 256.072 39.4ZM277.21 39.4C274.703 39.4 272.703 38.8267 271.21 37.68C269.717 36.5067 268.863 34.8533 268.65 32.72H271.73C271.917 34.0267 272.49 35.0267 273.45 35.72C274.41 36.4133 275.69 36.76 277.29 36.76C278.703 36.76 279.81 36.4933 280.61 35.96C281.41 35.4267 281.81 34.6667 281.81 33.68C281.81 32.9867 281.583 32.3867 281.13 31.88C280.677 31.3467 279.77 30.9067 278.41 30.56L275.13 29.72C273.263 29.24 271.863 28.5067 270.93 27.52C269.997 26.5067 269.53 25.3067 269.53 23.92C269.53 22.16 270.183 20.7733 271.49 19.76C272.797 18.72 274.57 18.2 276.81 18.2C279.023 18.2 280.823 18.7333 282.21 19.8C283.597 20.8667 284.383 22.3467 284.57 24.24H281.49C281.303 23.1467 280.797 22.3067 279.97 21.72C279.143 21.1333 278.05 20.84 276.69 20.84C275.383 20.84 274.37 21.0933 273.65 21.6C272.93 22.08 272.57 22.7733 272.57 23.68C272.57 24.3733 272.823 24.9733 273.33 25.48C273.863 25.9867 274.743 26.4133 275.97 26.76L279.17 27.64C281.063 28.1467 282.49 28.92 283.45 29.96C284.41 31 284.89 32.2533 284.89 33.72C284.89 35.5067 284.21 36.9067 282.85 37.92C281.49 38.9067 279.61 39.4 277.21 39.4ZM305.564 39.4C303.617 39.4 301.897 38.9467 300.404 38.04C298.911 37.1067 297.737 35.84 296.884 34.24C296.031 32.64 295.604 30.8 295.604 28.72C295.604 26.64 296.017 24.8133 296.844 23.24C297.697 21.64 298.884 20.4 300.404 19.52C301.924 18.64 303.671 18.2 305.644 18.2C307.537 18.2 309.177 18.6133 310.564 19.44C311.977 20.2667 313.057 21.4267 313.804 22.92C314.577 24.4133 314.964 26.1733 314.964 28.2C314.964 28.4667 314.951 28.72 314.924 28.96C314.924 29.2 314.897 29.4667 314.844 29.76H298.004V27.08H312.884L311.844 28.56C311.844 26.1067 311.297 24.2267 310.204 22.92C309.137 21.5867 307.617 20.92 305.644 20.92C303.617 20.92 301.977 21.6267 300.724 23.04C299.497 24.4267 298.884 26.3067 298.884 28.68C298.884 31.1067 299.497 33.0533 300.724 34.52C301.977 35.96 303.644 36.68 305.724 36.68C307.031 36.68 308.177 36.4 309.164 35.84C310.151 35.2533 310.871 34.4267 311.324 33.36H314.364C313.697 35.2267 312.577 36.7067 311.004 37.8C309.457 38.8667 307.644 39.4 305.564 39.4ZM319.782 39V10.2H322.982V39H319.782ZM345.759 39.4C343.813 39.4 342.093 38.9467 340.599 38.04C339.106 37.1067 337.933 35.84 337.079 34.24C336.226 32.64 335.799 30.8 335.799 28.72C335.799 26.64 336.213 24.8133 337.039 23.24C337.893 21.64 339.079 20.4 340.599 19.52C342.119 18.64 343.866 18.2 345.839 18.2C347.733 18.2 349.373 18.6133 350.759 19.44C352.173 20.2667 353.253 21.4267 353.999 22.92C354.773 24.4133 355.159 26.1733 355.159 28.2C355.159 28.4667 355.146 28.72 355.119 28.96C355.119 29.2 355.093 29.4667 355.039 29.76H338.199V27.08H353.079L352.039 28.56C352.039 26.1067 351.493 24.2267 350.399 22.92C349.333 21.5867 347.813 20.92 345.839 20.92C343.813 20.92 342.173 21.6267 340.919 23.04C339.693 24.4267 339.079 26.3067 339.079 28.68C339.079 31.1067 339.693 33.0533 340.919 34.52C342.173 35.96 343.839 36.68 345.919 36.68C347.226 36.68 348.373 36.4 349.359 35.84C350.346 35.2533 351.066 34.4267 351.519 33.36H354.559C353.893 35.2267 352.773 36.7067 351.199 37.8C349.653 38.8667 347.839 39.4 345.759 39.4ZM366.897 39.4C364.391 39.4 362.391 38.8267 360.897 37.68C359.404 36.5067 358.551 34.8533 358.337 32.72H361.417C361.604 34.0267 362.177 35.0267 363.137 35.72C364.097 36.4133 365.377 36.76 366.977 36.76C368.391 36.76 369.497 36.4933 370.297 35.96C371.097 35.4267 371.497 34.6667 371.497 33.68C371.497 32.9867 371.271 32.3867 370.817 31.88C370.364 31.3467 369.457 30.9067 368.097 30.56L364.817 29.72C362.951 29.24 361.551 28.5067 360.617 27.52C359.684 26.5067 359.217 25.3067 359.217 23.92C359.217 22.16 359.871 20.7733 361.177 19.76C362.484 18.72 364.257 18.2 366.497 18.2C368.711 18.2 370.511 18.7333 371.897 19.8C373.284 20.8667 374.071 22.3467 374.257 24.24H371.177C370.991 23.1467 370.484 22.3067 369.657 21.72C368.831 21.1333 367.737 20.84 366.377 20.84C365.071 20.84 364.057 21.0933 363.337 21.6C362.617 22.08 362.257 22.7733 362.257 23.68C362.257 24.3733 362.511 24.9733 363.017 25.48C363.551 25.9867 364.431 26.4133 365.657 26.76L368.857 27.64C370.751 28.1467 372.177 28.92 373.137 29.96C374.097 31 374.577 32.2533 374.577 33.72C374.577 35.5067 373.897 36.9067 372.537 37.92C371.177 38.9067 369.297 39.4 366.897 39.4ZM388.964 39.36C387.044 39.36 385.43 38.8933 384.124 37.96C382.817 37.0267 381.924 35.7067 381.444 34L382.084 33.92V47.2H378.884V18.6H381.884V23.36L381.444 23.24C381.95 21.6667 382.91 20.44 384.324 19.56C385.737 18.6533 387.377 18.2 389.244 18.2C391.057 18.2 392.63 18.64 393.964 19.52C395.324 20.4 396.377 21.6267 397.124 23.2C397.87 24.7733 398.244 26.6133 398.244 28.72C398.244 30.8533 397.857 32.72 397.084 34.32C396.31 35.92 395.23 37.16 393.844 38.04C392.457 38.92 390.83 39.36 388.964 39.36ZM388.484 36.56C390.51 36.56 392.097 35.8667 393.244 34.48C394.39 33.0667 394.964 31.1467 394.964 28.72C394.964 26.32 394.39 24.44 393.244 23.08C392.097 21.6933 390.51 21 388.484 21C386.457 21 384.857 21.7067 383.684 23.12C382.51 24.5067 381.924 26.4133 381.924 28.84C381.924 31.2133 382.51 33.0933 383.684 34.48C384.857 35.8667 386.457 36.56 388.484 36.56ZM415.74 39C415.633 38.5467 415.553 38.0267 415.5 37.44C415.473 36.8533 415.46 36.1067 415.46 35.2H415.26V25.44C415.26 23.8933 414.9 22.76 414.18 22.04C413.486 21.2933 412.353 20.92 410.78 20.92C409.233 20.92 407.993 21.24 407.06 21.88C406.153 22.4933 405.646 23.3733 405.54 24.52H402.46C402.593 22.5467 403.42 21 404.94 19.88C406.46 18.76 408.446 18.2 410.9 18.2C413.433 18.2 415.313 18.8 416.54 20C417.766 21.2 418.38 23 418.38 25.4V35.2C418.38 35.7867 418.42 36.4 418.5 37.04C418.58 37.6533 418.686 38.3067 418.82 39H415.74ZM408.74 39.4C406.633 39.4 404.953 38.8933 403.7 37.88C402.473 36.84 401.86 35.4267 401.86 33.64C401.86 31.8533 402.473 30.4667 403.7 29.48C404.926 28.4933 406.713 27.8 409.06 27.4L416.18 26.2V28.84L409.54 29.88C408.046 30.12 406.913 30.52 406.14 31.08C405.366 31.64 404.98 32.4533 404.98 33.52C404.98 34.56 405.326 35.3467 406.02 35.88C406.74 36.4133 407.793 36.68 409.18 36.68C410.966 36.68 412.42 36.28 413.54 35.48C414.686 34.6533 415.26 33.5867 415.26 32.28L415.78 35.12C415.353 36.48 414.513 37.5333 413.26 38.28C412.033 39.0267 410.526 39.4 408.74 39.4ZM432.628 39.4C430.761 39.4 429.094 38.9467 427.628 38.04C426.188 37.1067 425.041 35.84 424.188 34.24C423.361 32.6133 422.948 30.7733 422.948 28.72C422.948 26.6667 423.361 24.8533 424.188 23.28C425.041 21.7067 426.188 20.4667 427.628 19.56C429.094 18.6533 430.748 18.2 432.588 18.2C434.108 18.2 435.468 18.4933 436.668 19.08C437.894 19.6667 438.894 20.5067 439.668 21.6C440.468 22.6667 440.974 23.92 441.188 25.36H438.228C437.961 24.0533 437.348 22.9867 436.388 22.16C435.428 21.3333 434.188 20.92 432.668 20.92C431.361 20.92 430.228 21.24 429.268 21.88C428.308 22.52 427.561 23.4267 427.028 24.6C426.494 25.7733 426.228 27.1467 426.228 28.72C426.228 30.2933 426.494 31.68 427.028 32.88C427.561 34.08 428.308 35.0133 429.268 35.68C430.254 36.3467 431.401 36.68 432.708 36.68C434.174 36.68 435.401 36.28 436.388 35.48C437.374 34.6533 438.001 33.5867 438.268 32.28H441.228C440.988 33.6933 440.454 34.9467 439.628 36.04C438.828 37.1067 437.828 37.9333 436.628 38.52C435.428 39.1067 434.094 39.4 432.628 39.4ZM445.72 39V18.6H448.92V39H445.72ZM445.48 13.96V10.2H449.16V13.96H445.48ZM463.731 39.4C461.731 39.4 459.971 38.9333 458.451 38C456.931 37.0667 455.744 35.8 454.891 34.2C454.064 32.5733 453.651 30.7467 453.651 28.72C453.651 26.6667 454.077 24.8533 454.931 23.28C455.784 21.7067 456.957 20.4667 458.451 19.56C459.971 18.6533 461.731 18.2 463.731 18.2C465.757 18.2 467.517 18.6533 469.011 19.56C470.531 20.4667 471.704 21.7067 472.531 23.28C473.384 24.8533 473.811 26.6667 473.811 28.72C473.811 30.7467 473.384 32.5733 472.531 34.2C471.704 35.8 470.531 37.0667 469.011 38C467.517 38.9333 465.757 39.4 463.731 39.4ZM463.731 36.68C465.117 36.68 466.317 36.3467 467.331 35.68C468.344 34.9867 469.131 34.04 469.691 32.84C470.251 31.64 470.531 30.2533 470.531 28.68C470.531 26.3333 469.904 24.4533 468.651 23.04C467.424 21.6267 465.784 20.92 463.731 20.92C461.704 20.92 460.064 21.6267 458.811 23.04C457.557 24.4533 456.931 26.3333 456.931 28.68C456.931 30.2533 457.211 31.64 457.771 32.84C458.331 34.04 459.117 34.9867 460.131 35.68C461.171 36.3467 462.371 36.68 463.731 36.68ZM501.458 39V34.24L501.858 34.36C501.351 35.9067 500.418 37.1333 499.058 38.04C497.725 38.9467 496.125 39.4 494.258 39.4C492.418 39.4 490.805 38.96 489.418 38.08C488.058 37.2 486.991 35.9733 486.218 34.4C485.471 32.8267 485.098 30.9867 485.098 28.88C485.098 26.7467 485.485 24.88 486.258 23.28C487.031 21.68 488.111 20.44 489.498 19.56C490.885 18.68 492.511 18.24 494.378 18.24C496.298 18.24 497.911 18.7067 499.218 19.64C500.525 20.5733 501.418 21.8933 501.898 23.6L501.258 23.68V10.2H504.458V39H501.458ZM494.858 36.6C496.911 36.6 498.511 35.9067 499.658 34.52C500.831 33.1067 501.418 31.1867 501.418 28.76C501.418 26.3867 500.831 24.5067 499.658 23.12C498.485 21.7333 496.885 21.04 494.858 21.04C492.831 21.04 491.245 21.7333 490.098 23.12C488.951 24.5067 488.378 26.4267 488.378 28.88C488.378 31.28 488.951 33.1733 490.098 34.56C491.245 35.92 492.831 36.6 494.858 36.6ZM519.356 39.4C517.356 39.4 515.596 38.9333 514.076 38C512.556 37.0667 511.369 35.8 510.516 34.2C509.689 32.5733 509.276 30.7467 509.276 28.72C509.276 26.6667 509.702 24.8533 510.556 23.28C511.409 21.7067 512.582 20.4667 514.076 19.56C515.596 18.6533 517.356 18.2 519.356 18.2C521.382 18.2 523.142 18.6533 524.636 19.56C526.156 20.4667 527.329 21.7067 528.156 23.28C529.009 24.8533 529.436 26.6667 529.436 28.72C529.436 30.7467 529.009 32.5733 528.156 34.2C527.329 35.8 526.156 37.0667 524.636 38C523.142 38.9333 521.382 39.4 519.356 39.4ZM519.356 36.68C520.742 36.68 521.942 36.3467 522.956 35.68C523.969 34.9867 524.756 34.04 525.316 32.84C525.876 31.64 526.156 30.2533 526.156 28.68C526.156 26.3333 525.529 24.4533 524.276 23.04C523.049 21.6267 521.409 20.92 519.356 20.92C517.329 20.92 515.689 21.6267 514.436 23.04C513.182 24.4533 512.556 26.3333 512.556 28.68C512.556 30.2533 512.836 31.64 513.396 32.84C513.956 34.04 514.742 34.9867 515.756 35.68C516.796 36.3467 517.996 36.68 519.356 36.68ZM534.235 39V18.6H537.235V23.4H537.435V39H534.235ZM548.835 39V25.64C548.835 24.0933 548.448 22.9333 547.675 22.16C546.902 21.3867 545.755 21 544.235 21C542.902 21 541.715 21.2933 540.675 21.88C539.662 22.4667 538.862 23.28 538.275 24.32C537.715 25.36 537.435 26.5733 537.435 27.96L536.915 23.12C537.608 21.6 538.662 20.4 540.075 19.52C541.515 18.64 543.142 18.2 544.955 18.2C547.088 18.2 548.795 18.8133 550.075 20.04C551.382 21.24 552.035 22.8267 552.035 24.8V39H548.835ZM573.02 39V34.24L573.42 34.36C572.914 35.9067 571.98 37.1333 570.62 38.04C569.287 38.9467 567.687 39.4 565.82 39.4C563.98 39.4 562.367 38.96 560.98 38.08C559.62 37.2 558.554 35.9733 557.78 34.4C557.034 32.8267 556.66 30.9867 556.66 28.88C556.66 26.7467 557.047 24.88 557.82 23.28C558.594 21.68 559.674 20.44 561.06 19.56C562.447 18.68 564.074 18.24 565.94 18.24C567.86 18.24 569.474 18.7067 570.78 19.64C572.087 20.5733 572.98 21.8933 573.46 23.6L572.82 23.68V10.2H576.02V39H573.02ZM566.42 36.6C568.474 36.6 570.074 35.9067 571.22 34.52C572.394 33.1067 572.98 31.1867 572.98 28.76C572.98 26.3867 572.394 24.5067 571.22 23.12C570.047 21.7333 568.447 21.04 566.42 21.04C564.394 21.04 562.807 21.7333 561.66 23.12C560.514 24.5067 559.94 26.4267 559.94 28.88C559.94 31.28 560.514 33.1733 561.66 34.56C562.807 35.92 564.394 36.6 566.42 36.6ZM590.798 39.4C588.852 39.4 587.132 38.9467 585.638 38.04C584.145 37.1067 582.972 35.84 582.118 34.24C581.265 32.64 580.838 30.8 580.838 28.72C580.838 26.64 581.252 24.8133 582.078 23.24C582.932 21.64 584.118 20.4 585.638 19.52C587.158 18.64 588.905 18.2 590.878 18.2C592.772 18.2 594.412 18.6133 595.798 19.44C597.212 20.2667 598.292 21.4267 599.038 22.92C599.812 24.4133 600.198 26.1733 600.198 28.2C600.198 28.4667 600.185 28.72 600.158 28.96C600.158 29.2 600.132 29.4667 600.078 29.76H583.238V27.08H598.118L597.078 28.56C597.078 26.1067 596.532 24.2267 595.438 22.92C594.372 21.5867 592.852 20.92 590.878 20.92C588.852 20.92 587.212 21.6267 585.958 23.04C584.732 24.4267 584.118 26.3067 584.118 28.68C584.118 31.1067 584.732 33.0533 585.958 34.52C587.212 35.96 588.878 36.68 590.958 36.68C592.265 36.68 593.412 36.4 594.398 35.84C595.385 35.2533 596.105 34.4267 596.558 33.36H599.598C598.932 35.2267 597.812 36.7067 596.238 37.8C594.692 38.8667 592.878 39.4 590.798 39.4ZM621.184 39.36C618.918 39.36 617.264 38.8533 616.224 37.84C615.211 36.8 614.704 35.3067 614.704 33.36V13.84L617.904 12.64V33.32C617.904 34.4667 618.198 35.3067 618.784 35.84C619.371 36.3733 620.331 36.64 621.664 36.64C622.198 36.64 622.651 36.6133 623.024 36.56C623.424 36.48 623.744 36.3867 623.984 36.28V39C623.718 39.1067 623.331 39.1867 622.824 39.24C622.344 39.32 621.798 39.36 621.184 39.36ZM610.504 21.32V18.6H623.984V21.32H610.504ZM628.102 39V18.6H631.102V23.8H631.302V39H628.102ZM631.302 28.36L630.782 23.52C631.262 21.7867 632.116 20.4667 633.342 19.56C634.569 18.6533 635.982 18.2 637.582 18.2C638.249 18.2 638.702 18.2533 638.942 18.36V21.44C638.809 21.3867 638.622 21.36 638.382 21.36C638.142 21.3333 637.849 21.32 637.502 21.32C635.476 21.32 633.929 21.9333 632.862 23.16C631.822 24.36 631.302 26.0933 631.302 28.36ZM655.036 39C654.93 38.5467 654.85 38.0267 654.796 37.44C654.77 36.8533 654.756 36.1067 654.756 35.2H654.556V25.44C654.556 23.8933 654.196 22.76 653.476 22.04C652.783 21.2933 651.65 20.92 650.076 20.92C648.53 20.92 647.29 21.24 646.356 21.88C645.45 22.4933 644.943 23.3733 644.836 24.52H641.756C641.89 22.5467 642.716 21 644.236 19.88C645.756 18.76 647.743 18.2 650.196 18.2C652.73 18.2 654.61 18.8 655.836 20C657.063 21.2 657.676 23 657.676 25.4V35.2C657.676 35.7867 657.716 36.4 657.796 37.04C657.876 37.6533 657.983 38.3067 658.116 39H655.036ZM648.036 39.4C645.93 39.4 644.25 38.8933 642.996 37.88C641.77 36.84 641.156 35.4267 641.156 33.64C641.156 31.8533 641.77 30.4667 642.996 29.48C644.223 28.4933 646.01 27.8 648.356 27.4L655.476 26.2V28.84L648.836 29.88C647.343 30.12 646.21 30.52 645.436 31.08C644.663 31.64 644.276 32.4533 644.276 33.52C644.276 34.56 644.623 35.3467 645.316 35.88C646.036 36.4133 647.09 36.68 648.476 36.68C650.263 36.68 651.716 36.28 652.836 35.48C653.983 34.6533 654.556 33.5867 654.556 32.28L655.076 35.12C654.65 36.48 653.81 37.5333 652.556 38.28C651.33 39.0267 649.823 39.4 648.036 39.4ZM663.845 39V18.6H666.845V23.4H667.045V39H663.845ZM678.445 39V25.64C678.445 24.0933 678.058 22.9333 677.285 22.16C676.511 21.3867 675.365 21 673.845 21C672.511 21 671.325 21.2933 670.285 21.88C669.271 22.4667 668.471 23.28 667.885 24.32C667.325 25.36 667.045 26.5733 667.045 27.96L666.525 23.12C667.218 21.6 668.271 20.4 669.685 19.52C671.125 18.64 672.751 18.2 674.565 18.2C676.698 18.2 678.405 18.8133 679.685 20.04C680.991 21.24 681.645 22.8267 681.645 24.8V39H678.445ZM694.632 39.4C692.125 39.4 690.125 38.8267 688.632 37.68C687.138 36.5067 686.285 34.8533 686.072 32.72H689.152C689.338 34.0267 689.912 35.0267 690.872 35.72C691.832 36.4133 693.112 36.76 694.712 36.76C696.125 36.76 697.232 36.4933 698.032 35.96C698.832 35.4267 699.232 34.6667 699.232 33.68C699.232 32.9867 699.005 32.3867 698.552 31.88C698.098 31.3467 697.192 30.9067 695.832 30.56L692.552 29.72C690.685 29.24 689.285 28.5067 688.352 27.52C687.418 26.5067 686.952 25.3067 686.952 23.92C686.952 22.16 687.605 20.7733 688.912 19.76C690.218 18.72 691.992 18.2 694.232 18.2C696.445 18.2 698.245 18.7333 699.632 19.8C701.018 20.8667 701.805 22.3467 701.992 24.24H698.912C698.725 23.1467 698.218 22.3067 697.392 21.72C696.565 21.1333 695.472 20.84 694.112 20.84C692.805 20.84 691.792 21.0933 691.072 21.6C690.352 22.08 689.992 22.7733 689.992 23.68C689.992 24.3733 690.245 24.9733 690.752 25.48C691.285 25.9867 692.165 26.4133 693.392 26.76L696.592 27.64C698.485 28.1467 699.912 28.92 700.872 29.96C701.832 31 702.312 32.2533 702.312 33.72C702.312 35.5067 701.632 36.9067 700.272 37.92C698.912 38.9067 697.032 39.4 694.632 39.4ZM708.298 39V15.72C708.298 13.8533 708.831 12.4 709.898 11.36C710.991 10.32 712.645 9.8 714.858 9.8C715.391 9.8 715.805 9.82667 716.098 9.88C716.418 9.93333 716.685 10 716.898 10.08V12.6C716.711 12.5467 716.445 12.4933 716.098 12.44C715.778 12.3867 715.431 12.36 715.058 12.36C713.831 12.36 712.925 12.6667 712.338 13.28C711.778 13.8933 711.498 14.76 711.498 15.88V39H708.298ZM704.098 21.32V18.6H716.458V21.32H704.098ZM728.457 39.4C726.457 39.4 724.697 38.9333 723.177 38C721.657 37.0667 720.471 35.8 719.617 34.2C718.791 32.5733 718.377 30.7467 718.377 28.72C718.377 26.6667 718.804 24.8533 719.657 23.28C720.511 21.7067 721.684 20.4667 723.177 19.56C724.697 18.6533 726.457 18.2 728.457 18.2C730.484 18.2 732.244 18.6533 733.737 19.56C735.257 20.4667 736.431 21.7067 737.257 23.28C738.111 24.8533 738.537 26.6667 738.537 28.72C738.537 30.7467 738.111 32.5733 737.257 34.2C736.431 35.8 735.257 37.0667 733.737 38C732.244 38.9333 730.484 39.4 728.457 39.4ZM728.457 36.68C729.844 36.68 731.044 36.3467 732.057 35.68C733.071 34.9867 733.857 34.04 734.417 32.84C734.977 31.64 735.257 30.2533 735.257 28.68C735.257 26.3333 734.631 24.4533 733.377 23.04C732.151 21.6267 730.511 20.92 728.457 20.92C726.431 20.92 724.791 21.6267 723.537 23.04C722.284 24.4533 721.657 26.3333 721.657 28.68C721.657 30.2533 721.937 31.64 722.497 32.84C723.057 34.04 723.844 34.9867 724.857 35.68C725.897 36.3467 727.097 36.68 728.457 36.68ZM743.337 39V18.6H746.337V23.8H746.537V39H743.337ZM746.537 28.36L746.017 23.52C746.497 21.7867 747.35 20.4667 748.577 19.56C749.803 18.6533 751.217 18.2 752.817 18.2C753.483 18.2 753.937 18.2533 754.177 18.36V21.44C754.043 21.3867 753.857 21.36 753.617 21.36C753.377 21.3333 753.083 21.32 752.737 21.32C750.71 21.32 749.163 21.9333 748.097 23.16C747.057 24.36 746.537 26.0933 746.537 28.36ZM758.337 39V18.6H761.337V23.4H761.537V39H758.337ZM772.097 39V25.48C772.097 23.9333 771.75 22.8 771.057 22.08C770.363 21.36 769.363 21 768.057 21C766.83 21 765.723 21.2933 764.737 21.88C763.75 22.4667 762.963 23.28 762.377 24.32C761.817 25.36 761.537 26.5733 761.537 27.96L761.017 23.12C761.71 21.6 762.75 20.4 764.137 19.52C765.523 18.64 767.03 18.2 768.657 18.2C770.63 18.2 772.23 18.7867 773.457 19.96C774.683 21.1067 775.297 22.6667 775.297 24.64V39H772.097ZM785.857 39V25.48C785.857 23.9333 785.51 22.8 784.817 22.08C784.123 21.36 783.123 21 781.817 21C780.59 21 779.483 21.2933 778.497 21.88C777.51 22.4667 776.723 23.28 776.137 24.32C775.577 25.36 775.297 26.5733 775.297 27.96L774.497 23.12C775.19 21.6 776.257 20.4 777.697 19.52C779.137 18.64 780.683 18.2 782.337 18.2C784.31 18.2 785.923 18.7867 787.177 19.96C788.43 21.1067 789.057 22.6667 789.057 24.64V39H785.857ZM807.615 39C807.508 38.5467 807.428 38.0267 807.375 37.44C807.348 36.8533 807.335 36.1067 807.335 35.2H807.135V25.44C807.135 23.8933 806.775 22.76 806.055 22.04C805.361 21.2933 804.228 20.92 802.655 20.92C801.108 20.92 799.868 21.24 798.935 21.88C798.028 22.4933 797.521 23.3733 797.415 24.52H794.335C794.468 22.5467 795.295 21 796.815 19.88C798.335 18.76 800.321 18.2 802.775 18.2C805.308 18.2 807.188 18.8 808.415 20C809.641 21.2 810.255 23 810.255 25.4V35.2C810.255 35.7867 810.295 36.4 810.375 37.04C810.455 37.6533 810.561 38.3067 810.695 39H807.615ZM800.615 39.4C798.508 39.4 796.828 38.8933 795.575 37.88C794.348 36.84 793.735 35.4267 793.735 33.64C793.735 31.8533 794.348 30.4667 795.575 29.48C796.801 28.4933 798.588 27.8 800.935 27.4L808.055 26.2V28.84L801.415 29.88C799.921 30.12 798.788 30.52 798.015 31.08C797.241 31.64 796.855 32.4533 796.855 33.52C796.855 34.56 797.201 35.3467 797.895 35.88C798.615 36.4133 799.668 36.68 801.055 36.68C802.841 36.68 804.295 36.28 805.415 35.48C806.561 34.6533 807.135 33.5867 807.135 32.28L807.655 35.12C807.228 36.48 806.388 37.5333 805.135 38.28C803.908 39.0267 802.401 39.4 800.615 39.4ZM823.265 39.4C820.758 39.4 818.758 38.8267 817.265 37.68C815.771 36.5067 814.918 34.8533 814.705 32.72H817.785C817.971 34.0267 818.545 35.0267 819.505 35.72C820.465 36.4133 821.745 36.76 823.345 36.76C824.758 36.76 825.865 36.4933 826.665 35.96C827.465 35.4267 827.865 34.6667 827.865 33.68C827.865 32.9867 827.638 32.3867 827.185 31.88C826.731 31.3467 825.825 30.9067 824.465 30.56L821.185 29.72C819.318 29.24 817.918 28.5067 816.985 27.52C816.051 26.5067 815.585 25.3067 815.585 23.92C815.585 22.16 816.238 20.7733 817.545 19.76C818.851 18.72 820.625 18.2 822.865 18.2C825.078 18.2 826.878 18.7333 828.265 19.8C829.651 20.8667 830.438 22.3467 830.625 24.24H827.545C827.358 23.1467 826.851 22.3067 826.025 21.72C825.198 21.1333 824.105 20.84 822.745 20.84C821.438 20.84 820.425 21.0933 819.705 21.6C818.985 22.08 818.625 22.7733 818.625 23.68C818.625 24.3733 818.878 24.9733 819.385 25.48C819.918 25.9867 820.798 26.4133 822.025 26.76L825.225 27.64C827.118 28.1467 828.545 28.92 829.505 29.96C830.465 31 830.945 32.2533 830.945 33.72C830.945 35.5067 830.265 36.9067 828.905 37.92C827.545 38.9067 825.665 39.4 823.265 39.4ZM123.606 88.36C121.339 88.36 119.686 87.8533 118.646 86.84C117.633 85.8 117.126 84.3067 117.126 82.36V62.84L120.326 61.64V82.32C120.326 83.4667 120.619 84.3067 121.206 84.84C121.793 85.3733 122.753 85.64 124.086 85.64C124.619 85.64 125.073 85.6133 125.446 85.56C125.846 85.48 126.166 85.3867 126.406 85.28V88C126.139 88.1067 125.753 88.1867 125.246 88.24C124.766 88.32 124.219 88.36 123.606 88.36ZM112.926 70.32V67.6H126.406V70.32H112.926ZM136.969 88.4C135.636 88.4 134.449 88.1333 133.409 87.6C132.369 87.04 131.556 86.2667 130.969 85.28C130.382 84.2667 130.089 83.1067 130.089 81.8V67.6H133.289V80.96C133.289 82.5067 133.662 83.6667 134.409 84.44C135.182 85.2133 136.276 85.6 137.689 85.6C138.969 85.6 140.102 85.3067 141.089 84.72C142.076 84.1333 142.849 83.32 143.409 82.28C143.996 81.2133 144.289 80 144.289 78.64L144.809 83.48C144.142 85 143.102 86.2 141.689 87.08C140.276 87.96 138.702 88.4 136.969 88.4ZM144.489 88V83.2H144.289V67.6H147.489V88H144.489ZM168.811 88.4C166.305 88.4 164.305 87.8267 162.811 86.68C161.318 85.5067 160.465 83.8533 160.251 81.72H163.331C163.518 83.0267 164.091 84.0267 165.051 84.72C166.011 85.4133 167.291 85.76 168.891 85.76C170.305 85.76 171.411 85.4933 172.211 84.96C173.011 84.4267 173.411 83.6667 173.411 82.68C173.411 81.9867 173.185 81.3867 172.731 80.88C172.278 80.3467 171.371 79.9067 170.011 79.56L166.731 78.72C164.865 78.24 163.465 77.5067 162.531 76.52C161.598 75.5067 161.131 74.3067 161.131 72.92C161.131 71.16 161.785 69.7733 163.091 68.76C164.398 67.72 166.171 67.2 168.411 67.2C170.625 67.2 172.425 67.7333 173.811 68.8C175.198 69.8667 175.985 71.3467 176.171 73.24H173.091C172.905 72.1467 172.398 71.3067 171.571 70.72C170.745 70.1333 169.651 69.84 168.291 69.84C166.985 69.84 165.971 70.0933 165.251 70.6C164.531 71.08 164.171 71.7733 164.171 72.68C164.171 73.3733 164.425 73.9733 164.931 74.48C165.465 74.9867 166.345 75.4133 167.571 75.76L170.771 76.64C172.665 77.1467 174.091 77.92 175.051 78.96C176.011 80 176.491 81.2533 176.491 82.72C176.491 84.5067 175.811 85.9067 174.451 86.92C173.091 87.9067 171.211 88.4 168.811 88.4ZM193.982 88C193.875 87.5467 193.795 87.0267 193.742 86.44C193.715 85.8533 193.702 85.1067 193.702 84.2H193.502V74.44C193.502 72.8933 193.142 71.76 192.422 71.04C191.728 70.2933 190.595 69.92 189.022 69.92C187.475 69.92 186.235 70.24 185.302 70.88C184.395 71.4933 183.888 72.3733 183.782 73.52H180.702C180.835 71.5467 181.662 70 183.182 68.88C184.702 67.76 186.688 67.2 189.142 67.2C191.675 67.2 193.555 67.8 194.782 69C196.008 70.2 196.622 72 196.622 74.4V84.2C196.622 84.7867 196.662 85.4 196.742 86.04C196.822 86.6533 196.928 87.3067 197.062 88H193.982ZM186.982 88.4C184.875 88.4 183.195 87.8933 181.942 86.88C180.715 85.84 180.102 84.4267 180.102 82.64C180.102 80.8533 180.715 79.4667 181.942 78.48C183.168 77.4933 184.955 76.8 187.302 76.4L194.422 75.2V77.84L187.782 78.88C186.288 79.12 185.155 79.52 184.382 80.08C183.608 80.64 183.222 81.4533 183.222 82.52C183.222 83.56 183.568 84.3467 184.262 84.88C184.982 85.4133 186.035 85.68 187.422 85.68C189.208 85.68 190.662 85.28 191.782 84.48C192.928 83.6533 193.502 82.5867 193.502 81.28L194.022 84.12C193.595 85.48 192.755 86.5333 191.502 87.28C190.275 88.0267 188.768 88.4 186.982 88.4ZM202.79 88V59.2H205.99V88H202.79ZM219.039 88.4C217.706 88.4 216.519 88.1333 215.479 87.6C214.439 87.04 213.626 86.2667 213.039 85.28C212.453 84.2667 212.159 83.1067 212.159 81.8V67.6H215.359V80.96C215.359 82.5067 215.733 83.6667 216.479 84.44C217.253 85.2133 218.346 85.6 219.759 85.6C221.039 85.6 222.173 85.3067 223.159 84.72C224.146 84.1333 224.919 83.32 225.479 82.28C226.066 81.2133 226.359 80 226.359 78.64L226.879 83.48C226.213 85 225.173 86.2 223.759 87.08C222.346 87.96 220.773 88.4 219.039 88.4ZM226.559 88V83.2H226.359V67.6H229.559V88H226.559ZM250.716 88V83.24L251.116 83.36C250.609 84.9067 249.676 86.1333 248.316 87.04C246.982 87.9467 245.382 88.4 243.516 88.4C241.676 88.4 240.062 87.96 238.676 87.08C237.316 86.2 236.249 84.9733 235.476 83.4C234.729 81.8267 234.356 79.9867 234.356 77.88C234.356 75.7467 234.742 73.88 235.516 72.28C236.289 70.68 237.369 69.44 238.756 68.56C240.142 67.68 241.769 67.24 243.636 67.24C245.556 67.24 247.169 67.7067 248.476 68.64C249.782 69.5733 250.676 70.8933 251.156 72.6L250.516 72.68V59.2H253.716V88H250.716ZM244.116 85.6C246.169 85.6 247.769 84.9067 248.916 83.52C250.089 82.1067 250.676 80.1867 250.676 77.76C250.676 75.3867 250.089 73.5067 248.916 72.12C247.742 70.7333 246.142 70.04 244.116 70.04C242.089 70.04 240.502 70.7333 239.356 72.12C238.209 73.5067 237.636 75.4267 237.636 77.88C237.636 80.28 238.209 82.1733 239.356 83.56C240.502 84.92 242.089 85.6 244.116 85.6ZM260.014 93.76V92.12C260.787 91.8267 261.347 91.36 261.694 90.72C262.04 90.1067 262.214 89.16 262.214 87.88L263.454 88H260.014V83.92H264.054V87.16C264.054 88.8667 263.734 90.28 263.094 91.4C262.454 92.52 261.427 93.3067 260.014 93.76ZM286.497 88.36C284.23 88.36 282.577 87.8533 281.537 86.84C280.523 85.8 280.017 84.3067 280.017 82.36V62.84L283.217 61.64V82.32C283.217 83.4667 283.51 84.3067 284.097 84.84C284.683 85.3733 285.643 85.64 286.977 85.64C287.51 85.64 287.963 85.6133 288.337 85.56C288.737 85.48 289.057 85.3867 289.297 85.28V88C289.03 88.1067 288.643 88.1867 288.137 88.24C287.657 88.32 287.11 88.36 286.497 88.36ZM275.817 70.32V67.6H289.297V70.32H275.817ZM299.86 88.4C298.526 88.4 297.34 88.1333 296.3 87.6C295.26 87.04 294.446 86.2667 293.86 85.28C293.273 84.2667 292.98 83.1067 292.98 81.8V67.6H296.18V80.96C296.18 82.5067 296.553 83.6667 297.3 84.44C298.073 85.2133 299.166 85.6 300.58 85.6C301.86 85.6 302.993 85.3067 303.98 84.72C304.966 84.1333 305.74 83.32 306.3 82.28C306.886 81.2133 307.18 80 307.18 78.64L307.7 83.48C307.033 85 305.993 86.2 304.58 87.08C303.166 87.96 301.593 88.4 299.86 88.4ZM307.38 88V83.2H307.18V67.6H310.38V88H307.38ZM323.616 88.4C321.109 88.4 319.109 87.8267 317.616 86.68C316.123 85.5067 315.269 83.8533 315.056 81.72H318.136C318.323 83.0267 318.896 84.0267 319.856 84.72C320.816 85.4133 322.096 85.76 323.696 85.76C325.109 85.76 326.216 85.4933 327.016 84.96C327.816 84.4267 328.216 83.6667 328.216 82.68C328.216 81.9867 327.989 81.3867 327.536 80.88C327.083 80.3467 326.176 79.9067 324.816 79.56L321.536 78.72C319.669 78.24 318.269 77.5067 317.336 76.52C316.403 75.5067 315.936 74.3067 315.936 72.92C315.936 71.16 316.589 69.7733 317.896 68.76C319.203 67.72 320.976 67.2 323.216 67.2C325.429 67.2 327.229 67.7333 328.616 68.8C330.003 69.8667 330.789 71.3467 330.976 73.24H327.896C327.709 72.1467 327.203 71.3067 326.376 70.72C325.549 70.1333 324.456 69.84 323.096 69.84C321.789 69.84 320.776 70.0933 320.056 70.6C319.336 71.08 318.976 71.7733 318.976 72.68C318.976 73.3733 319.229 73.9733 319.736 74.48C320.269 74.9867 321.149 75.4133 322.376 75.76L325.576 76.64C327.469 77.1467 328.896 77.92 329.856 78.96C330.816 80 331.296 81.2533 331.296 82.72C331.296 84.5067 330.616 85.9067 329.256 86.92C327.896 87.9067 326.016 88.4 323.616 88.4ZM345.29 88V64.72C345.29 62.8533 345.823 61.4 346.89 60.36C347.983 59.32 349.637 58.8 351.85 58.8C352.383 58.8 352.797 58.8267 353.09 58.88C353.41 58.9333 353.677 59 353.89 59.08V61.6C353.703 61.5467 353.437 61.4933 353.09 61.44C352.77 61.3867 352.423 61.36 352.05 61.36C350.823 61.36 349.917 61.6667 349.33 62.28C348.77 62.8933 348.49 63.76 348.49 64.88V88H345.29ZM358.17 88V67.6H361.37V88H358.17ZM341.09 70.32V67.6H359.97V70.32H341.09ZM357.93 62.96V59.2H361.61V62.96H357.93ZM367.399 88V67.6H370.399V72.4H370.599V88H367.399ZM381.999 88V74.64C381.999 73.0933 381.613 71.9333 380.839 71.16C380.066 70.3867 378.919 70 377.399 70C376.066 70 374.879 70.2933 373.839 70.88C372.826 71.4667 372.026 72.28 371.439 73.32C370.879 74.36 370.599 75.5733 370.599 76.96L370.079 72.12C370.773 70.6 371.826 69.4 373.239 68.52C374.679 67.64 376.306 67.2 378.119 67.2C380.253 67.2 381.959 67.8133 383.239 69.04C384.546 70.24 385.199 71.8267 385.199 73.8V88H381.999ZM403.747 88C403.641 87.5467 403.561 87.0267 403.507 86.44C403.481 85.8533 403.467 85.1067 403.467 84.2H403.267V74.44C403.267 72.8933 402.907 71.76 402.187 71.04C401.494 70.2933 400.361 69.92 398.787 69.92C397.241 69.92 396.001 70.24 395.067 70.88C394.161 71.4933 393.654 72.3733 393.547 73.52H390.467C390.601 71.5467 391.427 70 392.947 68.88C394.467 67.76 396.454 67.2 398.907 67.2C401.441 67.2 403.321 67.8 404.547 69C405.774 70.2 406.387 72 406.387 74.4V84.2C406.387 84.7867 406.427 85.4 406.507 86.04C406.587 86.6533 406.694 87.3067 406.827 88H403.747ZM396.747 88.4C394.641 88.4 392.961 87.8933 391.707 86.88C390.481 85.84 389.867 84.4267 389.867 82.64C389.867 80.8533 390.481 79.4667 391.707 78.48C392.934 77.4933 394.721 76.8 397.067 76.4L404.187 75.2V77.84L397.547 78.88C396.054 79.12 394.921 79.52 394.147 80.08C393.374 80.64 392.987 81.4533 392.987 82.52C392.987 83.56 393.334 84.3467 394.027 84.88C394.747 85.4133 395.801 85.68 397.187 85.68C398.974 85.68 400.427 85.28 401.547 84.48C402.694 83.6533 403.267 82.5867 403.267 81.28L403.787 84.12C403.361 85.48 402.521 86.5333 401.267 87.28C400.041 88.0267 398.534 88.4 396.747 88.4ZM412.555 88V67.6H415.555V72.4H415.755V88H412.555ZM427.155 88V74.64C427.155 73.0933 426.769 71.9333 425.995 71.16C425.222 70.3867 424.075 70 422.555 70C421.222 70 420.035 70.2933 418.995 70.88C417.982 71.4667 417.182 72.28 416.595 73.32C416.035 74.36 415.755 75.5733 415.755 76.96L415.235 72.12C415.929 70.6 416.982 69.4 418.395 68.52C419.835 67.64 421.462 67.2 423.275 67.2C425.409 67.2 427.115 67.8133 428.395 69.04C429.702 70.24 430.355 71.8267 430.355 73.8V88H427.155ZM434.562 88V85.68L446.962 68.84L448.162 70.32H434.962V67.6H450.002V69.92L437.602 86.76L436.402 85.28H450.402V88H434.562ZM467.419 88C467.313 87.5467 467.233 87.0267 467.179 86.44C467.153 85.8533 467.139 85.1067 467.139 84.2H466.939V74.44C466.939 72.8933 466.579 71.76 465.859 71.04C465.166 70.2933 464.033 69.92 462.459 69.92C460.913 69.92 459.673 70.24 458.739 70.88C457.833 71.4933 457.326 72.3733 457.219 73.52H454.139C454.273 71.5467 455.099 70 456.619 68.88C458.139 67.76 460.126 67.2 462.579 67.2C465.113 67.2 466.993 67.8 468.219 69C469.446 70.2 470.059 72 470.059 74.4V84.2C470.059 84.7867 470.099 85.4 470.179 86.04C470.259 86.6533 470.366 87.3067 470.499 88H467.419ZM460.419 88.4C458.313 88.4 456.633 87.8933 455.379 86.88C454.153 85.84 453.539 84.4267 453.539 82.64C453.539 80.8533 454.153 79.4667 455.379 78.48C456.606 77.4933 458.393 76.8 460.739 76.4L467.859 75.2V77.84L461.219 78.88C459.726 79.12 458.593 79.52 457.819 80.08C457.046 80.64 456.659 81.4533 456.659 82.52C456.659 83.56 457.006 84.3467 457.699 84.88C458.419 85.4133 459.473 85.68 460.859 85.68C462.646 85.68 464.099 85.28 465.219 84.48C466.366 83.6533 466.939 82.5867 466.939 81.28L467.459 84.12C467.033 85.48 466.193 86.5333 464.939 87.28C463.713 88.0267 462.206 88.4 460.419 88.4ZM483.069 88.4C480.563 88.4 478.563 87.8267 477.069 86.68C475.576 85.5067 474.723 83.8533 474.509 81.72H477.589C477.776 83.0267 478.349 84.0267 479.309 84.72C480.269 85.4133 481.549 85.76 483.149 85.76C484.563 85.76 485.669 85.4933 486.469 84.96C487.269 84.4267 487.669 83.6667 487.669 82.68C487.669 81.9867 487.443 81.3867 486.989 80.88C486.536 80.3467 485.629 79.9067 484.269 79.56L480.989 78.72C479.123 78.24 477.723 77.5067 476.789 76.52C475.856 75.5067 475.389 74.3067 475.389 72.92C475.389 71.16 476.043 69.7733 477.349 68.76C478.656 67.72 480.429 67.2 482.669 67.2C484.883 67.2 486.683 67.7333 488.069 68.8C489.456 69.8667 490.243 71.3467 490.429 73.24H487.349C487.163 72.1467 486.656 71.3067 485.829 70.72C485.003 70.1333 483.909 69.84 482.549 69.84C481.243 69.84 480.229 70.0933 479.509 70.6C478.789 71.08 478.429 71.7733 478.429 72.68C478.429 73.3733 478.683 73.9733 479.189 74.48C479.723 74.9867 480.603 75.4133 481.829 75.76L485.029 76.64C486.923 77.1467 488.349 77.92 489.309 78.96C490.269 80 490.749 81.2533 490.749 82.72C490.749 84.5067 490.069 85.9067 488.709 86.92C487.349 87.9067 485.469 88.4 483.069 88.4ZM504.823 96.2L509.383 85.6L510.103 84.48L516.783 67.6H520.063L508.223 96.2H504.823ZM509.743 88.2L500.583 67.6H504.103L511.983 86.04L509.743 88.2ZM540.169 88.36C537.902 88.36 536.249 87.8533 535.209 86.84C534.195 85.8 533.689 84.3067 533.689 82.36V62.84L536.889 61.64V82.32C536.889 83.4667 537.182 84.3067 537.769 84.84C538.355 85.3733 539.315 85.64 540.649 85.64C541.182 85.64 541.635 85.6133 542.009 85.56C542.409 85.48 542.729 85.3867 542.969 85.28V88C542.702 88.1067 542.315 88.1867 541.809 88.24C541.329 88.32 540.782 88.36 540.169 88.36ZM529.489 70.32V67.6H542.969V70.32H529.489ZM553.531 88.4C552.198 88.4 551.011 88.1333 549.971 87.6C548.931 87.04 548.118 86.2667 547.531 85.28C546.945 84.2667 546.651 83.1067 546.651 81.8V67.6H549.851V80.96C549.851 82.5067 550.225 83.6667 550.971 84.44C551.745 85.2133 552.838 85.6 554.251 85.6C555.531 85.6 556.665 85.3067 557.651 84.72C558.638 84.1333 559.411 83.32 559.971 82.28C560.558 81.2133 560.851 80 560.851 78.64L561.371 83.48C560.705 85 559.665 86.2 558.251 87.08C556.838 87.96 555.265 88.4 553.531 88.4ZM561.051 88V83.2H560.851V67.6H564.051V88H561.051ZM584.414 88L575.974 67.6H579.414L586.454 85.84H585.174L592.174 67.6H595.454L587.014 88H584.414ZM599.118 88V67.6H602.318V88H599.118ZM598.878 62.96V59.2H602.558V62.96H598.878ZM623.489 88V83.24L623.889 83.36C623.383 84.9067 622.449 86.1333 621.089 87.04C619.756 87.9467 618.156 88.4 616.289 88.4C614.449 88.4 612.836 87.96 611.449 87.08C610.089 86.2 609.023 84.9733 608.249 83.4C607.503 81.8267 607.129 79.9867 607.129 77.88C607.129 75.7467 607.516 73.88 608.289 72.28C609.063 70.68 610.143 69.44 611.529 68.56C612.916 67.68 614.543 67.24 616.409 67.24C618.329 67.24 619.943 67.7067 621.249 68.64C622.556 69.5733 623.449 70.8933 623.929 72.6L623.289 72.68V59.2H626.489V88H623.489ZM616.889 85.6C618.943 85.6 620.543 84.9067 621.689 83.52C622.863 82.1067 623.449 80.1867 623.449 77.76C623.449 75.3867 622.863 73.5067 621.689 72.12C620.516 70.7333 618.916 70.04 616.889 70.04C614.863 70.04 613.276 70.7333 612.129 72.12C610.983 73.5067 610.409 75.4267 610.409 77.88C610.409 80.28 610.983 82.1733 612.129 83.56C613.276 84.92 614.863 85.6 616.889 85.6ZM645.427 88C645.32 87.5467 645.24 87.0267 645.187 86.44C645.16 85.8533 645.147 85.1067 645.147 84.2H644.947V74.44C644.947 72.8933 644.587 71.76 643.867 71.04C643.174 70.2933 642.04 69.92 640.467 69.92C638.92 69.92 637.68 70.24 636.747 70.88C635.84 71.4933 635.334 72.3733 635.227 73.52H632.147C632.28 71.5467 633.107 70 634.627 68.88C636.147 67.76 638.134 67.2 640.587 67.2C643.12 67.2 645 67.8 646.227 69C647.454 70.2 648.067 72 648.067 74.4V84.2C648.067 84.7867 648.107 85.4 648.187 86.04C648.267 86.6533 648.374 87.3067 648.507 88H645.427ZM638.427 88.4C636.32 88.4 634.64 87.8933 633.387 86.88C632.16 85.84 631.547 84.4267 631.547 82.64C631.547 80.8533 632.16 79.4667 633.387 78.48C634.614 77.4933 636.4 76.8 638.747 76.4L645.867 75.2V77.84L639.227 78.88C637.734 79.12 636.6 79.52 635.827 80.08C635.054 80.64 634.667 81.4533 634.667 82.52C634.667 83.56 635.014 84.3467 635.707 84.88C636.427 85.4133 637.48 85.68 638.867 85.68C640.654 85.68 642.107 85.28 643.227 84.48C644.374 83.6533 644.947 82.5867 644.947 81.28L645.467 84.12C645.04 85.48 644.2 86.5333 642.947 87.28C641.72 88.0267 640.214 88.4 638.427 88.4ZM652.63 88V83.88H656.75V88H652.63ZM661.224 88V83.88H665.344V88H661.224ZM669.817 88V83.88H673.937V88H669.817ZM695.1 88.4C692.594 88.4 690.594 87.8267 689.1 86.68C687.607 85.5067 686.754 83.8533 686.54 81.72H689.62C689.807 83.0267 690.38 84.0267 691.34 84.72C692.3 85.4133 693.58 85.76 695.18 85.76C696.594 85.76 697.7 85.4933 698.5 84.96C699.3 84.4267 699.7 83.6667 699.7 82.68C699.7 81.9867 699.474 81.3867 699.02 80.88C698.567 80.3467 697.66 79.9067 696.3 79.56L693.02 78.72C691.154 78.24 689.754 77.5067 688.82 76.52C687.887 75.5067 687.42 74.3067 687.42 72.92C687.42 71.16 688.074 69.7733 689.38 68.76C690.687 67.72 692.46 67.2 694.7 67.2C696.914 67.2 698.714 67.7333 700.1 68.8C701.487 69.8667 702.274 71.3467 702.46 73.24H699.38C699.194 72.1467 698.687 71.3067 697.86 70.72C697.034 70.1333 695.94 69.84 694.58 69.84C693.274 69.84 692.26 70.0933 691.54 70.6C690.82 71.08 690.46 71.7733 690.46 72.68C690.46 73.3733 690.714 73.9733 691.22 74.48C691.754 74.9867 692.634 75.4133 693.86 75.76L697.06 76.64C698.954 77.1467 700.38 77.92 701.34 78.96C702.3 80 702.78 81.2533 702.78 82.72C702.78 84.5067 702.1 85.9067 700.74 86.92C699.38 87.9067 697.5 88.4 695.1 88.4ZM707.399 88V67.6H710.599V88H707.399ZM707.159 62.96V59.2H710.839V62.96H707.159ZM717.009 88V67.6H720.009V72.4H720.209V88H717.009ZM731.609 88V74.64C731.609 73.0933 731.222 71.9333 730.449 71.16C729.675 70.3867 728.529 70 727.009 70C725.675 70 724.489 70.2933 723.449 70.88C722.435 71.4667 721.635 72.28 721.049 73.32C720.489 74.36 720.209 75.5733 720.209 76.96L719.689 72.12C720.382 70.6 721.435 69.4 722.849 68.52C724.289 67.64 725.915 67.2 727.729 67.2C729.862 67.2 731.569 67.8133 732.849 69.04C734.155 70.24 734.809 71.8267 734.809 73.8V88H731.609ZM288.233 137.4C286.366 137.4 284.7 136.947 283.233 136.04C281.793 135.107 280.646 133.84 279.793 132.24C278.966 130.613 278.553 128.773 278.553 126.72C278.553 124.667 278.966 122.853 279.793 121.28C280.646 119.707 281.793 118.467 283.233 117.56C284.7 116.653 286.353 116.2 288.193 116.2C289.713 116.2 291.073 116.493 292.273 117.08C293.5 117.667 294.5 118.507 295.273 119.6C296.073 120.667 296.58 121.92 296.793 123.36H293.833C293.566 122.053 292.953 120.987 291.993 120.16C291.033 119.333 289.793 118.92 288.273 118.92C286.966 118.92 285.833 119.24 284.873 119.88C283.913 120.52 283.166 121.427 282.633 122.6C282.1 123.773 281.833 125.147 281.833 126.72C281.833 128.293 282.1 129.68 282.633 130.88C283.166 132.08 283.913 133.013 284.873 133.68C285.86 134.347 287.006 134.68 288.313 134.68C289.78 134.68 291.006 134.28 291.993 133.48C292.98 132.653 293.606 131.587 293.873 130.28H296.833C296.593 131.693 296.06 132.947 295.233 134.04C294.433 135.107 293.433 135.933 292.233 136.52C291.033 137.107 289.7 137.4 288.233 137.4ZM309.883 137.4C307.883 137.4 306.123 136.933 304.603 136C303.083 135.067 301.896 133.8 301.043 132.2C300.216 130.573 299.803 128.747 299.803 126.72C299.803 124.667 300.23 122.853 301.083 121.28C301.936 119.707 303.11 118.467 304.603 117.56C306.123 116.653 307.883 116.2 309.883 116.2C311.91 116.2 313.67 116.653 315.163 117.56C316.683 118.467 317.856 119.707 318.683 121.28C319.536 122.853 319.963 124.667 319.963 126.72C319.963 128.747 319.536 130.573 318.683 132.2C317.856 133.8 316.683 135.067 315.163 136C313.67 136.933 311.91 137.4 309.883 137.4ZM309.883 134.68C311.27 134.68 312.47 134.347 313.483 133.68C314.496 132.987 315.283 132.04 315.843 130.84C316.403 129.64 316.683 128.253 316.683 126.68C316.683 124.333 316.056 122.453 314.803 121.04C313.576 119.627 311.936 118.92 309.883 118.92C307.856 118.92 306.216 119.627 304.963 121.04C303.71 122.453 303.083 124.333 303.083 126.68C303.083 128.253 303.363 129.64 303.923 130.84C304.483 132.04 305.27 132.987 306.283 133.68C307.323 134.347 308.523 134.68 309.883 134.68ZM324.763 137V116.6H327.763V121.4H327.963V137H324.763ZM338.523 137V123.48C338.523 121.933 338.176 120.8 337.483 120.08C336.789 119.36 335.789 119 334.483 119C333.256 119 332.149 119.293 331.163 119.88C330.176 120.467 329.389 121.28 328.803 122.32C328.243 123.36 327.963 124.573 327.963 125.96L327.442 121.12C328.136 119.6 329.176 118.4 330.563 117.52C331.949 116.64 333.456 116.2 335.083 116.2C337.056 116.2 338.656 116.787 339.883 117.96C341.109 119.107 341.723 120.667 341.723 122.64V137H338.523ZM352.283 137V123.48C352.283 121.933 351.936 120.8 351.243 120.08C350.549 119.36 349.549 119 348.243 119C347.016 119 345.909 119.293 344.923 119.88C343.936 120.467 343.149 121.28 342.563 122.32C342.003 123.36 341.723 124.573 341.723 125.96L340.923 121.12C341.616 119.6 342.683 118.4 344.123 117.52C345.563 116.64 347.109 116.2 348.763 116.2C350.736 116.2 352.349 116.787 353.603 117.96C354.856 119.107 355.483 120.667 355.483 122.64V137H352.283ZM371.718 137.36C369.798 137.36 368.184 136.893 366.878 135.96C365.571 135.027 364.678 133.707 364.198 132L364.838 131.92V145.2H361.638V116.6H364.638V121.36L364.198 121.24C364.704 119.667 365.664 118.44 367.078 117.56C368.491 116.653 370.131 116.2 371.998 116.2C373.811 116.2 375.384 116.64 376.718 117.52C378.078 118.4 379.131 119.627 379.878 121.2C380.624 122.773 380.998 124.613 380.998 126.72C380.998 128.853 380.611 130.72 379.838 132.32C379.064 133.92 377.984 135.16 376.598 136.04C375.211 136.92 373.584 137.36 371.718 137.36ZM371.238 134.56C373.264 134.56 374.851 133.867 375.998 132.48C377.144 131.067 377.718 129.147 377.718 126.72C377.718 124.32 377.144 122.44 375.998 121.08C374.851 119.693 373.264 119 371.238 119C369.211 119 367.611 119.707 366.438 121.12C365.264 122.507 364.678 124.413 364.678 126.84C364.678 129.213 365.264 131.093 366.438 132.48C367.611 133.867 369.211 134.56 371.238 134.56ZM385.895 137V108.2H389.095V137H385.895ZM395.505 137V116.6H398.705V137H395.505ZM395.265 111.96V108.2H398.945V111.96H395.265ZM413.116 137.4C411.249 137.4 409.583 136.947 408.116 136.04C406.676 135.107 405.529 133.84 404.676 132.24C403.849 130.613 403.436 128.773 403.436 126.72C403.436 124.667 403.849 122.853 404.676 121.28C405.529 119.707 406.676 118.467 408.116 117.56C409.583 116.653 411.236 116.2 413.076 116.2C414.596 116.2 415.956 116.493 417.156 117.08C418.383 117.667 419.383 118.507 420.156 119.6C420.956 120.667 421.463 121.92 421.676 123.36H418.716C418.449 122.053 417.836 120.987 416.876 120.16C415.916 119.333 414.676 118.92 413.156 118.92C411.849 118.92 410.716 119.24 409.756 119.88C408.796 120.52 408.049 121.427 407.516 122.6C406.983 123.773 406.716 125.147 406.716 126.72C406.716 128.293 406.983 129.68 407.516 130.88C408.049 132.08 408.796 133.013 409.756 133.68C410.743 134.347 411.889 134.68 413.196 134.68C414.663 134.68 415.889 134.28 416.876 133.48C417.863 132.653 418.489 131.587 418.756 130.28H421.716C421.476 131.693 420.943 132.947 420.116 134.04C419.316 135.107 418.316 135.933 417.116 136.52C415.916 137.107 414.583 137.4 413.116 137.4ZM438.806 137C438.699 136.547 438.619 136.027 438.566 135.44C438.539 134.853 438.526 134.107 438.526 133.2H438.326V123.44C438.326 121.893 437.966 120.76 437.246 120.04C436.553 119.293 435.419 118.92 433.846 118.92C432.299 118.92 431.059 119.24 430.126 119.88C429.219 120.493 428.713 121.373 428.606 122.52H425.526C425.659 120.547 426.486 119 428.006 117.88C429.526 116.76 431.513 116.2 433.966 116.2C436.499 116.2 438.379 116.8 439.606 118C440.833 119.2 441.446 121 441.446 123.4V133.2C441.446 133.787 441.486 134.4 441.566 135.04C441.646 135.653 441.753 136.307 441.886 137H438.806ZM431.806 137.4C429.699 137.4 428.019 136.893 426.766 135.88C425.539 134.84 424.926 133.427 424.926 131.64C424.926 129.853 425.539 128.467 426.766 127.48C427.993 126.493 429.779 125.8 432.126 125.4L439.246 124.2V126.84L432.606 127.88C431.113 128.12 429.979 128.52 429.206 129.08C428.433 129.64 428.046 130.453 428.046 131.52C428.046 132.56 428.393 133.347 429.086 133.88C429.806 134.413 430.859 134.68 432.246 134.68C434.033 134.68 435.486 134.28 436.606 133.48C437.753 132.653 438.326 131.587 438.326 130.28L438.846 133.12C438.419 134.48 437.579 135.533 436.326 136.28C435.099 137.027 433.593 137.4 431.806 137.4ZM455.694 137.4C453.827 137.4 452.161 136.947 450.694 136.04C449.254 135.107 448.107 133.84 447.254 132.24C446.427 130.613 446.014 128.773 446.014 126.72C446.014 124.667 446.427 122.853 447.254 121.28C448.107 119.707 449.254 118.467 450.694 117.56C452.161 116.653 453.814 116.2 455.654 116.2C457.174 116.2 458.534 116.493 459.734 117.08C460.961 117.667 461.961 118.507 462.734 119.6C463.534 120.667 464.041 121.92 464.254 123.36H461.294C461.027 122.053 460.414 120.987 459.454 120.16C458.494 119.333 457.254 118.92 455.734 118.92C454.427 118.92 453.294 119.24 452.334 119.88C451.374 120.52 450.627 121.427 450.094 122.6C449.561 123.773 449.294 125.147 449.294 126.72C449.294 128.293 449.561 129.68 450.094 130.88C450.627 132.08 451.374 133.013 452.334 133.68C453.321 134.347 454.467 134.68 455.774 134.68C457.241 134.68 458.467 134.28 459.454 133.48C460.441 132.653 461.067 131.587 461.334 130.28H464.294C464.054 131.693 463.521 132.947 462.694 134.04C461.894 135.107 460.894 135.933 459.694 136.52C458.494 137.107 457.161 137.4 455.694 137.4ZM468.786 137V116.6H471.986V137H468.786ZM468.546 111.96V108.2H472.226V111.96H468.546ZM486.797 137.4C484.797 137.4 483.037 136.933 481.517 136C479.997 135.067 478.811 133.8 477.957 132.2C477.131 130.573 476.717 128.747 476.717 126.72C476.717 124.667 477.144 122.853 477.997 121.28C478.851 119.707 480.024 118.467 481.517 117.56C483.037 116.653 484.797 116.2 486.797 116.2C488.824 116.2 490.584 116.653 492.077 117.56C493.597 118.467 494.771 119.707 495.597 121.28C496.451 122.853 496.877 124.667 496.877 126.72C496.877 128.747 496.451 130.573 495.597 132.2C494.771 133.8 493.597 135.067 492.077 136C490.584 136.933 488.824 137.4 486.797 137.4ZM486.797 134.68C488.184 134.68 489.384 134.347 490.397 133.68C491.411 132.987 492.197 132.04 492.757 130.84C493.317 129.64 493.597 128.253 493.597 126.68C493.597 124.333 492.971 122.453 491.717 121.04C490.491 119.627 488.851 118.92 486.797 118.92C484.771 118.92 483.131 119.627 481.877 121.04C480.624 122.453 479.997 124.333 479.997 126.68C479.997 128.253 480.277 129.64 480.837 130.84C481.397 132.04 482.184 132.987 483.197 133.68C484.237 134.347 485.437 134.68 486.797 134.68ZM501.677 137V116.6H504.677V121.4H504.877V137H501.677ZM516.277 137V123.64C516.277 122.093 515.89 120.933 515.117 120.16C514.343 119.387 513.197 119 511.677 119C510.343 119 509.157 119.293 508.117 119.88C507.103 120.467 506.303 121.28 505.717 122.32C505.157 123.36 504.877 124.573 504.877 125.96L504.357 121.12C505.05 119.6 506.103 118.4 507.517 117.52C508.957 116.64 510.583 116.2 512.397 116.2C514.53 116.2 516.237 116.813 517.517 118.04C518.823 119.24 519.477 120.827 519.477 122.8V137H516.277ZM533.982 137.4C532.035 137.4 530.315 136.947 528.822 136.04C527.329 135.107 526.155 133.84 525.302 132.24C524.449 130.64 524.022 128.8 524.022 126.72C524.022 124.64 524.435 122.813 525.262 121.24C526.115 119.64 527.302 118.4 528.822 117.52C530.342 116.64 532.089 116.2 534.062 116.2C535.955 116.2 537.595 116.613 538.982 117.44C540.395 118.267 541.475 119.427 542.222 120.92C542.995 122.413 543.382 124.173 543.382 126.2C543.382 126.467 543.369 126.72 543.342 126.96C543.342 127.2 543.315 127.467 543.262 127.76H526.422V125.08H541.302L540.262 126.56C540.262 124.107 539.715 122.227 538.622 120.92C537.555 119.587 536.035 118.92 534.062 118.92C532.035 118.92 530.395 119.627 529.142 121.04C527.915 122.427 527.302 124.307 527.302 126.68C527.302 129.107 527.915 131.053 529.142 132.52C530.395 133.96 532.062 134.68 534.142 134.68C535.449 134.68 536.595 134.4 537.582 133.84C538.569 133.253 539.289 132.427 539.742 131.36H542.782C542.115 133.227 540.995 134.707 539.422 135.8C537.875 136.867 536.062 137.4 533.982 137.4ZM555.12 137.4C552.613 137.4 550.613 136.827 549.12 135.68C547.627 134.507 546.773 132.853 546.56 130.72H549.64C549.827 132.027 550.4 133.027 551.36 133.72C552.32 134.413 553.6 134.76 555.2 134.76C556.613 134.76 557.72 134.493 558.52 133.96C559.32 133.427 559.72 132.667 559.72 131.68C559.72 130.987 559.493 130.387 559.04 129.88C558.587 129.347 557.68 128.907 556.32 128.56L553.04 127.72C551.173 127.24 549.773 126.507 548.84 125.52C547.907 124.507 547.44 123.307 547.44 121.92C547.44 120.16 548.093 118.773 549.4 117.76C550.707 116.72 552.48 116.2 554.72 116.2C556.933 116.2 558.733 116.733 560.12 117.8C561.507 118.867 562.293 120.347 562.48 122.24H559.4C559.213 121.147 558.707 120.307 557.88 119.72C557.053 119.133 555.96 118.84 554.6 118.84C553.293 118.84 552.28 119.093 551.56 119.6C550.84 120.08 550.48 120.773 550.48 121.68C550.48 122.373 550.733 122.973 551.24 123.48C551.773 123.987 552.653 124.413 553.88 124.76L557.08 125.64C558.973 126.147 560.4 126.92 561.36 127.96C562.32 129 562.8 130.253 562.8 131.72C562.8 133.507 562.12 134.907 560.76 135.92C559.4 136.907 557.52 137.4 555.12 137.4ZM565.892 137V132.88H570.012V137H565.892Z" fill="#2B4F6C"/>
<path d="M618.061 52.2573C696.5 43.0035 740 39.9997 818.061 51.2573" stroke="#ED7D2B" stroke-width="5"/>
<path d="M280.04 155.406C393.684 145.711 456.703 142.527 569.758 153.958" stroke="#ED7D2B" stroke-width="5"/>
</svg>
