<svg width="850" height="147" viewBox="0 0 850 147" fill="none" xmlns="http://www.w3.org/2000/svg">
<path d="M505.317 49.6271C622.82 41.1887 687.721 43.9807 804.671 50.7053" stroke="#ED7D2B" stroke-width="5"/>
<path d="M18.5377 39V10.2H21.9377L38.4577 34.44L37.9777 34.52V10.2H41.0977V39H37.6977L21.1777 14.76L21.6577 14.68V39H18.5377ZM56.2308 39.4C54.2308 39.4 52.4708 38.9333 50.9508 38C49.4308 37.0667 48.2441 35.8 47.3908 34.2C46.5641 32.5733 46.1508 30.7467 46.1508 28.72C46.1508 26.6667 46.5774 24.8533 47.4308 23.28C48.2841 21.7067 49.4574 20.4667 50.9508 19.56C52.4708 18.6533 54.2308 18.2 56.2308 18.2C58.2574 18.2 60.0174 18.6533 61.5108 19.56C63.0308 20.4667 64.2041 21.7067 65.0308 23.28C65.8841 24.8533 66.3108 26.6667 66.3108 28.72C66.3108 30.7467 65.8841 32.5733 65.0308 34.2C64.2041 35.8 63.0308 37.0667 61.5108 38C60.0174 38.9333 58.2574 39.4 56.2308 39.4ZM56.2308 36.68C57.6174 36.68 58.8174 36.3467 59.8308 35.68C60.8441 34.9867 61.6308 34.04 62.1908 32.84C62.7508 31.64 63.0308 30.2533 63.0308 28.68C63.0308 26.3333 62.4041 24.4533 61.1508 23.04C59.9241 21.6267 58.2841 20.92 56.2308 20.92C54.2041 20.92 52.5641 21.6267 51.3108 23.04C50.0574 24.4533 49.4308 26.3333 49.4308 28.68C49.4308 30.2533 49.7108 31.64 50.2708 32.84C50.8308 34.04 51.6174 34.9867 52.6308 35.68C53.6708 36.3467 54.8708 36.68 56.2308 36.68ZM87.478 39.4C85.5313 39.4 83.8113 38.9467 82.318 38.04C80.8246 37.1067 79.6513 35.84 78.798 34.24C77.9446 32.64 77.518 30.8 77.518 28.72C77.518 26.64 77.9313 24.8133 78.758 23.24C79.6113 21.64 80.798 20.4 82.318 19.52C83.838 18.64 85.5846 18.2 87.558 18.2C89.4513 18.2 91.0913 18.6133 92.478 19.44C93.8913 20.2667 94.9713 21.4267 95.718 22.92C96.4913 24.4133 96.878 26.1733 96.878 28.2C96.878 28.4667 96.8646 28.72 96.838 28.96C96.838 29.2 96.8113 29.4667 96.758 29.76H79.918V27.08H94.798L93.758 28.56C93.758 26.1067 93.2113 24.2267 92.118 22.92C91.0513 21.5867 89.5313 20.92 87.558 20.92C85.5313 20.92 83.8913 21.6267 82.638 23.04C81.4113 24.4267 80.798 26.3067 80.798 28.68C80.798 31.1067 81.4113 33.0533 82.638 34.52C83.8913 35.96 85.558 36.68 87.638 36.68C88.9446 36.68 90.0913 36.4 91.078 35.84C92.0646 35.2533 92.7846 34.4267 93.238 33.36H96.278C95.6113 35.2267 94.4913 36.7067 92.918 37.8C91.3713 38.8667 89.558 39.4 87.478 39.4ZM108.616 39.4C106.109 39.4 104.109 38.8267 102.616 37.68C101.123 36.5067 100.269 34.8533 100.056 32.72H103.136C103.323 34.0267 103.896 35.0267 104.856 35.72C105.816 36.4133 107.096 36.76 108.696 36.76C110.109 36.76 111.216 36.4933 112.016 35.96C112.816 35.4267 113.216 34.6667 113.216 33.68C113.216 32.9867 112.989 32.3867 112.536 31.88C112.083 31.3467 111.176 30.9067 109.816 30.56L106.536 29.72C104.669 29.24 103.269 28.5067 102.336 27.52C101.403 26.5067 100.936 25.3067 100.936 23.92C100.936 22.16 101.589 20.7733 102.896 19.76C104.203 18.72 105.976 18.2 108.216 18.2C110.429 18.2 112.229 18.7333 113.616 19.8C115.003 20.8667 115.789 22.3467 115.976 24.24H112.896C112.709 23.1467 112.203 22.3067 111.376 21.72C110.549 21.1333 109.456 20.84 108.096 20.84C106.789 20.84 105.776 21.0933 105.056 21.6C104.336 22.08 103.976 22.7733 103.976 23.68C103.976 24.3733 104.229 24.9733 104.736 25.48C105.269 25.9867 106.149 26.4133 107.376 26.76L110.576 27.64C112.469 28.1467 113.896 28.92 114.856 29.96C115.816 31 116.296 32.2533 116.296 33.72C116.296 35.5067 115.616 36.9067 114.256 37.92C112.896 38.9067 111.016 39.4 108.616 39.4ZM128.762 39.36C126.496 39.36 124.842 38.8533 123.802 37.84C122.789 36.8 122.282 35.3067 122.282 33.36V13.84L125.482 12.64V33.32C125.482 34.4667 125.776 35.3067 126.362 35.84C126.949 36.3733 127.909 36.64 129.242 36.64C129.776 36.64 130.229 36.6133 130.602 36.56C131.002 36.48 131.322 36.3867 131.562 36.28V39C131.296 39.1067 130.909 39.1867 130.402 39.24C129.922 39.32 129.376 39.36 128.762 39.36ZM118.082 21.32V18.6H131.562V21.32H118.082ZM148.2 39C148.094 38.5467 148.014 38.0267 147.96 37.44C147.934 36.8533 147.92 36.1067 147.92 35.2H147.72V25.44C147.72 23.8933 147.36 22.76 146.64 22.04C145.947 21.2933 144.814 20.92 143.24 20.92C141.694 20.92 140.454 21.24 139.52 21.88C138.614 22.4933 138.107 23.3733 138 24.52H134.92C135.054 22.5467 135.88 21 137.4 19.88C138.92 18.76 140.907 18.2 143.36 18.2C145.894 18.2 147.774 18.8 149 20C150.227 21.2 150.84 23 150.84 25.4V35.2C150.84 35.7867 150.88 36.4 150.96 37.04C151.04 37.6533 151.147 38.3067 151.28 39H148.2ZM141.2 39.4C139.094 39.4 137.414 38.8933 136.16 37.88C134.934 36.84 134.32 35.4267 134.32 33.64C134.32 31.8533 134.934 30.4667 136.16 29.48C137.387 28.4933 139.174 27.8 141.52 27.4L148.64 26.2V28.84L142 29.88C140.507 30.12 139.374 30.52 138.6 31.08C137.827 31.64 137.44 32.4533 137.44 33.52C137.44 34.56 137.787 35.3467 138.48 35.88C139.2 36.4133 140.254 36.68 141.64 36.68C143.427 36.68 144.88 36.28 146 35.48C147.147 34.6533 147.72 33.5867 147.72 32.28L148.24 35.12C147.814 36.48 146.974 37.5333 145.72 38.28C144.494 39.0267 142.987 39.4 141.2 39.4ZM143 15.68H139.96L144.48 9.4H149.4L143 15.68ZM163.85 39.4C161.344 39.4 159.344 38.8267 157.85 37.68C156.357 36.5067 155.504 34.8533 155.29 32.72H158.37C158.557 34.0267 159.13 35.0267 160.09 35.72C161.05 36.4133 162.33 36.76 163.93 36.76C165.344 36.76 166.45 36.4933 167.25 35.96C168.05 35.4267 168.45 34.6667 168.45 33.68C168.45 32.9867 168.224 32.3867 167.77 31.88C167.317 31.3467 166.41 30.9067 165.05 30.56L161.77 29.72C159.904 29.24 158.504 28.5067 157.57 27.52C156.637 26.5067 156.17 25.3067 156.17 23.92C156.17 22.16 156.824 20.7733 158.13 19.76C159.437 18.72 161.21 18.2 163.45 18.2C165.664 18.2 167.464 18.7333 168.85 19.8C170.237 20.8667 171.024 22.3467 171.21 24.24H168.13C167.944 23.1467 167.437 22.3067 166.61 21.72C165.784 21.1333 164.69 20.84 163.33 20.84C162.024 20.84 161.01 21.0933 160.29 21.6C159.57 22.08 159.21 22.7733 159.21 23.68C159.21 24.3733 159.464 24.9733 159.97 25.48C160.504 25.9867 161.384 26.4133 162.61 26.76L165.81 27.64C167.704 28.1467 169.13 28.92 170.09 29.96C171.05 31 171.53 32.2533 171.53 33.72C171.53 35.5067 170.85 36.9067 169.49 37.92C168.13 38.9067 166.25 39.4 163.85 39.4ZM190.765 39.4C188.258 39.4 186.258 38.8267 184.765 37.68C183.271 36.5067 182.418 34.8533 182.205 32.72H185.285C185.471 34.0267 186.045 35.0267 187.005 35.72C187.965 36.4133 189.245 36.76 190.845 36.76C192.258 36.76 193.365 36.4933 194.165 35.96C194.965 35.4267 195.365 34.6667 195.365 33.68C195.365 32.9867 195.138 32.3867 194.685 31.88C194.231 31.3467 193.325 30.9067 191.965 30.56L188.685 29.72C186.818 29.24 185.418 28.5067 184.485 27.52C183.551 26.5067 183.085 25.3067 183.085 23.92C183.085 22.16 183.738 20.7733 185.045 19.76C186.351 18.72 188.125 18.2 190.365 18.2C192.578 18.2 194.378 18.7333 195.765 19.8C197.151 20.8667 197.938 22.3467 198.125 24.24H195.045C194.858 23.1467 194.351 22.3067 193.525 21.72C192.698 21.1333 191.605 20.84 190.245 20.84C188.938 20.84 187.925 21.0933 187.205 21.6C186.485 22.08 186.125 22.7733 186.125 23.68C186.125 24.3733 186.378 24.9733 186.885 25.48C187.418 25.9867 188.298 26.4133 189.525 26.76L192.725 27.64C194.618 28.1467 196.045 28.92 197.005 29.96C197.965 31 198.445 32.2533 198.445 33.72C198.445 35.5067 197.765 36.9067 196.405 37.92C195.045 38.9067 193.165 39.4 190.765 39.4ZM211.934 39.4C209.934 39.4 208.174 38.9333 206.654 38C205.134 37.0667 203.947 35.8 203.094 34.2C202.267 32.5733 201.854 30.7467 201.854 28.72C201.854 26.6667 202.281 24.8533 203.134 23.28C203.987 21.7067 205.161 20.4667 206.654 19.56C208.174 18.6533 209.934 18.2 211.934 18.2C213.961 18.2 215.721 18.6533 217.214 19.56C218.734 20.4667 219.907 21.7067 220.734 23.28C221.587 24.8533 222.014 26.6667 222.014 28.72C222.014 30.7467 221.587 32.5733 220.734 34.2C219.907 35.8 218.734 37.0667 217.214 38C215.721 38.9333 213.961 39.4 211.934 39.4ZM211.934 36.68C213.321 36.68 214.521 36.3467 215.534 35.68C216.547 34.9867 217.334 34.04 217.894 32.84C218.454 31.64 218.734 30.2533 218.734 28.68C218.734 26.3333 218.107 24.4533 216.854 23.04C215.627 21.6267 213.987 20.92 211.934 20.92C209.907 20.92 208.267 21.6267 207.014 23.04C205.761 24.4533 205.134 26.3333 205.134 28.68C205.134 30.2533 205.414 31.64 205.974 32.84C206.534 34.04 207.321 34.9867 208.334 35.68C209.374 36.3467 210.574 36.68 211.934 36.68ZM226.813 39V10.2H230.013V39H226.813ZM244.903 39.4C242.903 39.4 241.143 38.9333 239.623 38C238.103 37.0667 236.916 35.8 236.063 34.2C235.236 32.5733 234.823 30.7467 234.823 28.72C234.823 26.6667 235.249 24.8533 236.103 23.28C236.956 21.7067 238.129 20.4667 239.623 19.56C241.143 18.6533 242.903 18.2 244.903 18.2C246.929 18.2 248.689 18.6533 250.183 19.56C251.703 20.4667 252.876 21.7067 253.703 23.28C254.556 24.8533 254.983 26.6667 254.983 28.72C254.983 30.7467 254.556 32.5733 253.703 34.2C252.876 35.8 251.703 37.0667 250.183 38C248.689 38.9333 246.929 39.4 244.903 39.4ZM244.903 36.68C246.289 36.68 247.489 36.3467 248.503 35.68C249.516 34.9867 250.303 34.04 250.863 32.84C251.423 31.64 251.703 30.2533 251.703 28.68C251.703 26.3333 251.076 24.4533 249.823 23.04C248.596 21.6267 246.956 20.92 244.903 20.92C242.876 20.92 241.236 21.6267 239.983 23.04C238.729 24.4533 238.103 26.3333 238.103 28.68C238.103 30.2533 238.383 31.64 238.943 32.84C239.503 34.04 240.289 34.9867 241.303 35.68C242.343 36.3467 243.543 36.68 244.903 36.68ZM257.669 39V34.88H261.789V39H257.669ZM274.272 39L285.392 10.2H288.272L277.432 39H274.272ZM297.152 39L286.312 10.2H289.392L300.512 39H297.152ZM279.792 27.36H294.832V30.24H279.792V27.36ZM312.629 47.6C310.202 47.6 308.175 47.0267 306.549 45.88C304.949 44.76 303.975 43.2667 303.629 41.4H306.669C306.962 42.4667 307.615 43.3067 308.629 43.92C309.669 44.56 311.069 44.88 312.829 44.88C314.909 44.88 316.482 44.3067 317.549 43.16C318.615 42.04 319.149 40.3867 319.149 38.2V33.84L319.549 33.92C319.095 35.4667 318.189 36.7067 316.829 37.64C315.469 38.5467 313.855 39 311.989 39C310.202 39 308.629 38.5733 307.269 37.72C305.909 36.84 304.855 35.6267 304.109 34.08C303.362 32.5333 302.989 30.7333 302.989 28.68C302.989 26.6 303.375 24.7733 304.149 23.2C304.922 21.6267 306.002 20.4133 307.389 19.56C308.802 18.68 310.442 18.24 312.309 18.24C314.229 18.24 315.829 18.7067 317.109 19.64C318.415 20.5733 319.282 21.9067 319.709 23.64L319.349 23.68V18.6H322.349V38.2C322.349 41.1067 321.482 43.4 319.749 45.08C318.015 46.76 315.642 47.6 312.629 47.6ZM312.789 36.24C314.789 36.24 316.375 35.5467 317.549 34.16C318.722 32.7733 319.309 30.8933 319.309 28.52C319.309 26.2 318.722 24.3733 317.549 23.04C316.375 21.68 314.789 21 312.789 21C310.762 21 309.162 21.68 307.989 23.04C306.842 24.4 306.269 26.2667 306.269 28.64C306.269 30.96 306.855 32.8133 308.029 34.2C309.202 35.56 310.789 36.24 312.789 36.24ZM337.126 39.4C335.18 39.4 333.46 38.9467 331.966 38.04C330.473 37.1067 329.3 35.84 328.446 34.24C327.593 32.64 327.166 30.8 327.166 28.72C327.166 26.64 327.58 24.8133 328.406 23.24C329.26 21.64 330.446 20.4 331.966 19.52C333.486 18.64 335.233 18.2 337.206 18.2C339.1 18.2 340.74 18.6133 342.126 19.44C343.54 20.2667 344.62 21.4267 345.366 22.92C346.14 24.4133 346.526 26.1733 346.526 28.2C346.526 28.4667 346.513 28.72 346.486 28.96C346.486 29.2 346.46 29.4667 346.406 29.76H329.566V27.08H344.446L343.406 28.56C343.406 26.1067 342.86 24.2267 341.766 22.92C340.7 21.5867 339.18 20.92 337.206 20.92C335.18 20.92 333.54 21.6267 332.286 23.04C331.06 24.4267 330.446 26.3067 330.446 28.68C330.446 31.1067 331.06 33.0533 332.286 34.52C333.54 35.96 335.206 36.68 337.286 36.68C338.593 36.68 339.74 36.4 340.726 35.84C341.713 35.2533 342.433 34.4267 342.886 33.36H345.926C345.26 35.2267 344.14 36.7067 342.566 37.8C341.02 38.8667 339.206 39.4 337.126 39.4ZM351.345 39V18.6H354.345V23.4H354.545V39H351.345ZM365.945 39V25.64C365.945 24.0933 365.558 22.9333 364.785 22.16C364.011 21.3867 362.865 21 361.345 21C360.011 21 358.825 21.2933 357.785 21.88C356.771 22.4667 355.971 23.28 355.385 24.32C354.825 25.36 354.545 26.5733 354.545 27.96L354.025 23.12C354.718 21.6 355.771 20.4 357.185 19.52C358.625 18.64 360.251 18.2 362.065 18.2C364.198 18.2 365.905 18.8133 367.185 20.04C368.491 21.24 369.145 22.8267 369.145 24.8V39H365.945ZM390.13 39V34.24L390.53 34.36C390.023 35.9067 389.09 37.1333 387.73 38.04C386.397 38.9467 384.797 39.4 382.93 39.4C381.09 39.4 379.477 38.96 378.09 38.08C376.73 37.2 375.663 35.9733 374.89 34.4C374.143 32.8267 373.77 30.9867 373.77 28.88C373.77 26.7467 374.157 24.88 374.93 23.28C375.703 21.68 376.783 20.44 378.17 19.56C379.557 18.68 381.183 18.24 383.05 18.24C384.97 18.24 386.583 18.7067 387.89 19.64C389.197 20.5733 390.09 21.8933 390.57 23.6L389.93 23.68V10.2H393.13V39H390.13ZM383.53 36.6C385.583 36.6 387.183 35.9067 388.33 34.52C389.503 33.1067 390.09 31.1867 390.09 28.76C390.09 26.3867 389.503 24.5067 388.33 23.12C387.157 21.7333 385.557 21.04 383.53 21.04C381.503 21.04 379.917 21.7333 378.77 23.12C377.623 24.5067 377.05 26.4267 377.05 28.88C377.05 31.28 377.623 33.1733 378.77 34.56C379.917 35.92 381.503 36.6 383.53 36.6ZM412.068 39C411.961 38.5467 411.881 38.0267 411.828 37.44C411.801 36.8533 411.788 36.1067 411.788 35.2H411.588V25.44C411.588 23.8933 411.228 22.76 410.508 22.04C409.814 21.2933 408.681 20.92 407.108 20.92C405.561 20.92 404.321 21.24 403.388 21.88C402.481 22.4933 401.974 23.3733 401.868 24.52H398.788C398.921 22.5467 399.748 21 401.268 19.88C402.788 18.76 404.774 18.2 407.228 18.2C409.761 18.2 411.641 18.8 412.868 20C414.094 21.2 414.708 23 414.708 25.4V35.2C414.708 35.7867 414.748 36.4 414.828 37.04C414.908 37.6533 415.014 38.3067 415.148 39H412.068ZM405.068 39.4C402.961 39.4 401.281 38.8933 400.028 37.88C398.801 36.84 398.188 35.4267 398.188 33.64C398.188 31.8533 398.801 30.4667 400.028 29.48C401.254 28.4933 403.041 27.8 405.388 27.4L412.508 26.2V28.84L405.868 29.88C404.374 30.12 403.241 30.52 402.468 31.08C401.694 31.64 401.308 32.4533 401.308 33.52C401.308 34.56 401.654 35.3467 402.348 35.88C403.068 36.4133 404.121 36.68 405.508 36.68C407.294 36.68 408.748 36.28 409.868 35.48C411.014 34.6533 411.588 33.5867 411.588 32.28L412.108 35.12C411.681 36.48 410.841 37.5333 409.588 38.28C408.361 39.0267 406.854 39.4 405.068 39.4ZM435.524 39.4C434.19 39.4 433.004 39.1333 431.964 38.6C430.924 38.04 430.11 37.2667 429.524 36.28C428.937 35.2667 428.644 34.1067 428.644 32.8V18.6H431.844V31.96C431.844 33.5067 432.217 34.6667 432.964 35.44C433.737 36.2133 434.83 36.6 436.244 36.6C437.524 36.6 438.657 36.3067 439.644 35.72C440.63 35.1333 441.404 34.32 441.964 33.28C442.55 32.2133 442.844 31 442.844 29.64L443.364 34.48C442.697 36 441.657 37.2 440.244 38.08C438.83 38.96 437.257 39.4 435.524 39.4ZM443.044 39V34.2H442.844V18.6H446.044V39H443.044ZM452.438 39V18.6H455.438V23.4H455.638V39H452.438ZM467.038 39V25.64C467.038 24.0933 466.652 22.9333 465.878 22.16C465.105 21.3867 463.958 21 462.438 21C461.105 21 459.918 21.2933 458.878 21.88C457.865 22.4667 457.065 23.28 456.478 24.32C455.918 25.36 455.638 26.5733 455.638 27.96L455.118 23.12C455.812 21.6 456.865 20.4 458.278 19.52C459.718 18.64 461.345 18.2 463.158 18.2C465.292 18.2 466.998 18.8133 468.278 20.04C469.585 21.24 470.238 22.8267 470.238 24.8V39H467.038ZM488.786 39C488.68 38.5467 488.6 38.0267 488.546 37.44C488.52 36.8533 488.506 36.1067 488.506 35.2H488.306V25.44C488.306 23.8933 487.946 22.76 487.226 22.04C486.533 21.2933 485.4 20.92 483.826 20.92C482.28 20.92 481.04 21.24 480.106 21.88C479.2 22.4933 478.693 23.3733 478.586 24.52H475.506C475.64 22.5467 476.466 21 477.986 19.88C479.506 18.76 481.493 18.2 483.946 18.2C486.48 18.2 488.36 18.8 489.586 20C490.813 21.2 491.426 23 491.426 25.4V35.2C491.426 35.7867 491.466 36.4 491.546 37.04C491.626 37.6533 491.733 38.3067 491.866 39H488.786ZM481.786 39.4C479.68 39.4 478 38.8933 476.746 37.88C475.52 36.84 474.906 35.4267 474.906 33.64C474.906 31.8533 475.52 30.4667 476.746 29.48C477.973 28.4933 479.76 27.8 482.106 27.4L489.226 26.2V28.84L482.586 29.88C481.093 30.12 479.96 30.52 479.186 31.08C478.413 31.64 478.026 32.4533 478.026 33.52C478.026 34.56 478.373 35.3467 479.066 35.88C479.786 36.4133 480.84 36.68 482.226 36.68C484.013 36.68 485.466 36.28 486.586 35.48C487.733 34.6533 488.306 33.5867 488.306 32.28L488.826 35.12C488.4 36.48 487.56 37.5333 486.306 38.28C485.08 39.0267 483.573 39.4 481.786 39.4ZM518.122 39C518.016 38.5467 517.936 38.0267 517.882 37.44C517.856 36.8533 517.842 36.1067 517.842 35.2H517.642V25.44C517.642 23.8933 517.282 22.76 516.562 22.04C515.869 21.2933 514.736 20.92 513.162 20.92C511.616 20.92 510.376 21.24 509.442 21.88C508.536 22.4933 508.029 23.3733 507.922 24.52H504.842C504.976 22.5467 505.802 21 507.322 19.88C508.842 18.76 510.829 18.2 513.282 18.2C515.816 18.2 517.696 18.8 518.922 20C520.149 21.2 520.762 23 520.762 25.4V35.2C520.762 35.7867 520.802 36.4 520.882 37.04C520.962 37.6533 521.069 38.3067 521.202 39H518.122ZM511.122 39.4C509.016 39.4 507.336 38.8933 506.082 37.88C504.856 36.84 504.242 35.4267 504.242 33.64C504.242 31.8533 504.856 30.4667 506.082 29.48C507.309 28.4933 509.096 27.8 511.442 27.4L518.562 26.2V28.84L511.922 29.88C510.429 30.12 509.296 30.52 508.522 31.08C507.749 31.64 507.362 32.4533 507.362 33.52C507.362 34.56 507.709 35.3467 508.402 35.88C509.122 36.4133 510.176 36.68 511.562 36.68C513.349 36.68 514.802 36.28 515.922 35.48C517.069 34.6533 517.642 33.5867 517.642 32.28L518.162 35.12C517.736 36.48 516.896 37.5333 515.642 38.28C514.416 39.0267 512.909 39.4 511.122 39.4ZM533.772 39.4C531.266 39.4 529.266 38.8267 527.772 37.68C526.279 36.5067 525.426 34.8533 525.212 32.72H528.292C528.479 34.0267 529.052 35.0267 530.012 35.72C530.972 36.4133 532.252 36.76 533.852 36.76C535.266 36.76 536.372 36.4933 537.172 35.96C537.972 35.4267 538.372 34.6667 538.372 33.68C538.372 32.9867 538.146 32.3867 537.692 31.88C537.239 31.3467 536.332 30.9067 534.972 30.56L531.692 29.72C529.826 29.24 528.426 28.5067 527.492 27.52C526.559 26.5067 526.092 25.3067 526.092 23.92C526.092 22.16 526.746 20.7733 528.052 19.76C529.359 18.72 531.132 18.2 533.372 18.2C535.586 18.2 537.386 18.7333 538.772 19.8C540.159 20.8667 540.946 22.3467 541.132 24.24H538.052C537.866 23.1467 537.359 22.3067 536.532 21.72C535.706 21.1333 534.612 20.84 533.252 20.84C531.946 20.84 530.932 21.0933 530.212 21.6C529.492 22.08 529.132 22.7733 529.132 23.68C529.132 24.3733 529.386 24.9733 529.892 25.48C530.426 25.9867 531.306 26.4133 532.532 26.76L535.732 27.64C537.626 28.1467 539.052 28.92 540.012 29.96C540.972 31 541.452 32.2533 541.452 33.72C541.452 35.5067 540.772 36.9067 539.412 37.92C538.052 38.9067 536.172 39.4 533.772 39.4ZM554.822 39.4C552.875 39.4 551.155 38.9467 549.662 38.04C548.168 37.1067 546.995 35.84 546.142 34.24C545.288 32.64 544.862 30.8 544.862 28.72C544.862 26.64 545.275 24.8133 546.102 23.24C546.955 21.64 548.142 20.4 549.662 19.52C551.182 18.64 552.928 18.2 554.902 18.2C556.795 18.2 558.435 18.6133 559.822 19.44C561.235 20.2667 562.315 21.4267 563.062 22.92C563.835 24.4133 564.222 26.1733 564.222 28.2C564.222 28.4667 564.208 28.72 564.182 28.96C564.182 29.2 564.155 29.4667 564.102 29.76H547.262V27.08H562.142L561.102 28.56C561.102 26.1067 560.555 24.2267 559.462 22.92C558.395 21.5867 556.875 20.92 554.902 20.92C552.875 20.92 551.235 21.6267 549.982 23.04C548.755 24.4267 548.142 26.3067 548.142 28.68C548.142 31.1067 548.755 33.0533 549.982 34.52C551.235 35.96 552.902 36.68 554.982 36.68C556.288 36.68 557.435 36.4 558.422 35.84C559.408 35.2533 560.128 34.4267 560.582 33.36H563.622C562.955 35.2267 561.835 36.7067 560.262 37.8C558.715 38.8667 556.902 39.4 554.822 39.4ZM575.96 39.4C573.453 39.4 571.453 38.8267 569.96 37.68C568.467 36.5067 567.613 34.8533 567.4 32.72H570.48C570.667 34.0267 571.24 35.0267 572.2 35.72C573.16 36.4133 574.44 36.76 576.04 36.76C577.453 36.76 578.56 36.4933 579.36 35.96C580.16 35.4267 580.56 34.6667 580.56 33.68C580.56 32.9867 580.333 32.3867 579.88 31.88C579.427 31.3467 578.52 30.9067 577.16 30.56L573.88 29.72C572.013 29.24 570.613 28.5067 569.68 27.52C568.747 26.5067 568.28 25.3067 568.28 23.92C568.28 22.16 568.933 20.7733 570.24 19.76C571.547 18.72 573.32 18.2 575.56 18.2C577.773 18.2 579.573 18.7333 580.96 19.8C582.347 20.8667 583.133 22.3467 583.32 24.24H580.24C580.053 23.1467 579.547 22.3067 578.72 21.72C577.893 21.1333 576.8 20.84 575.44 20.84C574.133 20.84 573.12 21.0933 572.4 21.6C571.68 22.08 571.32 22.7733 571.32 23.68C571.32 24.3733 571.573 24.9733 572.08 25.48C572.613 25.9867 573.493 26.4133 574.72 26.76L577.92 27.64C579.813 28.1467 581.24 28.92 582.2 29.96C583.16 31 583.64 32.2533 583.64 33.72C583.64 35.5067 582.96 36.9067 581.6 37.92C580.24 38.9067 578.36 39.4 575.96 39.4ZM597.129 39.4C595.129 39.4 593.369 38.9333 591.849 38C590.329 37.0667 589.143 35.8 588.289 34.2C587.463 32.5733 587.049 30.7467 587.049 28.72C587.049 26.6667 587.476 24.8533 588.329 23.28C589.183 21.7067 590.356 20.4667 591.849 19.56C593.369 18.6533 595.129 18.2 597.129 18.2C599.156 18.2 600.916 18.6533 602.409 19.56C603.929 20.4667 605.103 21.7067 605.929 23.28C606.783 24.8533 607.209 26.6667 607.209 28.72C607.209 30.7467 606.783 32.5733 605.929 34.2C605.103 35.8 603.929 37.0667 602.409 38C600.916 38.9333 599.156 39.4 597.129 39.4ZM597.129 36.68C598.516 36.68 599.716 36.3467 600.729 35.68C601.743 34.9867 602.529 34.04 603.089 32.84C603.649 31.64 603.929 30.2533 603.929 28.68C603.929 26.3333 603.303 24.4533 602.049 23.04C600.823 21.6267 599.183 20.92 597.129 20.92C595.103 20.92 593.463 21.6267 592.209 23.04C590.956 24.4533 590.329 26.3333 590.329 28.68C590.329 30.2533 590.609 31.64 591.169 32.84C591.729 34.04 592.516 34.9867 593.529 35.68C594.569 36.3467 595.769 36.68 597.129 36.68ZM612.009 39V18.6H615.009V23.8H615.209V39H612.009ZM615.209 28.36L614.689 23.52C615.169 21.7867 616.022 20.4667 617.249 19.56C618.475 18.6533 619.889 18.2 621.489 18.2C622.155 18.2 622.609 18.2533 622.849 18.36V21.44C622.715 21.3867 622.529 21.36 622.289 21.36C622.049 21.3333 621.755 21.32 621.409 21.32C619.382 21.32 617.835 21.9333 616.769 23.16C615.729 24.36 615.209 26.0933 615.209 28.36ZM626.501 39V18.6H629.701V39H626.501ZM627.941 15.68H624.901L629.421 9.4H634.341L627.941 15.68ZM648.63 39C648.523 38.5467 648.443 38.0267 648.39 37.44C648.363 36.8533 648.35 36.1067 648.35 35.2H648.15V25.44C648.15 23.8933 647.79 22.76 647.07 22.04C646.377 21.2933 645.243 20.92 643.67 20.92C642.123 20.92 640.883 21.24 639.95 21.88C639.043 22.4933 638.537 23.3733 638.43 24.52H635.35C635.483 22.5467 636.31 21 637.83 19.88C639.35 18.76 641.337 18.2 643.79 18.2C646.323 18.2 648.203 18.8 649.43 20C650.657 21.2 651.27 23 651.27 25.4V35.2C651.27 35.7867 651.31 36.4 651.39 37.04C651.47 37.6533 651.577 38.3067 651.71 39H648.63ZM641.63 39.4C639.523 39.4 637.843 38.8933 636.59 37.88C635.363 36.84 634.75 35.4267 634.75 33.64C634.75 31.8533 635.363 30.4667 636.59 29.48C637.817 28.4933 639.603 27.8 641.95 27.4L649.07 26.2V28.84L642.43 29.88C640.937 30.12 639.803 30.52 639.03 31.08C638.257 31.64 637.87 32.4533 637.87 33.52C637.87 34.56 638.217 35.3467 638.91 35.88C639.63 36.4133 640.683 36.68 642.07 36.68C643.857 36.68 645.31 36.28 646.43 35.48C647.577 34.6533 648.15 33.5867 648.15 32.28L648.67 35.12C648.243 36.48 647.403 37.5333 646.15 38.28C644.923 39.0267 643.417 39.4 641.63 39.4ZM673.566 47.6C671.139 47.6 669.113 47.0267 667.486 45.88C665.886 44.76 664.913 43.2667 664.566 41.4H667.606C667.899 42.4667 668.553 43.3067 669.566 43.92C670.606 44.56 672.006 44.88 673.766 44.88C675.846 44.88 677.419 44.3067 678.486 43.16C679.553 42.04 680.086 40.3867 680.086 38.2V33.84L680.486 33.92C680.033 35.4667 679.126 36.7067 677.766 37.64C676.406 38.5467 674.793 39 672.926 39C671.139 39 669.566 38.5733 668.206 37.72C666.846 36.84 665.793 35.6267 665.046 34.08C664.299 32.5333 663.926 30.7333 663.926 28.68C663.926 26.6 664.313 24.7733 665.086 23.2C665.859 21.6267 666.939 20.4133 668.326 19.56C669.739 18.68 671.379 18.24 673.246 18.24C675.166 18.24 676.766 18.7067 678.046 19.64C679.353 20.5733 680.219 21.9067 680.646 23.64L680.286 23.68V18.6H683.286V38.2C683.286 41.1067 682.419 43.4 680.686 45.08C678.953 46.76 676.579 47.6 673.566 47.6ZM673.726 36.24C675.726 36.24 677.313 35.5467 678.486 34.16C679.659 32.7733 680.246 30.8933 680.246 28.52C680.246 26.2 679.659 24.3733 678.486 23.04C677.313 21.68 675.726 21 673.726 21C671.699 21 670.099 21.68 668.926 23.04C667.779 24.4 667.206 26.2667 667.206 28.64C667.206 30.96 667.793 32.8133 668.966 34.2C670.139 35.56 671.726 36.24 673.726 36.24ZM689.704 39V18.6H692.704V23.8H692.904V39H689.704ZM692.904 28.36L692.384 23.52C692.864 21.7867 693.717 20.4667 694.944 19.56C696.171 18.6533 697.584 18.2 699.184 18.2C699.851 18.2 700.304 18.2533 700.544 18.36V21.44C700.411 21.3867 700.224 21.36 699.984 21.36C699.744 21.3333 699.451 21.32 699.104 21.32C697.077 21.32 695.531 21.9333 694.464 23.16C693.424 24.36 692.904 26.0933 692.904 28.36ZM716.638 39C716.531 38.5467 716.451 38.0267 716.398 37.44C716.371 36.8533 716.358 36.1067 716.358 35.2H716.158V25.44C716.158 23.8933 715.798 22.76 715.078 22.04C714.385 21.2933 713.251 20.92 711.678 20.92C710.131 20.92 708.891 21.24 707.958 21.88C707.051 22.4933 706.545 23.3733 706.438 24.52H703.358C703.491 22.5467 704.318 21 705.838 19.88C707.358 18.76 709.345 18.2 711.798 18.2C714.331 18.2 716.211 18.8 717.438 20C718.665 21.2 719.278 23 719.278 25.4V35.2C719.278 35.7867 719.318 36.4 719.398 37.04C719.478 37.6533 719.585 38.3067 719.718 39H716.638ZM709.638 39.4C707.531 39.4 705.851 38.8933 704.598 37.88C703.371 36.84 702.758 35.4267 702.758 33.64C702.758 31.8533 703.371 30.4667 704.598 29.48C705.825 28.4933 707.611 27.8 709.958 27.4L717.078 26.2V28.84L710.438 29.88C708.945 30.12 707.811 30.52 707.038 31.08C706.265 31.64 705.878 32.4533 705.878 33.52C705.878 34.56 706.225 35.3467 706.918 35.88C707.638 36.4133 708.691 36.68 710.078 36.68C711.865 36.68 713.318 36.28 714.438 35.48C715.585 34.6533 716.158 33.5867 716.158 32.28L716.678 35.12C716.251 36.48 715.411 37.5333 714.158 38.28C712.931 39.0267 711.425 39.4 709.638 39.4ZM733.059 39.36C730.793 39.36 729.139 38.8533 728.099 37.84C727.086 36.8 726.579 35.3067 726.579 33.36V13.84L729.779 12.64V33.32C729.779 34.4667 730.073 35.3067 730.659 35.84C731.246 36.3733 732.206 36.64 733.539 36.64C734.073 36.64 734.526 36.6133 734.899 36.56C735.299 36.48 735.619 36.3867 735.859 36.28V39C735.593 39.1067 735.206 39.1867 734.699 39.24C734.219 39.32 733.673 39.36 733.059 39.36ZM722.379 21.32V18.6H735.859V21.32H722.379ZM746.422 39.4C745.089 39.4 743.902 39.1333 742.862 38.6C741.822 38.04 741.009 37.2667 740.422 36.28C739.835 35.2667 739.542 34.1067 739.542 32.8V18.6H742.742V31.96C742.742 33.5067 743.115 34.6667 743.862 35.44C744.635 36.2133 745.729 36.6 747.142 36.6C748.422 36.6 749.555 36.3067 750.542 35.72C751.529 35.1333 752.302 34.32 752.862 33.28C753.449 32.2133 753.742 31 753.742 29.64L754.262 34.48C753.595 36 752.555 37.2 751.142 38.08C749.729 38.96 748.155 39.4 746.422 39.4ZM753.942 39V34.2H753.742V18.6H756.942V39H753.942ZM763.22 39V18.6H766.42V39H763.22ZM762.98 13.96V10.2H766.66V13.96H762.98ZM780.911 39.36C778.644 39.36 776.991 38.8533 775.951 37.84C774.937 36.8 774.431 35.3067 774.431 33.36V13.84L777.631 12.64V33.32C777.631 34.4667 777.924 35.3067 778.511 35.84C779.097 36.3733 780.057 36.64 781.391 36.64C781.924 36.64 782.377 36.6133 782.751 36.56C783.151 36.48 783.471 36.3867 783.711 36.28V39C783.444 39.1067 783.057 39.1867 782.551 39.24C782.071 39.32 781.524 39.36 780.911 39.36ZM770.231 21.32V18.6H783.711V21.32H770.231ZM800.349 39C800.242 38.5467 800.162 38.0267 800.109 37.44C800.082 36.8533 800.069 36.1067 800.069 35.2H799.869V25.44C799.869 23.8933 799.509 22.76 798.789 22.04C798.096 21.2933 796.962 20.92 795.389 20.92C793.842 20.92 792.602 21.24 791.669 21.88C790.762 22.4933 790.256 23.3733 790.149 24.52H787.069C787.202 22.5467 788.029 21 789.549 19.88C791.069 18.76 793.056 18.2 795.509 18.2C798.042 18.2 799.922 18.8 801.149 20C802.376 21.2 802.989 23 802.989 25.4V35.2C802.989 35.7867 803.029 36.4 803.109 37.04C803.189 37.6533 803.296 38.3067 803.429 39H800.349ZM793.349 39.4C791.242 39.4 789.562 38.8933 788.309 37.88C787.082 36.84 786.469 35.4267 786.469 33.64C786.469 31.8533 787.082 30.4667 788.309 29.48C789.536 28.4933 791.322 27.8 793.669 27.4L800.789 26.2V28.84L794.149 29.88C792.656 30.12 791.522 30.52 790.749 31.08C789.976 31.64 789.589 32.4533 789.589 33.52C789.589 34.56 789.936 35.3467 790.629 35.88C791.349 36.4133 792.402 36.68 793.789 36.68C795.576 36.68 797.029 36.28 798.149 35.48C799.296 34.6533 799.869 33.5867 799.869 32.28L800.389 35.12C799.962 36.48 799.122 37.5333 797.869 38.28C796.642 39.0267 795.136 39.4 793.349 39.4ZM818.925 47.2L823.485 36.6L824.205 35.48L830.885 18.6H834.165L822.325 47.2H818.925ZM823.845 39.2L814.685 18.6H818.205L826.085 37.04L823.845 39.2ZM55.2275 88V83.24L55.6275 83.36C55.1208 84.9067 54.1875 86.1333 52.8275 87.04C51.4942 87.9467 49.8942 88.4 48.0275 88.4C46.1875 88.4 44.5742 87.96 43.1875 87.08C41.8275 86.2 40.7608 84.9733 39.9875 83.4C39.2408 81.8267 38.8675 79.9867 38.8675 77.88C38.8675 75.7467 39.2542 73.88 40.0275 72.28C40.8008 70.68 41.8808 69.44 43.2675 68.56C44.6542 67.68 46.2808 67.24 48.1475 67.24C50.0675 67.24 51.6808 67.7067 52.9875 68.64C54.2942 69.5733 55.1875 70.8933 55.6675 72.6L55.0275 72.68V59.2H58.2275V88H55.2275ZM48.6275 85.6C50.6808 85.6 52.2808 84.9067 53.4275 83.52C54.6008 82.1067 55.1875 80.1867 55.1875 77.76C55.1875 75.3867 54.6008 73.5067 53.4275 72.12C52.2542 70.7333 50.6542 70.04 48.6275 70.04C46.6008 70.04 45.0142 70.7333 43.8675 72.12C42.7208 73.5067 42.1475 75.4267 42.1475 77.88C42.1475 80.28 42.7208 82.1733 43.8675 83.56C45.0142 84.92 46.6008 85.6 48.6275 85.6ZM73.0053 88.4C71.0586 88.4 69.3386 87.9467 67.8453 87.04C66.352 86.1067 65.1786 84.84 64.3253 83.24C63.472 81.64 63.0453 79.8 63.0453 77.72C63.0453 75.64 63.4586 73.8133 64.2853 72.24C65.1386 70.64 66.3253 69.4 67.8453 68.52C69.3653 67.64 71.112 67.2 73.0853 67.2C74.9786 67.2 76.6186 67.6133 78.0053 68.44C79.4186 69.2667 80.4986 70.4267 81.2453 71.92C82.0186 73.4133 82.4053 75.1733 82.4053 77.2C82.4053 77.4667 82.392 77.72 82.3653 77.96C82.3653 78.2 82.3386 78.4667 82.2853 78.76H65.4453V76.08H80.3253L79.2853 77.56C79.2853 75.1067 78.7386 73.2267 77.6453 71.92C76.5786 70.5867 75.0586 69.92 73.0853 69.92C71.0586 69.92 69.4186 70.6267 68.1653 72.04C66.9386 73.4267 66.3253 75.3067 66.3253 77.68C66.3253 80.1067 66.9386 82.0533 68.1653 83.52C69.4186 84.96 71.0853 85.68 73.1653 85.68C74.472 85.68 75.6186 85.4 76.6053 84.84C77.592 84.2533 78.312 83.4267 78.7653 82.36H81.8053C81.1386 84.2267 80.0186 85.7067 78.4453 86.8C76.8986 87.8667 75.0853 88.4 73.0053 88.4ZM94.1434 88.4C91.6368 88.4 89.6368 87.8267 88.1434 86.68C86.6501 85.5067 85.7968 83.8533 85.5834 81.72H88.6634C88.8501 83.0267 89.4234 84.0267 90.3834 84.72C91.3434 85.4133 92.6234 85.76 94.2234 85.76C95.6368 85.76 96.7434 85.4933 97.5434 84.96C98.3434 84.4267 98.7434 83.6667 98.7434 82.68C98.7434 81.9867 98.5168 81.3867 98.0634 80.88C97.6101 80.3467 96.7034 79.9067 95.3434 79.56L92.0634 78.72C90.1968 78.24 88.7968 77.5067 87.8634 76.52C86.9301 75.5067 86.4634 74.3067 86.4634 72.92C86.4634 71.16 87.1168 69.7733 88.4234 68.76C89.7301 67.72 91.5034 67.2 93.7434 67.2C95.9568 67.2 97.7568 67.7333 99.1434 68.8C100.53 69.8667 101.317 71.3467 101.503 73.24H98.4234C98.2368 72.1467 97.7301 71.3067 96.9034 70.72C96.0768 70.1333 94.9834 69.84 93.6234 69.84C92.3168 69.84 91.3034 70.0933 90.5834 70.6C89.8634 71.08 89.5034 71.7733 89.5034 72.68C89.5034 73.3733 89.7568 73.9733 90.2634 74.48C90.7968 74.9867 91.6768 75.4133 92.9034 75.76L96.1034 76.64C97.9968 77.1467 99.4234 77.92 100.383 78.96C101.343 80 101.823 81.2533 101.823 82.72C101.823 84.5067 101.143 85.9067 99.7834 86.92C98.4234 87.9067 96.5434 88.4 94.1434 88.4ZM114.913 88.4C113.046 88.4 111.379 87.9467 109.913 87.04C108.473 86.1067 107.326 84.84 106.473 83.24C105.646 81.6133 105.233 79.7733 105.233 77.72C105.233 75.6667 105.646 73.8533 106.473 72.28C107.326 70.7067 108.473 69.4667 109.913 68.56C111.379 67.6533 113.033 67.2 114.873 67.2C116.393 67.2 117.753 67.4933 118.953 68.08C120.179 68.6667 121.179 69.5067 121.953 70.6C122.753 71.6667 123.259 72.92 123.473 74.36H120.513C120.246 73.0533 119.633 71.9867 118.673 71.16C117.713 70.3333 116.473 69.92 114.953 69.92C113.646 69.92 112.513 70.24 111.553 70.88C110.593 71.52 109.846 72.4267 109.313 73.6C108.779 74.7733 108.513 76.1467 108.513 77.72C108.513 79.2933 108.779 80.68 109.313 81.88C109.846 83.08 110.593 84.0133 111.553 84.68C112.539 85.3467 113.686 85.68 114.993 85.68C116.459 85.68 117.686 85.28 118.673 84.48C119.659 83.6533 120.286 82.5867 120.553 81.28H123.513C123.273 82.6933 122.739 83.9467 121.913 85.04C121.113 86.1067 120.113 86.9333 118.913 87.52C117.713 88.1067 116.379 88.4 114.913 88.4ZM134.449 88.4C133.116 88.4 131.929 88.1333 130.889 87.6C129.849 87.04 129.036 86.2667 128.449 85.28C127.863 84.2667 127.569 83.1067 127.569 81.8V67.6H130.769V80.96C130.769 82.5067 131.143 83.6667 131.889 84.44C132.663 85.2133 133.756 85.6 135.169 85.6C136.449 85.6 137.583 85.3067 138.569 84.72C139.556 84.1333 140.329 83.32 140.889 82.28C141.476 81.2133 141.769 80 141.769 78.64L142.289 83.48C141.623 85 140.583 86.2 139.169 87.08C137.756 87.96 136.183 88.4 134.449 88.4ZM141.969 88V83.2H141.769V67.6H144.969V88H141.969ZM161.444 88.36C159.524 88.36 157.911 87.8933 156.604 86.96C155.297 86.0267 154.404 84.7067 153.924 83L154.364 82.92V88H151.364V59.2H154.564V72.36L154.124 72.24C154.631 70.6667 155.551 69.44 156.884 68.56C158.244 67.6533 159.857 67.2 161.724 67.2C163.537 67.2 165.111 67.64 166.444 68.52C167.804 69.4 168.857 70.6267 169.604 72.2C170.351 73.7733 170.724 75.6133 170.724 77.72C170.724 79.8533 170.337 81.72 169.564 83.32C168.791 84.92 167.711 86.16 166.324 87.04C164.937 87.92 163.311 88.36 161.444 88.36ZM160.964 85.56C162.991 85.56 164.577 84.8667 165.724 83.48C166.871 82.0667 167.444 80.1467 167.444 77.72C167.444 75.32 166.871 73.44 165.724 72.08C164.577 70.6933 162.991 70 160.964 70C158.937 70 157.337 70.7067 156.164 72.12C154.991 73.5067 154.404 75.4133 154.404 77.84C154.404 80.2133 154.991 82.0933 156.164 83.48C157.337 84.8667 158.937 85.56 160.964 85.56ZM175.622 88V67.6H178.622V72.8H178.822V88H175.622ZM178.822 77.36L178.302 72.52C178.782 70.7867 179.635 69.4667 180.862 68.56C182.089 67.6533 183.502 67.2 185.102 67.2C185.769 67.2 186.222 67.2533 186.462 67.36V70.44C186.329 70.3867 186.142 70.36 185.902 70.36C185.662 70.3333 185.369 70.32 185.022 70.32C182.995 70.32 181.449 70.9333 180.382 72.16C179.342 73.36 178.822 75.0933 178.822 77.36ZM198.279 88.4C196.332 88.4 194.612 87.9467 193.119 87.04C191.625 86.1067 190.452 84.84 189.599 83.24C188.745 81.64 188.319 79.8 188.319 77.72C188.319 75.64 188.732 73.8133 189.559 72.24C190.412 70.64 191.599 69.4 193.119 68.52C194.639 67.64 196.385 67.2 198.359 67.2C200.252 67.2 201.892 67.6133 203.279 68.44C204.692 69.2667 205.772 70.4267 206.519 71.92C207.292 73.4133 207.679 75.1733 207.679 77.2C207.679 77.4667 207.665 77.72 207.639 77.96C207.639 78.2 207.612 78.4667 207.559 78.76H190.719V76.08H205.599L204.559 77.56C204.559 75.1067 204.012 73.2267 202.919 71.92C201.852 70.5867 200.332 69.92 198.359 69.92C196.332 69.92 194.692 70.6267 193.439 72.04C192.212 73.4267 191.599 75.3067 191.599 77.68C191.599 80.1067 192.212 82.0533 193.439 83.52C194.692 84.96 196.359 85.68 198.439 85.68C199.745 85.68 200.892 85.4 201.879 84.84C202.865 84.2533 203.585 83.4267 204.039 82.36H207.079C206.412 84.2267 205.292 85.7067 203.719 86.8C202.172 87.8667 200.359 88.4 198.279 88.4ZM228.585 88.4C226.718 88.4 225.051 87.9467 223.585 87.04C222.145 86.1067 220.998 84.84 220.145 83.24C219.318 81.6133 218.905 79.7733 218.905 77.72C218.905 75.6667 219.318 73.8533 220.145 72.28C220.998 70.7067 222.145 69.4667 223.585 68.56C225.051 67.6533 226.705 67.2 228.545 67.2C230.065 67.2 231.425 67.4933 232.625 68.08C233.851 68.6667 234.851 69.5067 235.625 70.6C236.425 71.6667 236.931 72.92 237.145 74.36H234.185C233.918 73.0533 233.305 71.9867 232.345 71.16C231.385 70.3333 230.145 69.92 228.625 69.92C227.318 69.92 226.185 70.24 225.225 70.88C224.265 71.52 223.518 72.4267 222.985 73.6C222.451 74.7733 222.185 76.1467 222.185 77.72C222.185 79.2933 222.451 80.68 222.985 81.88C223.518 83.08 224.265 84.0133 225.225 84.68C226.211 85.3467 227.358 85.68 228.665 85.68C230.131 85.68 231.358 85.28 232.345 84.48C233.331 83.6533 233.958 82.5867 234.225 81.28H237.185C236.945 82.6933 236.411 83.9467 235.585 85.04C234.785 86.1067 233.785 86.9333 232.585 87.52C231.385 88.1067 230.051 88.4 228.585 88.4ZM250.235 88.4C248.235 88.4 246.475 87.9333 244.955 87C243.435 86.0667 242.248 84.8 241.395 83.2C240.568 81.5733 240.155 79.7467 240.155 77.72C240.155 75.6667 240.581 73.8533 241.435 72.28C242.288 70.7067 243.461 69.4667 244.955 68.56C246.475 67.6533 248.235 67.2 250.235 67.2C252.261 67.2 254.021 67.6533 255.515 68.56C257.035 69.4667 258.208 70.7067 259.035 72.28C259.888 73.8533 260.315 75.6667 260.315 77.72C260.315 79.7467 259.888 81.5733 259.035 83.2C258.208 84.8 257.035 86.0667 255.515 87C254.021 87.9333 252.261 88.4 250.235 88.4ZM250.235 85.68C251.621 85.68 252.821 85.3467 253.835 84.68C254.848 83.9867 255.635 83.04 256.195 81.84C256.755 80.64 257.035 79.2533 257.035 77.68C257.035 75.3333 256.408 73.4533 255.155 72.04C253.928 70.6267 252.288 69.92 250.235 69.92C248.208 69.92 246.568 70.6267 245.315 72.04C244.061 73.4533 243.435 75.3333 243.435 77.68C243.435 79.2533 243.715 80.64 244.275 81.84C244.835 83.04 245.621 83.9867 246.635 84.68C247.675 85.3467 248.875 85.68 250.235 85.68ZM265.114 88V67.6H268.114V72.4H268.314V88H265.114ZM279.714 88V74.64C279.714 73.0933 279.327 71.9333 278.554 71.16C277.781 70.3867 276.634 70 275.114 70C273.781 70 272.594 70.2933 271.554 70.88C270.541 71.4667 269.741 72.28 269.154 73.32C268.594 74.36 268.314 75.5733 268.314 76.96L267.794 72.12C268.487 70.6 269.541 69.4 270.954 68.52C272.394 67.64 274.021 67.2 275.834 67.2C277.967 67.2 279.674 67.8133 280.954 69.04C282.261 70.24 282.914 71.8267 282.914 73.8V88H279.714ZM305.147 88.4C303.281 88.4 301.614 87.9467 300.147 87.04C298.707 86.1067 297.561 84.84 296.707 83.24C295.881 81.6133 295.467 79.7733 295.467 77.72C295.467 75.6667 295.881 73.8533 296.707 72.28C297.561 70.7067 298.707 69.4667 300.147 68.56C301.614 67.6533 303.267 67.2 305.107 67.2C306.627 67.2 307.987 67.4933 309.187 68.08C310.414 68.6667 311.414 69.5067 312.187 70.6C312.987 71.6667 313.494 72.92 313.707 74.36H310.747C310.481 73.0533 309.867 71.9867 308.907 71.16C307.947 70.3333 306.707 69.92 305.187 69.92C303.881 69.92 302.747 70.24 301.787 70.88C300.827 71.52 300.081 72.4267 299.547 73.6C299.014 74.7733 298.747 76.1467 298.747 77.72C298.747 79.2933 299.014 80.68 299.547 81.88C300.081 83.08 300.827 84.0133 301.787 84.68C302.774 85.3467 303.921 85.68 305.227 85.68C306.694 85.68 307.921 85.28 308.907 84.48C309.894 83.6533 310.521 82.5867 310.787 81.28H313.747C313.507 82.6933 312.974 83.9467 312.147 85.04C311.347 86.1067 310.347 86.9333 309.147 87.52C307.947 88.1067 306.614 88.4 305.147 88.4ZM318.395 88V59.2H321.595V88H318.395ZM340.525 88C340.418 87.5467 340.338 87.0267 340.285 86.44C340.258 85.8533 340.245 85.1067 340.245 84.2H340.045V74.44C340.045 72.8933 339.685 71.76 338.965 71.04C338.271 70.2933 337.138 69.92 335.565 69.92C334.018 69.92 332.778 70.24 331.845 70.88C330.938 71.4933 330.431 72.3733 330.325 73.52H327.245C327.378 71.5467 328.205 70 329.725 68.88C331.245 67.76 333.231 67.2 335.685 67.2C338.218 67.2 340.098 67.8 341.325 69C342.551 70.2 343.165 72 343.165 74.4V84.2C343.165 84.7867 343.205 85.4 343.285 86.04C343.365 86.6533 343.471 87.3067 343.605 88H340.525ZM333.525 88.4C331.418 88.4 329.738 87.8933 328.485 86.88C327.258 85.84 326.645 84.4267 326.645 82.64C326.645 80.8533 327.258 79.4667 328.485 78.48C329.711 77.4933 331.498 76.8 333.845 76.4L340.965 75.2V77.84L334.325 78.88C332.831 79.12 331.698 79.52 330.925 80.08C330.151 80.64 329.765 81.4533 329.765 82.52C329.765 83.56 330.111 84.3467 330.805 84.88C331.525 85.4133 332.578 85.68 333.965 85.68C335.751 85.68 337.205 85.28 338.325 84.48C339.471 83.6533 340.045 82.5867 340.045 81.28L340.565 84.12C340.138 85.48 339.298 86.5333 338.045 87.28C336.818 88.0267 335.311 88.4 333.525 88.4ZM349.333 88V67.6H352.333V72.8H352.533V88H349.333ZM352.533 77.36L352.013 72.52C352.493 70.7867 353.346 69.4667 354.573 68.56C355.799 67.6533 357.213 67.2 358.813 67.2C359.479 67.2 359.933 67.2533 360.173 67.36V70.44C360.039 70.3867 359.853 70.36 359.613 70.36C359.373 70.3333 359.079 70.32 358.733 70.32C356.706 70.32 355.159 70.9333 354.093 72.16C353.053 73.36 352.533 75.0933 352.533 77.36ZM363.981 88V67.6H367.181V88H363.981ZM363.741 62.96V59.2H367.421V62.96H363.741ZM388.353 88V83.24L388.753 83.36C388.246 84.9067 387.313 86.1333 385.953 87.04C384.619 87.9467 383.019 88.4 381.153 88.4C379.313 88.4 377.699 87.96 376.313 87.08C374.953 86.2 373.886 84.9733 373.113 83.4C372.366 81.8267 371.993 79.9867 371.993 77.88C371.993 75.7467 372.379 73.88 373.153 72.28C373.926 70.68 375.006 69.44 376.393 68.56C377.779 67.68 379.406 67.24 381.273 67.24C383.193 67.24 384.806 67.7067 386.113 68.64C387.419 69.5733 388.313 70.8933 388.793 72.6L388.153 72.68V59.2H391.353V88H388.353ZM381.753 85.6C383.806 85.6 385.406 84.9067 386.553 83.52C387.726 82.1067 388.313 80.1867 388.313 77.76C388.313 75.3867 387.726 73.5067 386.553 72.12C385.379 70.7333 383.779 70.04 381.753 70.04C379.726 70.04 378.139 70.7333 376.993 72.12C375.846 73.5067 375.273 75.4267 375.273 77.88C375.273 80.28 375.846 82.1733 376.993 83.56C378.139 84.92 379.726 85.6 381.753 85.6ZM410.29 88C410.184 87.5467 410.104 87.0267 410.05 86.44C410.024 85.8533 410.01 85.1067 410.01 84.2H409.81V74.44C409.81 72.8933 409.45 71.76 408.73 71.04C408.037 70.2933 406.904 69.92 405.33 69.92C403.784 69.92 402.544 70.24 401.61 70.88C400.704 71.4933 400.197 72.3733 400.09 73.52H397.01C397.144 71.5467 397.97 70 399.49 68.88C401.01 67.76 402.997 67.2 405.45 67.2C407.984 67.2 409.864 67.8 411.09 69C412.317 70.2 412.93 72 412.93 74.4V84.2C412.93 84.7867 412.97 85.4 413.05 86.04C413.13 86.6533 413.237 87.3067 413.37 88H410.29ZM403.29 88.4C401.184 88.4 399.504 87.8933 398.25 86.88C397.024 85.84 396.41 84.4267 396.41 82.64C396.41 80.8533 397.024 79.4667 398.25 78.48C399.477 77.4933 401.264 76.8 403.61 76.4L410.73 75.2V77.84L404.09 78.88C402.597 79.12 401.464 79.52 400.69 80.08C399.917 80.64 399.53 81.4533 399.53 82.52C399.53 83.56 399.877 84.3467 400.57 84.88C401.29 85.4133 402.344 85.68 403.73 85.68C405.517 85.68 406.97 85.28 408.09 84.48C409.237 83.6533 409.81 82.5867 409.81 81.28L410.33 84.12C409.904 85.48 409.064 86.5333 407.81 87.28C406.584 88.0267 405.077 88.4 403.29 88.4ZM433.938 88V83.24L434.338 83.36C433.832 84.9067 432.898 86.1333 431.538 87.04C430.205 87.9467 428.605 88.4 426.738 88.4C424.898 88.4 423.285 87.96 421.898 87.08C420.538 86.2 419.472 84.9733 418.698 83.4C417.952 81.8267 417.578 79.9867 417.578 77.88C417.578 75.7467 417.965 73.88 418.738 72.28C419.512 70.68 420.592 69.44 421.978 68.56C423.365 67.68 424.992 67.24 426.858 67.24C428.778 67.24 430.392 67.7067 431.698 68.64C433.005 69.5733 433.898 70.8933 434.378 72.6L433.738 72.68V59.2H436.938V88H433.938ZM427.338 85.6C429.392 85.6 430.992 84.9067 432.138 83.52C433.312 82.1067 433.898 80.1867 433.898 77.76C433.898 75.3867 433.312 73.5067 432.138 72.12C430.965 70.7333 429.365 70.04 427.338 70.04C425.312 70.04 423.725 70.7333 422.578 72.12C421.432 73.5067 420.858 75.4267 420.858 77.88C420.858 80.28 421.432 82.1733 422.578 83.56C423.725 84.92 425.312 85.6 427.338 85.6ZM466.004 96.2V83.24L466.604 83.36C466.097 84.9067 465.164 86.1333 463.804 87.04C462.471 87.9467 460.871 88.4 459.004 88.4C457.164 88.4 455.551 87.9733 454.164 87.12C452.804 86.24 451.737 85.0133 450.964 83.44C450.217 81.84 449.844 79.9867 449.844 77.88C449.844 75.7467 450.231 73.88 451.004 72.28C451.777 70.68 452.857 69.44 454.244 68.56C455.631 67.68 457.257 67.24 459.124 67.24C461.044 67.24 462.657 67.7067 463.964 68.64C465.271 69.5733 466.164 70.8933 466.644 72.6L466.204 72.68V67.6H469.204V96.2H466.004ZM459.604 85.6C461.657 85.6 463.257 84.9067 464.404 83.52C465.577 82.1067 466.164 80.1867 466.164 77.76C466.164 75.3867 465.577 73.5067 464.404 72.12C463.231 70.7333 461.631 70.04 459.604 70.04C457.577 70.04 455.991 70.7333 454.844 72.12C453.697 73.5067 453.124 75.4267 453.124 77.88C453.124 80.28 453.697 82.1733 454.844 83.56C455.991 84.92 457.577 85.6 459.604 85.6ZM482.262 88.4C480.929 88.4 479.742 88.1333 478.702 87.6C477.662 87.04 476.849 86.2667 476.262 85.28C475.675 84.2667 475.382 83.1067 475.382 81.8V67.6H478.582V80.96C478.582 82.5067 478.955 83.6667 479.702 84.44C480.475 85.2133 481.569 85.6 482.982 85.6C484.262 85.6 485.395 85.3067 486.382 84.72C487.369 84.1333 488.142 83.32 488.702 82.28C489.289 81.2133 489.582 80 489.582 78.64L490.102 83.48C489.435 85 488.395 86.2 486.982 87.08C485.569 87.96 483.995 88.4 482.262 88.4ZM489.782 88V83.2H489.582V67.6H492.782V88H489.782ZM507.458 88.4C505.512 88.4 503.792 87.9467 502.298 87.04C500.805 86.1067 499.632 84.84 498.778 83.24C497.925 81.64 497.498 79.8 497.498 77.72C497.498 75.64 497.912 73.8133 498.738 72.24C499.592 70.64 500.778 69.4 502.298 68.52C503.818 67.64 505.565 67.2 507.538 67.2C509.432 67.2 511.072 67.6133 512.458 68.44C513.872 69.2667 514.952 70.4267 515.698 71.92C516.472 73.4133 516.858 75.1733 516.858 77.2C516.858 77.4667 516.845 77.72 516.818 77.96C516.818 78.2 516.792 78.4667 516.738 78.76H499.898V76.08H514.778L513.738 77.56C513.738 75.1067 513.192 73.2267 512.098 71.92C511.032 70.5867 509.512 69.92 507.538 69.92C505.512 69.92 503.872 70.6267 502.618 72.04C501.392 73.4267 500.778 75.3067 500.778 77.68C500.778 80.1067 501.392 82.0533 502.618 83.52C503.872 84.96 505.538 85.68 507.618 85.68C508.925 85.68 510.072 85.4 511.058 84.84C512.045 84.2533 512.765 83.4267 513.218 82.36H516.258C515.592 84.2267 514.472 85.7067 512.898 86.8C511.352 87.8667 509.538 88.4 507.458 88.4ZM507.458 64.68H504.418L508.938 58.4H513.858L507.458 64.68ZM529.684 88V67.6H532.684V72.4H532.884V88H529.684ZM544.284 88V74.64C544.284 73.0933 543.898 71.9333 543.124 71.16C542.351 70.3867 541.204 70 539.684 70C538.351 70 537.164 70.2933 536.124 70.88C535.111 71.4667 534.311 72.28 533.724 73.32C533.164 74.36 532.884 75.5733 532.884 76.96L532.364 72.12C533.058 70.6 534.111 69.4 535.524 68.52C536.964 67.64 538.591 67.2 540.404 67.2C542.538 67.2 544.244 67.8133 545.524 69.04C546.831 70.24 547.484 71.8267 547.484 73.8V88H544.284ZM561.99 88.4C560.043 88.4 558.323 87.9467 556.83 87.04C555.336 86.1067 554.163 84.84 553.31 83.24C552.456 81.64 552.03 79.8 552.03 77.72C552.03 75.64 552.443 73.8133 553.27 72.24C554.123 70.64 555.31 69.4 556.83 68.52C558.35 67.64 560.096 67.2 562.07 67.2C563.963 67.2 565.603 67.6133 566.99 68.44C568.403 69.2667 569.483 70.4267 570.23 71.92C571.003 73.4133 571.39 75.1733 571.39 77.2C571.39 77.4667 571.376 77.72 571.35 77.96C571.35 78.2 571.323 78.4667 571.27 78.76H554.43V76.08H569.31L568.27 77.56C568.27 75.1067 567.723 73.2267 566.63 71.92C565.563 70.5867 564.043 69.92 562.07 69.92C560.043 69.92 558.403 70.6267 557.15 72.04C555.923 73.4267 555.31 75.3067 555.31 77.68C555.31 80.1067 555.923 82.0533 557.15 83.52C558.403 84.96 560.07 85.68 562.15 85.68C563.456 85.68 564.603 85.4 565.59 84.84C566.576 84.2533 567.296 83.4267 567.75 82.36H570.79C570.123 84.2267 569.003 85.7067 567.43 86.8C565.883 87.8667 564.07 88.4 561.99 88.4ZM584.288 88.4C582.421 88.4 580.754 87.9467 579.288 87.04C577.848 86.1067 576.701 84.84 575.848 83.24C575.021 81.6133 574.608 79.7733 574.608 77.72C574.608 75.6667 575.021 73.8533 575.848 72.28C576.701 70.7067 577.848 69.4667 579.288 68.56C580.754 67.6533 582.408 67.2 584.248 67.2C585.768 67.2 587.128 67.4933 588.328 68.08C589.554 68.6667 590.554 69.5067 591.328 70.6C592.128 71.6667 592.634 72.92 592.848 74.36H589.888C589.621 73.0533 589.008 71.9867 588.048 71.16C587.088 70.3333 585.848 69.92 584.328 69.92C583.021 69.92 581.888 70.24 580.928 70.88C579.968 71.52 579.221 72.4267 578.688 73.6C578.154 74.7733 577.888 76.1467 577.888 77.72C577.888 79.2933 578.154 80.68 578.688 81.88C579.221 83.08 579.968 84.0133 580.928 84.68C581.914 85.3467 583.061 85.68 584.368 85.68C585.834 85.68 587.061 85.28 588.048 84.48C589.034 83.6533 589.661 82.5867 589.928 81.28H592.888C592.648 82.6933 592.114 83.9467 591.288 85.04C590.488 86.1067 589.488 86.9333 588.288 87.52C587.088 88.1067 585.754 88.4 584.288 88.4ZM605.818 88.4C603.871 88.4 602.151 87.9467 600.658 87.04C599.164 86.1067 597.991 84.84 597.138 83.24C596.284 81.64 595.858 79.8 595.858 77.72C595.858 75.64 596.271 73.8133 597.098 72.24C597.951 70.64 599.138 69.4 600.658 68.52C602.178 67.64 603.924 67.2 605.898 67.2C607.791 67.2 609.431 67.6133 610.818 68.44C612.231 69.2667 613.311 70.4267 614.058 71.92C614.831 73.4133 615.218 75.1733 615.218 77.2C615.218 77.4667 615.204 77.72 615.178 77.96C615.178 78.2 615.151 78.4667 615.098 78.76H598.258V76.08H613.138L612.098 77.56C612.098 75.1067 611.551 73.2267 610.458 71.92C609.391 70.5867 607.871 69.92 605.898 69.92C603.871 69.92 602.231 70.6267 600.978 72.04C599.751 73.4267 599.138 75.3067 599.138 77.68C599.138 80.1067 599.751 82.0533 600.978 83.52C602.231 84.96 603.898 85.68 605.978 85.68C607.284 85.68 608.431 85.4 609.418 84.84C610.404 84.2533 611.124 83.4267 611.578 82.36H614.618C613.951 84.2267 612.831 85.7067 611.258 86.8C609.711 87.8667 607.898 88.4 605.818 88.4ZM626.956 88.4C624.449 88.4 622.449 87.8267 620.956 86.68C619.463 85.5067 618.609 83.8533 618.396 81.72H621.476C621.663 83.0267 622.236 84.0267 623.196 84.72C624.156 85.4133 625.436 85.76 627.036 85.76C628.449 85.76 629.556 85.4933 630.356 84.96C631.156 84.4267 631.556 83.6667 631.556 82.68C631.556 81.9867 631.329 81.3867 630.876 80.88C630.423 80.3467 629.516 79.9067 628.156 79.56L624.876 78.72C623.009 78.24 621.609 77.5067 620.676 76.52C619.743 75.5067 619.276 74.3067 619.276 72.92C619.276 71.16 619.929 69.7733 621.236 68.76C622.543 67.72 624.316 67.2 626.556 67.2C628.769 67.2 630.569 67.7333 631.956 68.8C633.343 69.8667 634.129 71.3467 634.316 73.24H631.236C631.049 72.1467 630.543 71.3067 629.716 70.72C628.889 70.1333 627.796 69.84 626.436 69.84C625.129 69.84 624.116 70.0933 623.396 70.6C622.676 71.08 622.316 71.7733 622.316 72.68C622.316 73.3733 622.569 73.9733 623.076 74.48C623.609 74.9867 624.489 75.4133 625.716 75.76L628.916 76.64C630.809 77.1467 632.236 77.92 633.196 78.96C634.156 80 634.636 81.2533 634.636 82.72C634.636 84.5067 633.956 85.9067 632.596 86.92C631.236 87.9067 629.356 88.4 626.956 88.4ZM639.255 88V67.6H642.455V88H639.255ZM639.015 62.96V59.2H642.695V62.96H639.015ZM656.946 88.36C654.679 88.36 653.026 87.8533 651.986 86.84C650.973 85.8 650.466 84.3067 650.466 82.36V62.84L653.666 61.64V82.32C653.666 83.4667 653.959 84.3067 654.546 84.84C655.133 85.3733 656.093 85.64 657.426 85.64C657.959 85.64 658.413 85.6133 658.786 85.56C659.186 85.48 659.506 85.3867 659.746 85.28V88C659.479 88.1067 659.093 88.1867 658.586 88.24C658.106 88.32 657.559 88.36 656.946 88.36ZM646.266 70.32V67.6H659.746V70.32H646.266ZM676.384 88C676.277 87.5467 676.197 87.0267 676.144 86.44C676.117 85.8533 676.104 85.1067 676.104 84.2H675.904V74.44C675.904 72.8933 675.544 71.76 674.824 71.04C674.131 70.2933 672.997 69.92 671.424 69.92C669.877 69.92 668.637 70.24 667.704 70.88C666.797 71.4933 666.291 72.3733 666.184 73.52H663.104C663.237 71.5467 664.064 70 665.584 68.88C667.104 67.76 669.091 67.2 671.544 67.2C674.077 67.2 675.957 67.8 677.184 69C678.411 70.2 679.024 72 679.024 74.4V84.2C679.024 84.7867 679.064 85.4 679.144 86.04C679.224 86.6533 679.331 87.3067 679.464 88H676.384ZM669.384 88.4C667.277 88.4 665.597 87.8933 664.344 86.88C663.117 85.84 662.504 84.4267 662.504 82.64C662.504 80.8533 663.117 79.4667 664.344 78.48C665.571 77.4933 667.357 76.8 669.704 76.4L676.824 75.2V77.84L670.184 78.88C668.691 79.12 667.557 79.52 666.784 80.08C666.011 80.64 665.624 81.4533 665.624 82.52C665.624 83.56 665.971 84.3467 666.664 84.88C667.384 85.4133 668.437 85.68 669.824 85.68C671.611 85.68 673.064 85.28 674.184 84.48C675.331 83.6533 675.904 82.5867 675.904 81.28L676.424 84.12C675.997 85.48 675.157 86.5333 673.904 87.28C672.677 88.0267 671.171 88.4 669.384 88.4ZM692.034 88.4C689.527 88.4 687.527 87.8267 686.034 86.68C684.541 85.5067 683.687 83.8533 683.474 81.72H686.554C686.741 83.0267 687.314 84.0267 688.274 84.72C689.234 85.4133 690.514 85.76 692.114 85.76C693.527 85.76 694.634 85.4933 695.434 84.96C696.234 84.4267 696.634 83.6667 696.634 82.68C696.634 81.9867 696.407 81.3867 695.954 80.88C695.501 80.3467 694.594 79.9067 693.234 79.56L689.954 78.72C688.087 78.24 686.687 77.5067 685.754 76.52C684.821 75.5067 684.354 74.3067 684.354 72.92C684.354 71.16 685.007 69.7733 686.314 68.76C687.621 67.72 689.394 67.2 691.634 67.2C693.847 67.2 695.647 67.7333 697.034 68.8C698.421 69.8667 699.207 71.3467 699.394 73.24H696.314C696.127 72.1467 695.621 71.3067 694.794 70.72C693.967 70.1333 692.874 69.84 691.514 69.84C690.207 69.84 689.194 70.0933 688.474 70.6C687.754 71.08 687.394 71.7733 687.394 72.68C687.394 73.3733 687.647 73.9733 688.154 74.48C688.687 74.9867 689.567 75.4133 690.794 75.76L693.994 76.64C695.887 77.1467 697.314 77.92 698.274 78.96C699.234 80 699.714 81.2533 699.714 82.72C699.714 84.5067 699.034 85.9067 697.674 86.92C696.314 87.9067 694.434 88.4 692.034 88.4ZM712.028 88V59.2H715.228V88H712.028ZM726.628 88V74.64C726.628 73.0933 726.241 71.9333 725.468 71.16C724.695 70.3867 723.548 70 722.028 70C720.695 70 719.508 70.2933 718.468 70.88C717.455 71.4667 716.655 72.28 716.068 73.32C715.508 74.36 715.228 75.5733 715.228 76.96L714.708 72.12C715.401 70.6 716.455 69.4 717.868 68.52C719.308 67.64 720.935 67.2 722.748 67.2C724.881 67.2 726.588 67.8133 727.868 69.04C729.175 70.24 729.828 71.8267 729.828 73.8V88H726.628ZM748.376 88C748.27 87.5467 748.19 87.0267 748.136 86.44C748.11 85.8533 748.096 85.1067 748.096 84.2H747.896V74.44C747.896 72.8933 747.536 71.76 746.816 71.04C746.123 70.2933 744.99 69.92 743.416 69.92C741.87 69.92 740.63 70.24 739.696 70.88C738.79 71.4933 738.283 72.3733 738.176 73.52H735.096C735.23 71.5467 736.056 70 737.576 68.88C739.096 67.76 741.083 67.2 743.536 67.2C746.07 67.2 747.95 67.8 749.176 69C750.403 70.2 751.016 72 751.016 74.4V84.2C751.016 84.7867 751.056 85.4 751.136 86.04C751.216 86.6533 751.323 87.3067 751.456 88H748.376ZM741.376 88.4C739.27 88.4 737.59 87.8933 736.336 86.88C735.11 85.84 734.496 84.4267 734.496 82.64C734.496 80.8533 735.11 79.4667 736.336 78.48C737.563 77.4933 739.35 76.8 741.696 76.4L748.816 75.2V77.84L742.176 78.88C740.683 79.12 739.55 79.52 738.776 80.08C738.003 80.64 737.616 81.4533 737.616 82.52C737.616 83.56 737.963 84.3467 738.656 84.88C739.376 85.4133 740.43 85.68 741.816 85.68C743.603 85.68 745.056 85.28 746.176 84.48C747.323 83.6533 747.896 82.5867 747.896 81.28L748.416 84.12C747.99 85.48 747.15 86.5333 745.896 87.28C744.67 88.0267 743.163 88.4 741.376 88.4ZM765.264 88.4C763.398 88.4 761.731 87.9467 760.264 87.04C758.824 86.1067 757.678 84.84 756.824 83.24C755.998 81.6133 755.584 79.7733 755.584 77.72C755.584 75.6667 755.998 73.8533 756.824 72.28C757.678 70.7067 758.824 69.4667 760.264 68.56C761.731 67.6533 763.384 67.2 765.224 67.2C766.744 67.2 768.104 67.4933 769.304 68.08C770.531 68.6667 771.531 69.5067 772.304 70.6C773.104 71.6667 773.611 72.92 773.824 74.36H770.864C770.598 73.0533 769.984 71.9867 769.024 71.16C768.064 70.3333 766.824 69.92 765.304 69.92C763.998 69.92 762.864 70.24 761.904 70.88C760.944 71.52 760.198 72.4267 759.664 73.6C759.131 74.7733 758.864 76.1467 758.864 77.72C758.864 79.2933 759.131 80.68 759.664 81.88C760.198 83.08 760.944 84.0133 761.904 84.68C762.891 85.3467 764.038 85.68 765.344 85.68C766.811 85.68 768.038 85.28 769.024 84.48C770.011 83.6533 770.638 82.5867 770.904 81.28H773.864C773.624 82.6933 773.091 83.9467 772.264 85.04C771.464 86.1067 770.464 86.9333 769.264 87.52C768.064 88.1067 766.731 88.4 765.264 88.4ZM786.794 88.4C784.848 88.4 783.128 87.9467 781.634 87.04C780.141 86.1067 778.968 84.84 778.114 83.24C777.261 81.64 776.834 79.8 776.834 77.72C776.834 75.64 777.248 73.8133 778.074 72.24C778.928 70.64 780.114 69.4 781.634 68.52C783.154 67.64 784.901 67.2 786.874 67.2C788.768 67.2 790.408 67.6133 791.794 68.44C793.208 69.2667 794.288 70.4267 795.034 71.92C795.808 73.4133 796.194 75.1733 796.194 77.2C796.194 77.4667 796.181 77.72 796.154 77.96C796.154 78.2 796.128 78.4667 796.074 78.76H779.234V76.08H794.114L793.074 77.56C793.074 75.1067 792.528 73.2267 791.434 71.92C790.368 70.5867 788.848 69.92 786.874 69.92C784.848 69.92 783.208 70.6267 781.954 72.04C780.728 73.4267 780.114 75.3067 780.114 77.68C780.114 80.1067 780.728 82.0533 781.954 83.52C783.208 84.96 784.874 85.68 786.954 85.68C788.261 85.68 789.408 85.4 790.394 84.84C791.381 84.2533 792.101 83.4267 792.554 82.36H795.594C794.928 84.2267 793.808 85.7067 792.234 86.8C790.688 87.8667 788.874 88.4 786.794 88.4ZM801.013 88V67.6H804.013V72.8H804.213V88H801.013ZM804.213 77.36L803.692 72.52C804.173 70.7867 805.026 69.4667 806.253 68.56C807.479 67.6533 808.893 67.2 810.493 67.2C811.159 67.2 811.613 67.2533 811.853 67.36V70.44C811.719 70.3867 811.533 70.36 811.293 70.36C811.053 70.3333 810.759 70.32 810.413 70.32C808.386 70.32 806.839 70.9333 805.773 72.16C804.733 73.36 804.213 75.0933 804.213 77.36ZM320.057 137.36C318.137 137.36 316.524 136.893 315.217 135.96C313.911 135.027 313.017 133.707 312.537 132L313.177 131.92V145.2H309.977V116.6H312.977V121.36L312.537 121.24C313.044 119.667 314.004 118.44 315.417 117.56C316.831 116.653 318.471 116.2 320.337 116.2C322.151 116.2 323.724 116.64 325.057 117.52C326.417 118.4 327.471 119.627 328.217 121.2C328.964 122.773 329.337 124.613 329.337 126.72C329.337 128.853 328.951 130.72 328.177 132.32C327.404 133.92 326.324 135.16 324.937 136.04C323.551 136.92 321.924 137.36 320.057 137.36ZM319.577 134.56C321.604 134.56 323.191 133.867 324.337 132.48C325.484 131.067 326.057 129.147 326.057 126.72C326.057 124.32 325.484 122.44 324.337 121.08C323.191 119.693 321.604 119 319.577 119C317.551 119 315.951 119.707 314.777 121.12C313.604 122.507 313.017 124.413 313.017 126.84C313.017 129.213 313.604 131.093 314.777 132.48C315.951 133.867 317.551 134.56 319.577 134.56ZM346.833 137C346.727 136.547 346.647 136.027 346.593 135.44C346.567 134.853 346.553 134.107 346.553 133.2H346.353V123.44C346.353 121.893 345.993 120.76 345.273 120.04C344.58 119.293 343.447 118.92 341.873 118.92C340.327 118.92 339.087 119.24 338.153 119.88C337.247 120.493 336.74 121.373 336.633 122.52H333.553C333.687 120.547 334.513 119 336.033 117.88C337.553 116.76 339.54 116.2 341.993 116.2C344.527 116.2 346.407 116.8 347.633 118C348.86 119.2 349.473 121 349.473 123.4V133.2C349.473 133.787 349.513 134.4 349.593 135.04C349.673 135.653 349.78 136.307 349.913 137H346.833ZM339.833 137.4C337.727 137.4 336.047 136.893 334.793 135.88C333.567 134.84 332.953 133.427 332.953 131.64C332.953 129.853 333.567 128.467 334.793 127.48C336.02 126.493 337.807 125.8 340.153 125.4L347.273 124.2V126.84L340.633 127.88C339.14 128.12 338.007 128.52 337.233 129.08C336.46 129.64 336.073 130.453 336.073 131.52C336.073 132.56 336.42 133.347 337.113 133.88C337.833 134.413 338.887 134.68 340.273 134.68C342.06 134.68 343.513 134.28 344.633 133.48C345.78 132.653 346.353 131.587 346.353 130.28L346.873 133.12C346.447 134.48 345.607 135.533 344.353 136.28C343.127 137.027 341.62 137.4 339.833 137.4ZM355.641 137V116.6H358.641V121.8H358.841V137H355.641ZM358.841 126.36L358.321 121.52C358.801 119.787 359.655 118.467 360.881 117.56C362.108 116.653 363.521 116.2 365.121 116.2C365.788 116.2 366.241 116.253 366.481 116.36V119.44C366.348 119.387 366.161 119.36 365.921 119.36C365.681 119.333 365.388 119.32 365.041 119.32C363.015 119.32 361.468 119.933 360.401 121.16C359.361 122.36 358.841 124.093 358.841 126.36ZM382.575 137C382.469 136.547 382.389 136.027 382.335 135.44C382.309 134.853 382.295 134.107 382.295 133.2H382.095V123.44C382.095 121.893 381.735 120.76 381.015 120.04C380.322 119.293 379.189 118.92 377.615 118.92C376.069 118.92 374.829 119.24 373.895 119.88C372.989 120.493 372.482 121.373 372.375 122.52H369.295C369.429 120.547 370.255 119 371.775 117.88C373.295 116.76 375.282 116.2 377.735 116.2C380.269 116.2 382.149 116.8 383.375 118C384.602 119.2 385.215 121 385.215 123.4V133.2C385.215 133.787 385.255 134.4 385.335 135.04C385.415 135.653 385.522 136.307 385.655 137H382.575ZM375.575 137.4C373.469 137.4 371.789 136.893 370.535 135.88C369.309 134.84 368.695 133.427 368.695 131.64C368.695 129.853 369.309 128.467 370.535 127.48C371.762 126.493 373.549 125.8 375.895 125.4L383.015 124.2V126.84L376.375 127.88C374.882 128.12 373.749 128.52 372.975 129.08C372.202 129.64 371.815 130.453 371.815 131.52C371.815 132.56 372.162 133.347 372.855 133.88C373.575 134.413 374.629 134.68 376.015 134.68C377.802 134.68 379.255 134.28 380.375 133.48C381.522 132.653 382.095 131.587 382.095 130.28L382.615 133.12C382.189 134.48 381.349 135.533 380.095 136.28C378.869 137.027 377.362 137.4 375.575 137.4ZM411.911 137C411.805 136.547 411.725 136.027 411.671 135.44C411.645 134.853 411.631 134.107 411.631 133.2H411.431V123.44C411.431 121.893 411.071 120.76 410.351 120.04C409.658 119.293 408.525 118.92 406.951 118.92C405.405 118.92 404.165 119.24 403.231 119.88C402.325 120.493 401.818 121.373 401.711 122.52H398.631C398.765 120.547 399.591 119 401.111 117.88C402.631 116.76 404.618 116.2 407.071 116.2C409.605 116.2 411.485 116.8 412.711 118C413.938 119.2 414.551 121 414.551 123.4V133.2C414.551 133.787 414.591 134.4 414.671 135.04C414.751 135.653 414.858 136.307 414.991 137H411.911ZM404.911 137.4C402.805 137.4 401.125 136.893 399.871 135.88C398.645 134.84 398.031 133.427 398.031 131.64C398.031 129.853 398.645 128.467 399.871 127.48C401.098 126.493 402.885 125.8 405.231 125.4L412.351 124.2V126.84L405.711 127.88C404.218 128.12 403.085 128.52 402.311 129.08C401.538 129.64 401.151 130.453 401.151 131.52C401.151 132.56 401.498 133.347 402.191 133.88C402.911 134.413 403.965 134.68 405.351 134.68C407.138 134.68 408.591 134.28 409.711 133.48C410.858 132.653 411.431 131.587 411.431 130.28L411.951 133.12C411.525 134.48 410.685 135.533 409.431 136.28C408.205 137.027 406.698 137.4 404.911 137.4ZM425.898 137L417.458 116.6H420.898L427.938 134.84H426.658L433.658 116.6H436.938L428.498 137H425.898ZM452.771 137C452.664 136.547 452.584 136.027 452.531 135.44C452.504 134.853 452.491 134.107 452.491 133.2H452.291V123.44C452.291 121.893 451.931 120.76 451.211 120.04C450.517 119.293 449.384 118.92 447.811 118.92C446.264 118.92 445.024 119.24 444.091 119.88C443.184 120.493 442.677 121.373 442.571 122.52H439.491C439.624 120.547 440.451 119 441.971 117.88C443.491 116.76 445.477 116.2 447.931 116.2C450.464 116.2 452.344 116.8 453.571 118C454.797 119.2 455.411 121 455.411 123.4V133.2C455.411 133.787 455.451 134.4 455.531 135.04C455.611 135.653 455.717 136.307 455.851 137H452.771ZM445.771 137.4C443.664 137.4 441.984 136.893 440.731 135.88C439.504 134.84 438.891 133.427 438.891 131.64C438.891 129.853 439.504 128.467 440.731 127.48C441.957 126.493 443.744 125.8 446.091 125.4L453.211 124.2V126.84L446.571 127.88C445.077 128.12 443.944 128.52 443.171 129.08C442.397 129.64 442.011 130.453 442.011 131.52C442.011 132.56 442.357 133.347 443.051 133.88C443.771 134.413 444.824 134.68 446.211 134.68C447.997 134.68 449.451 134.28 450.571 133.48C451.717 132.653 452.291 131.587 452.291 130.28L452.811 133.12C452.384 134.48 451.544 135.533 450.291 136.28C449.064 137.027 447.557 137.4 445.771 137.4ZM461.579 137V116.6H464.579V121.4H464.779V137H461.579ZM476.179 137V123.64C476.179 122.093 475.792 120.933 475.019 120.16C474.246 119.387 473.099 119 471.579 119C470.246 119 469.059 119.293 468.019 119.88C467.006 120.467 466.206 121.28 465.619 122.32C465.059 123.36 464.779 124.573 464.779 125.96L464.259 121.12C464.952 119.6 466.006 118.4 467.419 117.52C468.859 116.64 470.486 116.2 472.299 116.2C474.432 116.2 476.139 116.813 477.419 118.04C478.726 119.24 479.379 120.827 479.379 122.8V137H476.179ZM483.586 137V134.68L495.986 117.84L497.186 119.32H483.986V116.6H499.026V118.92L486.626 135.76L485.426 134.28H499.426V137H483.586ZM516.443 137C516.336 136.547 516.256 136.027 516.203 135.44C516.176 134.853 516.163 134.107 516.163 133.2H515.963V123.44C515.963 121.893 515.603 120.76 514.883 120.04C514.189 119.293 513.056 118.92 511.483 118.92C509.936 118.92 508.696 119.24 507.763 119.88C506.856 120.493 506.349 121.373 506.243 122.52H503.163C503.296 120.547 504.123 119 505.643 117.88C507.163 116.76 509.149 116.2 511.603 116.2C514.136 116.2 516.016 116.8 517.243 118C518.469 119.2 519.083 121 519.083 123.4V133.2C519.083 133.787 519.123 134.4 519.203 135.04C519.283 135.653 519.389 136.307 519.523 137H516.443ZM509.443 137.4C507.336 137.4 505.656 136.893 504.403 135.88C503.176 134.84 502.563 133.427 502.563 131.64C502.563 129.853 503.176 128.467 504.403 127.48C505.629 126.493 507.416 125.8 509.763 125.4L516.883 124.2V126.84L510.243 127.88C508.749 128.12 507.616 128.52 506.843 129.08C506.069 129.64 505.683 130.453 505.683 131.52C505.683 132.56 506.029 133.347 506.723 133.88C507.443 134.413 508.496 134.68 509.883 134.68C511.669 134.68 513.123 134.28 514.243 133.48C515.389 132.653 515.963 131.587 515.963 130.28L516.483 133.12C516.056 134.48 515.216 135.533 513.963 136.28C512.736 137.027 511.229 137.4 509.443 137.4ZM525.251 137V116.6H528.251V121.8H528.451V137H525.251ZM528.451 126.36L527.931 121.52C528.411 119.787 529.264 118.467 530.491 117.56C531.717 116.653 533.131 116.2 534.731 116.2C535.397 116.2 535.851 116.253 536.091 116.36V119.44C535.957 119.387 535.771 119.36 535.531 119.36C535.291 119.333 534.997 119.32 534.651 119.32C532.624 119.32 531.077 119.933 530.011 121.16C528.971 122.36 528.451 124.093 528.451 126.36ZM536.067 137V132.88H540.187V137H536.067Z" fill="#2B4F6C"/>
</svg>
