<svg width="850" height="165" viewBox="0 0 850 165" fill="none" xmlns="http://www.w3.org/2000/svg">
<path d="M75.4634 39L86.5834 10.2H89.4634L78.6234 39H75.4634ZM98.3434 39L87.5034 10.2H90.5834L101.703 39H98.3434ZM80.9834 27.36H96.0234V30.24H80.9834V27.36ZM108.885 39.4C107.872 39.4 106.898 39.32 105.965 39.16C105.032 39.0267 104.352 38.8533 103.925 38.64V35.6C104.565 35.8667 105.338 36.0933 106.245 36.28C107.152 36.44 108.072 36.52 109.005 36.52C110.925 36.52 112.378 36.0933 113.365 35.24C114.352 34.3867 114.845 33.08 114.845 31.32V10.2H118.125V31.44C118.125 34.1067 117.338 36.1067 115.765 37.44C114.192 38.7467 111.898 39.4 108.885 39.4ZM121.401 39L132.521 10.2H135.401L124.561 39H121.401ZM144.281 39L133.441 10.2H136.521L147.641 39H144.281ZM126.921 27.36H141.961V30.24H126.921V27.36ZM152.503 39V10.2H157.543L167.943 37.96H166.423L176.743 10.2H181.863V39H178.623V11.92H179.063L169.023 39H165.103L155.063 12.16H155.503V39H152.503ZM186.753 39L197.873 10.2H200.753L189.913 39H186.753ZM209.633 39L198.793 10.2H201.873L212.993 39H209.633ZM192.273 27.36H207.313V30.24H192.273V27.36ZM217.854 39V10.2H221.134V39H217.854ZM220.774 24.04L235.734 10.2H240.334L225.054 24.04H220.774ZM236.374 39L220.694 24.04H225.054L241.134 39H236.374ZM245.549 39V10.2H248.829V39H245.549ZM247.229 39V36.12H264.829V39H247.229ZM247.229 25.44V22.56H263.389V25.44H247.229ZM247.229 13.08V10.2H264.509V13.08H247.229ZM269.768 39V10.2H280.408C282.461 10.2 284.208 10.5333 285.648 11.2C287.088 11.8667 288.181 12.8 288.928 14C289.701 15.1733 290.088 16.5733 290.088 18.2C290.088 19.8267 289.701 21.2533 288.928 22.48C288.181 23.68 287.088 24.6267 285.648 25.32C284.208 25.9867 282.461 26.32 280.408 26.32H272.168V23.44H280.288C282.421 23.44 284.035 22.9733 285.128 22.04C286.248 21.1067 286.808 19.8267 286.808 18.2C286.808 16.6 286.261 15.3467 285.168 14.44C284.075 13.5333 282.448 13.08 280.288 13.08H273.048V39H269.768ZM286.648 39L271.328 24.72H275.808L291.608 39H286.648ZM303.786 39V18.6H306.786V23.4H306.986V39H303.786ZM318.386 39V25.64C318.386 24.0933 317.999 22.9333 317.226 22.16C316.453 21.3867 315.306 21 313.786 21C312.453 21 311.266 21.2933 310.226 21.88C309.213 22.4667 308.413 23.28 307.826 24.32C307.266 25.36 306.986 26.5733 306.986 27.96L306.466 23.12C307.159 21.6 308.213 20.4 309.626 19.52C311.066 18.64 312.693 18.2 314.506 18.2C316.639 18.2 318.346 18.8133 319.626 20.04C320.933 21.24 321.586 22.8267 321.586 24.8V39H318.386ZM336.211 39.4C334.211 39.4 332.451 38.9333 330.931 38C329.411 37.0667 328.225 35.8 327.371 34.2C326.545 32.5733 326.131 30.7467 326.131 28.72C326.131 26.6667 326.558 24.8533 327.411 23.28C328.265 21.7067 329.438 20.4667 330.931 19.56C332.451 18.6533 334.211 18.2 336.211 18.2C338.238 18.2 339.998 18.6533 341.491 19.56C343.011 20.4667 344.185 21.7067 345.011 23.28C345.865 24.8533 346.291 26.6667 346.291 28.72C346.291 30.7467 345.865 32.5733 345.011 34.2C344.185 35.8 343.011 37.0667 341.491 38C339.998 38.9333 338.238 39.4 336.211 39.4ZM336.211 36.68C337.598 36.68 338.798 36.3467 339.811 35.68C340.825 34.9867 341.611 34.04 342.171 32.84C342.731 31.64 343.011 30.2533 343.011 28.68C343.011 26.3333 342.385 24.4533 341.131 23.04C339.905 21.6267 338.265 20.92 336.211 20.92C334.185 20.92 332.545 21.6267 331.291 23.04C330.038 24.4533 329.411 26.3333 329.411 28.68C329.411 30.2533 329.691 31.64 330.251 32.84C330.811 34.04 331.598 34.9867 332.611 35.68C333.651 36.3467 334.851 36.68 336.211 36.68ZM367.458 39.4C365.512 39.4 363.792 38.9467 362.298 38.04C360.805 37.1067 359.632 35.84 358.778 34.24C357.925 32.64 357.498 30.8 357.498 28.72C357.498 26.64 357.912 24.8133 358.738 23.24C359.592 21.64 360.778 20.4 362.298 19.52C363.818 18.64 365.565 18.2 367.538 18.2C369.432 18.2 371.072 18.6133 372.458 19.44C373.872 20.2667 374.952 21.4267 375.698 22.92C376.472 24.4133 376.858 26.1733 376.858 28.2C376.858 28.4667 376.845 28.72 376.818 28.96C376.818 29.2 376.792 29.4667 376.738 29.76H359.898V27.08H374.778L373.738 28.56C373.738 26.1067 373.192 24.2267 372.098 22.92C371.032 21.5867 369.512 20.92 367.538 20.92C365.512 20.92 363.872 21.6267 362.618 23.04C361.392 24.4267 360.778 26.3067 360.778 28.68C360.778 31.1067 361.392 33.0533 362.618 34.52C363.872 35.96 365.538 36.68 367.618 36.68C368.925 36.68 370.072 36.4 371.058 35.84C372.045 35.2533 372.765 34.4267 373.218 33.36H376.258C375.592 35.2267 374.472 36.7067 372.898 37.8C371.352 38.8667 369.538 39.4 367.458 39.4ZM388.597 39.4C386.09 39.4 384.09 38.8267 382.597 37.68C381.103 36.5067 380.25 34.8533 380.037 32.72H383.117C383.303 34.0267 383.877 35.0267 384.837 35.72C385.797 36.4133 387.077 36.76 388.677 36.76C390.09 36.76 391.197 36.4933 391.997 35.96C392.797 35.4267 393.197 34.6667 393.197 33.68C393.197 32.9867 392.97 32.3867 392.517 31.88C392.063 31.3467 391.157 30.9067 389.797 30.56L386.517 29.72C384.65 29.24 383.25 28.5067 382.317 27.52C381.383 26.5067 380.917 25.3067 380.917 23.92C380.917 22.16 381.57 20.7733 382.877 19.76C384.183 18.72 385.957 18.2 388.197 18.2C390.41 18.2 392.21 18.7333 393.597 19.8C394.983 20.8667 395.77 22.3467 395.957 24.24H392.877C392.69 23.1467 392.183 22.3067 391.357 21.72C390.53 21.1333 389.437 20.84 388.077 20.84C386.77 20.84 385.757 21.0933 385.037 21.6C384.317 22.08 383.957 22.7733 383.957 23.68C383.957 24.3733 384.21 24.9733 384.717 25.48C385.25 25.9867 386.13 26.4133 387.357 26.76L390.557 27.64C392.45 28.1467 393.877 28.92 394.837 29.96C395.797 31 396.277 32.2533 396.277 33.72C396.277 35.5067 395.597 36.9067 394.237 37.92C392.877 38.9067 390.997 39.4 388.597 39.4ZM415.511 39.4C413.004 39.4 411.004 38.8267 409.511 37.68C408.017 36.5067 407.164 34.8533 406.951 32.72H410.031C410.217 34.0267 410.791 35.0267 411.751 35.72C412.711 36.4133 413.991 36.76 415.591 36.76C417.004 36.76 418.111 36.4933 418.911 35.96C419.711 35.4267 420.111 34.6667 420.111 33.68C420.111 32.9867 419.884 32.3867 419.431 31.88C418.977 31.3467 418.071 30.9067 416.711 30.56L413.431 29.72C411.564 29.24 410.164 28.5067 409.231 27.52C408.297 26.5067 407.831 25.3067 407.831 23.92C407.831 22.16 408.484 20.7733 409.791 19.76C411.097 18.72 412.871 18.2 415.111 18.2C417.324 18.2 419.124 18.7333 420.511 19.8C421.897 20.8667 422.684 22.3467 422.871 24.24H419.791C419.604 23.1467 419.097 22.3067 418.271 21.72C417.444 21.1333 416.351 20.84 414.991 20.84C413.684 20.84 412.671 21.0933 411.951 21.6C411.231 22.08 410.871 22.7733 410.871 23.68C410.871 24.3733 411.124 24.9733 411.631 25.48C412.164 25.9867 413.044 26.4133 414.271 26.76L417.471 27.64C419.364 28.1467 420.791 28.92 421.751 29.96C422.711 31 423.191 32.2533 423.191 33.72C423.191 35.5067 422.511 36.9067 421.151 37.92C419.791 38.9067 417.911 39.4 415.511 39.4ZM436.68 39.4C434.68 39.4 432.92 38.9333 431.4 38C429.88 37.0667 428.693 35.8 427.84 34.2C427.013 32.5733 426.6 30.7467 426.6 28.72C426.6 26.6667 427.027 24.8533 427.88 23.28C428.733 21.7067 429.907 20.4667 431.4 19.56C432.92 18.6533 434.68 18.2 436.68 18.2C438.707 18.2 440.467 18.6533 441.96 19.56C443.48 20.4667 444.653 21.7067 445.48 23.28C446.333 24.8533 446.76 26.6667 446.76 28.72C446.76 30.7467 446.333 32.5733 445.48 34.2C444.653 35.8 443.48 37.0667 441.96 38C440.467 38.9333 438.707 39.4 436.68 39.4ZM436.68 36.68C438.067 36.68 439.267 36.3467 440.28 35.68C441.293 34.9867 442.08 34.04 442.64 32.84C443.2 31.64 443.48 30.2533 443.48 28.68C443.48 26.3333 442.853 24.4533 441.6 23.04C440.373 21.6267 438.733 20.92 436.68 20.92C434.653 20.92 433.013 21.6267 431.76 23.04C430.507 24.4533 429.88 26.3333 429.88 28.68C429.88 30.2533 430.16 31.64 430.72 32.84C431.28 34.04 432.067 34.9867 433.08 35.68C434.12 36.3467 435.32 36.68 436.68 36.68ZM451.559 39V10.2H454.759V39H451.559ZM469.649 39.4C467.649 39.4 465.889 38.9333 464.369 38C462.849 37.0667 461.662 35.8 460.809 34.2C459.982 32.5733 459.569 30.7467 459.569 28.72C459.569 26.6667 459.995 24.8533 460.849 23.28C461.702 21.7067 462.875 20.4667 464.369 19.56C465.889 18.6533 467.649 18.2 469.649 18.2C471.675 18.2 473.435 18.6533 474.929 19.56C476.449 20.4667 477.622 21.7067 478.449 23.28C479.302 24.8533 479.729 26.6667 479.729 28.72C479.729 30.7467 479.302 32.5733 478.449 34.2C477.622 35.8 476.449 37.0667 474.929 38C473.435 38.9333 471.675 39.4 469.649 39.4ZM469.649 36.68C471.035 36.68 472.235 36.3467 473.249 35.68C474.262 34.9867 475.049 34.04 475.609 32.84C476.169 31.64 476.449 30.2533 476.449 28.68C476.449 26.3333 475.822 24.4533 474.569 23.04C473.342 21.6267 471.702 20.92 469.649 20.92C467.622 20.92 465.982 21.6267 464.729 23.04C463.475 24.4533 462.849 26.3333 462.849 28.68C462.849 30.2533 463.129 31.64 463.689 32.84C464.249 34.04 465.035 34.9867 466.049 35.68C467.089 36.3467 468.289 36.68 469.649 36.68ZM499.176 39.4C497.843 39.4 496.656 39.1333 495.616 38.6C494.576 38.04 493.763 37.2667 493.176 36.28C492.589 35.2667 492.296 34.1067 492.296 32.8V18.6H495.496V31.96C495.496 33.5067 495.869 34.6667 496.616 35.44C497.389 36.2133 498.483 36.6 499.896 36.6C501.176 36.6 502.309 36.3067 503.296 35.72C504.283 35.1333 505.056 34.32 505.616 33.28C506.203 32.2133 506.496 31 506.496 29.64L507.016 34.48C506.349 36 505.309 37.2 503.896 38.08C502.483 38.96 500.909 39.4 499.176 39.4ZM506.696 39V34.2H506.496V18.6H509.696V39H506.696ZM516.091 39V18.6H519.091V23.4H519.291V39H516.091ZM530.691 39V25.64C530.691 24.0933 530.304 22.9333 529.531 22.16C528.757 21.3867 527.611 21 526.091 21C524.757 21 523.571 21.2933 522.531 21.88C521.517 22.4667 520.717 23.28 520.131 24.32C519.571 25.36 519.291 26.5733 519.291 27.96L518.771 23.12C519.464 21.6 520.517 20.4 521.931 19.52C523.371 18.64 524.997 18.2 526.811 18.2C528.944 18.2 530.651 18.8133 531.931 20.04C533.237 21.24 533.891 22.8267 533.891 24.8V39H530.691ZM556.404 39.4C554.457 39.4 552.737 38.9467 551.244 38.04C549.75 37.1067 548.577 35.84 547.724 34.24C546.87 32.64 546.444 30.8 546.444 28.72C546.444 26.64 546.857 24.8133 547.684 23.24C548.537 21.64 549.724 20.4 551.244 19.52C552.764 18.64 554.51 18.2 556.484 18.2C558.377 18.2 560.017 18.6133 561.404 19.44C562.817 20.2667 563.897 21.4267 564.644 22.92C565.417 24.4133 565.804 26.1733 565.804 28.2C565.804 28.4667 565.79 28.72 565.764 28.96C565.764 29.2 565.737 29.4667 565.684 29.76H548.844V27.08H563.724L562.684 28.56C562.684 26.1067 562.137 24.2267 561.044 22.92C559.977 21.5867 558.457 20.92 556.484 20.92C554.457 20.92 552.817 21.6267 551.564 23.04C550.337 24.4267 549.724 26.3067 549.724 28.68C549.724 31.1067 550.337 33.0533 551.564 34.52C552.817 35.96 554.484 36.68 556.564 36.68C557.87 36.68 559.017 36.4 560.004 35.84C560.99 35.2533 561.71 34.4267 562.164 33.36H565.204C564.537 35.2267 563.417 36.7067 561.844 37.8C560.297 38.8667 558.484 39.4 556.404 39.4ZM577.542 39.4C575.035 39.4 573.035 38.8267 571.542 37.68C570.049 36.5067 569.195 34.8533 568.982 32.72H572.062C572.249 34.0267 572.822 35.0267 573.782 35.72C574.742 36.4133 576.022 36.76 577.622 36.76C579.035 36.76 580.142 36.4933 580.942 35.96C581.742 35.4267 582.142 34.6667 582.142 33.68C582.142 32.9867 581.915 32.3867 581.462 31.88C581.009 31.3467 580.102 30.9067 578.742 30.56L575.462 29.72C573.595 29.24 572.195 28.5067 571.262 27.52C570.329 26.5067 569.862 25.3067 569.862 23.92C569.862 22.16 570.515 20.7733 571.822 19.76C573.129 18.72 574.902 18.2 577.142 18.2C579.355 18.2 581.155 18.7333 582.542 19.8C583.929 20.8667 584.715 22.3467 584.902 24.24H581.822C581.635 23.1467 581.129 22.3067 580.302 21.72C579.475 21.1333 578.382 20.84 577.022 20.84C575.715 20.84 574.702 21.0933 573.982 21.6C573.262 22.08 572.902 22.7733 572.902 23.68C572.902 24.3733 573.155 24.9733 573.662 25.48C574.195 25.9867 575.075 26.4133 576.302 26.76L579.502 27.64C581.395 28.1467 582.822 28.92 583.782 29.96C584.742 31 585.222 32.2533 585.222 33.72C585.222 35.5067 584.542 36.9067 583.182 37.92C581.822 38.9067 579.942 39.4 577.542 39.4ZM599.608 39.36C597.688 39.36 596.075 38.8933 594.768 37.96C593.461 37.0267 592.568 35.7067 592.088 34L592.728 33.92V47.2H589.528V18.6H592.528V23.36L592.088 23.24C592.595 21.6667 593.555 20.44 594.968 19.56C596.381 18.6533 598.021 18.2 599.888 18.2C601.701 18.2 603.275 18.64 604.608 19.52C605.968 20.4 607.021 21.6267 607.768 23.2C608.515 24.7733 608.888 26.6133 608.888 28.72C608.888 30.8533 608.501 32.72 607.728 34.32C606.955 35.92 605.875 37.16 604.488 38.04C603.101 38.92 601.475 39.36 599.608 39.36ZM599.128 36.56C601.155 36.56 602.741 35.8667 603.888 34.48C605.035 33.0667 605.608 31.1467 605.608 28.72C605.608 26.32 605.035 24.44 603.888 23.08C602.741 21.6933 601.155 21 599.128 21C597.101 21 595.501 21.7067 594.328 23.12C593.155 24.5067 592.568 26.4133 592.568 28.84C592.568 31.2133 593.155 33.0933 594.328 34.48C595.501 35.8667 597.101 36.56 599.128 36.56ZM626.384 39C626.277 38.5467 626.197 38.0267 626.144 37.44C626.117 36.8533 626.104 36.1067 626.104 35.2H625.904V25.44C625.904 23.8933 625.544 22.76 624.824 22.04C624.131 21.2933 622.997 20.92 621.424 20.92C619.877 20.92 618.637 21.24 617.704 21.88C616.797 22.4933 616.291 23.3733 616.184 24.52H613.104C613.237 22.5467 614.064 21 615.584 19.88C617.104 18.76 619.091 18.2 621.544 18.2C624.077 18.2 625.957 18.8 627.184 20C628.411 21.2 629.024 23 629.024 25.4V35.2C629.024 35.7867 629.064 36.4 629.144 37.04C629.224 37.6533 629.331 38.3067 629.464 39H626.384ZM619.384 39.4C617.277 39.4 615.597 38.8933 614.344 37.88C613.117 36.84 612.504 35.4267 612.504 33.64C612.504 31.8533 613.117 30.4667 614.344 29.48C615.571 28.4933 617.357 27.8 619.704 27.4L626.824 26.2V28.84L620.184 29.88C618.691 30.12 617.557 30.52 616.784 31.08C616.011 31.64 615.624 32.4533 615.624 33.52C615.624 34.56 615.971 35.3467 616.664 35.88C617.384 36.4133 618.437 36.68 619.824 36.68C621.611 36.68 623.064 36.28 624.184 35.48C625.331 34.6533 625.904 33.5867 625.904 32.28L626.424 35.12C625.997 36.48 625.157 37.5333 623.904 38.28C622.677 39.0267 621.171 39.4 619.384 39.4ZM643.272 39.4C641.406 39.4 639.739 38.9467 638.272 38.04C636.832 37.1067 635.686 35.84 634.832 34.24C634.006 32.6133 633.592 30.7733 633.592 28.72C633.592 26.6667 634.006 24.8533 634.832 23.28C635.686 21.7067 636.832 20.4667 638.272 19.56C639.739 18.6533 641.392 18.2 643.232 18.2C644.752 18.2 646.112 18.4933 647.312 19.08C648.539 19.6667 649.539 20.5067 650.312 21.6C651.112 22.6667 651.619 23.92 651.832 25.36H648.872C648.606 24.0533 647.992 22.9867 647.032 22.16C646.072 21.3333 644.832 20.92 643.312 20.92C642.006 20.92 640.872 21.24 639.912 21.88C638.952 22.52 638.206 23.4267 637.672 24.6C637.139 25.7733 636.872 27.1467 636.872 28.72C636.872 30.2933 637.139 31.68 637.672 32.88C638.206 34.08 638.952 35.0133 639.912 35.68C640.899 36.3467 642.046 36.68 643.352 36.68C644.819 36.68 646.046 36.28 647.032 35.48C648.019 34.6533 648.646 33.5867 648.912 32.28H651.872C651.632 33.6933 651.099 34.9467 650.272 36.04C649.472 37.1067 648.472 37.9333 647.272 38.52C646.072 39.1067 644.739 39.4 643.272 39.4ZM656.364 39V18.6H659.564V39H656.364ZM656.124 13.96V10.2H659.804V13.96H656.124ZM674.375 39.4C672.375 39.4 670.615 38.9333 669.095 38C667.575 37.0667 666.389 35.8 665.535 34.2C664.709 32.5733 664.295 30.7467 664.295 28.72C664.295 26.6667 664.722 24.8533 665.575 23.28C666.429 21.7067 667.602 20.4667 669.095 19.56C670.615 18.6533 672.375 18.2 674.375 18.2C676.402 18.2 678.162 18.6533 679.655 19.56C681.175 20.4667 682.349 21.7067 683.175 23.28C684.029 24.8533 684.455 26.6667 684.455 28.72C684.455 30.7467 684.029 32.5733 683.175 34.2C682.349 35.8 681.175 37.0667 679.655 38C678.162 38.9333 676.402 39.4 674.375 39.4ZM674.375 36.68C675.762 36.68 676.962 36.3467 677.975 35.68C678.989 34.9867 679.775 34.04 680.335 32.84C680.895 31.64 681.175 30.2533 681.175 28.68C681.175 26.3333 680.549 24.4533 679.295 23.04C678.069 21.6267 676.429 20.92 674.375 20.92C672.349 20.92 670.709 21.6267 669.455 23.04C668.202 24.4533 667.575 26.3333 667.575 28.68C667.575 30.2533 667.855 31.64 668.415 32.84C668.975 34.04 669.762 34.9867 670.775 35.68C671.815 36.3467 673.015 36.68 674.375 36.68ZM687.182 44.76V43.12C687.955 42.8267 688.515 42.36 688.862 41.72C689.208 41.1067 689.382 40.16 689.382 38.88L690.622 39H687.182V34.92H691.222V38.16C691.222 39.8667 690.902 41.28 690.262 42.4C689.622 43.52 688.595 44.3067 687.182 44.76ZM713.865 39.4C711.918 39.4 710.198 38.9467 708.705 38.04C707.211 37.1067 706.038 35.84 705.185 34.24C704.331 32.64 703.905 30.8 703.905 28.72C703.905 26.64 704.318 24.8133 705.145 23.24C705.998 21.64 707.185 20.4 708.705 19.52C710.225 18.64 711.971 18.2 713.945 18.2C715.838 18.2 717.478 18.6133 718.865 19.44C720.278 20.2667 721.358 21.4267 722.105 22.92C722.878 24.4133 723.265 26.1733 723.265 28.2C723.265 28.4667 723.251 28.72 723.225 28.96C723.225 29.2 723.198 29.4667 723.145 29.76H706.305V27.08H721.185L720.145 28.56C720.145 26.1067 719.598 24.2267 718.505 22.92C717.438 21.5867 715.918 20.92 713.945 20.92C711.918 20.92 710.278 21.6267 709.025 23.04C707.798 24.4267 707.185 26.3067 707.185 28.68C707.185 31.1067 707.798 33.0533 709.025 34.52C710.278 35.96 711.945 36.68 714.025 36.68C715.331 36.68 716.478 36.4 717.465 35.84C718.451 35.2533 719.171 34.4267 719.625 33.36H722.665C721.998 35.2267 720.878 36.7067 719.305 37.8C717.758 38.8667 715.945 39.4 713.865 39.4ZM735.003 39.4C732.496 39.4 730.496 38.8267 729.003 37.68C727.509 36.5067 726.656 34.8533 726.443 32.72H729.523C729.709 34.0267 730.283 35.0267 731.243 35.72C732.203 36.4133 733.483 36.76 735.083 36.76C736.496 36.76 737.603 36.4933 738.403 35.96C739.203 35.4267 739.603 34.6667 739.603 33.68C739.603 32.9867 739.376 32.3867 738.923 31.88C738.469 31.3467 737.563 30.9067 736.203 30.56L732.923 29.72C731.056 29.24 729.656 28.5067 728.723 27.52C727.789 26.5067 727.323 25.3067 727.323 23.92C727.323 22.16 727.976 20.7733 729.283 19.76C730.589 18.72 732.363 18.2 734.603 18.2C736.816 18.2 738.616 18.7333 740.003 19.8C741.389 20.8667 742.176 22.3467 742.363 24.24H739.283C739.096 23.1467 738.589 22.3067 737.763 21.72C736.936 21.1333 735.843 20.84 734.483 20.84C733.176 20.84 732.163 21.0933 731.443 21.6C730.723 22.08 730.363 22.7733 730.363 23.68C730.363 24.3733 730.616 24.9733 731.123 25.48C731.656 25.9867 732.536 26.4133 733.763 26.76L736.963 27.64C738.856 28.1467 740.283 28.92 741.243 29.96C742.203 31 742.683 32.2533 742.683 33.72C742.683 35.5067 742.003 36.9067 740.643 37.92C739.283 38.9067 737.403 39.4 735.003 39.4ZM763.357 39.4C761.41 39.4 759.69 38.9467 758.197 38.04C756.704 37.1067 755.53 35.84 754.677 34.24C753.824 32.64 753.397 30.8 753.397 28.72C753.397 26.64 753.81 24.8133 754.637 23.24C755.49 21.64 756.677 20.4 758.197 19.52C759.717 18.64 761.464 18.2 763.437 18.2C765.33 18.2 766.97 18.6133 768.357 19.44C769.77 20.2667 770.85 21.4267 771.597 22.92C772.37 24.4133 772.757 26.1733 772.757 28.2C772.757 28.4667 772.744 28.72 772.717 28.96C772.717 29.2 772.69 29.4667 772.637 29.76H755.797V27.08H770.677L769.637 28.56C769.637 26.1067 769.09 24.2267 767.997 22.92C766.93 21.5867 765.41 20.92 763.437 20.92C761.41 20.92 759.77 21.6267 758.517 23.04C757.29 24.4267 756.677 26.3067 756.677 28.68C756.677 31.1067 757.29 33.0533 758.517 34.52C759.77 35.96 761.437 36.68 763.517 36.68C764.824 36.68 765.97 36.4 766.957 35.84C767.944 35.2533 768.664 34.4267 769.117 33.36H772.157C771.49 35.2267 770.37 36.7067 768.797 37.8C767.25 38.8667 765.437 39.4 763.357 39.4ZM777.575 39V10.2H780.775V39H777.575ZM189.964 88.4C187.457 88.4 185.457 87.8267 183.964 86.68C182.47 85.5067 181.617 83.8533 181.404 81.72H184.484C184.67 83.0267 185.244 84.0267 186.204 84.72C187.164 85.4133 188.444 85.76 190.044 85.76C191.457 85.76 192.564 85.4933 193.364 84.96C194.164 84.4267 194.564 83.6667 194.564 82.68C194.564 81.9867 194.337 81.3867 193.884 80.88C193.43 80.3467 192.524 79.9067 191.164 79.56L187.884 78.72C186.017 78.24 184.617 77.5067 183.684 76.52C182.75 75.5067 182.284 74.3067 182.284 72.92C182.284 71.16 182.937 69.7733 184.244 68.76C185.55 67.72 187.324 67.2 189.564 67.2C191.777 67.2 193.577 67.7333 194.964 68.8C196.35 69.8667 197.137 71.3467 197.324 73.24H194.244C194.057 72.1467 193.55 71.3067 192.724 70.72C191.897 70.1333 190.804 69.84 189.444 69.84C188.137 69.84 187.124 70.0933 186.404 70.6C185.684 71.08 185.324 71.7733 185.324 72.68C185.324 73.3733 185.577 73.9733 186.084 74.48C186.617 74.9867 187.497 75.4133 188.724 75.76L191.924 76.64C193.817 77.1467 195.244 77.92 196.204 78.96C197.164 80 197.644 81.2533 197.644 82.72C197.644 84.5067 196.964 85.9067 195.604 86.92C194.244 87.9067 192.364 88.4 189.964 88.4ZM202.263 88V67.6H205.463V88H202.263ZM202.023 62.96V59.2H205.703V62.96H202.023ZM218.792 88.4C216.285 88.4 214.285 87.8267 212.792 86.68C211.299 85.5067 210.445 83.8533 210.232 81.72H213.312C213.499 83.0267 214.072 84.0267 215.032 84.72C215.992 85.4133 217.272 85.76 218.872 85.76C220.285 85.76 221.392 85.4933 222.192 84.96C222.992 84.4267 223.392 83.6667 223.392 82.68C223.392 81.9867 223.165 81.3867 222.712 80.88C222.259 80.3467 221.352 79.9067 219.992 79.56L216.712 78.72C214.845 78.24 213.445 77.5067 212.512 76.52C211.579 75.5067 211.112 74.3067 211.112 72.92C211.112 71.16 211.765 69.7733 213.072 68.76C214.379 67.72 216.152 67.2 218.392 67.2C220.605 67.2 222.405 67.7333 223.792 68.8C225.179 69.8667 225.965 71.3467 226.152 73.24H223.072C222.885 72.1467 222.379 71.3067 221.552 70.72C220.725 70.1333 219.632 69.84 218.272 69.84C216.965 69.84 215.952 70.0933 215.232 70.6C214.512 71.08 214.152 71.7733 214.152 72.68C214.152 73.3733 214.405 73.9733 214.912 74.48C215.445 74.9867 216.325 75.4133 217.552 75.76L220.752 76.64C222.645 77.1467 224.072 77.92 225.032 78.96C225.992 80 226.472 81.2533 226.472 82.72C226.472 84.5067 225.792 85.9067 224.432 86.92C223.072 87.9067 221.192 88.4 218.792 88.4ZM238.938 88.36C236.671 88.36 235.018 87.8533 233.978 86.84C232.965 85.8 232.458 84.3067 232.458 82.36V62.84L235.658 61.64V82.32C235.658 83.4667 235.951 84.3067 236.538 84.84C237.125 85.3733 238.085 85.64 239.418 85.64C239.951 85.64 240.405 85.6133 240.778 85.56C241.178 85.48 241.498 85.3867 241.738 85.28V88C241.471 88.1067 241.085 88.1867 240.578 88.24C240.098 88.32 239.551 88.36 238.938 88.36ZM228.258 70.32V67.6H241.738V70.32H228.258ZM253.787 88.4C251.84 88.4 250.12 87.9467 248.627 87.04C247.133 86.1067 245.96 84.84 245.107 83.24C244.253 81.64 243.827 79.8 243.827 77.72C243.827 75.64 244.24 73.8133 245.067 72.24C245.92 70.64 247.107 69.4 248.627 68.52C250.147 67.64 251.893 67.2 253.867 67.2C255.76 67.2 257.4 67.6133 258.787 68.44C260.2 69.2667 261.28 70.4267 262.027 71.92C262.8 73.4133 263.187 75.1733 263.187 77.2C263.187 77.4667 263.173 77.72 263.147 77.96C263.147 78.2 263.12 78.4667 263.067 78.76H246.227V76.08H261.107L260.067 77.56C260.067 75.1067 259.52 73.2267 258.427 71.92C257.36 70.5867 255.84 69.92 253.867 69.92C251.84 69.92 250.2 70.6267 248.947 72.04C247.72 73.4267 247.107 75.3067 247.107 77.68C247.107 80.1067 247.72 82.0533 248.947 83.52C250.2 84.96 251.867 85.68 253.947 85.68C255.253 85.68 256.4 85.4 257.387 84.84C258.373 84.2533 259.093 83.4267 259.547 82.36H262.587C261.92 84.2267 260.8 85.7067 259.227 86.8C257.68 87.8667 255.867 88.4 253.787 88.4ZM268.005 88V67.6H271.005V72.4H271.205V88H268.005ZM281.765 88V74.48C281.765 72.9333 281.418 71.8 280.725 71.08C280.031 70.36 279.031 70 277.725 70C276.498 70 275.391 70.2933 274.405 70.88C273.418 71.4667 272.631 72.28 272.045 73.32C271.485 74.36 271.205 75.5733 271.205 76.96L270.685 72.12C271.378 70.6 272.418 69.4 273.805 68.52C275.191 67.64 276.698 67.2 278.325 67.2C280.298 67.2 281.898 67.7867 283.125 68.96C284.351 70.1067 284.965 71.6667 284.965 73.64V88H281.765ZM295.525 88V74.48C295.525 72.9333 295.178 71.8 294.485 71.08C293.791 70.36 292.791 70 291.485 70C290.258 70 289.151 70.2933 288.165 70.88C287.178 71.4667 286.391 72.28 285.805 73.32C285.245 74.36 284.965 75.5733 284.965 76.96L284.165 72.12C284.858 70.6 285.925 69.4 287.365 68.52C288.805 67.64 290.351 67.2 292.005 67.2C293.978 67.2 295.591 67.7867 296.845 68.96C298.098 70.1067 298.725 71.6667 298.725 73.64V88H295.525ZM317.283 88C317.176 87.5467 317.096 87.0267 317.043 86.44C317.016 85.8533 317.003 85.1067 317.003 84.2H316.803V74.44C316.803 72.8933 316.443 71.76 315.723 71.04C315.029 70.2933 313.896 69.92 312.323 69.92C310.776 69.92 309.536 70.24 308.603 70.88C307.696 71.4933 307.189 72.3733 307.083 73.52H304.003C304.136 71.5467 304.963 70 306.483 68.88C308.003 67.76 309.989 67.2 312.443 67.2C314.976 67.2 316.856 67.8 318.083 69C319.309 70.2 319.923 72 319.923 74.4V84.2C319.923 84.7867 319.963 85.4 320.043 86.04C320.123 86.6533 320.229 87.3067 320.363 88H317.283ZM310.283 88.4C308.176 88.4 306.496 87.8933 305.243 86.88C304.016 85.84 303.403 84.4267 303.403 82.64C303.403 80.8533 304.016 79.4667 305.243 78.48C306.469 77.4933 308.256 76.8 310.603 76.4L317.723 75.2V77.84L311.083 78.88C309.589 79.12 308.456 79.52 307.683 80.08C306.909 80.64 306.523 81.4533 306.523 82.52C306.523 83.56 306.869 84.3467 307.563 84.88C308.283 85.4133 309.336 85.68 310.723 85.68C312.509 85.68 313.963 85.28 315.083 84.48C316.229 83.6533 316.803 82.5867 316.803 81.28L317.323 84.12C316.896 85.48 316.056 86.5333 314.803 87.28C313.576 88.0267 312.069 88.4 310.283 88.4ZM348.738 96.2V83.24L349.338 83.36C348.832 84.9067 347.898 86.1333 346.538 87.04C345.205 87.9467 343.605 88.4 341.738 88.4C339.898 88.4 338.285 87.9733 336.898 87.12C335.538 86.24 334.472 85.0133 333.698 83.44C332.952 81.84 332.578 79.9867 332.578 77.88C332.578 75.7467 332.965 73.88 333.738 72.28C334.512 70.68 335.592 69.44 336.978 68.56C338.365 67.68 339.992 67.24 341.858 67.24C343.778 67.24 345.392 67.7067 346.698 68.64C348.005 69.5733 348.898 70.8933 349.378 72.6L348.938 72.68V67.6H351.938V96.2H348.738ZM342.338 85.6C344.392 85.6 345.992 84.9067 347.138 83.52C348.312 82.1067 348.898 80.1867 348.898 77.76C348.898 75.3867 348.312 73.5067 347.138 72.12C345.965 70.7333 344.365 70.04 342.338 70.04C340.312 70.04 338.725 70.7333 337.578 72.12C336.432 73.5067 335.858 75.4267 335.858 77.88C335.858 80.28 336.432 82.1733 337.578 83.56C338.725 84.92 340.312 85.6 342.338 85.6ZM364.996 88.4C363.663 88.4 362.476 88.1333 361.436 87.6C360.396 87.04 359.583 86.2667 358.996 85.28C358.41 84.2667 358.116 83.1067 358.116 81.8V67.6H361.316V80.96C361.316 82.5067 361.69 83.6667 362.436 84.44C363.21 85.2133 364.303 85.6 365.716 85.6C366.996 85.6 368.13 85.3067 369.116 84.72C370.103 84.1333 370.876 83.32 371.436 82.28C372.023 81.2133 372.316 80 372.316 78.64L372.836 83.48C372.17 85 371.13 86.2 369.716 87.08C368.303 87.96 366.73 88.4 364.996 88.4ZM372.516 88V83.2H372.316V67.6H375.516V88H372.516ZM390.193 88.4C388.246 88.4 386.526 87.9467 385.033 87.04C383.539 86.1067 382.366 84.84 381.513 83.24C380.659 81.64 380.233 79.8 380.233 77.72C380.233 75.64 380.646 73.8133 381.473 72.24C382.326 70.64 383.513 69.4 385.033 68.52C386.553 67.64 388.299 67.2 390.273 67.2C392.166 67.2 393.806 67.6133 395.193 68.44C396.606 69.2667 397.686 70.4267 398.433 71.92C399.206 73.4133 399.593 75.1733 399.593 77.2C399.593 77.4667 399.579 77.72 399.553 77.96C399.553 78.2 399.526 78.4667 399.473 78.76H382.633V76.08H397.513L396.473 77.56C396.473 75.1067 395.926 73.2267 394.833 71.92C393.766 70.5867 392.246 69.92 390.273 69.92C388.246 69.92 386.606 70.6267 385.353 72.04C384.126 73.4267 383.513 75.3067 383.513 77.68C383.513 80.1067 384.126 82.0533 385.353 83.52C386.606 84.96 388.273 85.68 390.353 85.68C391.659 85.68 392.806 85.4 393.793 84.84C394.779 84.2533 395.499 83.4267 395.953 82.36H398.993C398.326 84.2267 397.206 85.7067 395.633 86.8C394.086 87.8667 392.273 88.4 390.193 88.4ZM427.259 88V83.24L427.659 83.36C427.152 84.9067 426.219 86.1333 424.859 87.04C423.525 87.9467 421.925 88.4 420.059 88.4C418.219 88.4 416.605 87.96 415.219 87.08C413.859 86.2 412.792 84.9733 412.019 83.4C411.272 81.8267 410.899 79.9867 410.899 77.88C410.899 75.7467 411.285 73.88 412.059 72.28C412.832 70.68 413.912 69.44 415.299 68.56C416.685 67.68 418.312 67.24 420.179 67.24C422.099 67.24 423.712 67.7067 425.019 68.64C426.325 69.5733 427.219 70.8933 427.699 72.6L427.059 72.68V59.2H430.259V88H427.259ZM420.659 85.6C422.712 85.6 424.312 84.9067 425.459 83.52C426.632 82.1067 427.219 80.1867 427.219 77.76C427.219 75.3867 426.632 73.5067 425.459 72.12C424.285 70.7333 422.685 70.04 420.659 70.04C418.632 70.04 417.045 70.7333 415.899 72.12C414.752 73.5067 414.179 75.4267 414.179 77.88C414.179 80.28 414.752 82.1733 415.899 83.56C417.045 84.92 418.632 85.6 420.659 85.6ZM445.037 88.4C443.09 88.4 441.37 87.9467 439.877 87.04C438.383 86.1067 437.21 84.84 436.357 83.24C435.503 81.64 435.077 79.8 435.077 77.72C435.077 75.64 435.49 73.8133 436.317 72.24C437.17 70.64 438.357 69.4 439.877 68.52C441.397 67.64 443.143 67.2 445.117 67.2C447.01 67.2 448.65 67.6133 450.037 68.44C451.45 69.2667 452.53 70.4267 453.277 71.92C454.05 73.4133 454.437 75.1733 454.437 77.2C454.437 77.4667 454.423 77.72 454.397 77.96C454.397 78.2 454.37 78.4667 454.317 78.76H437.477V76.08H452.357L451.317 77.56C451.317 75.1067 450.77 73.2267 449.677 71.92C448.61 70.5867 447.09 69.92 445.117 69.92C443.09 69.92 441.45 70.6267 440.197 72.04C438.97 73.4267 438.357 75.3067 438.357 77.68C438.357 80.1067 438.97 82.0533 440.197 83.52C441.45 84.96 443.117 85.68 445.197 85.68C446.503 85.68 447.65 85.4 448.637 84.84C449.623 84.2533 450.343 83.4267 450.797 82.36H453.837C453.17 84.2267 452.05 85.7067 450.477 86.8C448.93 87.8667 447.117 88.4 445.037 88.4ZM466.175 88.4C463.668 88.4 461.668 87.8267 460.175 86.68C458.681 85.5067 457.828 83.8533 457.615 81.72H460.695C460.881 83.0267 461.455 84.0267 462.415 84.72C463.375 85.4133 464.655 85.76 466.255 85.76C467.668 85.76 468.775 85.4933 469.575 84.96C470.375 84.4267 470.775 83.6667 470.775 82.68C470.775 81.9867 470.548 81.3867 470.095 80.88C469.641 80.3467 468.735 79.9067 467.375 79.56L464.095 78.72C462.228 78.24 460.828 77.5067 459.895 76.52C458.961 75.5067 458.495 74.3067 458.495 72.92C458.495 71.16 459.148 69.7733 460.455 68.76C461.761 67.72 463.535 67.2 465.775 67.2C467.988 67.2 469.788 67.7333 471.175 68.8C472.561 69.8667 473.348 71.3467 473.535 73.24H470.455C470.268 72.1467 469.761 71.3067 468.935 70.72C468.108 70.1333 467.015 69.84 465.655 69.84C464.348 69.84 463.335 70.0933 462.615 70.6C461.895 71.08 461.535 71.7733 461.535 72.68C461.535 73.3733 461.788 73.9733 462.295 74.48C462.828 74.9867 463.708 75.4133 464.935 75.76L468.135 76.64C470.028 77.1467 471.455 77.92 472.415 78.96C473.375 80 473.855 81.2533 473.855 82.72C473.855 84.5067 473.175 85.9067 471.815 86.92C470.455 87.9067 468.575 88.4 466.175 88.4ZM488.241 88.36C486.321 88.36 484.708 87.8933 483.401 86.96C482.094 86.0267 481.201 84.7067 480.721 83L481.161 82.92V88H478.161V59.2H481.361V72.36L480.921 72.24C481.428 70.6667 482.348 69.44 483.681 68.56C485.041 67.6533 486.654 67.2 488.521 67.2C490.334 67.2 491.908 67.64 493.241 68.52C494.601 69.4 495.654 70.6267 496.401 72.2C497.148 73.7733 497.521 75.6133 497.521 77.72C497.521 79.8533 497.134 81.72 496.361 83.32C495.588 84.92 494.508 86.16 493.121 87.04C491.734 87.92 490.108 88.36 488.241 88.36ZM487.761 85.56C489.788 85.56 491.374 84.8667 492.521 83.48C493.668 82.0667 494.241 80.1467 494.241 77.72C494.241 75.32 493.668 73.44 492.521 72.08C491.374 70.6933 489.788 70 487.761 70C485.734 70 484.134 70.7067 482.961 72.12C481.788 73.5067 481.201 75.4133 481.201 77.84C481.201 80.2133 481.788 82.0933 482.961 83.48C484.134 84.8667 485.734 85.56 487.761 85.56ZM502.419 88V59.2H505.619V88H502.419ZM520.508 88.4C518.508 88.4 516.748 87.9333 515.228 87C513.708 86.0667 512.521 84.8 511.668 83.2C510.841 81.5733 510.428 79.7467 510.428 77.72C510.428 75.6667 510.855 73.8533 511.708 72.28C512.561 70.7067 513.735 69.4667 515.228 68.56C516.748 67.6533 518.508 67.2 520.508 67.2C522.535 67.2 524.295 67.6533 525.788 68.56C527.308 69.4667 528.481 70.7067 529.308 72.28C530.161 73.8533 530.588 75.6667 530.588 77.72C530.588 79.7467 530.161 81.5733 529.308 83.2C528.481 84.8 527.308 86.0667 525.788 87C524.295 87.9333 522.535 88.4 520.508 88.4ZM520.508 85.68C521.895 85.68 523.095 85.3467 524.108 84.68C525.121 83.9867 525.908 83.04 526.468 81.84C527.028 80.64 527.308 79.2533 527.308 77.68C527.308 75.3333 526.681 73.4533 525.428 72.04C524.201 70.6267 522.561 69.92 520.508 69.92C518.481 69.92 516.841 70.6267 515.588 72.04C514.335 73.4533 513.708 75.3333 513.708 77.68C513.708 79.2533 513.988 80.64 514.548 81.84C515.108 83.04 515.895 83.9867 516.908 84.68C517.948 85.3467 519.148 85.68 520.508 85.68ZM550.028 96.2V83.24L550.628 83.36C550.121 84.9067 549.188 86.1333 547.828 87.04C546.494 87.9467 544.894 88.4 543.028 88.4C541.188 88.4 539.574 87.9733 538.188 87.12C536.828 86.24 535.761 85.0133 534.988 83.44C534.241 81.84 533.868 79.9867 533.868 77.88C533.868 75.7467 534.254 73.88 535.028 72.28C535.801 70.68 536.881 69.44 538.268 68.56C539.654 67.68 541.281 67.24 543.148 67.24C545.068 67.24 546.681 67.7067 547.988 68.64C549.294 69.5733 550.188 70.8933 550.668 72.6L550.228 72.68V67.6H553.228V96.2H550.028ZM543.628 85.6C545.681 85.6 547.281 84.9067 548.428 83.52C549.601 82.1067 550.188 80.1867 550.188 77.76C550.188 75.3867 549.601 73.5067 548.428 72.12C547.254 70.7333 545.654 70.04 543.628 70.04C541.601 70.04 540.014 70.7333 538.868 72.12C537.721 73.5067 537.148 75.4267 537.148 77.88C537.148 80.28 537.721 82.1733 538.868 83.56C540.014 84.92 541.601 85.6 543.628 85.6ZM566.285 88.4C564.952 88.4 563.765 88.1333 562.725 87.6C561.685 87.04 560.872 86.2667 560.285 85.28C559.699 84.2667 559.405 83.1067 559.405 81.8V67.6H562.605V80.96C562.605 82.5067 562.979 83.6667 563.725 84.44C564.499 85.2133 565.592 85.6 567.005 85.6C568.285 85.6 569.419 85.3067 570.405 84.72C571.392 84.1333 572.165 83.32 572.725 82.28C573.312 81.2133 573.605 80 573.605 78.64L574.125 83.48C573.459 85 572.419 86.2 571.005 87.08C569.592 87.96 568.019 88.4 566.285 88.4ZM573.805 88V83.2H573.605V67.6H576.805V88H573.805ZM591.482 88.4C589.535 88.4 587.815 87.9467 586.322 87.04C584.829 86.1067 583.655 84.84 582.802 83.24C581.949 81.64 581.522 79.8 581.522 77.72C581.522 75.64 581.935 73.8133 582.762 72.24C583.615 70.64 584.802 69.4 586.322 68.52C587.842 67.64 589.589 67.2 591.562 67.2C593.455 67.2 595.095 67.6133 596.482 68.44C597.895 69.2667 598.975 70.4267 599.722 71.92C600.495 73.4133 600.882 75.1733 600.882 77.2C600.882 77.4667 600.869 77.72 600.842 77.96C600.842 78.2 600.815 78.4667 600.762 78.76H583.922V76.08H598.802L597.762 77.56C597.762 75.1067 597.215 73.2267 596.122 71.92C595.055 70.5867 593.535 69.92 591.562 69.92C589.535 69.92 587.895 70.6267 586.642 72.04C585.415 73.4267 584.802 75.3067 584.802 77.68C584.802 80.1067 585.415 82.0533 586.642 83.52C587.895 84.96 589.562 85.68 591.642 85.68C592.949 85.68 594.095 85.4 595.082 84.84C596.069 84.2533 596.789 83.4267 597.242 82.36H600.282C599.615 84.2267 598.495 85.7067 596.922 86.8C595.375 87.8667 593.562 88.4 591.482 88.4ZM618.103 88C617.996 87.5467 617.916 87.0267 617.863 86.44C617.836 85.8533 617.823 85.1067 617.823 84.2H617.623V74.44C617.623 72.8933 617.263 71.76 616.543 71.04C615.849 70.2933 614.716 69.92 613.143 69.92C611.596 69.92 610.356 70.24 609.423 70.88C608.516 71.4933 608.009 72.3733 607.903 73.52H604.823C604.956 71.5467 605.783 70 607.303 68.88C608.823 67.76 610.809 67.2 613.263 67.2C615.796 67.2 617.676 67.8 618.903 69C620.129 70.2 620.743 72 620.743 74.4V84.2C620.743 84.7867 620.783 85.4 620.863 86.04C620.943 86.6533 621.049 87.3067 621.183 88H618.103ZM611.103 88.4C608.996 88.4 607.316 87.8933 606.063 86.88C604.836 85.84 604.223 84.4267 604.223 82.64C604.223 80.8533 604.836 79.4667 606.063 78.48C607.289 77.4933 609.076 76.8 611.423 76.4L618.543 75.2V77.84L611.903 78.88C610.409 79.12 609.276 79.52 608.503 80.08C607.729 80.64 607.343 81.4533 607.343 82.52C607.343 83.56 607.689 84.3467 608.383 84.88C609.103 85.4133 610.156 85.68 611.543 85.68C613.329 85.68 614.783 85.28 615.903 84.48C617.049 83.6533 617.623 82.5867 617.623 81.28L618.143 84.12C617.716 85.48 616.876 86.5333 615.623 87.28C614.396 88.0267 612.889 88.4 611.103 88.4ZM643.079 88.36C640.812 88.36 639.159 87.8533 638.119 86.84C637.105 85.8 636.599 84.3067 636.599 82.36V62.84L639.799 61.64V82.32C639.799 83.4667 640.092 84.3067 640.679 84.84C641.265 85.3733 642.225 85.64 643.559 85.64C644.092 85.64 644.545 85.6133 644.919 85.56C645.319 85.48 645.639 85.3867 645.879 85.28V88C645.612 88.1067 645.225 88.1867 644.719 88.24C644.239 88.32 643.692 88.36 643.079 88.36ZM632.399 70.32V67.6H645.879V70.32H632.399ZM656.442 88.4C655.108 88.4 653.922 88.1333 652.882 87.6C651.842 87.04 651.028 86.2667 650.442 85.28C649.855 84.2667 649.562 83.1067 649.562 81.8V67.6H652.762V80.96C652.762 82.5067 653.135 83.6667 653.882 84.44C654.655 85.2133 655.748 85.6 657.162 85.6C658.442 85.6 659.575 85.3067 660.562 84.72C661.548 84.1333 662.322 83.32 662.882 82.28C663.468 81.2133 663.762 80 663.762 78.64L664.282 83.48C663.615 85 662.575 86.2 661.162 87.08C659.748 87.96 658.175 88.4 656.442 88.4ZM663.962 88V83.2H663.762V67.6H666.962V88H663.962ZM245.898 137L237.458 116.6H240.898L247.938 134.84H246.658L253.658 116.6H256.938L248.498 137H245.898ZM268.728 137.4C266.781 137.4 265.061 136.947 263.568 136.04C262.075 135.107 260.901 133.84 260.048 132.24C259.195 130.64 258.768 128.8 258.768 126.72C258.768 124.64 259.181 122.813 260.008 121.24C260.861 119.64 262.048 118.4 263.568 117.52C265.088 116.64 266.835 116.2 268.808 116.2C270.701 116.2 272.341 116.613 273.728 117.44C275.141 118.267 276.221 119.427 276.968 120.92C277.741 122.413 278.128 124.173 278.128 126.2C278.128 126.467 278.115 126.72 278.088 126.96C278.088 127.2 278.061 127.467 278.008 127.76H261.168V125.08H276.048L275.008 126.56C275.008 124.107 274.461 122.227 273.368 120.92C272.301 119.587 270.781 118.92 268.808 118.92C266.781 118.92 265.141 119.627 263.888 121.04C262.661 122.427 262.048 124.307 262.048 126.68C262.048 129.107 262.661 131.053 263.888 132.52C265.141 133.96 266.808 134.68 268.888 134.68C270.195 134.68 271.341 134.4 272.328 133.84C273.315 133.253 274.035 132.427 274.488 131.36H277.528C276.861 133.227 275.741 134.707 274.168 135.8C272.621 136.867 270.808 137.4 268.728 137.4ZM282.946 137V116.6H285.946V121.8H286.146V137H282.946ZM286.146 126.36L285.626 121.52C286.106 119.787 286.959 118.467 288.186 117.56C289.413 116.653 290.826 116.2 292.426 116.2C293.093 116.2 293.546 116.253 293.786 116.36V119.44C293.653 119.387 293.466 119.36 293.226 119.36C292.986 119.333 292.693 119.32 292.346 119.32C290.319 119.32 288.773 119.933 287.706 121.16C286.666 122.36 286.146 124.093 286.146 126.36ZM312.122 137V132.24L312.522 132.36C312.015 133.907 311.082 135.133 309.722 136.04C308.389 136.947 306.789 137.4 304.922 137.4C303.082 137.4 301.469 136.96 300.082 136.08C298.722 135.2 297.655 133.973 296.882 132.4C296.135 130.827 295.762 128.987 295.762 126.88C295.762 124.747 296.149 122.88 296.922 121.28C297.695 119.68 298.775 118.44 300.162 117.56C301.549 116.68 303.175 116.24 305.042 116.24C306.962 116.24 308.575 116.707 309.882 117.64C311.189 118.573 312.082 119.893 312.562 121.6L311.922 121.68V108.2H315.122V137H312.122ZM305.522 134.6C307.575 134.6 309.175 133.907 310.322 132.52C311.495 131.107 312.082 129.187 312.082 126.76C312.082 124.387 311.495 122.507 310.322 121.12C309.149 119.733 307.549 119.04 305.522 119.04C303.495 119.04 301.909 119.733 300.762 121.12C299.615 122.507 299.042 124.427 299.042 126.88C299.042 129.28 299.615 131.173 300.762 132.56C301.909 133.92 303.495 134.6 305.522 134.6ZM334.06 137C333.953 136.547 333.873 136.027 333.82 135.44C333.793 134.853 333.78 134.107 333.78 133.2H333.58V123.44C333.58 121.893 333.22 120.76 332.5 120.04C331.807 119.293 330.673 118.92 329.1 118.92C327.553 118.92 326.313 119.24 325.38 119.88C324.473 120.493 323.967 121.373 323.86 122.52H320.78C320.913 120.547 321.74 119 323.26 117.88C324.78 116.76 326.767 116.2 329.22 116.2C331.753 116.2 333.633 116.8 334.86 118C336.087 119.2 336.7 121 336.7 123.4V133.2C336.7 133.787 336.74 134.4 336.82 135.04C336.9 135.653 337.007 136.307 337.14 137H334.06ZM327.06 137.4C324.953 137.4 323.273 136.893 322.02 135.88C320.793 134.84 320.18 133.427 320.18 131.64C320.18 129.853 320.793 128.467 322.02 127.48C323.247 126.493 325.033 125.8 327.38 125.4L334.5 124.2V126.84L327.86 127.88C326.367 128.12 325.233 128.52 324.46 129.08C323.687 129.64 323.3 130.453 323.3 131.52C323.3 132.56 323.647 133.347 324.34 133.88C325.06 134.413 326.113 134.68 327.5 134.68C329.287 134.68 330.74 134.28 331.86 133.48C333.007 132.653 333.58 131.587 333.58 130.28L334.1 133.12C333.673 134.48 332.833 135.533 331.58 136.28C330.353 137.027 328.847 137.4 327.06 137.4ZM357.708 137V132.24L358.108 132.36C357.601 133.907 356.668 135.133 355.308 136.04C353.975 136.947 352.375 137.4 350.508 137.4C348.668 137.4 347.055 136.96 345.668 136.08C344.308 135.2 343.241 133.973 342.468 132.4C341.721 130.827 341.348 128.987 341.348 126.88C341.348 124.747 341.735 122.88 342.508 121.28C343.281 119.68 344.361 118.44 345.748 117.56C347.135 116.68 348.761 116.24 350.628 116.24C352.548 116.24 354.161 116.707 355.468 117.64C356.775 118.573 357.668 119.893 358.148 121.6L357.508 121.68V108.2H360.708V137H357.708ZM351.108 134.6C353.161 134.6 354.761 133.907 355.908 132.52C357.081 131.107 357.668 129.187 357.668 126.76C357.668 124.387 357.081 122.507 355.908 121.12C354.735 119.733 353.135 119.04 351.108 119.04C349.081 119.04 347.495 119.733 346.348 121.12C345.201 122.507 344.628 124.427 344.628 126.88C344.628 129.28 345.201 131.173 346.348 132.56C347.495 133.92 349.081 134.6 351.108 134.6ZM375.486 137.4C373.539 137.4 371.819 136.947 370.326 136.04C368.832 135.107 367.659 133.84 366.806 132.24C365.952 130.64 365.526 128.8 365.526 126.72C365.526 124.64 365.939 122.813 366.766 121.24C367.619 119.64 368.806 118.4 370.326 117.52C371.846 116.64 373.592 116.2 375.566 116.2C377.459 116.2 379.099 116.613 380.486 117.44C381.899 118.267 382.979 119.427 383.726 120.92C384.499 122.413 384.886 124.173 384.886 126.2C384.886 126.467 384.872 126.72 384.846 126.96C384.846 127.2 384.819 127.467 384.766 127.76H367.926V125.08H382.806L381.766 126.56C381.766 124.107 381.219 122.227 380.126 120.92C379.059 119.587 377.539 118.92 375.566 118.92C373.539 118.92 371.899 119.627 370.646 121.04C369.419 122.427 368.806 124.307 368.806 126.68C368.806 129.107 369.419 131.053 370.646 132.52C371.899 133.96 373.566 134.68 375.646 134.68C376.952 134.68 378.099 134.4 379.086 133.84C380.072 133.253 380.792 132.427 381.246 131.36H384.286C383.619 133.227 382.499 134.707 380.926 135.8C379.379 136.867 377.566 137.4 375.486 137.4ZM389.704 137V116.6H392.704V121.8H392.904V137H389.704ZM392.904 126.36L392.384 121.52C392.864 119.787 393.717 118.467 394.944 117.56C396.171 116.653 397.584 116.2 399.184 116.2C399.851 116.2 400.304 116.253 400.544 116.36V119.44C400.411 119.387 400.224 119.36 399.984 119.36C399.744 119.333 399.451 119.32 399.104 119.32C397.077 119.32 395.531 119.933 394.464 121.16C393.424 122.36 392.904 124.093 392.904 126.36ZM413.184 137.4C411.184 137.4 409.424 136.933 407.904 136C406.384 135.067 405.197 133.8 404.344 132.2C403.517 130.573 403.104 128.747 403.104 126.72C403.104 124.667 403.531 122.853 404.384 121.28C405.237 119.707 406.411 118.467 407.904 117.56C409.424 116.653 411.184 116.2 413.184 116.2C415.211 116.2 416.971 116.653 418.464 117.56C419.984 118.467 421.157 119.707 421.984 121.28C422.837 122.853 423.264 124.667 423.264 126.72C423.264 128.747 422.837 130.573 421.984 132.2C421.157 133.8 419.984 135.067 418.464 136C416.971 136.933 415.211 137.4 413.184 137.4ZM413.184 134.68C414.571 134.68 415.771 134.347 416.784 133.68C417.797 132.987 418.584 132.04 419.144 130.84C419.704 129.64 419.984 128.253 419.984 126.68C419.984 124.333 419.357 122.453 418.104 121.04C416.877 119.627 415.237 118.92 413.184 118.92C411.157 118.92 409.517 119.627 408.264 121.04C407.011 122.453 406.384 124.333 406.384 126.68C406.384 128.253 406.664 129.64 407.224 130.84C407.784 132.04 408.571 132.987 409.584 133.68C410.624 134.347 411.824 134.68 413.184 134.68ZM446.151 137.36C444.231 137.36 442.618 136.893 441.311 135.96C440.004 135.027 439.111 133.707 438.631 132L439.271 131.92V145.2H436.071V116.6H439.071V121.36L438.631 121.24C439.138 119.667 440.098 118.44 441.511 117.56C442.924 116.653 444.564 116.2 446.431 116.2C448.244 116.2 449.818 116.64 451.151 117.52C452.511 118.4 453.564 119.627 454.311 121.2C455.058 122.773 455.431 124.613 455.431 126.72C455.431 128.853 455.044 130.72 454.271 132.32C453.498 133.92 452.418 135.16 451.031 136.04C449.644 136.92 448.018 137.36 446.151 137.36ZM445.671 134.56C447.698 134.56 449.284 133.867 450.431 132.48C451.578 131.067 452.151 129.147 452.151 126.72C452.151 124.32 451.578 122.44 450.431 121.08C449.284 119.693 447.698 119 445.671 119C443.644 119 442.044 119.707 440.871 121.12C439.698 122.507 439.111 124.413 439.111 126.84C439.111 129.213 439.698 131.093 440.871 132.48C442.044 133.867 443.644 134.56 445.671 134.56ZM468.809 137.4C466.809 137.4 465.049 136.933 463.529 136C462.009 135.067 460.822 133.8 459.969 132.2C459.142 130.573 458.729 128.747 458.729 126.72C458.729 124.667 459.156 122.853 460.009 121.28C460.862 119.707 462.036 118.467 463.529 117.56C465.049 116.653 466.809 116.2 468.809 116.2C470.836 116.2 472.596 116.653 474.089 117.56C475.609 118.467 476.782 119.707 477.609 121.28C478.462 122.853 478.889 124.667 478.889 126.72C478.889 128.747 478.462 130.573 477.609 132.2C476.782 133.8 475.609 135.067 474.089 136C472.596 136.933 470.836 137.4 468.809 137.4ZM468.809 134.68C470.196 134.68 471.396 134.347 472.409 133.68C473.422 132.987 474.209 132.04 474.769 130.84C475.329 129.64 475.609 128.253 475.609 126.68C475.609 124.333 474.982 122.453 473.729 121.04C472.502 119.627 470.862 118.92 468.809 118.92C466.782 118.92 465.142 119.627 463.889 121.04C462.636 122.453 462.009 124.333 462.009 126.68C462.009 128.253 462.289 129.64 462.849 130.84C463.409 132.04 464.196 132.987 465.209 133.68C466.249 134.347 467.449 134.68 468.809 134.68ZM491.653 137.36C489.386 137.36 487.733 136.853 486.693 135.84C485.68 134.8 485.173 133.307 485.173 131.36V111.84L488.373 110.64V131.32C488.373 132.467 488.666 133.307 489.253 133.84C489.84 134.373 490.8 134.64 492.133 134.64C492.666 134.64 493.12 134.613 493.493 134.56C493.893 134.48 494.213 134.387 494.453 134.28V137C494.186 137.107 493.8 137.187 493.293 137.24C492.813 137.32 492.266 137.36 491.653 137.36ZM480.973 119.32V116.6H494.453V119.32H480.973ZM506.501 137.4C504.555 137.4 502.835 136.947 501.341 136.04C499.848 135.107 498.675 133.84 497.821 132.24C496.968 130.64 496.541 128.8 496.541 126.72C496.541 124.64 496.955 122.813 497.781 121.24C498.635 119.64 499.821 118.4 501.341 117.52C502.861 116.64 504.608 116.2 506.581 116.2C508.475 116.2 510.115 116.613 511.501 117.44C512.915 118.267 513.995 119.427 514.741 120.92C515.515 122.413 515.901 124.173 515.901 126.2C515.901 126.467 515.888 126.72 515.861 126.96C515.861 127.2 515.835 127.467 515.781 127.76H498.941V125.08H513.821L512.781 126.56C512.781 124.107 512.235 122.227 511.141 120.92C510.075 119.587 508.555 118.92 506.581 118.92C504.555 118.92 502.915 119.627 501.661 121.04C500.435 122.427 499.821 124.307 499.821 126.68C499.821 129.107 500.435 131.053 501.661 132.52C502.915 133.96 504.581 134.68 506.661 134.68C507.968 134.68 509.115 134.4 510.101 133.84C511.088 133.253 511.808 132.427 512.261 131.36H515.301C514.635 133.227 513.515 134.707 511.941 135.8C510.395 136.867 508.581 137.4 506.501 137.4ZM520.72 137V116.6H523.72V121.4H523.92V137H520.72ZM535.32 137V123.64C535.32 122.093 534.933 120.933 534.16 120.16C533.386 119.387 532.24 119 530.72 119C529.386 119 528.2 119.293 527.16 119.88C526.146 120.467 525.346 121.28 524.76 122.32C524.2 123.36 523.92 124.573 523.92 125.96L523.4 121.12C524.093 119.6 525.146 118.4 526.56 117.52C528 116.64 529.626 116.2 531.44 116.2C533.573 116.2 535.28 116.813 536.56 118.04C537.866 119.24 538.52 120.827 538.52 122.8V137H535.32ZM552.745 137.4C550.878 137.4 549.212 136.947 547.745 136.04C546.305 135.107 545.158 133.84 544.305 132.24C543.478 130.613 543.065 128.773 543.065 126.72C543.065 124.667 543.478 122.853 544.305 121.28C545.158 119.707 546.305 118.467 547.745 117.56C549.212 116.653 550.865 116.2 552.705 116.2C554.225 116.2 555.585 116.493 556.785 117.08C558.012 117.667 559.012 118.507 559.785 119.6C560.585 120.667 561.092 121.92 561.305 123.36H558.345C558.078 122.053 557.465 120.987 556.505 120.16C555.545 119.333 554.305 118.92 552.785 118.92C551.478 118.92 550.345 119.24 549.385 119.88C548.425 120.52 547.678 121.427 547.145 122.6C546.612 123.773 546.345 125.147 546.345 126.72C546.345 128.293 546.612 129.68 547.145 130.88C547.678 132.08 548.425 133.013 549.385 133.68C550.372 134.347 551.518 134.68 552.825 134.68C554.292 134.68 555.518 134.28 556.505 133.48C557.492 132.653 558.118 131.587 558.385 130.28H561.345C561.105 131.693 560.572 132.947 559.745 134.04C558.945 135.107 557.945 135.933 556.745 136.52C555.545 137.107 554.212 137.4 552.745 137.4ZM565.837 137V116.6H569.037V137H565.837ZM565.597 111.96V108.2H569.277V111.96H565.597ZM587.849 137C587.742 136.547 587.662 136.027 587.609 135.44C587.582 134.853 587.569 134.107 587.569 133.2H587.369V123.44C587.369 121.893 587.009 120.76 586.289 120.04C585.596 119.293 584.462 118.92 582.889 118.92C581.342 118.92 580.102 119.24 579.169 119.88C578.262 120.493 577.756 121.373 577.649 122.52H574.569C574.702 120.547 575.529 119 577.049 117.88C578.569 116.76 580.556 116.2 583.009 116.2C585.542 116.2 587.422 116.8 588.649 118C589.876 119.2 590.489 121 590.489 123.4V133.2C590.489 133.787 590.529 134.4 590.609 135.04C590.689 135.653 590.796 136.307 590.929 137H587.849ZM580.849 137.4C578.742 137.4 577.062 136.893 575.809 135.88C574.582 134.84 573.969 133.427 573.969 131.64C573.969 129.853 574.582 128.467 575.809 127.48C577.036 126.493 578.822 125.8 581.169 125.4L588.289 124.2V126.84L581.649 127.88C580.156 128.12 579.022 128.52 578.249 129.08C577.476 129.64 577.089 130.453 577.089 131.52C577.089 132.56 577.436 133.347 578.129 133.88C578.849 134.413 579.902 134.68 581.289 134.68C583.076 134.68 584.529 134.28 585.649 133.48C586.796 132.653 587.369 131.587 587.369 130.28L587.889 133.12C587.462 134.48 586.622 135.533 585.369 136.28C584.142 137.027 582.636 137.4 580.849 137.4ZM596.657 137V108.2H599.857V137H596.657ZM606.106 137V132.88H610.226V137H606.106Z" fill="#2B4F6C"/>
<path d="M410.001 105.727C496.836 97.1778 544.792 99.9088 631.204 106.523" stroke="#ED7D2B" stroke-width="5"/>
<path d="M241.04 161.601C389.573 151.732 471.937 148.451 619.668 159.708" stroke="#ED7D2B" stroke-width="5"/>
</svg>
