<svg width="415" height="68" viewBox="0 0 415 68" fill="none" xmlns="http://www.w3.org/2000/svg">
<path d="M2.52435 66.4644C163.573 56.7974 252.874 53.5647 413.041 64.4118" stroke="#ED7D2B" stroke-width="2"/>
<path d="M35.6296 23L42.3016 5.72H44.0296L37.5256 23H35.6296ZM49.3576 23L42.8536 5.72H44.7016L51.3736 23H49.3576ZM38.9416 16.016H47.9656V17.744H38.9416V16.016ZM58.3618 23.24C57.2418 23.24 56.2418 22.968 55.3618 22.424C54.4978 21.864 53.8098 21.104 53.2978 20.144C52.8018 19.168 52.5538 18.064 52.5538 16.832C52.5538 15.6 52.8018 14.512 53.2978 13.568C53.8098 12.624 54.4978 11.88 55.3618 11.336C56.2418 10.792 57.2338 10.52 58.3378 10.52C59.2498 10.52 60.0658 10.696 60.7858 11.048C61.5218 11.4 62.1218 11.904 62.5858 12.56C63.0658 13.2 63.3698 13.952 63.4978 14.816H61.7218C61.5618 14.032 61.1938 13.392 60.6178 12.896C60.0418 12.4 59.2978 12.152 58.3858 12.152C57.6018 12.152 56.9218 12.344 56.3458 12.728C55.7698 13.112 55.3218 13.656 55.0018 14.36C54.6818 15.064 54.5218 15.888 54.5218 16.832C54.5218 17.776 54.6818 18.608 55.0018 19.328C55.3218 20.048 55.7698 20.608 56.3458 21.008C56.9378 21.408 57.6258 21.608 58.4098 21.608C59.2898 21.608 60.0258 21.368 60.6178 20.888C61.2098 20.392 61.5858 19.752 61.7458 18.968H63.5218C63.3778 19.816 63.0578 20.568 62.5618 21.224C62.0818 21.864 61.4818 22.36 60.7618 22.712C60.0418 23.064 59.2418 23.24 58.3618 23.24ZM71.1118 23.24C69.9918 23.24 68.9918 22.968 68.1118 22.424C67.2478 21.864 66.5598 21.104 66.0478 20.144C65.5518 19.168 65.3038 18.064 65.3038 16.832C65.3038 15.6 65.5518 14.512 66.0478 13.568C66.5598 12.624 67.2478 11.88 68.1118 11.336C68.9918 10.792 69.9838 10.52 71.0878 10.52C71.9998 10.52 72.8158 10.696 73.5358 11.048C74.2718 11.4 74.8718 11.904 75.3358 12.56C75.8158 13.2 76.1198 13.952 76.2478 14.816H74.4718C74.3118 14.032 73.9438 13.392 73.3678 12.896C72.7918 12.4 72.0478 12.152 71.1358 12.152C70.3518 12.152 69.6718 12.344 69.0958 12.728C68.5198 13.112 68.0718 13.656 67.7518 14.36C67.4318 15.064 67.2718 15.888 67.2718 16.832C67.2718 17.776 67.4318 18.608 67.7518 19.328C68.0718 20.048 68.5198 20.608 69.0958 21.008C69.6878 21.408 70.3758 21.608 71.1598 21.608C72.0398 21.608 72.7758 21.368 73.3678 20.888C73.9598 20.392 74.3358 19.752 74.4958 18.968H76.2718C76.1278 19.816 75.8078 20.568 75.3118 21.224C74.8318 21.864 74.2318 22.36 73.5118 22.712C72.7918 23.064 71.9918 23.24 71.1118 23.24ZM84.0298 23.24C82.8618 23.24 81.8298 22.968 80.9338 22.424C80.0378 21.864 79.3338 21.104 78.8218 20.144C78.3098 19.184 78.0538 18.08 78.0538 16.832C78.0538 15.584 78.3018 14.488 78.7978 13.544C79.3098 12.584 80.0218 11.84 80.9338 11.312C81.8458 10.784 82.8938 10.52 84.0778 10.52C85.2138 10.52 86.1978 10.768 87.0298 11.264C87.8778 11.76 88.5258 12.456 88.9738 13.352C89.4378 14.248 89.6698 15.304 89.6698 16.52C89.6698 16.68 89.6618 16.832 89.6458 16.976C89.6458 17.12 89.6298 17.28 89.5978 17.456H79.4938V15.848H88.4218L87.7978 16.736C87.7978 15.264 87.4698 14.136 86.8138 13.352C86.1738 12.552 85.2618 12.152 84.0778 12.152C82.8618 12.152 81.8778 12.576 81.1258 13.424C80.3898 14.256 80.0218 15.384 80.0218 16.808C80.0218 18.264 80.3898 19.432 81.1258 20.312C81.8778 21.176 82.8778 21.608 84.1258 21.608C84.9098 21.608 85.5978 21.44 86.1898 21.104C86.7818 20.752 87.2138 20.256 87.4858 19.616H89.3098C88.9098 20.736 88.2378 21.624 87.2938 22.28C86.3658 22.92 85.2778 23.24 84.0298 23.24ZM101.465 23V20.144L101.705 20.216C101.401 21.144 100.841 21.88 100.025 22.424C99.2246 22.968 98.2646 23.24 97.1446 23.24C96.0406 23.24 95.0726 22.976 94.2406 22.448C93.4246 21.92 92.7846 21.184 92.3206 20.24C91.8726 19.296 91.6486 18.192 91.6486 16.928C91.6486 15.648 91.8806 14.528 92.3446 13.568C92.8086 12.608 93.4566 11.864 94.2886 11.336C95.1206 10.808 96.0966 10.544 97.2166 10.544C98.3686 10.544 99.3366 10.824 100.121 11.384C100.905 11.944 101.441 12.736 101.729 13.76L101.345 13.808V5.72H103.265V23H101.465ZM97.5046 21.56C98.7366 21.56 99.6966 21.144 100.385 20.312C101.089 19.464 101.441 18.312 101.441 16.856C101.441 15.432 101.089 14.304 100.385 13.472C99.6806 12.64 98.7206 12.224 97.5046 12.224C96.2886 12.224 95.3366 12.64 94.6486 13.472C93.9606 14.304 93.6166 15.456 93.6166 16.928C93.6166 18.368 93.9606 19.504 94.6486 20.336C95.3366 21.152 96.2886 21.56 97.5046 21.56ZM112.131 23.24C110.963 23.24 109.931 22.968 109.035 22.424C108.139 21.864 107.435 21.104 106.923 20.144C106.411 19.184 106.155 18.08 106.155 16.832C106.155 15.584 106.403 14.488 106.899 13.544C107.411 12.584 108.123 11.84 109.035 11.312C109.947 10.784 110.995 10.52 112.179 10.52C113.315 10.52 114.299 10.768 115.131 11.264C115.979 11.76 116.627 12.456 117.075 13.352C117.539 14.248 117.771 15.304 117.771 16.52C117.771 16.68 117.763 16.832 117.747 16.976C117.747 17.12 117.731 17.28 117.699 17.456H107.595V15.848H116.523L115.899 16.736C115.899 15.264 115.571 14.136 114.915 13.352C114.275 12.552 113.363 12.152 112.179 12.152C110.963 12.152 109.979 12.576 109.227 13.424C108.491 14.256 108.123 15.384 108.123 16.808C108.123 18.264 108.491 19.432 109.227 20.312C109.979 21.176 110.979 21.608 112.227 21.608C113.011 21.608 113.699 21.44 114.291 21.104C114.883 20.752 115.315 20.256 115.587 19.616H117.411C117.011 20.736 116.339 21.624 115.395 22.28C114.467 22.92 113.379 23.24 112.131 23.24ZM132.979 23C132.915 22.728 132.867 22.416 132.835 22.064C132.819 21.712 132.811 21.264 132.811 20.72H132.691V14.864C132.691 13.936 132.475 13.256 132.043 12.824C131.627 12.376 130.947 12.152 130.003 12.152C129.075 12.152 128.331 12.344 127.771 12.728C127.227 13.096 126.923 13.624 126.859 14.312H125.011C125.091 13.128 125.587 12.2 126.499 11.528C127.411 10.856 128.603 10.52 130.075 10.52C131.595 10.52 132.723 10.88 133.459 11.6C134.195 12.32 134.563 13.4 134.563 14.84V20.72C134.563 21.072 134.587 21.44 134.635 21.824C134.683 22.192 134.747 22.584 134.827 23H132.979ZM128.779 23.24C127.515 23.24 126.507 22.936 125.755 22.328C125.019 21.704 124.651 20.856 124.651 19.784C124.651 18.712 125.019 17.88 125.755 17.288C126.491 16.696 127.563 16.28 128.971 16.04L133.243 15.32V16.904L129.259 17.528C128.363 17.672 127.683 17.912 127.219 18.248C126.755 18.584 126.523 19.072 126.523 19.712C126.523 20.336 126.731 20.808 127.147 21.128C127.579 21.448 128.211 21.608 129.043 21.608C130.115 21.608 130.987 21.368 131.659 20.888C132.347 20.392 132.691 19.752 132.691 18.968L133.003 20.672C132.747 21.488 132.243 22.12 131.491 22.568C130.755 23.016 129.851 23.24 128.779 23.24ZM147.964 23.216C146.604 23.216 145.612 22.912 144.988 22.304C144.38 21.68 144.076 20.784 144.076 19.616V7.904L145.996 7.184V19.592C145.996 20.28 146.172 20.784 146.524 21.104C146.876 21.424 147.452 21.584 148.252 21.584C148.572 21.584 148.844 21.568 149.068 21.536C149.308 21.488 149.5 21.432 149.644 21.368V23C149.484 23.064 149.252 23.112 148.948 23.144C148.66 23.192 148.332 23.216 147.964 23.216ZM141.556 12.392V10.76H149.644V12.392H141.556ZM155.982 23.24C155.182 23.24 154.47 23.08 153.846 22.76C153.222 22.424 152.734 21.96 152.382 21.368C152.03 20.76 151.854 20.064 151.854 19.28V10.76H153.774V18.776C153.774 19.704 153.998 20.4 154.446 20.864C154.91 21.328 155.566 21.56 156.414 21.56C157.182 21.56 157.862 21.384 158.454 21.032C159.046 20.68 159.51 20.192 159.846 19.568C160.198 18.928 160.374 18.2 160.374 17.384L160.686 20.288C160.286 21.2 159.662 21.92 158.814 22.448C157.966 22.976 157.022 23.24 155.982 23.24ZM160.494 23V20.12H160.374V10.76H162.294V23H160.494ZM175.832 23.216C174.472 23.216 173.48 22.912 172.856 22.304C172.248 21.68 171.944 20.784 171.944 19.616V7.904L173.864 7.184V19.592C173.864 20.28 174.04 20.784 174.392 21.104C174.744 21.424 175.32 21.584 176.12 21.584C176.44 21.584 176.712 21.568 176.936 21.536C177.176 21.488 177.368 21.432 177.512 21.368V23C177.352 23.064 177.12 23.112 176.816 23.144C176.528 23.192 176.2 23.216 175.832 23.216ZM169.424 12.392V10.76H177.512V12.392H169.424ZM179.983 23V10.76H181.783V13.88H181.903V23H179.983ZM181.903 16.616L181.59 13.712C181.879 12.672 182.391 11.88 183.127 11.336C183.863 10.792 184.711 10.52 185.671 10.52C186.071 10.52 186.343 10.552 186.487 10.616V12.464C186.407 12.432 186.295 12.416 186.151 12.416C186.007 12.4 185.831 12.392 185.623 12.392C184.407 12.392 183.479 12.76 182.839 13.496C182.215 14.216 181.903 15.256 181.903 16.616ZM196.143 23C196.079 22.728 196.031 22.416 195.999 22.064C195.983 21.712 195.975 21.264 195.975 20.72H195.855V14.864C195.855 13.936 195.639 13.256 195.207 12.824C194.791 12.376 194.111 12.152 193.167 12.152C192.239 12.152 191.495 12.344 190.935 12.728C190.391 13.096 190.087 13.624 190.023 14.312H188.175C188.255 13.128 188.751 12.2 189.663 11.528C190.575 10.856 191.767 10.52 193.239 10.52C194.759 10.52 195.887 10.88 196.623 11.6C197.359 12.32 197.727 13.4 197.727 14.84V20.72C197.727 21.072 197.751 21.44 197.799 21.824C197.847 22.192 197.911 22.584 197.991 23H196.143ZM191.943 23.24C190.679 23.24 189.671 22.936 188.919 22.328C188.183 21.704 187.815 20.856 187.815 19.784C187.815 18.712 188.183 17.88 188.919 17.288C189.655 16.696 190.727 16.28 192.135 16.04L196.407 15.32V16.904L192.423 17.528C191.527 17.672 190.847 17.912 190.383 18.248C189.919 18.584 189.687 19.072 189.687 19.712C189.687 20.336 189.895 20.808 190.311 21.128C190.743 21.448 191.375 21.608 192.207 21.608C193.279 21.608 194.151 21.368 194.823 20.888C195.511 20.392 195.855 19.752 195.855 18.968L196.167 20.672C195.911 21.488 195.407 22.12 194.655 22.568C193.919 23.016 193.015 23.24 191.943 23.24ZM201.428 23V10.76H203.228V13.64H203.348V23H201.428ZM210.188 23V14.984C210.188 14.056 209.956 13.36 209.492 12.896C209.028 12.432 208.34 12.2 207.428 12.2C206.628 12.2 205.916 12.376 205.292 12.728C204.684 13.08 204.204 13.568 203.852 14.192C203.516 14.816 203.348 15.544 203.348 16.376L203.036 13.472C203.452 12.56 204.084 11.84 204.932 11.312C205.796 10.784 206.772 10.52 207.86 10.52C209.14 10.52 210.164 10.888 210.932 11.624C211.716 12.344 212.108 13.296 212.108 14.48V23H210.188ZM219.9 23.24C218.396 23.24 217.196 22.896 216.3 22.208C215.404 21.504 214.892 20.512 214.764 19.232H216.612C216.724 20.016 217.068 20.616 217.644 21.032C218.22 21.448 218.988 21.656 219.948 21.656C220.796 21.656 221.46 21.496 221.94 21.176C222.42 20.856 222.66 20.4 222.66 19.808C222.66 19.392 222.524 19.032 222.252 18.728C221.98 18.408 221.436 18.144 220.62 17.936L218.652 17.432C217.532 17.144 216.692 16.704 216.132 16.112C215.572 15.504 215.292 14.784 215.292 13.952C215.292 12.896 215.684 12.064 216.468 11.456C217.252 10.832 218.316 10.52 219.66 10.52C220.988 10.52 222.068 10.84 222.9 11.48C223.732 12.12 224.204 13.008 224.316 14.144H222.468C222.356 13.488 222.052 12.984 221.556 12.632C221.06 12.28 220.404 12.104 219.588 12.104C218.804 12.104 218.196 12.256 217.764 12.56C217.332 12.848 217.116 13.264 217.116 13.808C217.116 14.224 217.268 14.584 217.572 14.888C217.892 15.192 218.42 15.448 219.156 15.656L221.076 16.184C222.212 16.488 223.068 16.952 223.644 17.576C224.22 18.2 224.508 18.952 224.508 19.832C224.508 20.904 224.1 21.744 223.284 22.352C222.468 22.944 221.34 23.24 219.9 23.24ZM228.1 23V9.032C228.1 7.912 228.42 7.04 229.06 6.416C229.716 5.792 230.708 5.48 232.036 5.48C232.356 5.48 232.604 5.496 232.78 5.528C232.972 5.56 233.132 5.6 233.26 5.648V7.16C233.148 7.128 232.988 7.096 232.78 7.064C232.588 7.032 232.38 7.016 232.156 7.016C231.42 7.016 230.876 7.2 230.524 7.568C230.188 7.936 230.02 8.456 230.02 9.128V23H228.1ZM225.58 12.392V10.76H232.996V12.392H225.58ZM240.196 23.24C238.996 23.24 237.94 22.96 237.028 22.4C236.116 21.84 235.404 21.08 234.892 20.12C234.396 19.144 234.148 18.048 234.148 16.832C234.148 15.6 234.404 14.512 234.916 13.568C235.428 12.624 236.132 11.88 237.028 11.336C237.94 10.792 238.996 10.52 240.196 10.52C241.412 10.52 242.468 10.792 243.364 11.336C244.276 11.88 244.98 12.624 245.476 13.568C245.988 14.512 246.244 15.6 246.244 16.832C246.244 18.048 245.988 19.144 245.476 20.12C244.98 21.08 244.276 21.84 243.364 22.4C242.468 22.96 241.412 23.24 240.196 23.24ZM240.196 21.608C241.028 21.608 241.748 21.408 242.356 21.008C242.964 20.592 243.436 20.024 243.772 19.304C244.108 18.584 244.276 17.752 244.276 16.808C244.276 15.4 243.9 14.272 243.148 13.424C242.412 12.576 241.428 12.152 240.196 12.152C238.98 12.152 237.996 12.576 237.244 13.424C236.492 14.272 236.116 15.4 236.116 16.808C236.116 17.752 236.284 18.584 236.62 19.304C236.956 20.024 237.428 20.592 238.036 21.008C238.66 21.408 239.38 21.608 240.196 21.608ZM249.123 23V10.76H250.923V13.88H251.043V23H249.123ZM251.043 16.616L250.731 13.712C251.019 12.672 251.531 11.88 252.267 11.336C253.003 10.792 253.851 10.52 254.811 10.52C255.211 10.52 255.483 10.552 255.627 10.616V12.464C255.547 12.432 255.435 12.416 255.291 12.416C255.147 12.4 254.971 12.392 254.763 12.392C253.547 12.392 252.619 12.76 251.979 13.496C251.355 14.216 251.043 15.256 251.043 16.616ZM258.123 23V10.76H259.923V13.64H260.043V23H258.123ZM266.379 23V14.888C266.379 13.96 266.171 13.28 265.755 12.848C265.339 12.416 264.739 12.2 263.955 12.2C263.219 12.2 262.555 12.376 261.963 12.728C261.371 13.08 260.899 13.568 260.547 14.192C260.211 14.816 260.043 15.544 260.043 16.376L259.731 13.472C260.147 12.56 260.771 11.84 261.603 11.312C262.435 10.784 263.339 10.52 264.315 10.52C265.499 10.52 266.459 10.872 267.195 11.576C267.931 12.264 268.299 13.2 268.299 14.384V23H266.379ZM274.635 23V14.888C274.635 13.96 274.427 13.28 274.011 12.848C273.595 12.416 272.995 12.2 272.211 12.2C271.475 12.2 270.811 12.376 270.219 12.728C269.627 13.08 269.155 13.568 268.803 14.192C268.467 14.816 268.299 15.544 268.299 16.376L267.819 13.472C268.235 12.56 268.875 11.84 269.739 11.312C270.603 10.784 271.531 10.52 272.523 10.52C273.707 10.52 274.675 10.872 275.427 11.576C276.179 12.264 276.555 13.2 276.555 14.384V23H274.635ZM287.69 23C287.626 22.728 287.578 22.416 287.546 22.064C287.53 21.712 287.522 21.264 287.522 20.72H287.402V14.864C287.402 13.936 287.186 13.256 286.754 12.824C286.338 12.376 285.658 12.152 284.714 12.152C283.786 12.152 283.042 12.344 282.482 12.728C281.938 13.096 281.634 13.624 281.57 14.312H279.722C279.802 13.128 280.298 12.2 281.21 11.528C282.122 10.856 283.314 10.52 284.786 10.52C286.306 10.52 287.434 10.88 288.17 11.6C288.906 12.32 289.274 13.4 289.274 14.84V20.72C289.274 21.072 289.298 21.44 289.346 21.824C289.394 22.192 289.458 22.584 289.538 23H287.69ZM283.49 23.24C282.226 23.24 281.218 22.936 280.466 22.328C279.73 21.704 279.362 20.856 279.362 19.784C279.362 18.712 279.73 17.88 280.466 17.288C281.202 16.696 282.274 16.28 283.682 16.04L287.954 15.32V16.904L283.97 17.528C283.074 17.672 282.394 17.912 281.93 18.248C281.466 18.584 281.234 19.072 281.234 19.712C281.234 20.336 281.442 20.808 281.858 21.128C282.29 21.448 282.922 21.608 283.754 21.608C284.826 21.608 285.698 21.368 286.37 20.888C287.058 20.392 287.402 19.752 287.402 18.968L287.714 20.672C287.458 21.488 286.954 22.12 286.202 22.568C285.466 23.016 284.562 23.24 283.49 23.24ZM297.823 23.24C296.703 23.24 295.703 22.968 294.823 22.424C293.959 21.864 293.271 21.104 292.759 20.144C292.263 19.168 292.015 18.064 292.015 16.832C292.015 15.6 292.263 14.512 292.759 13.568C293.271 12.624 293.959 11.88 294.823 11.336C295.703 10.792 296.695 10.52 297.799 10.52C298.711 10.52 299.527 10.696 300.247 11.048C300.983 11.4 301.583 11.904 302.047 12.56C302.527 13.2 302.831 13.952 302.959 14.816H301.183C301.023 14.032 300.655 13.392 300.079 12.896C299.503 12.4 298.759 12.152 297.847 12.152C297.063 12.152 296.383 12.344 295.807 12.728C295.231 13.112 294.783 13.656 294.463 14.36C294.143 15.064 293.983 15.888 293.983 16.832C293.983 17.776 294.143 18.608 294.463 19.328C294.783 20.048 295.231 20.608 295.807 21.008C296.399 21.408 297.087 21.608 297.871 21.608C298.751 21.608 299.487 21.368 300.079 20.888C300.671 20.392 301.047 19.752 301.207 18.968H302.983C302.839 19.816 302.519 20.568 302.023 21.224C301.543 21.864 300.943 22.36 300.223 22.712C299.503 23.064 298.703 23.24 297.823 23.24ZM305.678 23V10.76H307.598V23H305.678ZM305.534 7.976V5.72H307.742V7.976H305.534ZM316.485 23.24C315.285 23.24 314.229 22.96 313.317 22.4C312.405 21.84 311.693 21.08 311.181 20.12C310.685 19.144 310.437 18.048 310.437 16.832C310.437 15.6 310.693 14.512 311.205 13.568C311.717 12.624 312.421 11.88 313.317 11.336C314.229 10.792 315.285 10.52 316.485 10.52C317.701 10.52 318.757 10.792 319.653 11.336C320.565 11.88 321.269 12.624 321.765 13.568C322.277 14.512 322.533 15.6 322.533 16.832C322.533 18.048 322.277 19.144 321.765 20.12C321.269 21.08 320.565 21.84 319.653 22.4C318.757 22.96 317.701 23.24 316.485 23.24ZM316.485 21.608C317.317 21.608 318.037 21.408 318.645 21.008C319.253 20.592 319.725 20.024 320.061 19.304C320.397 18.584 320.565 17.752 320.565 16.808C320.565 15.4 320.189 14.272 319.437 13.424C318.701 12.576 317.717 12.152 316.485 12.152C315.269 12.152 314.285 12.576 313.533 13.424C312.781 14.272 312.405 15.4 312.405 16.808C312.405 17.752 312.573 18.584 312.909 19.304C313.245 20.024 313.717 20.592 314.325 21.008C314.949 21.408 315.669 21.608 316.485 21.608ZM316.389 9.008H314.565L317.277 5.24H320.229L316.389 9.008ZM325.412 23V10.76H327.212V13.64H327.332V23H325.412ZM334.172 23V14.984C334.172 14.056 333.94 13.36 333.476 12.896C333.012 12.432 332.324 12.2 331.412 12.2C330.612 12.2 329.9 12.376 329.276 12.728C328.668 13.08 328.188 13.568 327.836 14.192C327.5 14.816 327.332 15.544 327.332 16.376L327.02 13.472C327.436 12.56 328.068 11.84 328.916 11.312C329.78 10.784 330.756 10.52 331.844 10.52C333.124 10.52 334.148 10.888 334.916 11.624C335.7 12.344 336.092 13.296 336.092 14.48V23H334.172ZM350.632 23.216C349.48 23.216 348.512 22.936 347.728 22.376C346.944 21.816 346.408 21.024 346.12 20L346.504 19.952V27.92H344.584V10.76H346.384V13.616L346.12 13.544C346.424 12.6 347 11.864 347.848 11.336C348.696 10.792 349.68 10.52 350.8 10.52C351.888 10.52 352.832 10.784 353.632 11.312C354.448 11.84 355.08 12.576 355.528 13.52C355.976 14.464 356.2 15.568 356.2 16.832C356.2 18.112 355.968 19.232 355.504 20.192C355.04 21.152 354.392 21.896 353.56 22.424C352.728 22.952 351.752 23.216 350.632 23.216ZM350.344 21.536C351.56 21.536 352.512 21.12 353.2 20.288C353.888 19.44 354.232 18.288 354.232 16.832C354.232 15.392 353.888 14.264 353.2 13.448C352.512 12.616 351.56 12.2 350.344 12.2C349.128 12.2 348.168 12.624 347.464 13.472C346.76 14.304 346.408 15.448 346.408 16.904C346.408 18.328 346.76 19.456 347.464 20.288C348.168 21.12 349.128 21.536 350.344 21.536ZM364.227 23.24C363.027 23.24 361.971 22.96 361.059 22.4C360.147 21.84 359.435 21.08 358.923 20.12C358.427 19.144 358.179 18.048 358.179 16.832C358.179 15.6 358.435 14.512 358.947 13.568C359.459 12.624 360.163 11.88 361.059 11.336C361.971 10.792 363.027 10.52 364.227 10.52C365.443 10.52 366.499 10.792 367.395 11.336C368.307 11.88 369.011 12.624 369.507 13.568C370.019 14.512 370.275 15.6 370.275 16.832C370.275 18.048 370.019 19.144 369.507 20.12C369.011 21.08 368.307 21.84 367.395 22.4C366.499 22.96 365.443 23.24 364.227 23.24ZM364.227 21.608C365.059 21.608 365.779 21.408 366.387 21.008C366.995 20.592 367.467 20.024 367.803 19.304C368.139 18.584 368.307 17.752 368.307 16.808C368.307 15.4 367.931 14.272 367.179 13.424C366.443 12.576 365.459 12.152 364.227 12.152C363.011 12.152 362.027 12.576 361.275 13.424C360.523 14.272 360.147 15.4 360.147 16.808C360.147 17.752 360.315 18.584 360.651 19.304C360.987 20.024 361.459 20.592 362.067 21.008C362.691 21.408 363.411 21.608 364.227 21.608ZM373.154 23V10.76H374.954V13.88H375.074V23H373.154ZM375.074 16.616L374.762 13.712C375.05 12.672 375.562 11.88 376.298 11.336C377.034 10.792 377.882 10.52 378.842 10.52C379.242 10.52 379.514 10.552 379.658 10.616V12.464C379.578 12.432 379.466 12.416 379.322 12.416C379.178 12.4 379.002 12.392 378.794 12.392C377.578 12.392 376.65 12.76 376.01 13.496C375.386 14.216 375.074 15.256 375.074 16.616ZM4.64656 52V39.76H6.44656V42.64H6.56656V52H4.64656ZM12.9026 52V43.888C12.9026 42.96 12.6946 42.28 12.2786 41.848C11.8626 41.416 11.2626 41.2 10.4786 41.2C9.74256 41.2 9.07856 41.376 8.48656 41.728C7.89456 42.08 7.42256 42.568 7.07056 43.192C6.73456 43.816 6.56656 44.544 6.56656 45.376L6.25456 42.472C6.67056 41.56 7.29456 40.84 8.12656 40.312C8.95856 39.784 9.86256 39.52 10.8386 39.52C12.0226 39.52 12.9826 39.872 13.7186 40.576C14.4546 41.264 14.8226 42.2 14.8226 43.384V52H12.9026ZM21.1586 52V43.888C21.1586 42.96 20.9506 42.28 20.5346 41.848C20.1186 41.416 19.5186 41.2 18.7346 41.2C17.9986 41.2 17.3346 41.376 16.7426 41.728C16.1506 42.08 15.6786 42.568 15.3266 43.192C14.9906 43.816 14.8226 44.544 14.8226 45.376L14.3426 42.472C14.7586 41.56 15.3986 40.84 16.2626 40.312C17.1266 39.784 18.0546 39.52 19.0466 39.52C20.2306 39.52 21.1986 39.872 21.9506 40.576C22.7026 41.264 23.0786 42.2 23.0786 43.384V52H21.1586ZM31.7876 52.24C30.6196 52.24 29.5876 51.968 28.6916 51.424C27.7956 50.864 27.0916 50.104 26.5796 49.144C26.0676 48.184 25.8116 47.08 25.8116 45.832C25.8116 44.584 26.0596 43.488 26.5556 42.544C27.0676 41.584 27.7796 40.84 28.6916 40.312C29.6036 39.784 30.6516 39.52 31.8356 39.52C32.9716 39.52 33.9556 39.768 34.7876 40.264C35.6356 40.76 36.2836 41.456 36.7316 42.352C37.1956 43.248 37.4276 44.304 37.4276 45.52C37.4276 45.68 37.4196 45.832 37.4036 45.976C37.4036 46.12 37.3876 46.28 37.3556 46.456H27.2516V44.848H36.1796L35.5556 45.736C35.5556 44.264 35.2276 43.136 34.5716 42.352C33.9316 41.552 33.0196 41.152 31.8356 41.152C30.6196 41.152 29.6356 41.576 28.8836 42.424C28.1476 43.256 27.7796 44.384 27.7796 45.808C27.7796 47.264 28.1476 48.432 28.8836 49.312C29.6356 50.176 30.6356 50.608 31.8836 50.608C32.6676 50.608 33.3556 50.44 33.9476 50.104C34.5396 49.752 34.9716 49.256 35.2436 48.616H37.0676C36.6676 49.736 35.9956 50.624 35.0516 51.28C34.1236 51.92 33.0356 52.24 31.7876 52.24ZM40.3184 52V39.76H42.1184V42.64H42.2384V52H40.3184ZM49.0784 52V43.984C49.0784 43.056 48.8464 42.36 48.3824 41.896C47.9184 41.432 47.2304 41.2 46.3184 41.2C45.5184 41.2 44.8064 41.376 44.1824 41.728C43.5744 42.08 43.0944 42.568 42.7424 43.192C42.4064 43.816 42.2384 44.544 42.2384 45.376L41.9264 42.472C42.3424 41.56 42.9744 40.84 43.8224 40.312C44.6864 39.784 45.6624 39.52 46.7504 39.52C48.0304 39.52 49.0544 39.888 49.8224 40.624C50.6064 41.344 50.9984 42.296 50.9984 43.48V52H49.0784ZM59.7736 52.24C58.5736 52.24 57.5176 51.96 56.6056 51.4C55.6936 50.84 54.9816 50.08 54.4696 49.12C53.9736 48.144 53.7256 47.048 53.7256 45.832C53.7256 44.6 53.9816 43.512 54.4936 42.568C55.0056 41.624 55.7096 40.88 56.6056 40.336C57.5176 39.792 58.5736 39.52 59.7736 39.52C60.9896 39.52 62.0456 39.792 62.9416 40.336C63.8536 40.88 64.5576 41.624 65.0536 42.568C65.5656 43.512 65.8216 44.6 65.8216 45.832C65.8216 47.048 65.5656 48.144 65.0536 49.12C64.5576 50.08 63.8536 50.84 62.9416 51.4C62.0456 51.96 60.9896 52.24 59.7736 52.24ZM59.7736 50.608C60.6056 50.608 61.3256 50.408 61.9336 50.008C62.5416 49.592 63.0136 49.024 63.3496 48.304C63.6856 47.584 63.8536 46.752 63.8536 45.808C63.8536 44.4 63.4776 43.272 62.7256 42.424C61.9896 41.576 61.0056 41.152 59.7736 41.152C58.5576 41.152 57.5736 41.576 56.8216 42.424C56.0696 43.272 55.6936 44.4 55.6936 45.808C55.6936 46.752 55.8616 47.584 56.1976 48.304C56.5336 49.024 57.0056 49.592 57.6136 50.008C58.2376 50.408 58.9576 50.608 59.7736 50.608ZM72.8533 52.24C71.3493 52.24 70.1493 51.896 69.2533 51.208C68.3573 50.504 67.8453 49.512 67.7173 48.232H69.5653C69.6773 49.016 70.0213 49.616 70.5973 50.032C71.1733 50.448 71.9413 50.656 72.9013 50.656C73.7493 50.656 74.4133 50.496 74.8933 50.176C75.3733 49.856 75.6133 49.4 75.6133 48.808C75.6133 48.392 75.4773 48.032 75.2053 47.728C74.9333 47.408 74.3893 47.144 73.5733 46.936L71.6053 46.432C70.4853 46.144 69.6453 45.704 69.0853 45.112C68.5253 44.504 68.2453 43.784 68.2453 42.952C68.2453 41.896 68.6373 41.064 69.4213 40.456C70.2053 39.832 71.2693 39.52 72.6133 39.52C73.9413 39.52 75.0213 39.84 75.8533 40.48C76.6853 41.12 77.1573 42.008 77.2693 43.144H75.4213C75.3093 42.488 75.0053 41.984 74.5093 41.632C74.0133 41.28 73.3573 41.104 72.5413 41.104C71.7573 41.104 71.1493 41.256 70.7173 41.56C70.2853 41.848 70.0693 42.264 70.0693 42.808C70.0693 43.224 70.2213 43.584 70.5253 43.888C70.8453 44.192 71.3733 44.448 72.1093 44.656L74.0293 45.184C75.1653 45.488 76.0213 45.952 76.5973 46.576C77.1733 47.2 77.4613 47.952 77.4613 48.832C77.4613 49.904 77.0533 50.744 76.2373 51.352C75.4213 51.944 74.2933 52.24 72.8533 52.24ZM93.7537 52V49.144L93.9937 49.216C93.6897 50.144 93.1297 50.88 92.3137 51.424C91.5137 51.968 90.5537 52.24 89.4337 52.24C88.3297 52.24 87.3617 51.976 86.5297 51.448C85.7137 50.92 85.0737 50.184 84.6097 49.24C84.1617 48.296 83.9377 47.192 83.9377 45.928C83.9377 44.648 84.1697 43.528 84.6337 42.568C85.0977 41.608 85.7457 40.864 86.5777 40.336C87.4097 39.808 88.3857 39.544 89.5057 39.544C90.6577 39.544 91.6257 39.824 92.4097 40.384C93.1937 40.944 93.7297 41.736 94.0177 42.76L93.6337 42.808V34.72H95.5537V52H93.7537ZM89.7937 50.56C91.0257 50.56 91.9857 50.144 92.6737 49.312C93.3777 48.464 93.7297 47.312 93.7297 45.856C93.7297 44.432 93.3777 43.304 92.6737 42.472C91.9697 41.64 91.0097 41.224 89.7937 41.224C88.5777 41.224 87.6257 41.64 86.9377 42.472C86.2497 43.304 85.9057 44.456 85.9057 45.928C85.9057 47.368 86.2497 48.504 86.9377 49.336C87.6257 50.152 88.5777 50.56 89.7937 50.56ZM104.42 52.24C103.252 52.24 102.22 51.968 101.324 51.424C100.428 50.864 99.7244 50.104 99.2124 49.144C98.7004 48.184 98.4444 47.08 98.4444 45.832C98.4444 44.584 98.6924 43.488 99.1884 42.544C99.7004 41.584 100.412 40.84 101.324 40.312C102.236 39.784 103.284 39.52 104.468 39.52C105.604 39.52 106.588 39.768 107.42 40.264C108.268 40.76 108.916 41.456 109.364 42.352C109.828 43.248 110.06 44.304 110.06 45.52C110.06 45.68 110.052 45.832 110.036 45.976C110.036 46.12 110.02 46.28 109.988 46.456H99.8844V44.848H108.812L108.188 45.736C108.188 44.264 107.86 43.136 107.204 42.352C106.564 41.552 105.652 41.152 104.468 41.152C103.252 41.152 102.268 41.576 101.516 42.424C100.78 43.256 100.412 44.384 100.412 45.808C100.412 47.264 100.78 48.432 101.516 49.312C102.268 50.176 103.268 50.608 104.516 50.608C105.3 50.608 105.988 50.44 106.58 50.104C107.172 49.752 107.604 49.256 107.876 48.616H109.7C109.3 49.736 108.628 50.624 107.684 51.28C106.756 51.92 105.668 52.24 104.42 52.24ZM117.756 52V34.72H119.676V52H117.756ZM128.61 52.24C127.41 52.24 126.354 51.96 125.442 51.4C124.53 50.84 123.818 50.08 123.306 49.12C122.81 48.144 122.562 47.048 122.562 45.832C122.562 44.6 122.818 43.512 123.33 42.568C123.842 41.624 124.546 40.88 125.442 40.336C126.354 39.792 127.41 39.52 128.61 39.52C129.826 39.52 130.882 39.792 131.778 40.336C132.69 40.88 133.394 41.624 133.89 42.568C134.402 43.512 134.658 44.6 134.658 45.832C134.658 47.048 134.402 48.144 133.89 49.12C133.394 50.08 132.69 50.84 131.778 51.4C130.882 51.96 129.826 52.24 128.61 52.24ZM128.61 50.608C129.442 50.608 130.162 50.408 130.77 50.008C131.378 49.592 131.85 49.024 132.186 48.304C132.522 47.584 132.69 46.752 132.69 45.808C132.69 44.4 132.314 43.272 131.562 42.424C130.826 41.576 129.842 41.152 128.61 41.152C127.394 41.152 126.41 41.576 125.658 42.424C124.906 43.272 124.53 44.4 124.53 45.808C124.53 46.752 124.698 47.584 125.034 48.304C125.37 49.024 125.842 49.592 126.45 50.008C127.074 50.408 127.794 50.608 128.61 50.608ZM151.126 56.92V49.144L151.486 49.216C151.182 50.144 150.622 50.88 149.806 51.424C149.006 51.968 148.046 52.24 146.926 52.24C145.822 52.24 144.854 51.984 144.022 51.472C143.206 50.944 142.566 50.208 142.102 49.264C141.654 48.304 141.43 47.192 141.43 45.928C141.43 44.648 141.662 43.528 142.126 42.568C142.59 41.608 143.238 40.864 144.07 40.336C144.902 39.808 145.878 39.544 146.998 39.544C148.15 39.544 149.118 39.824 149.902 40.384C150.686 40.944 151.222 41.736 151.51 42.76L151.246 42.808V39.76H153.046V56.92H151.126ZM147.286 50.56C148.518 50.56 149.478 50.144 150.166 49.312C150.87 48.464 151.222 47.312 151.222 45.856C151.222 44.432 150.87 43.304 150.166 42.472C149.462 41.64 148.502 41.224 147.286 41.224C146.07 41.224 145.118 41.64 144.43 42.472C143.742 43.304 143.398 44.456 143.398 45.928C143.398 47.368 143.742 48.504 144.43 49.336C145.118 50.152 146.07 50.56 147.286 50.56ZM160.881 52.24C160.081 52.24 159.369 52.08 158.745 51.76C158.121 51.424 157.633 50.96 157.281 50.368C156.929 49.76 156.753 49.064 156.753 48.28V39.76H158.673V47.776C158.673 48.704 158.897 49.4 159.345 49.864C159.809 50.328 160.465 50.56 161.313 50.56C162.081 50.56 162.761 50.384 163.353 50.032C163.945 49.68 164.409 49.192 164.745 48.568C165.097 47.928 165.273 47.2 165.273 46.384L165.585 49.288C165.185 50.2 164.561 50.92 163.713 51.448C162.865 51.976 161.921 52.24 160.881 52.24ZM165.393 52V49.12H165.273V39.76H167.193V52H165.393ZM175.999 52.24C174.831 52.24 173.799 51.968 172.903 51.424C172.007 50.864 171.303 50.104 170.791 49.144C170.279 48.184 170.023 47.08 170.023 45.832C170.023 44.584 170.271 43.488 170.767 42.544C171.279 41.584 171.991 40.84 172.903 40.312C173.815 39.784 174.863 39.52 176.047 39.52C177.183 39.52 178.167 39.768 178.999 40.264C179.847 40.76 180.495 41.456 180.943 42.352C181.407 43.248 181.639 44.304 181.639 45.52C181.639 45.68 181.631 45.832 181.615 45.976C181.615 46.12 181.599 46.28 181.567 46.456H171.463V44.848H180.391L179.767 45.736C179.767 44.264 179.439 43.136 178.783 42.352C178.143 41.552 177.231 41.152 176.047 41.152C174.831 41.152 173.847 41.576 173.095 42.424C172.359 43.256 171.991 44.384 171.991 45.808C171.991 47.264 172.359 48.432 173.095 49.312C173.847 50.176 174.847 50.608 176.095 50.608C176.879 50.608 177.567 50.44 178.159 50.104C178.751 49.752 179.183 49.256 179.455 48.616H181.279C180.879 49.736 180.207 50.624 179.263 51.28C178.335 51.92 177.247 52.24 175.999 52.24ZM194.182 52.24C193.062 52.24 192.062 51.968 191.182 51.424C190.318 50.864 189.63 50.104 189.118 49.144C188.622 48.168 188.374 47.064 188.374 45.832C188.374 44.6 188.622 43.512 189.118 42.568C189.63 41.624 190.318 40.88 191.182 40.336C192.062 39.792 193.054 39.52 194.158 39.52C195.07 39.52 195.886 39.696 196.606 40.048C197.342 40.4 197.942 40.904 198.406 41.56C198.886 42.2 199.19 42.952 199.318 43.816H197.542C197.382 43.032 197.014 42.392 196.438 41.896C195.862 41.4 195.118 41.152 194.206 41.152C193.422 41.152 192.742 41.344 192.166 41.728C191.59 42.112 191.142 42.656 190.822 43.36C190.502 44.064 190.342 44.888 190.342 45.832C190.342 46.776 190.502 47.608 190.822 48.328C191.142 49.048 191.59 49.608 192.166 50.008C192.758 50.408 193.446 50.608 194.23 50.608C195.11 50.608 195.846 50.368 196.438 49.888C197.03 49.392 197.406 48.752 197.566 47.968H199.342C199.198 48.816 198.878 49.568 198.382 50.224C197.902 50.864 197.302 51.36 196.582 51.712C195.862 52.064 195.062 52.24 194.182 52.24ZM205.904 52.24C205.104 52.24 204.392 52.08 203.768 51.76C203.144 51.424 202.656 50.96 202.304 50.368C201.952 49.76 201.776 49.064 201.776 48.28V39.76H203.696V47.776C203.696 48.704 203.92 49.4 204.368 49.864C204.832 50.328 205.488 50.56 206.336 50.56C207.104 50.56 207.784 50.384 208.376 50.032C208.968 49.68 209.432 49.192 209.768 48.568C210.12 47.928 210.296 47.2 210.296 46.384L210.608 49.288C210.208 50.2 209.584 50.92 208.736 51.448C207.888 51.976 206.944 52.24 205.904 52.24ZM210.416 52V49.12H210.296V39.76H212.216V52H210.416ZM221.022 52.24C219.854 52.24 218.822 51.968 217.926 51.424C217.03 50.864 216.326 50.104 215.814 49.144C215.302 48.184 215.046 47.08 215.046 45.832C215.046 44.584 215.294 43.488 215.79 42.544C216.302 41.584 217.014 40.84 217.926 40.312C218.838 39.784 219.886 39.52 221.07 39.52C222.206 39.52 223.19 39.768 224.022 40.264C224.87 40.76 225.518 41.456 225.966 42.352C226.43 43.248 226.662 44.304 226.662 45.52C226.662 45.68 226.654 45.832 226.638 45.976C226.638 46.12 226.622 46.28 226.59 46.456H216.486V44.848H225.414L224.79 45.736C224.79 44.264 224.462 43.136 223.806 42.352C223.166 41.552 222.254 41.152 221.07 41.152C219.854 41.152 218.87 41.576 218.118 42.424C217.382 43.256 217.014 44.384 217.014 45.808C217.014 47.264 217.382 48.432 218.118 49.312C218.87 50.176 219.87 50.608 221.118 50.608C221.902 50.608 222.59 50.44 223.182 50.104C223.774 49.752 224.206 49.256 224.478 48.616H226.302C225.902 49.736 225.23 50.624 224.286 51.28C223.358 51.92 222.27 52.24 221.022 52.24ZM233.705 52.24C232.201 52.24 231.001 51.896 230.105 51.208C229.209 50.504 228.697 49.512 228.569 48.232H230.417C230.529 49.016 230.873 49.616 231.449 50.032C232.025 50.448 232.793 50.656 233.753 50.656C234.601 50.656 235.265 50.496 235.745 50.176C236.225 49.856 236.465 49.4 236.465 48.808C236.465 48.392 236.329 48.032 236.057 47.728C235.785 47.408 235.241 47.144 234.425 46.936L232.457 46.432C231.337 46.144 230.497 45.704 229.937 45.112C229.377 44.504 229.097 43.784 229.097 42.952C229.097 41.896 229.489 41.064 230.273 40.456C231.057 39.832 232.121 39.52 233.465 39.52C234.793 39.52 235.873 39.84 236.705 40.48C237.537 41.12 238.009 42.008 238.121 43.144H236.273C236.161 42.488 235.857 41.984 235.361 41.632C234.865 41.28 234.209 41.104 233.393 41.104C232.609 41.104 232.001 41.256 231.569 41.56C231.137 41.848 230.921 42.264 230.921 42.808C230.921 43.224 231.073 43.584 231.377 43.888C231.697 44.192 232.225 44.448 232.961 44.656L234.881 45.184C236.017 45.488 236.873 45.952 237.449 46.576C238.025 47.2 238.313 47.952 238.313 48.832C238.313 49.904 237.905 50.744 237.089 51.352C236.273 51.944 235.145 52.24 233.705 52.24ZM245.793 52.216C244.433 52.216 243.441 51.912 242.817 51.304C242.209 50.68 241.905 49.784 241.905 48.616V36.904L243.825 36.184V48.592C243.825 49.28 244.001 49.784 244.353 50.104C244.705 50.424 245.281 50.584 246.081 50.584C246.401 50.584 246.673 50.568 246.897 50.536C247.137 50.488 247.329 50.432 247.473 50.368V52C247.313 52.064 247.081 52.112 246.777 52.144C246.489 52.192 246.161 52.216 245.793 52.216ZM239.385 41.392V39.76H247.473V41.392H239.385ZM257.455 52C257.391 51.728 257.343 51.416 257.311 51.064C257.295 50.712 257.287 50.264 257.287 49.72H257.167V43.864C257.167 42.936 256.951 42.256 256.519 41.824C256.103 41.376 255.423 41.152 254.479 41.152C253.551 41.152 252.807 41.344 252.247 41.728C251.703 42.096 251.399 42.624 251.335 43.312H249.487C249.567 42.128 250.063 41.2 250.975 40.528C251.887 39.856 253.079 39.52 254.551 39.52C256.071 39.52 257.199 39.88 257.935 40.6C258.671 41.32 259.039 42.4 259.039 43.84V49.72C259.039 50.072 259.063 50.44 259.111 50.824C259.159 51.192 259.223 51.584 259.303 52H257.455ZM253.255 52.24C251.991 52.24 250.983 51.936 250.231 51.328C249.495 50.704 249.127 49.856 249.127 48.784C249.127 47.712 249.495 46.88 250.231 46.288C250.967 45.696 252.039 45.28 253.447 45.04L257.719 44.32V45.904L253.735 46.528C252.839 46.672 252.159 46.912 251.695 47.248C251.231 47.584 250.999 48.072 250.999 48.712C250.999 49.336 251.207 49.808 251.623 50.128C252.055 50.448 252.687 50.608 253.519 50.608C254.591 50.608 255.463 50.368 256.135 49.888C256.823 49.392 257.167 48.752 257.167 47.968L257.479 49.672C257.223 50.488 256.719 51.12 255.967 51.568C255.231 52.016 254.327 52.24 253.255 52.24ZM271.529 52.24C270.729 52.24 270.017 52.08 269.393 51.76C268.769 51.424 268.281 50.96 267.929 50.368C267.577 49.76 267.401 49.064 267.401 48.28V39.76H269.321V47.776C269.321 48.704 269.545 49.4 269.993 49.864C270.457 50.328 271.113 50.56 271.961 50.56C272.729 50.56 273.409 50.384 274.001 50.032C274.593 49.68 275.057 49.192 275.393 48.568C275.745 47.928 275.921 47.2 275.921 46.384L276.233 49.288C275.833 50.2 275.209 50.92 274.361 51.448C273.513 51.976 272.569 52.24 271.529 52.24ZM276.041 52V49.12H275.921V39.76H277.841V52H276.041ZM281.678 52V39.76H283.478V42.64H283.598V52H281.678ZM290.438 52V43.984C290.438 43.056 290.206 42.36 289.742 41.896C289.278 41.432 288.59 41.2 287.678 41.2C286.878 41.2 286.166 41.376 285.542 41.728C284.934 42.08 284.454 42.568 284.102 43.192C283.766 43.816 283.598 44.544 283.598 45.376L283.286 42.472C283.702 41.56 284.334 40.84 285.182 40.312C286.046 39.784 287.022 39.52 288.11 39.52C289.39 39.52 290.414 39.888 291.182 40.624C291.966 41.344 292.358 42.296 292.358 43.48V52H290.438ZM305.698 52.24C304.578 52.24 303.578 51.968 302.698 51.424C301.834 50.864 301.146 50.104 300.634 49.144C300.138 48.168 299.89 47.064 299.89 45.832C299.89 44.6 300.138 43.512 300.634 42.568C301.146 41.624 301.834 40.88 302.698 40.336C303.578 39.792 304.57 39.52 305.674 39.52C306.586 39.52 307.402 39.696 308.122 40.048C308.858 40.4 309.458 40.904 309.922 41.56C310.402 42.2 310.706 42.952 310.834 43.816H309.058C308.898 43.032 308.53 42.392 307.954 41.896C307.378 41.4 306.634 41.152 305.722 41.152C304.938 41.152 304.258 41.344 303.682 41.728C303.106 42.112 302.658 42.656 302.338 43.36C302.018 44.064 301.858 44.888 301.858 45.832C301.858 46.776 302.018 47.608 302.338 48.328C302.658 49.048 303.106 49.608 303.682 50.008C304.274 50.408 304.962 50.608 305.746 50.608C306.626 50.608 307.362 50.368 307.954 49.888C308.546 49.392 308.922 48.752 309.082 47.968H310.858C310.714 48.816 310.394 49.568 309.898 50.224C309.418 50.864 308.818 51.36 308.098 51.712C307.378 52.064 306.578 52.24 305.698 52.24ZM321.112 52C321.048 51.728 321 51.416 320.968 51.064C320.952 50.712 320.944 50.264 320.944 49.72H320.824V43.864C320.824 42.936 320.608 42.256 320.176 41.824C319.76 41.376 319.08 41.152 318.136 41.152C317.208 41.152 316.464 41.344 315.904 41.728C315.36 42.096 315.056 42.624 314.992 43.312H313.144C313.224 42.128 313.72 41.2 314.632 40.528C315.544 39.856 316.736 39.52 318.208 39.52C319.728 39.52 320.856 39.88 321.592 40.6C322.328 41.32 322.696 42.4 322.696 43.84V49.72C322.696 50.072 322.72 50.44 322.768 50.824C322.816 51.192 322.88 51.584 322.96 52H321.112ZM316.912 52.24C315.648 52.24 314.64 51.936 313.888 51.328C313.152 50.704 312.784 49.856 312.784 48.784C312.784 47.712 313.152 46.88 313.888 46.288C314.624 45.696 315.696 45.28 317.104 45.04L321.376 44.32V45.904L317.392 46.528C316.496 46.672 315.816 46.912 315.352 47.248C314.888 47.584 314.656 48.072 314.656 48.712C314.656 49.336 314.864 49.808 315.28 50.128C315.712 50.448 316.344 50.608 317.176 50.608C318.248 50.608 319.12 50.368 319.792 49.888C320.48 49.392 320.824 48.752 320.824 47.968L321.136 49.672C320.88 50.488 320.376 51.12 319.624 51.568C318.888 52.016 317.984 52.24 316.912 52.24ZM327.1 52V38.032C327.1 36.912 327.42 36.04 328.06 35.416C328.716 34.792 329.708 34.48 331.036 34.48C331.356 34.48 331.604 34.496 331.78 34.528C331.972 34.56 332.132 34.6 332.26 34.648V36.16C332.148 36.128 331.988 36.096 331.78 36.064C331.588 36.032 331.38 36.016 331.156 36.016C330.42 36.016 329.876 36.2 329.524 36.568C329.188 36.936 329.02 37.456 329.02 38.128V52H327.1ZM324.58 41.392V39.76H331.996V41.392H324.58ZM339.124 52.24C337.956 52.24 336.924 51.968 336.028 51.424C335.132 50.864 334.428 50.104 333.916 49.144C333.404 48.184 333.148 47.08 333.148 45.832C333.148 44.584 333.396 43.488 333.892 42.544C334.404 41.584 335.116 40.84 336.028 40.312C336.94 39.784 337.988 39.52 339.172 39.52C340.308 39.52 341.292 39.768 342.124 40.264C342.972 40.76 343.62 41.456 344.068 42.352C344.532 43.248 344.764 44.304 344.764 45.52C344.764 45.68 344.756 45.832 344.74 45.976C344.74 46.12 344.724 46.28 344.692 46.456H334.588V44.848H343.516L342.892 45.736C342.892 44.264 342.564 43.136 341.908 42.352C341.268 41.552 340.356 41.152 339.172 41.152C337.956 41.152 336.972 41.576 336.22 42.424C335.484 43.256 335.116 44.384 335.116 45.808C335.116 47.264 335.484 48.432 336.22 49.312C336.972 50.176 337.972 50.608 339.22 50.608C340.004 50.608 340.692 50.44 341.284 50.104C341.876 49.752 342.308 49.256 342.58 48.616H344.404C344.004 49.736 343.332 50.624 342.388 51.28C341.46 51.92 340.372 52.24 339.124 52.24ZM339.124 38.008H337.3L340.012 34.24H342.964L339.124 38.008ZM359.971 52C359.907 51.728 359.859 51.416 359.827 51.064C359.811 50.712 359.803 50.264 359.803 49.72H359.683V43.864C359.683 42.936 359.467 42.256 359.035 41.824C358.619 41.376 357.939 41.152 356.995 41.152C356.067 41.152 355.323 41.344 354.763 41.728C354.219 42.096 353.915 42.624 353.851 43.312H352.003C352.083 42.128 352.579 41.2 353.491 40.528C354.403 39.856 355.595 39.52 357.067 39.52C358.587 39.52 359.715 39.88 360.451 40.6C361.187 41.32 361.555 42.4 361.555 43.84V49.72C361.555 50.072 361.579 50.44 361.627 50.824C361.675 51.192 361.739 51.584 361.819 52H359.971ZM355.771 52.24C354.507 52.24 353.499 51.936 352.747 51.328C352.011 50.704 351.643 49.856 351.643 48.784C351.643 47.712 352.011 46.88 352.747 46.288C353.483 45.696 354.555 45.28 355.963 45.04L360.235 44.32V45.904L356.251 46.528C355.355 46.672 354.675 46.912 354.211 47.248C353.747 47.584 353.515 48.072 353.515 48.712C353.515 49.336 353.723 49.808 354.139 50.128C354.571 50.448 355.203 50.608 356.035 50.608C357.107 50.608 357.979 50.368 358.651 49.888C359.339 49.392 359.683 48.752 359.683 47.968L359.995 49.672C359.739 50.488 359.235 51.12 358.483 51.568C357.747 52.016 356.843 52.24 355.771 52.24ZM365.256 52V34.72H367.176V52H365.256ZM384.73 52V49.144L384.97 49.216C384.666 50.144 384.106 50.88 383.29 51.424C382.49 51.968 381.53 52.24 380.41 52.24C379.306 52.24 378.338 51.976 377.506 51.448C376.69 50.92 376.05 50.184 375.586 49.24C375.138 48.296 374.914 47.192 374.914 45.928C374.914 44.648 375.146 43.528 375.61 42.568C376.074 41.608 376.722 40.864 377.554 40.336C378.386 39.808 379.362 39.544 380.482 39.544C381.634 39.544 382.602 39.824 383.386 40.384C384.17 40.944 384.706 41.736 384.994 42.76L384.61 42.808V34.72H386.53V52H384.73ZM380.77 50.56C382.002 50.56 382.962 50.144 383.65 49.312C384.354 48.464 384.706 47.312 384.706 45.856C384.706 44.432 384.354 43.304 383.65 42.472C382.946 41.64 381.986 41.224 380.77 41.224C379.554 41.224 378.602 41.64 377.914 42.472C377.226 43.304 376.882 44.456 376.882 45.928C376.882 47.368 377.226 48.504 377.914 49.336C378.602 50.152 379.554 50.56 380.77 50.56ZM390.381 52V39.76H392.301V52H390.381ZM391.245 38.008H389.421L392.133 34.24H395.085L391.245 38.008ZM403.659 52C403.595 51.728 403.547 51.416 403.515 51.064C403.499 50.712 403.491 50.264 403.491 49.72H403.371V43.864C403.371 42.936 403.155 42.256 402.723 41.824C402.307 41.376 401.627 41.152 400.683 41.152C399.755 41.152 399.011 41.344 398.451 41.728C397.907 42.096 397.603 42.624 397.539 43.312H395.691C395.771 42.128 396.267 41.2 397.179 40.528C398.091 39.856 399.283 39.52 400.755 39.52C402.275 39.52 403.403 39.88 404.139 40.6C404.875 41.32 405.243 42.4 405.243 43.84V49.72C405.243 50.072 405.267 50.44 405.315 50.824C405.363 51.192 405.427 51.584 405.507 52H403.659ZM399.459 52.24C398.195 52.24 397.187 51.936 396.435 51.328C395.699 50.704 395.331 49.856 395.331 48.784C395.331 47.712 395.699 46.88 396.435 46.288C397.171 45.696 398.243 45.28 399.651 45.04L403.923 44.32V45.904L399.939 46.528C399.043 46.672 398.363 46.912 397.899 47.248C397.435 47.584 397.203 48.072 397.203 48.712C397.203 49.336 397.411 49.808 397.827 50.128C398.259 50.448 398.891 50.608 399.723 50.608C400.795 50.608 401.667 50.368 402.339 49.888C403.027 49.392 403.371 48.752 403.371 47.968L403.683 49.672C403.427 50.488 402.923 51.12 402.171 51.568C401.435 52.016 400.531 52.24 399.459 52.24ZM407.98 52V49.528H410.452V52H407.98Z" fill="#2B4F6C"/>
</svg>
