<svg width="946" height="465" viewBox="0 0 946 465" fill="none" xmlns="http://www.w3.org/2000/svg">
<path d="M554.581 162.55C554.581 152.708 556.597 143.992 560.629 136.402C564.78 128.813 570.353 122.943 577.35 118.792C584.465 114.523 592.291 112.389 600.83 112.389C608.538 112.389 615.238 113.93 620.93 117.014C626.74 119.978 631.365 123.714 634.804 128.22V113.99H655.26V212H634.804V197.414C631.365 202.039 626.681 205.893 620.752 208.976C614.823 212.059 608.063 213.601 600.474 213.601C592.054 213.601 584.346 211.466 577.35 207.197C570.353 202.81 564.78 196.762 560.629 189.054C556.597 181.227 554.581 172.393 554.581 162.55ZM634.804 162.906C634.804 156.147 633.381 150.277 630.535 145.296C627.808 140.315 624.191 136.521 619.685 133.912C615.178 131.303 610.316 129.999 605.099 129.999C599.881 129.999 595.019 131.303 590.513 133.912C586.006 136.402 582.33 140.138 579.484 145.118C576.757 149.98 575.393 155.791 575.393 162.55C575.393 169.309 576.757 175.239 579.484 180.338C582.33 185.437 586.006 189.35 590.513 192.078C595.137 194.687 599.999 195.991 605.099 195.991C610.316 195.991 615.178 194.687 619.685 192.078C624.191 189.469 627.808 185.674 630.535 180.694C633.381 175.594 634.804 169.665 634.804 162.906ZM720.672 163.084L765.852 212H738.459L702.172 169.843V212H681.894V80.3708H702.172V156.858L737.748 113.99H765.852L720.672 163.084ZM870.215 160.593C870.215 164.27 869.978 167.59 869.503 170.555H794.617C795.21 178.381 798.115 184.666 803.333 189.41C808.551 194.153 814.954 196.525 822.544 196.525C833.454 196.525 841.162 191.959 845.668 182.828H867.547C864.582 191.841 859.187 199.252 851.36 205.063C843.652 210.755 834.047 213.601 822.544 213.601C813.176 213.601 804.756 211.526 797.285 207.375C789.933 203.106 784.122 197.177 779.853 189.587C775.703 181.879 773.628 172.986 773.628 162.906C773.628 152.826 775.644 143.992 779.675 136.402C783.826 128.694 789.577 122.765 796.93 118.614C804.4 114.464 812.938 112.389 822.544 112.389C831.793 112.389 840.035 114.405 847.269 118.437C854.502 122.468 860.135 128.161 864.167 135.513C868.199 142.746 870.215 151.107 870.215 160.593ZM849.048 154.19C848.929 146.719 846.261 140.73 841.043 136.224C835.825 131.718 829.362 129.465 821.654 129.465C814.658 129.465 808.669 131.718 803.689 136.224C798.708 140.612 795.744 146.6 794.795 154.19H849.048ZM910.449 128.22C913.413 123.239 917.327 119.385 922.188 116.658C927.169 113.812 933.039 112.389 939.798 112.389V133.378H934.64C926.695 133.378 920.647 135.394 916.496 139.426C912.465 143.458 910.449 150.454 910.449 160.416V212H890.171V113.99H910.449V128.22Z" fill="#0F172A"/>
<path d="M420.693 69.459L420.688 69.4512V127.474L420.693 127.481V214.51H391.682V69.4502H420.693V69.459ZM536.735 214.51H507.724V127.52L507.729 127.51V138.355L536.735 105.386V214.51ZM464.209 141.979L507.724 69.6621V127.52L471.459 189.126H456.953L420.693 127.481V69.459L464.209 141.979ZM507.751 127.474L507.729 127.51V127.476L507.75 127.45L507.751 127.474ZM536.735 94.5068L507.75 127.45L507.749 69.6201L507.724 69.6621V69.4502H536.735V94.5068ZM536.741 105.38L536.735 105.386V94.5068L536.741 94.501V105.38Z" fill="url(#paint0_linear_130_166)"/>
<path d="M406.187 69.4515C406.187 69.4515 403.439 51.4312 406.187 40.4396C417.179 -3.52674 511.243 -3.52674 522.235 40.4396C524.983 51.4312 522.235 69.4515 522.235 69.4515" stroke="#F5F5F5" stroke-width="14.506" stroke-linecap="round"/>
<path d="M406.187 69.4515C406.187 69.4515 403.439 51.4312 406.187 40.4396C417.179 -3.52674 511.243 -3.52674 522.235 40.4396C524.983 51.4312 522.235 69.4515 522.235 69.4515" stroke="url(#paint1_linear_130_166)" stroke-width="7.25299" stroke-linecap="round"/>
<path d="M279.987 346.733C296.336 337.836 317.483 337.162 330.894 349.897L331.525 350.514L356.111 375.099L356.729 375.732C369.482 389.152 369.37 410.576 354.348 421.565L353.124 422.454C327.362 441.031 297.802 453.96 266.38 460.21C223.212 468.797 178.467 464.391 137.805 447.548L135.903 446.749C123.684 441.555 112.009 435.3 101 428.086V390.606C115.536 402.532 131.821 412.327 149.381 419.601C184.516 434.154 223.179 437.962 260.479 430.542C287.693 425.129 313.289 413.915 335.587 397.802C335.577 397.776 335.57 397.748 335.559 397.72C335.409 397.349 335.149 396.917 334.721 396.489L310.136 371.904C309.665 371.434 308.543 370.569 305.636 370.441C302.495 370.302 298.373 371.167 294.447 373.303C281.269 380.475 267.015 385.662 252.14 388.621C245.467 389.948 238.738 390.811 232 391.219V360.901C236.764 360.539 241.518 359.89 246.237 358.952C257.733 356.665 268.764 352.71 279 347.264L279.987 346.733ZM78 115.626C72.6384 121.779 67.6537 128.288 63.0859 135.124C41.9575 166.745 30.6797 203.923 30.6797 241.954C30.6799 279.983 41.9577 317.159 63.0859 348.78C67.6537 355.616 72.6384 362.125 78 368.278V410.788C63.2505 398.125 50.1475 383.521 39.0869 367.295L37.9336 365.586C13.8632 329.562 0.840436 287.308 0.439453 244.014L0.429688 241.953C0.429708 198.627 13.0766 156.259 36.7959 120.038L37.9346 118.319C49.2342 101.408 62.7341 86.221 78 73.1137V115.626ZM210 123.369C198.823 124.59 187.814 127.391 177.313 131.741C155.516 140.77 136.885 156.061 123.777 175.678C110.67 195.295 103.673 218.359 103.673 241.953C103.673 265.546 110.67 288.61 123.777 308.227C136.68 327.538 154.935 342.656 176.294 351.736L177.313 352.163C187.814 356.513 198.823 359.314 210 360.536V390.929C194.861 389.612 179.929 385.989 165.737 380.111C138.412 368.792 115.057 349.625 98.625 325.034C82.1933 300.442 73.4239 271.529 73.4238 241.953C73.4239 212.376 82.1932 183.463 98.625 158.871C115.057 134.28 138.412 115.112 165.737 103.793C179.929 97.9149 194.861 94.2914 210 92.974V123.369ZM137.805 36.3568C177.832 19.777 221.814 15.2475 264.354 23.3002L266.38 23.6938C298.301 30.0433 328.299 43.2874 354.348 62.3412C369.609 73.5048 369.482 95.4356 356.111 108.806L331.526 133.391L330.894 134.007C317.483 146.742 296.336 146.07 279.987 137.172L279 136.64C268.764 131.194 257.733 127.24 246.237 124.954L245.152 124.743C240.79 123.917 236.399 123.338 232 123.004V92.685C238.738 93.0928 245.467 93.9574 252.14 95.2846C267.015 98.2435 281.269 103.43 294.447 110.602C298.373 112.738 302.495 113.603 305.636 113.464C308.544 113.336 309.667 112.471 310.137 112.001L334.722 87.4164C335.15 86.9883 335.409 86.5556 335.558 86.185C335.569 86.1567 335.577 86.1279 335.587 86.101C313.289 69.9883 287.692 58.7759 260.478 53.3627C223.178 45.9434 184.516 49.7507 149.381 64.3041C131.821 71.5776 115.536 81.3714 101 93.2973V55.8197C112.009 48.6056 123.684 42.3494 135.903 37.1547L137.805 36.3568Z" fill="url(#paint2_linear_130_166)"/>
<path d="M381.514 351.008C381.514 336.358 384.392 323.365 390.147 312.028C396.077 300.692 404.013 291.971 413.954 285.867C424.07 279.763 435.319 276.71 447.702 276.71C458.515 276.71 467.933 278.891 475.956 283.251C484.153 287.611 490.693 293.105 495.577 299.732V279.065H532.464V423.998H495.577V402.807C490.868 409.609 484.327 415.277 475.956 419.812C467.759 424.172 458.253 426.352 447.44 426.352C435.232 426.352 424.07 423.213 413.954 416.934C404.013 410.656 396.077 401.848 390.147 390.512C384.392 379.001 381.514 365.833 381.514 351.008ZM495.577 351.531C495.577 342.637 493.833 335.05 490.344 328.771C486.856 322.318 482.147 317.435 476.217 314.121C470.288 310.633 463.922 308.889 457.12 308.889C450.318 308.889 444.039 310.546 438.284 313.859C432.528 317.173 427.819 322.056 424.157 328.51C420.669 334.788 418.925 342.288 418.925 351.008C418.925 359.729 420.669 367.402 424.157 374.03C427.819 380.483 432.528 385.454 438.284 388.942C444.214 392.43 450.492 394.174 457.12 394.174C463.922 394.174 470.288 392.517 476.217 389.203C482.147 385.715 486.856 380.832 490.344 374.553C493.833 368.1 495.577 360.426 495.577 351.531ZM623.697 426.352C611.837 426.352 601.198 424.259 591.78 420.074C582.362 415.713 574.863 409.871 569.282 402.546C563.875 395.221 560.91 387.111 560.387 378.216H597.274C597.972 383.797 600.675 388.419 605.384 392.081C610.268 395.744 616.285 397.575 623.435 397.575C630.412 397.575 635.818 396.18 639.655 393.389C643.667 390.599 645.672 387.023 645.672 382.663C645.672 377.954 643.231 374.466 638.347 372.199C633.638 369.757 626.051 367.141 615.587 364.35C604.774 361.734 595.879 359.031 588.903 356.24C582.101 353.45 576.171 349.177 571.113 343.421C566.23 337.666 563.788 329.905 563.788 320.138C563.788 312.115 566.055 304.79 570.59 298.163C575.299 291.535 581.926 286.303 590.472 282.466C599.193 278.629 609.395 276.71 621.081 276.71C638.347 276.71 652.125 281.071 662.415 289.791C672.706 298.337 678.374 309.935 679.42 324.585H644.364C643.841 318.83 641.399 314.295 637.039 310.982C632.853 307.493 627.185 305.749 620.034 305.749C613.407 305.749 608.262 306.97 604.599 309.412C601.111 311.854 599.367 315.255 599.367 319.615C599.367 324.498 601.809 328.248 606.692 330.864C611.576 333.306 619.162 335.835 629.452 338.451C639.917 341.067 648.55 343.77 655.352 346.561C662.154 349.351 667.996 353.711 672.88 359.641C677.938 365.397 680.554 373.071 680.728 382.663C680.728 391.035 678.374 398.534 673.665 405.162C669.13 411.789 662.503 417.021 653.782 420.858C645.236 424.521 635.208 426.352 623.697 426.352ZM792.416 276.972C803.404 276.972 813.171 279.414 821.716 284.297C830.262 289.006 836.89 296.07 841.599 305.488C846.482 314.731 848.924 325.893 848.924 338.974V423.998H812.298V343.945C812.298 332.434 809.421 323.626 803.665 317.522C797.91 311.243 790.061 308.104 780.12 308.104C770.005 308.104 761.982 311.243 756.052 317.522C750.297 323.626 747.419 332.434 747.419 343.945V423.998H710.793V230.405H747.419V297.116C752.128 290.837 758.406 285.954 766.255 282.466C774.103 278.803 782.824 276.972 792.416 276.972Z" fill="#10B981"/>
<defs>
<linearGradient id="paint0_linear_130_166" x1="464.21" y1="69.4497" x2="464.21" y2="214.509" gradientUnits="userSpaceOnUse">
<stop stop-color="#334F90"/>
<stop offset="1" stop-color="#0F172A"/>
</linearGradient>
<linearGradient id="paint1_linear_130_166" x1="464.211" y1="7.46484" x2="464.211" y2="69.4515" gradientUnits="userSpaceOnUse">
<stop stop-color="#244287"/>
<stop offset="1" stop-color="#334F90"/>
</linearGradient>
<linearGradient id="paint2_linear_130_166" x1="183.202" y1="19.4172" x2="183.202" y2="464.487" gradientUnits="userSpaceOnUse">
<stop stop-color="#10B981"/>
<stop offset="1" stop-color="#0A6B4B"/>
</linearGradient>
</defs>
</svg>
